%TF.GenerationSoftware,KiCad,Pcbnew,(6.0.9)*%
%TF.CreationDate,2022-12-16T23:57:10-05:00*%
%TF.ProjectId,rp2040 keeb,72703230-3430-4206-9b65-65622e6b6963,rev?*%
%TF.SameCoordinates,Original*%
%TF.FileFunction,Drillmap*%
%TF.FilePolarity,Positive*%
%FSLAX45Y45*%
G04 Gerber Fmt 4.5, Leading zero omitted, Abs format (unit mm)*
G04 Created by KiCad (PCBNEW (6.0.9)) date 2022-12-16 23:57:10*
%MOMM*%
%LPD*%
G01*
G04 APERTURE LIST*
%ADD10C,0.100000*%
%ADD11C,0.200000*%
%ADD12C,0.040000*%
%ADD13C,0.150000*%
G04 APERTURE END LIST*
D10*
X53553250Y-20908375D02*
X53553250Y-9240250D01*
X11168630Y-21384120D02*
X20743375Y-23449375D01*
X5690125Y-9002120D02*
G75*
G03*
X5452000Y-9240250I5J-238130D01*
G01*
X5690125Y-9002125D02*
X53315125Y-9002125D01*
X30931375Y-21146500D02*
X21063375Y-23443375D01*
X5452000Y-9240250D02*
X5453630Y-21145995D01*
X53315125Y-21146500D02*
X30931375Y-21146500D01*
X53315125Y-21146500D02*
G75*
G03*
X53553250Y-20908375I2535J235590D01*
G01*
X20743375Y-23449375D02*
G75*
G03*
X21063375Y-23443375I147125J689655D01*
G01*
X5453630Y-21145995D02*
G75*
G03*
X5691755Y-21384120I236510J-1615D01*
G01*
X53553245Y-9240250D02*
G75*
G03*
X53315125Y-9002125I-238125J0D01*
G01*
X5691755Y-21384120D02*
X11168630Y-21384120D01*
D11*
D12*
X7098000Y-14969000D02*
X7138000Y-15009000D01*
X7138000Y-14969000D02*
X7098000Y-15009000D01*
X8890000Y-15016000D02*
X8930000Y-15056000D01*
X8930000Y-15016000D02*
X8890000Y-15056000D01*
X9253000Y-15173000D02*
X9293000Y-15213000D01*
X9293000Y-15173000D02*
X9253000Y-15213000D01*
X11347000Y-15223000D02*
X11387000Y-15263000D01*
X11387000Y-15223000D02*
X11347000Y-15263000D01*
X13414000Y-15641000D02*
X13454000Y-15681000D01*
X13454000Y-15641000D02*
X13414000Y-15681000D01*
X15268000Y-16116000D02*
X15308000Y-16156000D01*
X15308000Y-16116000D02*
X15268000Y-16156000D01*
X18457000Y-16650000D02*
X18497000Y-16690000D01*
X18497000Y-16650000D02*
X18457000Y-16690000D01*
X18513000Y-18898000D02*
X18553000Y-18938000D01*
X18553000Y-18898000D02*
X18513000Y-18938000D01*
X18606000Y-16498000D02*
X18646000Y-16538000D01*
X18646000Y-16498000D02*
X18606000Y-16538000D01*
X18679000Y-16381000D02*
X18719000Y-16421000D01*
X18719000Y-16381000D02*
X18679000Y-16421000D01*
X18753000Y-16290000D02*
X18793000Y-16330000D01*
X18793000Y-16290000D02*
X18753000Y-16330000D01*
X18842550Y-16194000D02*
X18882550Y-16234000D01*
X18882550Y-16194000D02*
X18842550Y-16234000D01*
X18910000Y-16091000D02*
X18950000Y-16131000D01*
X18950000Y-16091000D02*
X18910000Y-16131000D01*
X19134000Y-17689000D02*
X19174000Y-17729000D01*
X19174000Y-17689000D02*
X19134000Y-17729000D01*
X19295000Y-16804000D02*
X19335000Y-16844000D01*
X19335000Y-16804000D02*
X19295000Y-16844000D01*
X19307000Y-15482000D02*
X19347000Y-15522000D01*
X19347000Y-15482000D02*
X19307000Y-15522000D01*
X19442000Y-16099000D02*
X19482000Y-16139000D01*
X19482000Y-16099000D02*
X19442000Y-16139000D01*
X19504000Y-16792000D02*
X19544000Y-16832000D01*
X19544000Y-16792000D02*
X19504000Y-16832000D01*
X19716000Y-12285000D02*
X19756000Y-12325000D01*
X19756000Y-12285000D02*
X19716000Y-12325000D01*
X19787000Y-17100000D02*
X19827000Y-17140000D01*
X19827000Y-17100000D02*
X19787000Y-17140000D01*
X19791000Y-17317000D02*
X19831000Y-17357000D01*
X19831000Y-17317000D02*
X19791000Y-17357000D01*
X19826000Y-17712000D02*
X19866000Y-17752000D01*
X19866000Y-17712000D02*
X19826000Y-17752000D01*
X19872000Y-20941000D02*
X19912000Y-20981000D01*
X19912000Y-20941000D02*
X19872000Y-20981000D01*
X19872783Y-17457829D02*
X19912783Y-17497829D01*
X19912783Y-17457829D02*
X19872783Y-17497829D01*
X19884000Y-18057000D02*
X19924000Y-18097000D01*
X19924000Y-18057000D02*
X19884000Y-18097000D01*
X20008000Y-17316000D02*
X20048000Y-17356000D01*
X20048000Y-17316000D02*
X20008000Y-17356000D01*
X20009000Y-17097000D02*
X20049000Y-17137000D01*
X20049000Y-17097000D02*
X20009000Y-17137000D01*
X20079000Y-16070000D02*
X20119000Y-16110000D01*
X20119000Y-16070000D02*
X20079000Y-16110000D01*
X20089550Y-17451000D02*
X20129550Y-17491000D01*
X20129550Y-17451000D02*
X20089550Y-17491000D01*
X20104000Y-16984000D02*
X20144000Y-17024000D01*
X20144000Y-16984000D02*
X20104000Y-17024000D01*
X20151000Y-15227000D02*
X20191000Y-15267000D01*
X20191000Y-15227000D02*
X20151000Y-15267000D01*
X20154000Y-15480000D02*
X20194000Y-15520000D01*
X20194000Y-15480000D02*
X20154000Y-15520000D01*
X20185050Y-10495000D02*
X20225050Y-10535000D01*
X20225050Y-10495000D02*
X20185050Y-10535000D01*
X20189000Y-18066000D02*
X20229000Y-18106000D01*
X20229000Y-18066000D02*
X20189000Y-18106000D01*
X20271000Y-12873000D02*
X20311000Y-12913000D01*
X20311000Y-12873000D02*
X20271000Y-12913000D01*
X20396625Y-16797625D02*
X20436625Y-16837625D01*
X20436625Y-16797625D02*
X20396625Y-16837625D01*
X20397000Y-18067000D02*
X20437000Y-18107000D01*
X20437000Y-18067000D02*
X20397000Y-18107000D01*
X20484000Y-18993000D02*
X20524000Y-19033000D01*
X20524000Y-18993000D02*
X20484000Y-19033000D01*
X20485000Y-17792000D02*
X20525000Y-17832000D01*
X20525000Y-17792000D02*
X20485000Y-17832000D01*
X20624000Y-17780000D02*
X20664000Y-17820000D01*
X20664000Y-17780000D02*
X20624000Y-17820000D01*
X20643000Y-18975000D02*
X20683000Y-19015000D01*
X20683000Y-18975000D02*
X20643000Y-19015000D01*
X20688000Y-11812000D02*
X20728000Y-11852000D01*
X20728000Y-11812000D02*
X20688000Y-11852000D01*
X20773000Y-17777000D02*
X20813000Y-17817000D01*
X20813000Y-17777000D02*
X20773000Y-17817000D01*
X20784000Y-15134000D02*
X20824000Y-15174000D01*
X20824000Y-15134000D02*
X20784000Y-15174000D01*
X20893000Y-17769000D02*
X20933000Y-17809000D01*
X20933000Y-17769000D02*
X20893000Y-17809000D01*
X20993000Y-17760000D02*
X21033000Y-17800000D01*
X21033000Y-17760000D02*
X20993000Y-17800000D01*
X21071000Y-19851550D02*
X21111000Y-19891550D01*
X21111000Y-19851550D02*
X21071000Y-19891550D01*
X21087706Y-17728051D02*
X21127706Y-17768051D01*
X21127706Y-17728051D02*
X21087706Y-17768051D01*
X21166862Y-17667023D02*
X21206862Y-17707023D01*
X21206862Y-17667023D02*
X21166862Y-17707023D01*
X21170000Y-16295000D02*
X21210000Y-16335000D01*
X21210000Y-16295000D02*
X21170000Y-16335000D01*
X21231000Y-19847000D02*
X21271000Y-19887000D01*
X21271000Y-19847000D02*
X21231000Y-19887000D01*
X21253147Y-17616575D02*
X21293147Y-17656575D01*
X21293147Y-17616575D02*
X21253147Y-17656575D01*
X21352000Y-17560000D02*
X21392000Y-17600000D01*
X21392000Y-17560000D02*
X21352000Y-17600000D01*
X21436000Y-17504000D02*
X21476000Y-17544000D01*
X21476000Y-17504000D02*
X21436000Y-17544000D01*
X21484000Y-10495000D02*
X21524000Y-10535000D01*
X21524000Y-10495000D02*
X21484000Y-10535000D01*
X21519500Y-17449066D02*
X21559500Y-17489066D01*
X21559500Y-17449066D02*
X21519500Y-17489066D01*
X21566000Y-12870000D02*
X21606000Y-12910000D01*
X21606000Y-12870000D02*
X21566000Y-12910000D01*
X21571034Y-16972894D02*
X21611034Y-17012894D01*
X21611034Y-16972894D02*
X21571034Y-17012894D01*
X21620000Y-17457000D02*
X21660000Y-17497000D01*
X21660000Y-17457000D02*
X21620000Y-17497000D01*
X21661000Y-17190000D02*
X21701000Y-17230000D01*
X21701000Y-17190000D02*
X21661000Y-17230000D01*
X21709171Y-17411850D02*
X21749171Y-17451850D01*
X21749171Y-17411850D02*
X21709171Y-17451850D01*
X21788000Y-20733000D02*
X21828000Y-20773000D01*
X21828000Y-20733000D02*
X21788000Y-20773000D01*
X21803000Y-16269000D02*
X21843000Y-16309000D01*
X21843000Y-16269000D02*
X21803000Y-16309000D01*
X21896000Y-20624000D02*
X21936000Y-20664000D01*
X21936000Y-20624000D02*
X21896000Y-20664000D01*
X21985000Y-17007000D02*
X22025000Y-17047000D01*
X22025000Y-17007000D02*
X21985000Y-17047000D01*
X23315000Y-20439000D02*
X23355000Y-20479000D01*
X23355000Y-20439000D02*
X23315000Y-20479000D01*
X24124000Y-20977000D02*
X24164000Y-21017000D01*
X24164000Y-20977000D02*
X24124000Y-21017000D01*
X28750000Y-17488000D02*
X28790000Y-17528000D01*
X28790000Y-17488000D02*
X28750000Y-17528000D01*
X31189000Y-17147000D02*
X31229000Y-17187000D01*
X31229000Y-17147000D02*
X31189000Y-17187000D01*
X31707000Y-17021000D02*
X31747000Y-17061000D01*
X31747000Y-17021000D02*
X31707000Y-17061000D01*
X34392000Y-16921000D02*
X34432000Y-16961000D01*
X34432000Y-16921000D02*
X34392000Y-16961000D01*
X36998000Y-16679000D02*
X37038000Y-16719000D01*
X37038000Y-16679000D02*
X36998000Y-16719000D01*
X39343000Y-16601000D02*
X39383000Y-16641000D01*
X39383000Y-16601000D02*
X39343000Y-16641000D01*
X41251000Y-16522000D02*
X41291000Y-16562000D01*
X41291000Y-16522000D02*
X41251000Y-16562000D01*
X43135000Y-16470000D02*
X43175000Y-16510000D01*
X43175000Y-16470000D02*
X43135000Y-16510000D01*
X45441000Y-16395000D02*
X45481000Y-16435000D01*
X45481000Y-16395000D02*
X45441000Y-16435000D01*
X47530000Y-16451000D02*
X47570000Y-16491000D01*
X47570000Y-16451000D02*
X47530000Y-16491000D01*
X49422000Y-16532000D02*
X49462000Y-16572000D01*
X49462000Y-16532000D02*
X49422000Y-16572000D01*
X51276000Y-15872000D02*
X51316000Y-15912000D01*
X51316000Y-15872000D02*
X51276000Y-15912000D01*
D13*
X6562382Y-20066750D02*
G75*
G03*
X6562382Y-20066750I-75000J0D01*
G01*
X7197382Y-19812750D02*
G75*
G03*
X7197382Y-19812750I-75000J0D01*
G01*
X7276757Y-16256750D02*
G75*
G03*
X7276757Y-16256750I-75000J0D01*
G01*
X7514882Y-14352125D02*
G75*
G03*
X7514882Y-14352125I-75000J0D01*
G01*
X7514882Y-18161750D02*
G75*
G03*
X7514882Y-18161750I-75000J0D01*
G01*
X7594257Y-10082250D02*
G75*
G03*
X7594257Y-10082250I-75000J0D01*
G01*
X7594257Y-12446750D02*
G75*
G03*
X7594257Y-12446750I-75000J0D01*
G01*
X7911757Y-16002750D02*
G75*
G03*
X7911757Y-16002750I-75000J0D01*
G01*
X8149882Y-14098125D02*
G75*
G03*
X8149882Y-14098125I-75000J0D01*
G01*
X8149882Y-17907750D02*
G75*
G03*
X8149882Y-17907750I-75000J0D01*
G01*
X8229257Y-9828250D02*
G75*
G03*
X8229257Y-9828250I-75000J0D01*
G01*
X8229257Y-12192750D02*
G75*
G03*
X8229257Y-12192750I-75000J0D01*
G01*
X8943632Y-20066750D02*
G75*
G03*
X8943632Y-20066750I-75000J0D01*
G01*
X9499257Y-12446750D02*
G75*
G03*
X9499257Y-12446750I-75000J0D01*
G01*
X9578632Y-19812750D02*
G75*
G03*
X9578632Y-19812750I-75000J0D01*
G01*
X9896132Y-14351750D02*
G75*
G03*
X9896132Y-14351750I-75000J0D01*
G01*
X9896132Y-16256750D02*
G75*
G03*
X9896132Y-16256750I-75000J0D01*
G01*
X10134257Y-12192750D02*
G75*
G03*
X10134257Y-12192750I-75000J0D01*
G01*
X10531132Y-14097750D02*
G75*
G03*
X10531132Y-14097750I-75000J0D01*
G01*
X10531132Y-16002750D02*
G75*
G03*
X10531132Y-16002750I-75000J0D01*
G01*
X10610507Y-18161750D02*
G75*
G03*
X10610507Y-18161750I-75000J0D01*
G01*
X11245507Y-17907750D02*
G75*
G03*
X11245507Y-17907750I-75000J0D01*
G01*
X11404257Y-12208625D02*
G75*
G03*
X11404257Y-12208625I-75000J0D01*
G01*
X12039257Y-11954625D02*
G75*
G03*
X12039257Y-11954625I-75000J0D01*
G01*
X12147852Y-14282742D02*
G75*
G03*
X12147852Y-14282742I-75000J0D01*
G01*
X12241647Y-9961205D02*
G75*
G03*
X12241647Y-9961205I-75000J0D01*
G01*
X12282028Y-16255389D02*
G75*
G03*
X12282028Y-16255389I-75000J0D01*
G01*
X12651617Y-20239091D02*
G75*
G03*
X12651617Y-20239091I-75000J0D01*
G01*
X12814767Y-18326211D02*
G75*
G03*
X12814767Y-18326211I-75000J0D01*
G01*
X12821785Y-14166316D02*
G75*
G03*
X12821785Y-14166316I-75000J0D01*
G01*
X12915580Y-9844779D02*
G75*
G03*
X12915580Y-9844779I-75000J0D01*
G01*
X12955961Y-16138964D02*
G75*
G03*
X12955961Y-16138964I-75000J0D01*
G01*
X13325550Y-20122666D02*
G75*
G03*
X13325550Y-20122666I-75000J0D01*
G01*
X13488701Y-18209786D02*
G75*
G03*
X13488701Y-18209786I-75000J0D01*
G01*
X13525771Y-12618514D02*
G75*
G03*
X13525771Y-12618514I-75000J0D01*
G01*
X14011223Y-14678814D02*
G75*
G03*
X14011223Y-14678814I-75000J0D01*
G01*
X14102400Y-10359443D02*
G75*
G03*
X14102400Y-10359443I-75000J0D01*
G01*
X14145399Y-16651461D02*
G75*
G03*
X14145399Y-16651461I-75000J0D01*
G01*
X14199705Y-12502089D02*
G75*
G03*
X14199705Y-12502089I-75000J0D01*
G01*
X14678138Y-18722283D02*
G75*
G03*
X14678138Y-18722283I-75000J0D01*
G01*
X14685156Y-14562388D02*
G75*
G03*
X14685156Y-14562388I-75000J0D01*
G01*
X14776333Y-10243017D02*
G75*
G03*
X14776333Y-10243017I-75000J0D01*
G01*
X14819332Y-16535035D02*
G75*
G03*
X14819332Y-16535035I-75000J0D01*
G01*
X15352071Y-18605857D02*
G75*
G03*
X15352071Y-18605857I-75000J0D01*
G01*
X15389142Y-13014586D02*
G75*
G03*
X15389142Y-13014586I-75000J0D01*
G01*
X15874594Y-15074886D02*
G75*
G03*
X15874594Y-15074886I-75000J0D01*
G01*
X15912516Y-20932217D02*
G75*
G03*
X15912516Y-20932217I-75000J0D01*
G01*
X15965771Y-10755514D02*
G75*
G03*
X15965771Y-10755514I-75000J0D01*
G01*
X16008770Y-17047533D02*
G75*
G03*
X16008770Y-17047533I-75000J0D01*
G01*
X16063076Y-12898160D02*
G75*
G03*
X16063076Y-12898160I-75000J0D01*
G01*
X16541509Y-19118355D02*
G75*
G03*
X16541509Y-19118355I-75000J0D01*
G01*
X16548527Y-14958460D02*
G75*
G03*
X16548527Y-14958460I-75000J0D01*
G01*
X16586450Y-20815791D02*
G75*
G03*
X16586450Y-20815791I-75000J0D01*
G01*
X16639705Y-10639089D02*
G75*
G03*
X16639705Y-10639089I-75000J0D01*
G01*
X16682704Y-16931108D02*
G75*
G03*
X16682704Y-16931108I-75000J0D01*
G01*
X17215443Y-19001929D02*
G75*
G03*
X17215443Y-19001929I-75000J0D01*
G01*
X17252514Y-13410658D02*
G75*
G03*
X17252514Y-13410658I-75000J0D01*
G01*
X17737965Y-15470957D02*
G75*
G03*
X17737965Y-15470957I-75000J0D01*
G01*
X17829142Y-11151586D02*
G75*
G03*
X17829142Y-11151586I-75000J0D01*
G01*
X17872142Y-17443605D02*
G75*
G03*
X17872142Y-17443605I-75000J0D01*
G01*
X17926447Y-13294232D02*
G75*
G03*
X17926447Y-13294232I-75000J0D01*
G01*
X18404881Y-19514426D02*
G75*
G03*
X18404881Y-19514426I-75000J0D01*
G01*
X18411898Y-15354532D02*
G75*
G03*
X18411898Y-15354532I-75000J0D01*
G01*
X18503076Y-11035161D02*
G75*
G03*
X18503076Y-11035161I-75000J0D01*
G01*
X18546075Y-17327179D02*
G75*
G03*
X18546075Y-17327179I-75000J0D01*
G01*
X18940495Y-21575834D02*
G75*
G03*
X18940495Y-21575834I-75000J0D01*
G01*
X19078814Y-19398001D02*
G75*
G03*
X19078814Y-19398001I-75000J0D01*
G01*
X19115885Y-13806730D02*
G75*
G03*
X19115885Y-13806730I-75000J0D01*
G01*
X19614428Y-21459408D02*
G75*
G03*
X19614428Y-21459408I-75000J0D01*
G01*
X19789818Y-13690304D02*
G75*
G03*
X19789818Y-13690304I-75000J0D01*
G01*
X22020856Y-21434864D02*
G75*
G03*
X22020856Y-21434864I-75000J0D01*
G01*
X22230169Y-15547697D02*
G75*
G03*
X22230169Y-15547697I-75000J0D01*
G01*
X22299955Y-11294741D02*
G75*
G03*
X22299955Y-11294741I-75000J0D01*
G01*
X22556470Y-19373457D02*
G75*
G03*
X22556470Y-19373457I-75000J0D01*
G01*
X22589170Y-21054391D02*
G75*
G03*
X22589170Y-21054391I-75000J0D01*
G01*
X22765783Y-13486290D02*
G75*
G03*
X22765783Y-13486290I-75000J0D01*
G01*
X22798484Y-15167223D02*
G75*
G03*
X22798484Y-15167223I-75000J0D01*
G01*
X22868269Y-10914267D02*
G75*
G03*
X22868269Y-10914267I-75000J0D01*
G01*
X23092084Y-17312050D02*
G75*
G03*
X23092084Y-17312050I-75000J0D01*
G01*
X23124784Y-18992984D02*
G75*
G03*
X23124784Y-18992984I-75000J0D01*
G01*
X23334097Y-13105816D02*
G75*
G03*
X23334097Y-13105816I-75000J0D01*
G01*
X23660398Y-16931577D02*
G75*
G03*
X23660398Y-16931577I-75000J0D01*
G01*
X24093540Y-15151625D02*
G75*
G03*
X24093540Y-15151625I-75000J0D01*
G01*
X24163326Y-10898669D02*
G75*
G03*
X24163326Y-10898669I-75000J0D01*
G01*
X24419841Y-18977385D02*
G75*
G03*
X24419841Y-18977385I-75000J0D01*
G01*
X24629154Y-13090218D02*
G75*
G03*
X24629154Y-13090218I-75000J0D01*
G01*
X24661855Y-14771152D02*
G75*
G03*
X24661855Y-14771152I-75000J0D01*
G01*
X24731640Y-10518195D02*
G75*
G03*
X24731640Y-10518195I-75000J0D01*
G01*
X24955455Y-16915978D02*
G75*
G03*
X24955455Y-16915978I-75000J0D01*
G01*
X24988155Y-18596912D02*
G75*
G03*
X24988155Y-18596912I-75000J0D01*
G01*
X25040516Y-20796765D02*
G75*
G03*
X25040516Y-20796765I-75000J0D01*
G01*
X25197469Y-12709745D02*
G75*
G03*
X25197469Y-12709745I-75000J0D01*
G01*
X25523769Y-16535505D02*
G75*
G03*
X25523769Y-16535505I-75000J0D01*
G01*
X25608830Y-20416292D02*
G75*
G03*
X25608830Y-20416292I-75000J0D01*
G01*
X25956912Y-14755553D02*
G75*
G03*
X25956912Y-14755553I-75000J0D01*
G01*
X26026697Y-10502597D02*
G75*
G03*
X26026697Y-10502597I-75000J0D01*
G01*
X26283212Y-18581314D02*
G75*
G03*
X26283212Y-18581314I-75000J0D01*
G01*
X26492525Y-12694146D02*
G75*
G03*
X26492525Y-12694146I-75000J0D01*
G01*
X26525226Y-14375080D02*
G75*
G03*
X26525226Y-14375080I-75000J0D01*
G01*
X26595012Y-10122124D02*
G75*
G03*
X26595012Y-10122124I-75000J0D01*
G01*
X26818826Y-16519906D02*
G75*
G03*
X26818826Y-16519906I-75000J0D01*
G01*
X26851527Y-18200840D02*
G75*
G03*
X26851527Y-18200840I-75000J0D01*
G01*
X27060840Y-12313673D02*
G75*
G03*
X27060840Y-12313673I-75000J0D01*
G01*
X27387140Y-16139433D02*
G75*
G03*
X27387140Y-16139433I-75000J0D01*
G01*
X27820283Y-14359481D02*
G75*
G03*
X27820283Y-14359481I-75000J0D01*
G01*
X27890069Y-10106525D02*
G75*
G03*
X27890069Y-10106525I-75000J0D01*
G01*
X28146583Y-18185242D02*
G75*
G03*
X28146583Y-18185242I-75000J0D01*
G01*
X28310516Y-20095765D02*
G75*
G03*
X28310516Y-20095765I-75000J0D01*
G01*
X28355897Y-12298074D02*
G75*
G03*
X28355897Y-12298074I-75000J0D01*
G01*
X28388597Y-13979008D02*
G75*
G03*
X28388597Y-13979008I-75000J0D01*
G01*
X28458383Y-9726052D02*
G75*
G03*
X28458383Y-9726052I-75000J0D01*
G01*
X28682197Y-16123835D02*
G75*
G03*
X28682197Y-16123835I-75000J0D01*
G01*
X28714898Y-17804768D02*
G75*
G03*
X28714898Y-17804768I-75000J0D01*
G01*
X28878830Y-19715292D02*
G75*
G03*
X28878830Y-19715292I-75000J0D01*
G01*
X28924211Y-11917601D02*
G75*
G03*
X28924211Y-11917601I-75000J0D01*
G01*
X29250512Y-15743361D02*
G75*
G03*
X29250512Y-15743361I-75000J0D01*
G01*
X30149125Y-13986875D02*
G75*
G03*
X30149125Y-13986875I-75000J0D01*
G01*
X30625375Y-12081875D02*
G75*
G03*
X30625375Y-12081875I-75000J0D01*
G01*
X30625375Y-17796875D02*
G75*
G03*
X30625375Y-17796875I-75000J0D01*
G01*
X30784125Y-13732875D02*
G75*
G03*
X30784125Y-13732875I-75000J0D01*
G01*
X31101625Y-15891875D02*
G75*
G03*
X31101625Y-15891875I-75000J0D01*
G01*
X31260375Y-11827875D02*
G75*
G03*
X31260375Y-11827875I-75000J0D01*
G01*
X31260375Y-17542875D02*
G75*
G03*
X31260375Y-17542875I-75000J0D01*
G01*
X31577875Y-9841365D02*
G75*
G03*
X31577875Y-9841365I-75000J0D01*
G01*
X31736625Y-15637875D02*
G75*
G03*
X31736625Y-15637875I-75000J0D01*
G01*
X32054125Y-13986875D02*
G75*
G03*
X32054125Y-13986875I-75000J0D01*
G01*
X32212875Y-9587365D02*
G75*
G03*
X32212875Y-9587365I-75000J0D01*
G01*
X32530375Y-12081875D02*
G75*
G03*
X32530375Y-12081875I-75000J0D01*
G01*
X32530375Y-17796875D02*
G75*
G03*
X32530375Y-17796875I-75000J0D01*
G01*
X32689125Y-13732875D02*
G75*
G03*
X32689125Y-13732875I-75000J0D01*
G01*
X32768500Y-19701875D02*
G75*
G03*
X32768500Y-19701875I-75000J0D01*
G01*
X33006625Y-15891875D02*
G75*
G03*
X33006625Y-15891875I-75000J0D01*
G01*
X33165375Y-11827875D02*
G75*
G03*
X33165375Y-11827875I-75000J0D01*
G01*
X33165375Y-17542875D02*
G75*
G03*
X33165375Y-17542875I-75000J0D01*
G01*
X33403500Y-19447875D02*
G75*
G03*
X33403500Y-19447875I-75000J0D01*
G01*
X33482875Y-9841365D02*
G75*
G03*
X33482875Y-9841365I-75000J0D01*
G01*
X33641625Y-15637875D02*
G75*
G03*
X33641625Y-15637875I-75000J0D01*
G01*
X33959125Y-13986875D02*
G75*
G03*
X33959125Y-13986875I-75000J0D01*
G01*
X34117875Y-9587365D02*
G75*
G03*
X34117875Y-9587365I-75000J0D01*
G01*
X34594125Y-13732875D02*
G75*
G03*
X34594125Y-13732875I-75000J0D01*
G01*
X35149750Y-19701875D02*
G75*
G03*
X35149750Y-19701875I-75000J0D01*
G01*
X35387875Y-9841365D02*
G75*
G03*
X35387875Y-9841365I-75000J0D01*
G01*
X35387875Y-12081875D02*
G75*
G03*
X35387875Y-12081875I-75000J0D01*
G01*
X35784750Y-19447875D02*
G75*
G03*
X35784750Y-19447875I-75000J0D01*
G01*
X36022875Y-9587365D02*
G75*
G03*
X36022875Y-9587365I-75000J0D01*
G01*
X36022875Y-11827875D02*
G75*
G03*
X36022875Y-11827875I-75000J0D01*
G01*
X36102250Y-15891875D02*
G75*
G03*
X36102250Y-15891875I-75000J0D01*
G01*
X36102250Y-17796875D02*
G75*
G03*
X36102250Y-17796875I-75000J0D01*
G01*
X36340375Y-13986875D02*
G75*
G03*
X36340375Y-13986875I-75000J0D01*
G01*
X36737250Y-15637875D02*
G75*
G03*
X36737250Y-15637875I-75000J0D01*
G01*
X36737250Y-17542875D02*
G75*
G03*
X36737250Y-17542875I-75000J0D01*
G01*
X36975375Y-13732875D02*
G75*
G03*
X36975375Y-13732875I-75000J0D01*
G01*
X37292875Y-9841365D02*
G75*
G03*
X37292875Y-9841365I-75000J0D01*
G01*
X37531000Y-19701875D02*
G75*
G03*
X37531000Y-19701875I-75000J0D01*
G01*
X37927875Y-9587365D02*
G75*
G03*
X37927875Y-9587365I-75000J0D01*
G01*
X38166000Y-19447875D02*
G75*
G03*
X38166000Y-19447875I-75000J0D01*
G01*
X40150375Y-9841365D02*
G75*
G03*
X40150375Y-9841365I-75000J0D01*
G01*
X40150375Y-12081875D02*
G75*
G03*
X40150375Y-12081875I-75000J0D01*
G01*
X40150375Y-13986875D02*
G75*
G03*
X40150375Y-13986875I-75000J0D01*
G01*
X40150375Y-19711875D02*
G75*
G03*
X40150375Y-19711875I-75000J0D01*
G01*
X40785375Y-9587365D02*
G75*
G03*
X40785375Y-9587365I-75000J0D01*
G01*
X40785375Y-11827875D02*
G75*
G03*
X40785375Y-11827875I-75000J0D01*
G01*
X40785375Y-13732875D02*
G75*
G03*
X40785375Y-13732875I-75000J0D01*
G01*
X40785375Y-19457875D02*
G75*
G03*
X40785375Y-19457875I-75000J0D01*
G01*
X42055375Y-9841365D02*
G75*
G03*
X42055375Y-9841365I-75000J0D01*
G01*
X42055375Y-12081875D02*
G75*
G03*
X42055375Y-12081875I-75000J0D01*
G01*
X42055375Y-13986875D02*
G75*
G03*
X42055375Y-13986875I-75000J0D01*
G01*
X42055375Y-17806875D02*
G75*
G03*
X42055375Y-17806875I-75000J0D01*
G01*
X42055375Y-19711875D02*
G75*
G03*
X42055375Y-19711875I-75000J0D01*
G01*
X42690375Y-9587365D02*
G75*
G03*
X42690375Y-9587365I-75000J0D01*
G01*
X42690375Y-11827875D02*
G75*
G03*
X42690375Y-11827875I-75000J0D01*
G01*
X42690375Y-13732875D02*
G75*
G03*
X42690375Y-13732875I-75000J0D01*
G01*
X42690375Y-17552875D02*
G75*
G03*
X42690375Y-17552875I-75000J0D01*
G01*
X42690375Y-19457875D02*
G75*
G03*
X42690375Y-19457875I-75000J0D01*
G01*
X43960375Y-9841365D02*
G75*
G03*
X43960375Y-9841365I-75000J0D01*
G01*
X43960375Y-12081875D02*
G75*
G03*
X43960375Y-12081875I-75000J0D01*
G01*
X43960375Y-13986875D02*
G75*
G03*
X43960375Y-13986875I-75000J0D01*
G01*
X43960375Y-19711875D02*
G75*
G03*
X43960375Y-19711875I-75000J0D01*
G01*
X44595375Y-9587365D02*
G75*
G03*
X44595375Y-9587365I-75000J0D01*
G01*
X44595375Y-11827875D02*
G75*
G03*
X44595375Y-11827875I-75000J0D01*
G01*
X44595375Y-13732875D02*
G75*
G03*
X44595375Y-13732875I-75000J0D01*
G01*
X44595375Y-19457875D02*
G75*
G03*
X44595375Y-19457875I-75000J0D01*
G01*
X46341000Y-12091875D02*
G75*
G03*
X46341000Y-12091875I-75000J0D01*
G01*
X46341000Y-13996875D02*
G75*
G03*
X46341000Y-13996875I-75000J0D01*
G01*
X46341000Y-15901875D02*
G75*
G03*
X46341000Y-15901875I-75000J0D01*
G01*
X46341000Y-17806875D02*
G75*
G03*
X46341000Y-17806875I-75000J0D01*
G01*
X46976000Y-11837875D02*
G75*
G03*
X46976000Y-11837875I-75000J0D01*
G01*
X46976000Y-13742875D02*
G75*
G03*
X46976000Y-13742875I-75000J0D01*
G01*
X46976000Y-15647875D02*
G75*
G03*
X46976000Y-15647875I-75000J0D01*
G01*
X46976000Y-17552875D02*
G75*
G03*
X46976000Y-17552875I-75000J0D01*
G01*
X47293500Y-19711875D02*
G75*
G03*
X47293500Y-19711875I-75000J0D01*
G01*
X47928500Y-19457875D02*
G75*
G03*
X47928500Y-19457875I-75000J0D01*
G01*
X48246000Y-12091875D02*
G75*
G03*
X48246000Y-12091875I-75000J0D01*
G01*
X48246000Y-13996875D02*
G75*
G03*
X48246000Y-13996875I-75000J0D01*
G01*
X48246000Y-15901875D02*
G75*
G03*
X48246000Y-15901875I-75000J0D01*
G01*
X48246000Y-17806875D02*
G75*
G03*
X48246000Y-17806875I-75000J0D01*
G01*
X48881000Y-11837875D02*
G75*
G03*
X48881000Y-11837875I-75000J0D01*
G01*
X48881000Y-13742875D02*
G75*
G03*
X48881000Y-13742875I-75000J0D01*
G01*
X48881000Y-15647875D02*
G75*
G03*
X48881000Y-15647875I-75000J0D01*
G01*
X48881000Y-17552875D02*
G75*
G03*
X48881000Y-17552875I-75000J0D01*
G01*
X50151000Y-13996875D02*
G75*
G03*
X50151000Y-13996875I-75000J0D01*
G01*
X50151000Y-15901875D02*
G75*
G03*
X50151000Y-15901875I-75000J0D01*
G01*
X50151000Y-17806875D02*
G75*
G03*
X50151000Y-17806875I-75000J0D01*
G01*
X50151000Y-19711875D02*
G75*
G03*
X50151000Y-19711875I-75000J0D01*
G01*
X50161000Y-12091875D02*
G75*
G03*
X50161000Y-12091875I-75000J0D01*
G01*
X50786000Y-13742875D02*
G75*
G03*
X50786000Y-13742875I-75000J0D01*
G01*
X50786000Y-15647875D02*
G75*
G03*
X50786000Y-15647875I-75000J0D01*
G01*
X50786000Y-17552875D02*
G75*
G03*
X50786000Y-17552875I-75000J0D01*
G01*
X50786000Y-19457875D02*
G75*
G03*
X50786000Y-19457875I-75000J0D01*
G01*
X50796000Y-11837875D02*
G75*
G03*
X50796000Y-11837875I-75000J0D01*
G01*
X52056000Y-12091875D02*
G75*
G03*
X52056000Y-12091875I-75000J0D01*
G01*
X52056000Y-14949375D02*
G75*
G03*
X52056000Y-14949375I-75000J0D01*
G01*
X52056000Y-18759375D02*
G75*
G03*
X52056000Y-18759375I-75000J0D01*
G01*
X52691000Y-11837875D02*
G75*
G03*
X52691000Y-11837875I-75000J0D01*
G01*
X52691000Y-14695375D02*
G75*
G03*
X52691000Y-14695375I-75000J0D01*
G01*
X52691000Y-18505375D02*
G75*
G03*
X52691000Y-18505375I-75000J0D01*
G01*
D11*
X5704619Y-23780370D02*
X5704619Y-23580370D01*
X5752238Y-23580370D01*
X5780809Y-23589894D01*
X5799857Y-23608941D01*
X5809381Y-23627989D01*
X5818905Y-23666084D01*
X5818905Y-23694656D01*
X5809381Y-23732751D01*
X5799857Y-23751798D01*
X5780809Y-23770846D01*
X5752238Y-23780370D01*
X5704619Y-23780370D01*
X5904619Y-23780370D02*
X5904619Y-23647036D01*
X5904619Y-23685132D02*
X5914143Y-23666084D01*
X5923667Y-23656560D01*
X5942714Y-23647036D01*
X5961762Y-23647036D01*
X6028428Y-23780370D02*
X6028428Y-23647036D01*
X6028428Y-23580370D02*
X6018905Y-23589894D01*
X6028428Y-23599417D01*
X6037952Y-23589894D01*
X6028428Y-23580370D01*
X6028428Y-23599417D01*
X6152238Y-23780370D02*
X6133190Y-23770846D01*
X6123667Y-23751798D01*
X6123667Y-23580370D01*
X6257000Y-23780370D02*
X6237952Y-23770846D01*
X6228428Y-23751798D01*
X6228428Y-23580370D01*
X6485571Y-23780370D02*
X6485571Y-23580370D01*
X6552238Y-23723227D01*
X6618905Y-23580370D01*
X6618905Y-23780370D01*
X6799857Y-23780370D02*
X6799857Y-23675608D01*
X6790333Y-23656560D01*
X6771286Y-23647036D01*
X6733190Y-23647036D01*
X6714143Y-23656560D01*
X6799857Y-23770846D02*
X6780809Y-23780370D01*
X6733190Y-23780370D01*
X6714143Y-23770846D01*
X6704619Y-23751798D01*
X6704619Y-23732751D01*
X6714143Y-23713703D01*
X6733190Y-23704179D01*
X6780809Y-23704179D01*
X6799857Y-23694656D01*
X6895095Y-23647036D02*
X6895095Y-23847036D01*
X6895095Y-23656560D02*
X6914143Y-23647036D01*
X6952238Y-23647036D01*
X6971286Y-23656560D01*
X6980809Y-23666084D01*
X6990333Y-23685132D01*
X6990333Y-23742275D01*
X6980809Y-23761322D01*
X6971286Y-23770846D01*
X6952238Y-23780370D01*
X6914143Y-23780370D01*
X6895095Y-23770846D01*
X7076048Y-23761322D02*
X7085571Y-23770846D01*
X7076048Y-23780370D01*
X7066524Y-23770846D01*
X7076048Y-23761322D01*
X7076048Y-23780370D01*
X7076048Y-23656560D02*
X7085571Y-23666084D01*
X7076048Y-23675608D01*
X7066524Y-23666084D01*
X7076048Y-23656560D01*
X7076048Y-23675608D01*
D12*
X5407000Y-24089894D02*
X5447000Y-24129894D01*
X5447000Y-24089894D02*
X5407000Y-24129894D01*
D11*
X5742714Y-24000370D02*
X5761762Y-24000370D01*
X5780809Y-24009894D01*
X5790333Y-24019417D01*
X5799857Y-24038465D01*
X5809381Y-24076560D01*
X5809381Y-24124179D01*
X5799857Y-24162275D01*
X5790333Y-24181322D01*
X5780809Y-24190846D01*
X5761762Y-24200370D01*
X5742714Y-24200370D01*
X5723667Y-24190846D01*
X5714143Y-24181322D01*
X5704619Y-24162275D01*
X5695095Y-24124179D01*
X5695095Y-24076560D01*
X5704619Y-24038465D01*
X5714143Y-24019417D01*
X5723667Y-24009894D01*
X5742714Y-24000370D01*
X5895095Y-24181322D02*
X5904619Y-24190846D01*
X5895095Y-24200370D01*
X5885571Y-24190846D01*
X5895095Y-24181322D01*
X5895095Y-24200370D01*
X6076048Y-24067036D02*
X6076048Y-24200370D01*
X6028428Y-23990846D02*
X5980809Y-24133703D01*
X6104619Y-24133703D01*
X6218905Y-24000370D02*
X6237952Y-24000370D01*
X6257000Y-24009894D01*
X6266524Y-24019417D01*
X6276048Y-24038465D01*
X6285571Y-24076560D01*
X6285571Y-24124179D01*
X6276048Y-24162275D01*
X6266524Y-24181322D01*
X6257000Y-24190846D01*
X6237952Y-24200370D01*
X6218905Y-24200370D01*
X6199857Y-24190846D01*
X6190333Y-24181322D01*
X6180809Y-24162275D01*
X6171286Y-24124179D01*
X6171286Y-24076560D01*
X6180809Y-24038465D01*
X6190333Y-24019417D01*
X6199857Y-24009894D01*
X6218905Y-24000370D01*
X6409381Y-24000370D02*
X6428428Y-24000370D01*
X6447476Y-24009894D01*
X6457000Y-24019417D01*
X6466524Y-24038465D01*
X6476048Y-24076560D01*
X6476048Y-24124179D01*
X6466524Y-24162275D01*
X6457000Y-24181322D01*
X6447476Y-24190846D01*
X6428428Y-24200370D01*
X6409381Y-24200370D01*
X6390333Y-24190846D01*
X6380809Y-24181322D01*
X6371286Y-24162275D01*
X6361762Y-24124179D01*
X6361762Y-24076560D01*
X6371286Y-24038465D01*
X6380809Y-24019417D01*
X6390333Y-24009894D01*
X6409381Y-24000370D01*
X6561762Y-24200370D02*
X6561762Y-24067036D01*
X6561762Y-24086084D02*
X6571286Y-24076560D01*
X6590333Y-24067036D01*
X6618905Y-24067036D01*
X6637952Y-24076560D01*
X6647476Y-24095608D01*
X6647476Y-24200370D01*
X6647476Y-24095608D02*
X6657000Y-24076560D01*
X6676048Y-24067036D01*
X6704619Y-24067036D01*
X6723667Y-24076560D01*
X6733190Y-24095608D01*
X6733190Y-24200370D01*
X6828428Y-24200370D02*
X6828428Y-24067036D01*
X6828428Y-24086084D02*
X6837952Y-24076560D01*
X6857000Y-24067036D01*
X6885571Y-24067036D01*
X6904619Y-24076560D01*
X6914143Y-24095608D01*
X6914143Y-24200370D01*
X6914143Y-24095608D02*
X6923667Y-24076560D01*
X6942714Y-24067036D01*
X6971286Y-24067036D01*
X6990333Y-24076560D01*
X6999857Y-24095608D01*
X6999857Y-24200370D01*
X7390333Y-23990846D02*
X7218905Y-24247989D01*
X7647476Y-24000370D02*
X7666524Y-24000370D01*
X7685571Y-24009894D01*
X7695095Y-24019417D01*
X7704619Y-24038465D01*
X7714143Y-24076560D01*
X7714143Y-24124179D01*
X7704619Y-24162275D01*
X7695095Y-24181322D01*
X7685571Y-24190846D01*
X7666524Y-24200370D01*
X7647476Y-24200370D01*
X7628428Y-24190846D01*
X7618905Y-24181322D01*
X7609381Y-24162275D01*
X7599857Y-24124179D01*
X7599857Y-24076560D01*
X7609381Y-24038465D01*
X7618905Y-24019417D01*
X7628428Y-24009894D01*
X7647476Y-24000370D01*
X7799857Y-24181322D02*
X7809381Y-24190846D01*
X7799857Y-24200370D01*
X7790333Y-24190846D01*
X7799857Y-24181322D01*
X7799857Y-24200370D01*
X7933190Y-24000370D02*
X7952238Y-24000370D01*
X7971286Y-24009894D01*
X7980809Y-24019417D01*
X7990333Y-24038465D01*
X7999857Y-24076560D01*
X7999857Y-24124179D01*
X7990333Y-24162275D01*
X7980809Y-24181322D01*
X7971286Y-24190846D01*
X7952238Y-24200370D01*
X7933190Y-24200370D01*
X7914143Y-24190846D01*
X7904619Y-24181322D01*
X7895095Y-24162275D01*
X7885571Y-24124179D01*
X7885571Y-24076560D01*
X7895095Y-24038465D01*
X7904619Y-24019417D01*
X7914143Y-24009894D01*
X7933190Y-24000370D01*
X8190333Y-24200370D02*
X8076048Y-24200370D01*
X8133190Y-24200370D02*
X8133190Y-24000370D01*
X8114143Y-24028941D01*
X8095095Y-24047989D01*
X8076048Y-24057513D01*
X8371286Y-24000370D02*
X8276048Y-24000370D01*
X8266524Y-24095608D01*
X8276048Y-24086084D01*
X8295095Y-24076560D01*
X8342714Y-24076560D01*
X8361762Y-24086084D01*
X8371286Y-24095608D01*
X8380809Y-24114656D01*
X8380809Y-24162275D01*
X8371286Y-24181322D01*
X8361762Y-24190846D01*
X8342714Y-24200370D01*
X8295095Y-24200370D01*
X8276048Y-24190846D01*
X8266524Y-24181322D01*
X8447476Y-24000370D02*
X8580810Y-24000370D01*
X8495095Y-24200370D01*
X8647476Y-24000370D02*
X8647476Y-24038465D01*
X8723667Y-24000370D02*
X8723667Y-24038465D01*
X9018905Y-24276560D02*
X9009381Y-24267036D01*
X8990333Y-24238465D01*
X8980810Y-24219417D01*
X8971286Y-24190846D01*
X8961762Y-24143227D01*
X8961762Y-24105132D01*
X8971286Y-24057513D01*
X8980810Y-24028941D01*
X8990333Y-24009894D01*
X9009381Y-23981322D01*
X9018905Y-23971798D01*
X9076048Y-24000370D02*
X9209381Y-24000370D01*
X9123667Y-24200370D01*
X9295095Y-24200370D02*
X9333190Y-24200370D01*
X9352238Y-24190846D01*
X9361762Y-24181322D01*
X9380810Y-24152751D01*
X9390333Y-24114656D01*
X9390333Y-24038465D01*
X9380810Y-24019417D01*
X9371286Y-24009894D01*
X9352238Y-24000370D01*
X9314143Y-24000370D01*
X9295095Y-24009894D01*
X9285571Y-24019417D01*
X9276048Y-24038465D01*
X9276048Y-24086084D01*
X9285571Y-24105132D01*
X9295095Y-24114656D01*
X9314143Y-24124179D01*
X9352238Y-24124179D01*
X9371286Y-24114656D01*
X9380810Y-24105132D01*
X9390333Y-24086084D01*
X9628429Y-24200370D02*
X9628429Y-24000370D01*
X9714143Y-24200370D02*
X9714143Y-24095608D01*
X9704619Y-24076560D01*
X9685571Y-24067036D01*
X9657000Y-24067036D01*
X9637952Y-24076560D01*
X9628429Y-24086084D01*
X9837952Y-24200370D02*
X9818905Y-24190846D01*
X9809381Y-24181322D01*
X9799857Y-24162275D01*
X9799857Y-24105132D01*
X9809381Y-24086084D01*
X9818905Y-24076560D01*
X9837952Y-24067036D01*
X9866524Y-24067036D01*
X9885571Y-24076560D01*
X9895095Y-24086084D01*
X9904619Y-24105132D01*
X9904619Y-24162275D01*
X9895095Y-24181322D01*
X9885571Y-24190846D01*
X9866524Y-24200370D01*
X9837952Y-24200370D01*
X10018905Y-24200370D02*
X9999857Y-24190846D01*
X9990333Y-24171798D01*
X9990333Y-24000370D01*
X10171286Y-24190846D02*
X10152238Y-24200370D01*
X10114143Y-24200370D01*
X10095095Y-24190846D01*
X10085571Y-24171798D01*
X10085571Y-24095608D01*
X10095095Y-24076560D01*
X10114143Y-24067036D01*
X10152238Y-24067036D01*
X10171286Y-24076560D01*
X10180810Y-24095608D01*
X10180810Y-24114656D01*
X10085571Y-24133703D01*
X10257000Y-24190846D02*
X10276048Y-24200370D01*
X10314143Y-24200370D01*
X10333190Y-24190846D01*
X10342714Y-24171798D01*
X10342714Y-24162275D01*
X10333190Y-24143227D01*
X10314143Y-24133703D01*
X10285571Y-24133703D01*
X10266524Y-24124179D01*
X10257000Y-24105132D01*
X10257000Y-24095608D01*
X10266524Y-24076560D01*
X10285571Y-24067036D01*
X10314143Y-24067036D01*
X10333190Y-24076560D01*
X10409381Y-24276560D02*
X10418905Y-24267036D01*
X10437952Y-24238465D01*
X10447476Y-24219417D01*
X10457000Y-24190846D01*
X10466524Y-24143227D01*
X10466524Y-24105132D01*
X10457000Y-24057513D01*
X10447476Y-24028941D01*
X10437952Y-24009894D01*
X10418905Y-23981322D01*
X10409381Y-23971798D01*
D13*
X5447000Y-24373894D02*
G75*
G03*
X5447000Y-24373894I-75000J0D01*
G01*
D11*
X5809381Y-24464370D02*
X5695095Y-24464370D01*
X5752238Y-24464370D02*
X5752238Y-24264370D01*
X5733190Y-24292941D01*
X5714143Y-24311989D01*
X5695095Y-24321513D01*
X5895095Y-24445322D02*
X5904619Y-24454846D01*
X5895095Y-24464370D01*
X5885571Y-24454846D01*
X5895095Y-24445322D01*
X5895095Y-24464370D01*
X6085571Y-24264370D02*
X5990333Y-24264370D01*
X5980809Y-24359608D01*
X5990333Y-24350084D01*
X6009381Y-24340560D01*
X6057000Y-24340560D01*
X6076048Y-24350084D01*
X6085571Y-24359608D01*
X6095095Y-24378656D01*
X6095095Y-24426275D01*
X6085571Y-24445322D01*
X6076048Y-24454846D01*
X6057000Y-24464370D01*
X6009381Y-24464370D01*
X5990333Y-24454846D01*
X5980809Y-24445322D01*
X6218905Y-24264370D02*
X6237952Y-24264370D01*
X6257000Y-24273894D01*
X6266524Y-24283417D01*
X6276048Y-24302465D01*
X6285571Y-24340560D01*
X6285571Y-24388179D01*
X6276048Y-24426275D01*
X6266524Y-24445322D01*
X6257000Y-24454846D01*
X6237952Y-24464370D01*
X6218905Y-24464370D01*
X6199857Y-24454846D01*
X6190333Y-24445322D01*
X6180809Y-24426275D01*
X6171286Y-24388179D01*
X6171286Y-24340560D01*
X6180809Y-24302465D01*
X6190333Y-24283417D01*
X6199857Y-24273894D01*
X6218905Y-24264370D01*
X6409381Y-24264370D02*
X6428428Y-24264370D01*
X6447476Y-24273894D01*
X6457000Y-24283417D01*
X6466524Y-24302465D01*
X6476048Y-24340560D01*
X6476048Y-24388179D01*
X6466524Y-24426275D01*
X6457000Y-24445322D01*
X6447476Y-24454846D01*
X6428428Y-24464370D01*
X6409381Y-24464370D01*
X6390333Y-24454846D01*
X6380809Y-24445322D01*
X6371286Y-24426275D01*
X6361762Y-24388179D01*
X6361762Y-24340560D01*
X6371286Y-24302465D01*
X6380809Y-24283417D01*
X6390333Y-24273894D01*
X6409381Y-24264370D01*
X6561762Y-24464370D02*
X6561762Y-24331036D01*
X6561762Y-24350084D02*
X6571286Y-24340560D01*
X6590333Y-24331036D01*
X6618905Y-24331036D01*
X6637952Y-24340560D01*
X6647476Y-24359608D01*
X6647476Y-24464370D01*
X6647476Y-24359608D02*
X6657000Y-24340560D01*
X6676048Y-24331036D01*
X6704619Y-24331036D01*
X6723667Y-24340560D01*
X6733190Y-24359608D01*
X6733190Y-24464370D01*
X6828428Y-24464370D02*
X6828428Y-24331036D01*
X6828428Y-24350084D02*
X6837952Y-24340560D01*
X6857000Y-24331036D01*
X6885571Y-24331036D01*
X6904619Y-24340560D01*
X6914143Y-24359608D01*
X6914143Y-24464370D01*
X6914143Y-24359608D02*
X6923667Y-24340560D01*
X6942714Y-24331036D01*
X6971286Y-24331036D01*
X6990333Y-24340560D01*
X6999857Y-24359608D01*
X6999857Y-24464370D01*
X7390333Y-24254846D02*
X7218905Y-24511989D01*
X7647476Y-24264370D02*
X7666524Y-24264370D01*
X7685571Y-24273894D01*
X7695095Y-24283417D01*
X7704619Y-24302465D01*
X7714143Y-24340560D01*
X7714143Y-24388179D01*
X7704619Y-24426275D01*
X7695095Y-24445322D01*
X7685571Y-24454846D01*
X7666524Y-24464370D01*
X7647476Y-24464370D01*
X7628428Y-24454846D01*
X7618905Y-24445322D01*
X7609381Y-24426275D01*
X7599857Y-24388179D01*
X7599857Y-24340560D01*
X7609381Y-24302465D01*
X7618905Y-24283417D01*
X7628428Y-24273894D01*
X7647476Y-24264370D01*
X7799857Y-24445322D02*
X7809381Y-24454846D01*
X7799857Y-24464370D01*
X7790333Y-24454846D01*
X7799857Y-24445322D01*
X7799857Y-24464370D01*
X7933190Y-24264370D02*
X7952238Y-24264370D01*
X7971286Y-24273894D01*
X7980809Y-24283417D01*
X7990333Y-24302465D01*
X7999857Y-24340560D01*
X7999857Y-24388179D01*
X7990333Y-24426275D01*
X7980809Y-24445322D01*
X7971286Y-24454846D01*
X7952238Y-24464370D01*
X7933190Y-24464370D01*
X7914143Y-24454846D01*
X7904619Y-24445322D01*
X7895095Y-24426275D01*
X7885571Y-24388179D01*
X7885571Y-24340560D01*
X7895095Y-24302465D01*
X7904619Y-24283417D01*
X7914143Y-24273894D01*
X7933190Y-24264370D01*
X8180809Y-24264370D02*
X8085571Y-24264370D01*
X8076048Y-24359608D01*
X8085571Y-24350084D01*
X8104619Y-24340560D01*
X8152238Y-24340560D01*
X8171286Y-24350084D01*
X8180809Y-24359608D01*
X8190333Y-24378656D01*
X8190333Y-24426275D01*
X8180809Y-24445322D01*
X8171286Y-24454846D01*
X8152238Y-24464370D01*
X8104619Y-24464370D01*
X8085571Y-24454846D01*
X8076048Y-24445322D01*
X8285571Y-24464370D02*
X8323667Y-24464370D01*
X8342714Y-24454846D01*
X8352238Y-24445322D01*
X8371286Y-24416751D01*
X8380809Y-24378656D01*
X8380809Y-24302465D01*
X8371286Y-24283417D01*
X8361762Y-24273894D01*
X8342714Y-24264370D01*
X8304619Y-24264370D01*
X8285571Y-24273894D01*
X8276048Y-24283417D01*
X8266524Y-24302465D01*
X8266524Y-24350084D01*
X8276048Y-24369132D01*
X8285571Y-24378656D01*
X8304619Y-24388179D01*
X8342714Y-24388179D01*
X8361762Y-24378656D01*
X8371286Y-24369132D01*
X8380809Y-24350084D01*
X8571286Y-24464370D02*
X8457000Y-24464370D01*
X8514143Y-24464370D02*
X8514143Y-24264370D01*
X8495095Y-24292941D01*
X8476048Y-24311989D01*
X8457000Y-24321513D01*
X8647476Y-24264370D02*
X8647476Y-24302465D01*
X8723667Y-24264370D02*
X8723667Y-24302465D01*
X9018905Y-24540560D02*
X9009381Y-24531036D01*
X8990333Y-24502465D01*
X8980810Y-24483417D01*
X8971286Y-24454846D01*
X8961762Y-24407227D01*
X8961762Y-24369132D01*
X8971286Y-24321513D01*
X8980810Y-24292941D01*
X8990333Y-24273894D01*
X9009381Y-24245322D01*
X9018905Y-24235798D01*
X9085571Y-24283417D02*
X9095095Y-24273894D01*
X9114143Y-24264370D01*
X9161762Y-24264370D01*
X9180810Y-24273894D01*
X9190333Y-24283417D01*
X9199857Y-24302465D01*
X9199857Y-24321513D01*
X9190333Y-24350084D01*
X9076048Y-24464370D01*
X9199857Y-24464370D01*
X9390333Y-24464370D02*
X9276048Y-24464370D01*
X9333190Y-24464370D02*
X9333190Y-24264370D01*
X9314143Y-24292941D01*
X9295095Y-24311989D01*
X9276048Y-24321513D01*
X9561762Y-24264370D02*
X9523667Y-24264370D01*
X9504619Y-24273894D01*
X9495095Y-24283417D01*
X9476048Y-24311989D01*
X9466524Y-24350084D01*
X9466524Y-24426275D01*
X9476048Y-24445322D01*
X9485571Y-24454846D01*
X9504619Y-24464370D01*
X9542714Y-24464370D01*
X9561762Y-24454846D01*
X9571286Y-24445322D01*
X9580810Y-24426275D01*
X9580810Y-24378656D01*
X9571286Y-24359608D01*
X9561762Y-24350084D01*
X9542714Y-24340560D01*
X9504619Y-24340560D01*
X9485571Y-24350084D01*
X9476048Y-24359608D01*
X9466524Y-24378656D01*
X9818905Y-24464370D02*
X9818905Y-24264370D01*
X9904619Y-24464370D02*
X9904619Y-24359608D01*
X9895095Y-24340560D01*
X9876048Y-24331036D01*
X9847476Y-24331036D01*
X9828429Y-24340560D01*
X9818905Y-24350084D01*
X10028429Y-24464370D02*
X10009381Y-24454846D01*
X9999857Y-24445322D01*
X9990333Y-24426275D01*
X9990333Y-24369132D01*
X9999857Y-24350084D01*
X10009381Y-24340560D01*
X10028429Y-24331036D01*
X10057000Y-24331036D01*
X10076048Y-24340560D01*
X10085571Y-24350084D01*
X10095095Y-24369132D01*
X10095095Y-24426275D01*
X10085571Y-24445322D01*
X10076048Y-24454846D01*
X10057000Y-24464370D01*
X10028429Y-24464370D01*
X10209381Y-24464370D02*
X10190333Y-24454846D01*
X10180810Y-24435798D01*
X10180810Y-24264370D01*
X10361762Y-24454846D02*
X10342714Y-24464370D01*
X10304619Y-24464370D01*
X10285571Y-24454846D01*
X10276048Y-24435798D01*
X10276048Y-24359608D01*
X10285571Y-24340560D01*
X10304619Y-24331036D01*
X10342714Y-24331036D01*
X10361762Y-24340560D01*
X10371286Y-24359608D01*
X10371286Y-24378656D01*
X10276048Y-24397703D01*
X10447476Y-24454846D02*
X10466524Y-24464370D01*
X10504619Y-24464370D01*
X10523667Y-24454846D01*
X10533190Y-24435798D01*
X10533190Y-24426275D01*
X10523667Y-24407227D01*
X10504619Y-24397703D01*
X10476048Y-24397703D01*
X10457000Y-24388179D01*
X10447476Y-24369132D01*
X10447476Y-24359608D01*
X10457000Y-24340560D01*
X10476048Y-24331036D01*
X10504619Y-24331036D01*
X10523667Y-24340560D01*
X10599857Y-24540560D02*
X10609381Y-24531036D01*
X10628429Y-24502465D01*
X10637952Y-24483417D01*
X10647476Y-24454846D01*
X10657000Y-24407227D01*
X10657000Y-24369132D01*
X10647476Y-24321513D01*
X10637952Y-24292941D01*
X10628429Y-24273894D01*
X10609381Y-24245322D01*
X10599857Y-24235798D01*
M02*
