%TF.GenerationSoftware,KiCad,Pcbnew,(6.0.9)*%
%TF.CreationDate,2022-12-16T23:57:13-05:00*%
%TF.ProjectId,rp2040 keeb,72703230-3430-4206-9b65-65622e6b6963,rev?*%
%TF.SameCoordinates,Original*%
%TF.FileFunction,Soldermask,Top*%
%TF.FilePolarity,Negative*%
%FSLAX46Y46*%
G04 Gerber Fmt 4.6, Leading zero omitted, Abs format (unit mm)*
G04 Created by KiCad (PCBNEW (6.0.9)) date 2022-12-16 23:57:13*
%MOMM*%
%LPD*%
G01*
G04 APERTURE LIST*
%ADD10C,4.000000*%
%ADD11C,1.700000*%
%ADD12C,2.200000*%
%ADD13C,3.050000*%
%ADD14C,1.000000*%
G04 APERTURE END LIST*
D10*
%TO.C,SW103*%
X504670000Y-123458750D03*
D11*
X509750000Y-123458750D03*
X499590000Y-123458750D03*
D12*
X507210000Y-118378750D03*
X500860000Y-120918750D03*
%TD*%
D11*
%TO.C,SW16*%
X138503657Y-105814873D03*
X148441637Y-107927256D03*
D10*
X143472647Y-106871064D03*
D12*
X147013333Y-102430170D03*
X140274000Y-103594426D03*
%TD*%
D10*
%TO.C,SW14*%
X102021319Y-165107499D03*
D11*
X96941319Y-165107499D03*
X107101319Y-165107499D03*
D12*
X104561319Y-160027499D03*
X98211319Y-162567499D03*
%TD*%
D10*
%TO.C,SW12*%
X117102568Y-124626249D03*
D11*
X112022568Y-124626249D03*
X122182568Y-124626249D03*
D12*
X119642568Y-119546249D03*
X113292568Y-122086249D03*
%TD*%
D11*
%TO.C,SW64*%
X319156250Y-161458750D03*
X308996250Y-161458750D03*
D10*
X314076250Y-161458750D03*
D12*
X316616250Y-156378750D03*
X310266250Y-158918750D03*
%TD*%
D10*
%TO.C,SW99*%
X485520000Y-142508750D03*
D11*
X490600000Y-142508750D03*
X480440000Y-142508750D03*
D12*
X488060000Y-137428750D03*
X481710000Y-139968750D03*
%TD*%
D11*
%TO.C,SW9*%
X73128819Y-184157499D03*
X83288819Y-184157499D03*
D13*
X66308819Y-177157499D03*
D10*
X78208819Y-184157499D03*
X90108819Y-192397499D03*
D13*
X90108819Y-177157499D03*
D10*
X66308819Y-192397499D03*
D12*
X80748819Y-179077499D03*
X74398819Y-181617499D03*
%TD*%
D11*
%TO.C,SW51*%
X258104966Y-150304076D03*
D10*
X263073955Y-149247885D03*
D11*
X268042945Y-148191693D03*
D12*
X264502259Y-143750799D03*
X258819117Y-147555533D03*
%TD*%
D11*
%TO.C,SW3*%
X84082568Y-103362499D03*
D10*
X79002568Y-103362499D03*
D11*
X73922568Y-103362499D03*
D12*
X81542568Y-98282499D03*
X75192568Y-100822499D03*
%TD*%
D10*
%TO.C,SW71*%
X356938750Y-100953653D03*
D11*
X362018750Y-100953653D03*
X351858750Y-100953653D03*
D12*
X359478750Y-95873653D03*
X353128750Y-98413653D03*
%TD*%
D10*
%TO.C,SW17*%
X137706360Y-129461783D03*
D11*
X132737370Y-128405592D03*
X142675350Y-130517975D03*
D12*
X141247046Y-125020889D03*
X134507713Y-126185145D03*
%TD*%
D11*
%TO.C,SW100*%
X490600000Y-161558750D03*
D10*
X485520000Y-161558750D03*
D11*
X480440000Y-161558750D03*
D12*
X488060000Y-156478750D03*
X481710000Y-159018750D03*
%TD*%
D10*
%TO.C,SW97*%
X487895000Y-207898750D03*
D11*
X481075000Y-199658750D03*
D10*
X475995000Y-199658750D03*
D13*
X487895000Y-192658750D03*
X464095000Y-192658750D03*
D11*
X470915000Y-199658750D03*
D10*
X464095000Y-207898750D03*
D12*
X478535000Y-194578750D03*
X472185000Y-197118750D03*
%TD*%
D10*
%TO.C,SW95*%
X466470000Y-161558750D03*
D11*
X471550000Y-161558750D03*
X461390000Y-161558750D03*
D12*
X469010000Y-156478750D03*
X462660000Y-159018750D03*
%TD*%
D11*
%TO.C,SW110*%
X224100550Y-196483114D03*
D10*
X229069539Y-195426923D03*
D11*
X234038529Y-194370731D03*
D12*
X230497843Y-189929837D03*
X224814701Y-193734571D03*
%TD*%
D10*
%TO.C,SW59*%
X309313750Y-180508750D03*
D11*
X304233750Y-180508750D03*
X314393750Y-180508750D03*
D12*
X311853750Y-175428750D03*
X305503750Y-177968750D03*
%TD*%
D10*
%TO.C,SW11*%
X124865113Y-102888683D03*
D11*
X119896123Y-101832492D03*
X129834103Y-103944875D03*
D12*
X128405799Y-98447789D03*
X121666466Y-99612045D03*
%TD*%
D11*
%TO.C,SW40*%
X220837543Y-158225511D03*
D10*
X225806532Y-157169320D03*
D11*
X230775522Y-156113128D03*
D12*
X227234836Y-151672234D03*
X221551694Y-155476968D03*
%TD*%
D11*
%TO.C,SW105*%
X509650000Y-180608750D03*
D10*
X504570000Y-180608750D03*
D11*
X499490000Y-180608750D03*
D12*
X507110000Y-175528750D03*
X500760000Y-178068750D03*
%TD*%
D11*
%TO.C,SW4*%
X84082568Y-127007499D03*
X73922568Y-127007499D03*
D10*
X79002568Y-127007499D03*
D12*
X81542568Y-121927499D03*
X75192568Y-124467499D03*
%TD*%
D11*
%TO.C,SW33*%
X188638505Y-140287744D03*
D10*
X193607495Y-141343935D03*
D11*
X198576485Y-142400127D03*
D12*
X197148181Y-136903041D03*
X190408848Y-138067297D03*
%TD*%
D10*
%TO.C,SW47*%
X266336962Y-187505488D03*
D11*
X271305952Y-186449296D03*
X261367973Y-188561679D03*
D12*
X267765266Y-182008402D03*
X262082124Y-185813136D03*
%TD*%
D11*
%TO.C,SW84*%
X428693750Y-100953653D03*
X418533750Y-100953653D03*
D10*
X423613750Y-100953653D03*
D12*
X426153750Y-95873653D03*
X419803750Y-98413653D03*
%TD*%
D11*
%TO.C,SW8*%
X103132568Y-127007499D03*
D10*
X98052568Y-127007499D03*
D11*
X92972568Y-127007499D03*
D12*
X100592568Y-121927499D03*
X94242568Y-124467499D03*
%TD*%
D10*
%TO.C,SW102*%
X504570000Y-142508750D03*
D11*
X509650000Y-142508750D03*
X499490000Y-142508750D03*
D12*
X507110000Y-137428750D03*
X500760000Y-139968750D03*
%TD*%
D10*
%TO.C,SW34*%
X179828298Y-157986211D03*
D11*
X184797288Y-159042403D03*
X174859308Y-156930020D03*
D12*
X183368984Y-153545317D03*
X176629651Y-154709573D03*
%TD*%
D10*
%TO.C,SW93*%
X466470000Y-123458750D03*
D11*
X471550000Y-123458750D03*
X461390000Y-123458750D03*
D12*
X469010000Y-118378750D03*
X462660000Y-120918750D03*
%TD*%
D11*
%TO.C,SW10*%
X87416319Y-203207499D03*
D10*
X92496319Y-203207499D03*
D11*
X97576319Y-203207499D03*
D12*
X95036319Y-198127499D03*
X88686319Y-200667499D03*
%TD*%
D11*
%TO.C,SW31*%
X172832731Y-195516380D03*
X162894751Y-193403997D03*
D10*
X167863741Y-194460188D03*
D12*
X171404427Y-190019294D03*
X164665094Y-191183550D03*
%TD*%
D11*
%TO.C,SW96*%
X471550000Y-180608750D03*
D10*
X466470000Y-180608750D03*
D11*
X461390000Y-180608750D03*
D12*
X469010000Y-175528750D03*
X462660000Y-178068750D03*
%TD*%
D10*
%TO.C,SW15*%
X109165069Y-184157499D03*
D11*
X104085069Y-184157499D03*
X114245069Y-184157499D03*
D12*
X111705069Y-179077499D03*
X105355069Y-181617499D03*
%TD*%
D11*
%TO.C,SW101*%
X480440000Y-180608750D03*
D10*
X485520000Y-180608750D03*
D11*
X490600000Y-180608750D03*
D12*
X488060000Y-175528750D03*
X481710000Y-178068750D03*
%TD*%
D10*
%TO.C,SW13*%
X102021319Y-146057499D03*
D11*
X96941319Y-146057499D03*
X107101319Y-146057499D03*
D12*
X104561319Y-140977499D03*
X98211319Y-143517499D03*
%TD*%
D11*
%TO.C,SW81*%
X409643750Y-123358750D03*
X399483750Y-123358750D03*
D10*
X404563750Y-123358750D03*
D12*
X407103750Y-118278750D03*
X400753750Y-120818750D03*
%TD*%
D10*
%TO.C,SW104*%
X504570000Y-161558750D03*
D11*
X499490000Y-161558750D03*
X509650000Y-161558750D03*
D12*
X507110000Y-156478750D03*
X500760000Y-159018750D03*
%TD*%
D11*
%TO.C,SW20*%
X125627330Y-185482558D03*
D10*
X130596320Y-186538749D03*
D11*
X135565310Y-187594941D03*
D12*
X134137006Y-182097855D03*
X127397673Y-183262111D03*
%TD*%
D11*
%TO.C,SW78*%
X361383750Y-142408750D03*
X371543750Y-142408750D03*
D10*
X366463750Y-142408750D03*
D12*
X369003750Y-137328750D03*
X362653750Y-139868750D03*
%TD*%
D11*
%TO.C,SW85*%
X428693750Y-123358750D03*
X418533750Y-123358750D03*
D10*
X423613750Y-123358750D03*
D12*
X426153750Y-118278750D03*
X419803750Y-120818750D03*
%TD*%
D10*
%TO.C,SW92*%
X442663750Y-199658750D03*
D11*
X437583750Y-199658750D03*
X447743750Y-199658750D03*
D12*
X445203750Y-194578750D03*
X438853750Y-197118750D03*
%TD*%
D11*
%TO.C,SW28*%
X179942772Y-138439410D03*
X170004792Y-136327027D03*
D10*
X174973782Y-137383218D03*
D12*
X178514468Y-132942324D03*
X171775135Y-134106580D03*
%TD*%
D11*
%TO.C,SW76*%
X370908750Y-100953653D03*
X381068750Y-100953653D03*
D10*
X375988750Y-100953653D03*
D12*
X378528750Y-95873653D03*
X372178750Y-98413653D03*
%TD*%
D10*
%TO.C,SW37*%
X191853592Y-219034973D03*
D11*
X186884602Y-217978782D03*
X196822582Y-220091165D03*
D12*
X195394278Y-214594079D03*
X188654945Y-215758335D03*
%TD*%
D11*
%TO.C,SW46*%
X258028379Y-169795943D03*
D10*
X253059389Y-170852135D03*
D11*
X248090400Y-171908326D03*
D12*
X254487693Y-165355049D03*
X248804551Y-169159783D03*
%TD*%
D11*
%TO.C,SW58*%
X295295803Y-161874508D03*
D10*
X290326813Y-162930700D03*
D11*
X285357824Y-163986891D03*
D12*
X291755117Y-157433614D03*
X286071975Y-161238348D03*
%TD*%
D11*
%TO.C,SW41*%
X239394667Y-173756661D03*
X229456688Y-175869044D03*
D10*
X234425677Y-174812853D03*
D12*
X235853981Y-169315767D03*
X230170839Y-173120501D03*
%TD*%
D11*
%TO.C,SW5*%
X83288819Y-146061249D03*
X73128819Y-146061249D03*
D10*
X78208819Y-146061249D03*
D12*
X80748819Y-140981249D03*
X74398819Y-143521249D03*
%TD*%
D10*
%TO.C,SW75*%
X354557500Y-199558750D03*
D11*
X349477500Y-199558750D03*
X359637500Y-199558750D03*
D12*
X357097500Y-194478750D03*
X350747500Y-197018750D03*
%TD*%
D11*
%TO.C,SW98*%
X480440000Y-123458750D03*
D10*
X485520000Y-123458750D03*
D11*
X490600000Y-123458750D03*
D12*
X488060000Y-118378750D03*
X481710000Y-120918750D03*
%TD*%
D11*
%TO.C,SW49*%
X258802823Y-107774513D03*
X268740802Y-105662130D03*
D10*
X263771812Y-106718322D03*
D12*
X265200116Y-101221236D03*
X259516974Y-105025970D03*
%TD*%
D11*
%TO.C,SW42*%
X252672241Y-190410014D03*
D10*
X247703251Y-191466206D03*
D11*
X242734262Y-192522397D03*
D12*
X249131555Y-185969120D03*
X243448413Y-189773854D03*
%TD*%
D11*
%TO.C,SW62*%
X314393750Y-123358750D03*
X304233750Y-123358750D03*
D10*
X309313750Y-123358750D03*
D12*
X311853750Y-118278750D03*
X305503750Y-120818750D03*
%TD*%
D11*
%TO.C,SW108*%
X528700000Y-152033750D03*
D10*
X531860000Y-163933750D03*
X531860000Y-140133750D03*
D13*
X516620000Y-140133750D03*
D11*
X518540000Y-152033750D03*
D13*
X516620000Y-163933750D03*
D10*
X523620000Y-152033750D03*
D12*
X526160000Y-146953750D03*
X519810000Y-149493750D03*
%TD*%
D11*
%TO.C,SW86*%
X428693750Y-142408750D03*
X418533750Y-142408750D03*
D10*
X423613750Y-142408750D03*
D12*
X426153750Y-137328750D03*
X419803750Y-139868750D03*
%TD*%
D10*
%TO.C,SW26*%
X149230026Y-190499467D03*
D11*
X144261036Y-189443276D03*
X154199016Y-191555659D03*
D12*
X152770712Y-186058573D03*
X146031379Y-187222829D03*
%TD*%
D10*
%TO.C,SW30*%
X162536350Y-173751969D03*
D11*
X167505340Y-174808161D03*
X157567360Y-172695778D03*
D12*
X166077036Y-169311075D03*
X159337703Y-170475331D03*
%TD*%
D11*
%TO.C,SW22*%
X167075350Y-111887972D03*
X157137370Y-109775589D03*
D10*
X162106360Y-110831780D03*
D12*
X165647046Y-106390886D03*
X158907713Y-107555142D03*
%TD*%
D11*
%TO.C,SW60*%
X291578990Y-201593809D03*
D10*
X286610000Y-202650001D03*
D11*
X281641011Y-203706192D03*
D12*
X288038304Y-197152915D03*
X282355162Y-200957649D03*
%TD*%
D10*
%TO.C,SW48*%
X223713401Y-216040994D03*
D11*
X218744412Y-217097185D03*
X228682391Y-214984802D03*
D12*
X225141705Y-210543908D03*
X219458563Y-214348642D03*
%TD*%
D10*
%TO.C,SW7*%
X68683819Y-203207499D03*
D11*
X63603819Y-203207499D03*
X73763819Y-203207499D03*
D12*
X71223819Y-198127499D03*
X64873819Y-200667499D03*
%TD*%
D11*
%TO.C,SW63*%
X299471250Y-142408750D03*
X309631250Y-142408750D03*
D10*
X304551250Y-142408750D03*
D12*
X307091250Y-137328750D03*
X300741250Y-139868750D03*
%TD*%
D11*
%TO.C,SW55*%
X287374514Y-101701413D03*
X277436535Y-103813796D03*
D10*
X282405524Y-102757605D03*
D12*
X283833828Y-97260519D03*
X278150686Y-101065253D03*
%TD*%
D10*
%TO.C,SW61*%
X318838750Y-100953653D03*
D11*
X313758750Y-100953653D03*
X323918750Y-100953653D03*
D12*
X321378750Y-95873653D03*
X315028750Y-98413653D03*
%TD*%
D10*
%TO.C,SW24*%
X142560874Y-150064779D03*
D11*
X137591884Y-149008588D03*
X147529864Y-151120971D03*
D12*
X146101560Y-145623885D03*
X139362227Y-146788141D03*
%TD*%
D11*
%TO.C,SW6*%
X70747569Y-165107499D03*
D10*
X75827569Y-165107499D03*
D11*
X80907569Y-165107499D03*
D12*
X78367569Y-160027499D03*
X72017569Y-162567499D03*
%TD*%
D11*
%TO.C,SW66*%
X335825000Y-199558750D03*
X325665000Y-199558750D03*
D10*
X330745000Y-199558750D03*
D12*
X333285000Y-194478750D03*
X326935000Y-197018750D03*
%TD*%
D10*
%TO.C,SW94*%
X466470000Y-142508750D03*
D11*
X461390000Y-142508750D03*
X471550000Y-142508750D03*
D12*
X469010000Y-137428750D03*
X462660000Y-139968750D03*
%TD*%
D11*
%TO.C,SW36*%
X191466443Y-199477093D03*
D10*
X186497453Y-198420901D03*
D11*
X181528463Y-197364710D03*
D12*
X190038139Y-193980007D03*
X183298806Y-195144263D03*
%TD*%
D10*
%TO.C,SW50*%
X268430093Y-128633814D03*
D11*
X263461104Y-129690005D03*
X273399083Y-127577622D03*
D12*
X269858397Y-123136728D03*
X264175255Y-126941462D03*
%TD*%
D10*
%TO.C,SW80*%
X404563750Y-100953653D03*
D11*
X399483750Y-100953653D03*
X409643750Y-100953653D03*
D12*
X407103750Y-95873653D03*
X400753750Y-98413653D03*
%TD*%
D10*
%TO.C,SW109*%
X531860000Y-178233750D03*
D11*
X518540000Y-190133750D03*
D10*
X531860000Y-202033750D03*
D11*
X528700000Y-190133750D03*
D10*
X523620000Y-190133750D03*
D13*
X516620000Y-202033750D03*
X516620000Y-178233750D03*
D12*
X526160000Y-185053750D03*
X519810000Y-187593750D03*
%TD*%
D11*
%TO.C,SW29*%
X166163576Y-155081688D03*
D10*
X161194586Y-154025496D03*
D11*
X156225596Y-152969305D03*
D12*
X164735272Y-149584602D03*
X157995939Y-150748858D03*
%TD*%
D11*
%TO.C,SW88*%
X428693750Y-199658750D03*
D10*
X423613750Y-199658750D03*
D11*
X418533750Y-199658750D03*
D12*
X426153750Y-194578750D03*
X419803750Y-197118750D03*
%TD*%
D11*
%TO.C,SW44*%
X244827393Y-133650723D03*
X254765372Y-131538340D03*
D10*
X249796382Y-132594532D03*
D12*
X251224686Y-127097446D03*
X245541544Y-130902180D03*
%TD*%
D11*
%TO.C,SW82*%
X399483750Y-142408750D03*
D10*
X404563750Y-142408750D03*
D11*
X409643750Y-142408750D03*
D12*
X407103750Y-137328750D03*
X400753750Y-139868750D03*
%TD*%
D10*
%TO.C,SW72*%
X342651250Y-142408750D03*
D11*
X347731250Y-142408750D03*
X337571250Y-142408750D03*
D12*
X345191250Y-137328750D03*
X338841250Y-139868750D03*
%TD*%
D10*
%TO.C,SW32*%
X148220661Y-218184593D03*
D11*
X156604820Y-211542615D03*
D13*
X174669148Y-208225922D03*
D11*
X166542800Y-213654998D03*
D10*
X171500574Y-223132891D03*
D13*
X151389235Y-203277624D03*
D10*
X161573810Y-212598806D03*
D12*
X165114496Y-208157912D03*
X158375163Y-209322168D03*
%TD*%
D11*
%TO.C,SW91*%
X447743750Y-142408750D03*
D10*
X442663750Y-142408750D03*
D11*
X437583750Y-142408750D03*
D12*
X445203750Y-137328750D03*
X438853750Y-139868750D03*
%TD*%
D10*
%TO.C,SW89*%
X442663750Y-100953653D03*
D11*
X447743750Y-100953653D03*
X437583750Y-100953653D03*
D12*
X445203750Y-95873653D03*
X438853750Y-98413653D03*
%TD*%
D11*
%TO.C,SW79*%
X373290000Y-199558750D03*
X383450000Y-199558750D03*
D10*
X378370000Y-199558750D03*
D12*
X380910000Y-194478750D03*
X374560000Y-197018750D03*
%TD*%
D10*
%TO.C,SW27*%
X180740070Y-114792499D03*
D11*
X185709060Y-115848691D03*
X175771080Y-113736308D03*
D12*
X184280756Y-110351605D03*
X177541423Y-111515861D03*
%TD*%
D10*
%TO.C,SW68*%
X328363750Y-123358750D03*
D11*
X333443750Y-123358750D03*
X323283750Y-123358750D03*
D12*
X330903750Y-118278750D03*
X324553750Y-120818750D03*
%TD*%
D10*
%TO.C,SW70*%
X333126250Y-161458750D03*
D11*
X328046250Y-161458750D03*
X338206250Y-161458750D03*
D12*
X335666250Y-156378750D03*
X329316250Y-158918750D03*
%TD*%
D10*
%TO.C,SW74*%
X352182500Y-188748750D03*
X364082500Y-180508750D03*
D11*
X369162500Y-180508750D03*
D10*
X375982500Y-188748750D03*
D13*
X352182500Y-173508750D03*
X375982500Y-173508750D03*
D11*
X359002500Y-180508750D03*
D12*
X366622500Y-175428750D03*
X360272500Y-177968750D03*
%TD*%
D11*
%TO.C,SW57*%
X276738678Y-146343358D03*
D10*
X281707667Y-145287167D03*
D11*
X286676657Y-144230975D03*
D12*
X283135971Y-139790081D03*
X277452829Y-143594815D03*
%TD*%
D11*
%TO.C,SW43*%
X250107090Y-109622848D03*
X240169111Y-111735231D03*
D10*
X245138100Y-110679040D03*
D12*
X246566404Y-105181954D03*
X240883262Y-108986688D03*
%TD*%
D10*
%TO.C,SW73*%
X352182500Y-169698750D03*
X375982500Y-169698750D03*
D11*
X369162500Y-161458750D03*
D13*
X352182500Y-154458750D03*
X375982500Y-154458750D03*
D11*
X359002500Y-161458750D03*
D10*
X364082500Y-161458750D03*
D12*
X366622500Y-156378750D03*
X360272500Y-158918750D03*
%TD*%
D13*
%TO.C,SW54*%
X240814662Y-205287116D03*
D10*
X243983236Y-220194086D03*
X267263149Y-215245788D03*
X253910000Y-209660001D03*
D11*
X248941011Y-210716192D03*
X258878990Y-208603809D03*
D13*
X264094575Y-200338818D03*
D12*
X255338304Y-204162915D03*
X249655162Y-207967649D03*
%TD*%
D10*
%TO.C,SW52*%
X271693101Y-166891417D03*
D11*
X266724112Y-167947608D03*
X276662091Y-165835225D03*
D12*
X273121405Y-161394331D03*
X267438263Y-165199065D03*
%TD*%
D11*
%TO.C,SW83*%
X409643750Y-199658750D03*
X399483750Y-199658750D03*
D10*
X404563750Y-199658750D03*
D12*
X407103750Y-194578750D03*
X400753750Y-197118750D03*
%TD*%
D11*
%TO.C,SW69*%
X318521250Y-142408750D03*
X328681250Y-142408750D03*
D10*
X323601250Y-142408750D03*
D12*
X326141250Y-137328750D03*
X319791250Y-139868750D03*
%TD*%
D10*
%TO.C,SW35*%
X181170065Y-177712687D03*
D11*
X186139055Y-178768879D03*
X176201075Y-176656496D03*
D12*
X184710751Y-173271793D03*
X177971418Y-174436049D03*
%TD*%
D11*
%TO.C,SW56*%
X282094816Y-125729288D03*
D10*
X287063805Y-124673097D03*
D11*
X292032795Y-123616905D03*
D12*
X288492109Y-119176011D03*
X282808967Y-122980745D03*
%TD*%
D11*
%TO.C,SW39*%
X226193681Y-137611441D03*
X236131660Y-135499058D03*
D10*
X231162670Y-136555250D03*
D12*
X232590974Y-131058164D03*
X226907832Y-134862898D03*
%TD*%
D10*
%TO.C,SW106*%
X504570000Y-199658750D03*
D11*
X499490000Y-199658750D03*
X509650000Y-199658750D03*
D12*
X507110000Y-194578750D03*
X500760000Y-197118750D03*
%TD*%
D11*
%TO.C,SW21*%
X133933805Y-206723743D03*
D10*
X128964815Y-205667551D03*
D11*
X123995825Y-204611360D03*
D12*
X132505501Y-201226657D03*
X125766168Y-202390913D03*
%TD*%
D11*
%TO.C,SW25*%
X138933648Y-168735058D03*
X148871628Y-170847441D03*
D10*
X143902638Y-169791249D03*
D12*
X147443324Y-165350355D03*
X140703991Y-166514611D03*
%TD*%
D11*
%TO.C,SW67*%
X332808750Y-100953653D03*
D10*
X337888750Y-100953653D03*
D11*
X342968750Y-100953653D03*
D12*
X340428750Y-95873653D03*
X334078750Y-98413653D03*
%TD*%
D11*
%TO.C,SW23*%
X161309060Y-134478691D03*
X151371080Y-132366308D03*
D10*
X156340070Y-133422499D03*
D12*
X159880756Y-128981605D03*
X153141423Y-130145861D03*
%TD*%
D11*
%TO.C,SW18*%
X128896153Y-147160249D03*
D10*
X123927163Y-146104057D03*
D11*
X118958173Y-145047866D03*
D12*
X127467849Y-141663163D03*
X120728516Y-142827419D03*
%TD*%
D13*
%TO.C,SW77*%
X368838750Y-116358750D03*
D10*
X345038750Y-131598750D03*
X368838750Y-131598750D03*
D11*
X351858750Y-123358750D03*
X362018750Y-123358750D03*
D13*
X345038750Y-116358750D03*
D10*
X356938750Y-123358750D03*
D12*
X359478750Y-118278750D03*
X353128750Y-120818750D03*
%TD*%
D11*
%TO.C,SW38*%
X221535399Y-115695949D03*
D10*
X226504388Y-114639758D03*
D11*
X231473378Y-113583566D03*
D12*
X227932692Y-109142672D03*
X222249550Y-112947406D03*
%TD*%
D11*
%TO.C,SW107*%
X518540000Y-123458750D03*
D10*
X523620000Y-123458750D03*
D11*
X528700000Y-123458750D03*
D12*
X526160000Y-118378750D03*
X519810000Y-120918750D03*
%TD*%
D11*
%TO.C,SW90*%
X447743750Y-123358750D03*
D10*
X442663750Y-123358750D03*
D11*
X437583750Y-123358750D03*
D12*
X445203750Y-118278750D03*
X438853750Y-120818750D03*
%TD*%
D11*
%TO.C,SW45*%
X239471254Y-154264794D03*
X249409233Y-152152411D03*
D10*
X244440243Y-153208603D03*
D12*
X245868547Y-147711517D03*
X240185405Y-151516251D03*
%TD*%
D11*
%TO.C,SW19*%
X120299937Y-164774340D03*
X130237917Y-166886723D03*
D10*
X125268927Y-165830531D03*
D12*
X128809613Y-161389637D03*
X122070280Y-162553893D03*
%TD*%
D11*
%TO.C,SW53*%
X289939663Y-182488578D03*
X280001684Y-184600961D03*
D10*
X284970673Y-183544770D03*
D12*
X286398977Y-178047684D03*
X280715835Y-181852418D03*
%TD*%
D11*
%TO.C,SW65*%
X333443750Y-180508750D03*
X323283750Y-180508750D03*
D10*
X328363750Y-180508750D03*
D12*
X330903750Y-175428750D03*
X324553750Y-177968750D03*
%TD*%
D10*
%TO.C,SW87*%
X423613750Y-180608750D03*
D11*
X418533750Y-180608750D03*
X428693750Y-180608750D03*
D12*
X426153750Y-175528750D03*
X419803750Y-178068750D03*
%TD*%
D14*
%TO.C,J1*%
X205860000Y-94845000D03*
X201460000Y-94845000D03*
%TD*%
M02*
