M48
; DRILL file {KiCad (6.0.9)} date Fri Dec 16 23:57:10 2022
; FORMAT={-:-/ absolute / metric / decimal}
; #@! TF.CreationDate,2022-12-16T23:57:10-05:00
; #@! TF.GenerationSoftware,Kicad,Pcbnew,(6.0.9)
; #@! TF.FileFunction,Plated,1,2,PTH
FMAT,2
METRIC
; #@! TA.AperFunction,Plated,PTH,ViaDrill
T1C0.400
; #@! TA.AperFunction,Plated,PTH,ComponentDrill
T2C1.500
%
G90
G05
T1
X71.18Y-149.89
X89.1Y-150.36
X92.73Y-151.93
X113.67Y-152.43
X134.34Y-156.61
X152.88Y-161.36
X184.77Y-166.7
X185.33Y-189.18
X186.26Y-165.18
X186.99Y-164.01
X187.73Y-163.1
X188.625Y-162.14
X189.3Y-161.11
X191.54Y-177.09
X193.15Y-168.24
X193.27Y-155.02
X194.62Y-161.19
X195.24Y-168.12
X197.36Y-123.05
X198.07Y-171.2
X198.11Y-173.37
X198.46Y-177.32
X198.92Y-209.61
X198.928Y-174.778
X199.04Y-180.77
X200.28Y-173.36
X200.29Y-171.17
X200.99Y-160.9
X201.095Y-174.71
X201.24Y-170.04
X201.71Y-152.47
X201.74Y-155.0
X202.05Y-105.15
X202.09Y-180.86
X202.91Y-128.93
X204.166Y-168.176
X204.17Y-180.87
X205.04Y-190.13
X205.05Y-178.12
X206.44Y-178.0
X206.63Y-189.95
X207.08Y-118.32
X207.93Y-177.97
X208.04Y-151.54
X209.13Y-177.89
X210.13Y-177.8
X210.91Y-198.715
X211.077Y-177.481
X211.869Y-176.87
X211.9Y-163.15
X212.51Y-198.67
X212.731Y-176.366
X213.72Y-175.8
X214.56Y-175.24
X215.04Y-105.15
X215.395Y-174.691
X215.86Y-128.9
X215.91Y-169.929
X216.4Y-174.77
X216.81Y-172.1
X217.292Y-174.319
X218.08Y-207.53
X218.23Y-162.89
X219.16Y-206.44
X220.05Y-170.27
X233.35Y-204.59
X241.44Y-209.97
X287.7Y-175.08
X312.09Y-171.67
X317.27Y-170.41
X344.12Y-169.41
X370.18Y-166.99
X393.63Y-166.21
X412.71Y-165.42
X431.55Y-164.9
X454.61Y-164.15
X475.5Y-164.71
X494.42Y-165.52
X512.96Y-158.92
T2
X64.874Y-200.667
X71.224Y-198.127
X72.018Y-162.567
X74.399Y-143.521
X74.399Y-181.617
X75.193Y-100.822
X75.193Y-124.467
X78.368Y-160.027
X80.749Y-140.981
X80.749Y-179.077
X81.543Y-98.282
X81.543Y-121.927
X88.686Y-200.667
X94.243Y-124.467
X95.036Y-198.127
X98.211Y-143.517
X98.211Y-162.567
X100.593Y-121.927
X104.561Y-140.977
X104.561Y-160.027
X105.355Y-181.617
X111.705Y-179.077
X113.293Y-122.086
X119.643Y-119.546
X120.729Y-142.827
X121.666Y-99.612
X122.07Y-162.554
X125.766Y-202.391
X127.398Y-183.262
X127.468Y-141.663
X128.406Y-98.448
X128.81Y-161.39
X132.506Y-201.227
X134.137Y-182.098
X134.508Y-126.185
X139.362Y-146.788
X140.274Y-103.594
X140.704Y-166.515
X141.247Y-125.021
X146.031Y-187.223
X146.102Y-145.624
X147.013Y-102.43
X147.443Y-165.35
X152.771Y-186.059
X153.141Y-130.146
X157.996Y-150.749
X158.375Y-209.322
X158.908Y-107.555
X159.338Y-170.475
X159.881Y-128.982
X164.665Y-191.184
X164.735Y-149.585
X165.114Y-208.158
X165.647Y-106.391
X166.077Y-169.311
X171.404Y-190.019
X171.775Y-134.107
X176.63Y-154.71
X177.541Y-111.516
X177.971Y-174.436
X178.514Y-132.942
X183.299Y-195.144
X183.369Y-153.545
X184.281Y-110.352
X184.711Y-173.272
X188.655Y-215.758
X190.038Y-193.98
X190.409Y-138.067
X195.394Y-214.594
X197.148Y-136.903
X219.459Y-214.349
X221.552Y-155.477
X222.25Y-112.947
X224.815Y-193.735
X225.142Y-210.544
X226.908Y-134.863
X227.235Y-151.672
X227.933Y-109.143
X230.171Y-173.121
X230.498Y-189.93
X232.591Y-131.058
X235.854Y-169.316
X240.185Y-151.516
X240.883Y-108.987
X243.448Y-189.774
X245.542Y-130.902
X245.869Y-147.712
X246.566Y-105.182
X248.805Y-169.16
X249.132Y-185.969
X249.655Y-207.968
X251.225Y-127.097
X254.488Y-165.355
X255.338Y-204.163
X258.819Y-147.556
X259.517Y-105.026
X262.082Y-185.813
X264.175Y-126.941
X264.502Y-143.751
X265.2Y-101.221
X267.438Y-165.199
X267.765Y-182.008
X269.858Y-123.137
X273.121Y-161.394
X277.453Y-143.595
X278.151Y-101.065
X280.716Y-181.852
X282.355Y-200.958
X282.809Y-122.981
X283.136Y-139.79
X283.834Y-97.261
X286.072Y-161.238
X286.399Y-178.048
X288.038Y-197.153
X288.492Y-119.176
X291.755Y-157.434
X300.741Y-139.869
X305.504Y-120.819
X305.504Y-177.969
X307.091Y-137.329
X310.266Y-158.919
X311.854Y-118.279
X311.854Y-175.429
X315.029Y-98.414
X316.616Y-156.379
X319.791Y-139.869
X321.379Y-95.874
X324.554Y-120.819
X324.554Y-177.969
X326.141Y-137.329
X326.935Y-197.019
X329.316Y-158.919
X330.904Y-118.279
X330.904Y-175.429
X333.285Y-194.479
X334.079Y-98.414
X335.666Y-156.379
X338.841Y-139.869
X340.429Y-95.874
X345.191Y-137.329
X350.748Y-197.019
X353.129Y-98.414
X353.129Y-120.819
X357.097Y-194.479
X359.479Y-95.874
X359.479Y-118.279
X360.272Y-158.919
X360.272Y-177.969
X362.654Y-139.869
X366.623Y-156.379
X366.623Y-175.429
X369.004Y-137.329
X372.179Y-98.414
X374.56Y-197.019
X378.529Y-95.874
X380.91Y-194.479
X400.754Y-98.414
X400.754Y-120.819
X400.754Y-139.869
X400.754Y-197.119
X407.104Y-95.874
X407.104Y-118.279
X407.104Y-137.329
X407.104Y-194.579
X419.804Y-98.414
X419.804Y-120.819
X419.804Y-139.869
X419.804Y-178.069
X419.804Y-197.119
X426.154Y-95.874
X426.154Y-118.279
X426.154Y-137.329
X426.154Y-175.529
X426.154Y-194.579
X438.854Y-98.414
X438.854Y-120.819
X438.854Y-139.869
X438.854Y-197.119
X445.204Y-95.874
X445.204Y-118.279
X445.204Y-137.329
X445.204Y-194.579
X462.66Y-120.919
X462.66Y-139.969
X462.66Y-159.019
X462.66Y-178.069
X469.01Y-118.379
X469.01Y-137.429
X469.01Y-156.479
X469.01Y-175.529
X472.185Y-197.119
X478.535Y-194.579
X481.71Y-120.919
X481.71Y-139.969
X481.71Y-159.019
X481.71Y-178.069
X488.06Y-118.379
X488.06Y-137.429
X488.06Y-156.479
X488.06Y-175.529
X500.76Y-139.969
X500.76Y-159.019
X500.76Y-178.069
X500.76Y-197.119
X500.86Y-120.919
X507.11Y-137.429
X507.11Y-156.479
X507.11Y-175.529
X507.11Y-194.579
X507.21Y-118.379
X519.81Y-120.919
X519.81Y-149.494
X519.81Y-187.594
X526.16Y-118.379
X526.16Y-146.954
X526.16Y-185.054
T0
M30
