%TF.GenerationSoftware,KiCad,Pcbnew,(6.0.9)*%
%TF.CreationDate,2022-12-16T23:57:13-05:00*%
%TF.ProjectId,rp2040 keeb,72703230-3430-4206-9b65-65622e6b6963,rev?*%
%TF.SameCoordinates,Original*%
%TF.FileFunction,Legend,Top*%
%TF.FilePolarity,Positive*%
%FSLAX46Y46*%
G04 Gerber Fmt 4.6, Leading zero omitted, Abs format (unit mm)*
G04 Created by KiCad (PCBNEW (6.0.9)) date 2022-12-16 23:57:13*
%MOMM*%
%LPD*%
G01*
G04 APERTURE LIST*
%ADD10C,0.150000*%
%ADD11C,0.120000*%
G04 APERTURE END LIST*
D10*
%TO.C,SW103*%
X502384285Y-115989511D02*
X502527142Y-116037130D01*
X502765238Y-116037130D01*
X502860476Y-115989511D01*
X502908095Y-115941892D01*
X502955714Y-115846654D01*
X502955714Y-115751416D01*
X502908095Y-115656178D01*
X502860476Y-115608559D01*
X502765238Y-115560940D01*
X502574761Y-115513321D01*
X502479523Y-115465702D01*
X502431904Y-115418083D01*
X502384285Y-115322845D01*
X502384285Y-115227607D01*
X502431904Y-115132369D01*
X502479523Y-115084750D01*
X502574761Y-115037130D01*
X502812857Y-115037130D01*
X502955714Y-115084750D01*
X503289047Y-115037130D02*
X503527142Y-116037130D01*
X503717619Y-115322845D01*
X503908095Y-116037130D01*
X504146190Y-115037130D01*
X505050952Y-116037130D02*
X504479523Y-116037130D01*
X504765238Y-116037130D02*
X504765238Y-115037130D01*
X504670000Y-115179988D01*
X504574761Y-115275226D01*
X504479523Y-115322845D01*
X505670000Y-115037130D02*
X505765238Y-115037130D01*
X505860476Y-115084750D01*
X505908095Y-115132369D01*
X505955714Y-115227607D01*
X506003333Y-115418083D01*
X506003333Y-115656178D01*
X505955714Y-115846654D01*
X505908095Y-115941892D01*
X505860476Y-115989511D01*
X505765238Y-116037130D01*
X505670000Y-116037130D01*
X505574761Y-115989511D01*
X505527142Y-115941892D01*
X505479523Y-115846654D01*
X505431904Y-115656178D01*
X505431904Y-115418083D01*
X505479523Y-115227607D01*
X505527142Y-115132369D01*
X505574761Y-115084750D01*
X505670000Y-115037130D01*
X506336666Y-115037130D02*
X506955714Y-115037130D01*
X506622380Y-115418083D01*
X506765238Y-115418083D01*
X506860476Y-115465702D01*
X506908095Y-115513321D01*
X506955714Y-115608559D01*
X506955714Y-115846654D01*
X506908095Y-115941892D01*
X506860476Y-115989511D01*
X506765238Y-116037130D01*
X506479523Y-116037130D01*
X506384285Y-115989511D01*
X506336666Y-115941892D01*
%TO.C,SW16*%
X146963879Y-99149434D02*
X146834044Y-99073154D01*
X146601152Y-99023651D01*
X146498094Y-99050428D01*
X146441615Y-99087106D01*
X146375235Y-99170362D01*
X146355434Y-99263519D01*
X146382212Y-99366577D01*
X146418890Y-99423056D01*
X146502146Y-99489435D01*
X146678559Y-99575616D01*
X146761816Y-99641996D01*
X146798493Y-99698475D01*
X146825271Y-99801532D01*
X146805470Y-99894689D01*
X146739090Y-99977945D01*
X146682611Y-100014623D01*
X146579554Y-100041401D01*
X146346661Y-99991898D01*
X146216827Y-99915618D01*
X145880877Y-99892892D02*
X145855896Y-98865242D01*
X145521074Y-99524317D01*
X145483269Y-98786037D01*
X145042465Y-99714682D01*
X144365386Y-98548424D02*
X144924327Y-98667231D01*
X144644856Y-98607827D02*
X144436945Y-99585975D01*
X144559803Y-99466041D01*
X144672761Y-99392685D01*
X144775819Y-99365908D01*
X143319062Y-99348362D02*
X143505375Y-99387964D01*
X143608433Y-99361187D01*
X143664912Y-99324509D01*
X143787771Y-99204574D01*
X143873951Y-99028161D01*
X143953156Y-98655534D01*
X143926378Y-98552476D01*
X143889700Y-98495997D01*
X143806444Y-98429617D01*
X143620130Y-98390015D01*
X143517073Y-98416793D01*
X143460594Y-98453470D01*
X143394214Y-98536727D01*
X143344711Y-98769619D01*
X143371489Y-98872677D01*
X143408167Y-98929156D01*
X143491423Y-98995535D01*
X143677737Y-99035137D01*
X143780794Y-99008360D01*
X143837273Y-98971682D01*
X143903653Y-98888426D01*
%TO.C,SW14*%
X100211795Y-157638260D02*
X100354652Y-157685879D01*
X100592747Y-157685879D01*
X100687985Y-157638260D01*
X100735604Y-157590641D01*
X100783223Y-157495403D01*
X100783223Y-157400165D01*
X100735604Y-157304927D01*
X100687985Y-157257308D01*
X100592747Y-157209689D01*
X100402271Y-157162070D01*
X100307033Y-157114451D01*
X100259414Y-157066832D01*
X100211795Y-156971594D01*
X100211795Y-156876356D01*
X100259414Y-156781118D01*
X100307033Y-156733499D01*
X100402271Y-156685879D01*
X100640366Y-156685879D01*
X100783223Y-156733499D01*
X101116557Y-156685879D02*
X101354652Y-157685879D01*
X101545128Y-156971594D01*
X101735604Y-157685879D01*
X101973699Y-156685879D01*
X102878461Y-157685879D02*
X102307033Y-157685879D01*
X102592747Y-157685879D02*
X102592747Y-156685879D01*
X102497509Y-156828737D01*
X102402271Y-156923975D01*
X102307033Y-156971594D01*
X103735604Y-157019213D02*
X103735604Y-157685879D01*
X103497509Y-156638260D02*
X103259414Y-157352546D01*
X103878461Y-157352546D01*
%TO.C,SW12*%
X115293044Y-117157010D02*
X115435901Y-117204629D01*
X115673996Y-117204629D01*
X115769234Y-117157010D01*
X115816853Y-117109391D01*
X115864472Y-117014153D01*
X115864472Y-116918915D01*
X115816853Y-116823677D01*
X115769234Y-116776058D01*
X115673996Y-116728439D01*
X115483520Y-116680820D01*
X115388282Y-116633201D01*
X115340663Y-116585582D01*
X115293044Y-116490344D01*
X115293044Y-116395106D01*
X115340663Y-116299868D01*
X115388282Y-116252249D01*
X115483520Y-116204629D01*
X115721615Y-116204629D01*
X115864472Y-116252249D01*
X116197806Y-116204629D02*
X116435901Y-117204629D01*
X116626377Y-116490344D01*
X116816853Y-117204629D01*
X117054948Y-116204629D01*
X117959710Y-117204629D02*
X117388282Y-117204629D01*
X117673996Y-117204629D02*
X117673996Y-116204629D01*
X117578758Y-116347487D01*
X117483520Y-116442725D01*
X117388282Y-116490344D01*
X118340663Y-116299868D02*
X118388282Y-116252249D01*
X118483520Y-116204629D01*
X118721615Y-116204629D01*
X118816853Y-116252249D01*
X118864472Y-116299868D01*
X118912091Y-116395106D01*
X118912091Y-116490344D01*
X118864472Y-116633201D01*
X118293044Y-117204629D01*
X118912091Y-117204629D01*
%TO.C,SW64*%
X312266726Y-153989511D02*
X312409583Y-154037130D01*
X312647678Y-154037130D01*
X312742916Y-153989511D01*
X312790535Y-153941892D01*
X312838154Y-153846654D01*
X312838154Y-153751416D01*
X312790535Y-153656178D01*
X312742916Y-153608559D01*
X312647678Y-153560940D01*
X312457202Y-153513321D01*
X312361964Y-153465702D01*
X312314345Y-153418083D01*
X312266726Y-153322845D01*
X312266726Y-153227607D01*
X312314345Y-153132369D01*
X312361964Y-153084750D01*
X312457202Y-153037130D01*
X312695297Y-153037130D01*
X312838154Y-153084750D01*
X313171488Y-153037130D02*
X313409583Y-154037130D01*
X313600059Y-153322845D01*
X313790535Y-154037130D01*
X314028630Y-153037130D01*
X314838154Y-153037130D02*
X314647678Y-153037130D01*
X314552440Y-153084750D01*
X314504821Y-153132369D01*
X314409583Y-153275226D01*
X314361964Y-153465702D01*
X314361964Y-153846654D01*
X314409583Y-153941892D01*
X314457202Y-153989511D01*
X314552440Y-154037130D01*
X314742916Y-154037130D01*
X314838154Y-153989511D01*
X314885773Y-153941892D01*
X314933392Y-153846654D01*
X314933392Y-153608559D01*
X314885773Y-153513321D01*
X314838154Y-153465702D01*
X314742916Y-153418083D01*
X314552440Y-153418083D01*
X314457202Y-153465702D01*
X314409583Y-153513321D01*
X314361964Y-153608559D01*
X315790535Y-153370464D02*
X315790535Y-154037130D01*
X315552440Y-152989511D02*
X315314345Y-153703797D01*
X315933392Y-153703797D01*
%TO.C,SW99*%
X483710476Y-135039511D02*
X483853333Y-135087130D01*
X484091428Y-135087130D01*
X484186666Y-135039511D01*
X484234285Y-134991892D01*
X484281904Y-134896654D01*
X484281904Y-134801416D01*
X484234285Y-134706178D01*
X484186666Y-134658559D01*
X484091428Y-134610940D01*
X483900952Y-134563321D01*
X483805714Y-134515702D01*
X483758095Y-134468083D01*
X483710476Y-134372845D01*
X483710476Y-134277607D01*
X483758095Y-134182369D01*
X483805714Y-134134750D01*
X483900952Y-134087130D01*
X484139047Y-134087130D01*
X484281904Y-134134750D01*
X484615238Y-134087130D02*
X484853333Y-135087130D01*
X485043809Y-134372845D01*
X485234285Y-135087130D01*
X485472380Y-134087130D01*
X485900952Y-135087130D02*
X486091428Y-135087130D01*
X486186666Y-135039511D01*
X486234285Y-134991892D01*
X486329523Y-134849035D01*
X486377142Y-134658559D01*
X486377142Y-134277607D01*
X486329523Y-134182369D01*
X486281904Y-134134750D01*
X486186666Y-134087130D01*
X485996190Y-134087130D01*
X485900952Y-134134750D01*
X485853333Y-134182369D01*
X485805714Y-134277607D01*
X485805714Y-134515702D01*
X485853333Y-134610940D01*
X485900952Y-134658559D01*
X485996190Y-134706178D01*
X486186666Y-134706178D01*
X486281904Y-134658559D01*
X486329523Y-134610940D01*
X486377142Y-134515702D01*
X486853333Y-135087130D02*
X487043809Y-135087130D01*
X487139047Y-135039511D01*
X487186666Y-134991892D01*
X487281904Y-134849035D01*
X487329523Y-134658559D01*
X487329523Y-134277607D01*
X487281904Y-134182369D01*
X487234285Y-134134750D01*
X487139047Y-134087130D01*
X486948571Y-134087130D01*
X486853333Y-134134750D01*
X486805714Y-134182369D01*
X486758095Y-134277607D01*
X486758095Y-134515702D01*
X486805714Y-134610940D01*
X486853333Y-134658559D01*
X486948571Y-134706178D01*
X487139047Y-134706178D01*
X487234285Y-134658559D01*
X487281904Y-134610940D01*
X487329523Y-134515702D01*
%TO.C,SW9*%
X76875485Y-176688260D02*
X77018342Y-176735879D01*
X77256438Y-176735879D01*
X77351676Y-176688260D01*
X77399295Y-176640641D01*
X77446914Y-176545403D01*
X77446914Y-176450165D01*
X77399295Y-176354927D01*
X77351676Y-176307308D01*
X77256438Y-176259689D01*
X77065961Y-176212070D01*
X76970723Y-176164451D01*
X76923104Y-176116832D01*
X76875485Y-176021594D01*
X76875485Y-175926356D01*
X76923104Y-175831118D01*
X76970723Y-175783499D01*
X77065961Y-175735879D01*
X77304057Y-175735879D01*
X77446914Y-175783499D01*
X77780247Y-175735879D02*
X78018342Y-176735879D01*
X78208819Y-176021594D01*
X78399295Y-176735879D01*
X78637390Y-175735879D01*
X79065961Y-176735879D02*
X79256438Y-176735879D01*
X79351676Y-176688260D01*
X79399295Y-176640641D01*
X79494533Y-176497784D01*
X79542152Y-176307308D01*
X79542152Y-175926356D01*
X79494533Y-175831118D01*
X79446914Y-175783499D01*
X79351676Y-175735879D01*
X79161199Y-175735879D01*
X79065961Y-175783499D01*
X79018342Y-175831118D01*
X78970723Y-175926356D01*
X78970723Y-176164451D01*
X79018342Y-176259689D01*
X79065961Y-176307308D01*
X79161199Y-176354927D01*
X79351676Y-176354927D01*
X79446914Y-176307308D01*
X79494533Y-176259689D01*
X79542152Y-176164451D01*
%TO.C,SW51*%
X259751032Y-142318088D02*
X259900668Y-142334964D01*
X260133560Y-142285462D01*
X260216816Y-142219082D01*
X260253494Y-142162603D01*
X260280272Y-142059545D01*
X260260471Y-141966389D01*
X260194091Y-141883132D01*
X260137612Y-141846454D01*
X260034555Y-141819677D01*
X259838340Y-141812701D01*
X259735283Y-141785923D01*
X259678804Y-141749245D01*
X259612424Y-141665989D01*
X259592623Y-141572832D01*
X259619400Y-141469775D01*
X259656078Y-141413296D01*
X259739335Y-141346916D01*
X259972227Y-141297413D01*
X260121863Y-141314290D01*
X260438011Y-141198408D02*
X260878815Y-142127053D01*
X260916621Y-141388774D01*
X261251443Y-142047848D01*
X261276424Y-141020198D01*
X262114836Y-140841988D02*
X261649051Y-140940993D01*
X261701478Y-141416678D01*
X261738156Y-141360199D01*
X261821413Y-141293820D01*
X262054305Y-141244317D01*
X262157362Y-141271094D01*
X262213841Y-141307772D01*
X262280221Y-141391029D01*
X262329724Y-141623921D01*
X262302946Y-141726978D01*
X262266269Y-141783457D01*
X262183012Y-141849837D01*
X261950120Y-141899340D01*
X261847062Y-141872562D01*
X261790583Y-141835885D01*
X263300895Y-141612224D02*
X262741954Y-141731030D01*
X263021424Y-141671627D02*
X262813513Y-140693479D01*
X262750057Y-140853016D01*
X262676702Y-140965974D01*
X262593445Y-141032354D01*
%TO.C,SW3*%
X77669234Y-95893260D02*
X77812091Y-95940879D01*
X78050187Y-95940879D01*
X78145425Y-95893260D01*
X78193044Y-95845641D01*
X78240663Y-95750403D01*
X78240663Y-95655165D01*
X78193044Y-95559927D01*
X78145425Y-95512308D01*
X78050187Y-95464689D01*
X77859710Y-95417070D01*
X77764472Y-95369451D01*
X77716853Y-95321832D01*
X77669234Y-95226594D01*
X77669234Y-95131356D01*
X77716853Y-95036118D01*
X77764472Y-94988499D01*
X77859710Y-94940879D01*
X78097806Y-94940879D01*
X78240663Y-94988499D01*
X78573996Y-94940879D02*
X78812091Y-95940879D01*
X79002568Y-95226594D01*
X79193044Y-95940879D01*
X79431139Y-94940879D01*
X79716853Y-94940879D02*
X80335901Y-94940879D01*
X80002568Y-95321832D01*
X80145425Y-95321832D01*
X80240663Y-95369451D01*
X80288282Y-95417070D01*
X80335901Y-95512308D01*
X80335901Y-95750403D01*
X80288282Y-95845641D01*
X80240663Y-95893260D01*
X80145425Y-95940879D01*
X79859710Y-95940879D01*
X79764472Y-95893260D01*
X79716853Y-95845641D01*
%TO.C,SW71*%
X355129226Y-93484414D02*
X355272083Y-93532033D01*
X355510178Y-93532033D01*
X355605416Y-93484414D01*
X355653035Y-93436795D01*
X355700654Y-93341557D01*
X355700654Y-93246319D01*
X355653035Y-93151081D01*
X355605416Y-93103462D01*
X355510178Y-93055843D01*
X355319702Y-93008224D01*
X355224464Y-92960605D01*
X355176845Y-92912986D01*
X355129226Y-92817748D01*
X355129226Y-92722510D01*
X355176845Y-92627272D01*
X355224464Y-92579653D01*
X355319702Y-92532033D01*
X355557797Y-92532033D01*
X355700654Y-92579653D01*
X356033988Y-92532033D02*
X356272083Y-93532033D01*
X356462559Y-92817748D01*
X356653035Y-93532033D01*
X356891130Y-92532033D01*
X357176845Y-92532033D02*
X357843511Y-92532033D01*
X357414940Y-93532033D01*
X358748273Y-93532033D02*
X358176845Y-93532033D01*
X358462559Y-93532033D02*
X358462559Y-92532033D01*
X358367321Y-92674891D01*
X358272083Y-92770129D01*
X358176845Y-92817748D01*
%TO.C,SW17*%
X141197592Y-121740153D02*
X141067757Y-121663873D01*
X140834865Y-121614370D01*
X140731807Y-121641147D01*
X140675328Y-121677825D01*
X140608948Y-121761081D01*
X140589147Y-121854238D01*
X140615925Y-121957296D01*
X140652603Y-122013775D01*
X140735859Y-122080154D01*
X140912272Y-122166335D01*
X140995529Y-122232715D01*
X141032206Y-122289194D01*
X141058984Y-122392251D01*
X141039183Y-122485408D01*
X140972803Y-122568664D01*
X140916324Y-122605342D01*
X140813267Y-122632120D01*
X140580374Y-122582617D01*
X140450540Y-122506337D01*
X140114590Y-122483611D02*
X140089609Y-121455961D01*
X139754787Y-122115036D01*
X139716982Y-121376756D01*
X139276178Y-122305401D01*
X138599099Y-121139143D02*
X139158040Y-121257950D01*
X138878569Y-121198546D02*
X138670658Y-122176694D01*
X138793516Y-122056760D01*
X138906474Y-121983404D01*
X139009532Y-121956627D01*
X138065138Y-122047987D02*
X137413039Y-121909379D01*
X138040157Y-121020336D01*
%TO.C,SW100*%
X483234285Y-154089511D02*
X483377142Y-154137130D01*
X483615238Y-154137130D01*
X483710476Y-154089511D01*
X483758095Y-154041892D01*
X483805714Y-153946654D01*
X483805714Y-153851416D01*
X483758095Y-153756178D01*
X483710476Y-153708559D01*
X483615238Y-153660940D01*
X483424761Y-153613321D01*
X483329523Y-153565702D01*
X483281904Y-153518083D01*
X483234285Y-153422845D01*
X483234285Y-153327607D01*
X483281904Y-153232369D01*
X483329523Y-153184750D01*
X483424761Y-153137130D01*
X483662857Y-153137130D01*
X483805714Y-153184750D01*
X484139047Y-153137130D02*
X484377142Y-154137130D01*
X484567619Y-153422845D01*
X484758095Y-154137130D01*
X484996190Y-153137130D01*
X485900952Y-154137130D02*
X485329523Y-154137130D01*
X485615238Y-154137130D02*
X485615238Y-153137130D01*
X485520000Y-153279988D01*
X485424761Y-153375226D01*
X485329523Y-153422845D01*
X486520000Y-153137130D02*
X486615238Y-153137130D01*
X486710476Y-153184750D01*
X486758095Y-153232369D01*
X486805714Y-153327607D01*
X486853333Y-153518083D01*
X486853333Y-153756178D01*
X486805714Y-153946654D01*
X486758095Y-154041892D01*
X486710476Y-154089511D01*
X486615238Y-154137130D01*
X486520000Y-154137130D01*
X486424761Y-154089511D01*
X486377142Y-154041892D01*
X486329523Y-153946654D01*
X486281904Y-153756178D01*
X486281904Y-153518083D01*
X486329523Y-153327607D01*
X486377142Y-153232369D01*
X486424761Y-153184750D01*
X486520000Y-153137130D01*
X487472380Y-153137130D02*
X487567619Y-153137130D01*
X487662857Y-153184750D01*
X487710476Y-153232369D01*
X487758095Y-153327607D01*
X487805714Y-153518083D01*
X487805714Y-153756178D01*
X487758095Y-153946654D01*
X487710476Y-154041892D01*
X487662857Y-154089511D01*
X487567619Y-154137130D01*
X487472380Y-154137130D01*
X487377142Y-154089511D01*
X487329523Y-154041892D01*
X487281904Y-153946654D01*
X487234285Y-153756178D01*
X487234285Y-153518083D01*
X487281904Y-153327607D01*
X487329523Y-153232369D01*
X487377142Y-153184750D01*
X487472380Y-153137130D01*
%TO.C,SW97*%
X474185476Y-192189511D02*
X474328333Y-192237130D01*
X474566428Y-192237130D01*
X474661666Y-192189511D01*
X474709285Y-192141892D01*
X474756904Y-192046654D01*
X474756904Y-191951416D01*
X474709285Y-191856178D01*
X474661666Y-191808559D01*
X474566428Y-191760940D01*
X474375952Y-191713321D01*
X474280714Y-191665702D01*
X474233095Y-191618083D01*
X474185476Y-191522845D01*
X474185476Y-191427607D01*
X474233095Y-191332369D01*
X474280714Y-191284750D01*
X474375952Y-191237130D01*
X474614047Y-191237130D01*
X474756904Y-191284750D01*
X475090238Y-191237130D02*
X475328333Y-192237130D01*
X475518809Y-191522845D01*
X475709285Y-192237130D01*
X475947380Y-191237130D01*
X476375952Y-192237130D02*
X476566428Y-192237130D01*
X476661666Y-192189511D01*
X476709285Y-192141892D01*
X476804523Y-191999035D01*
X476852142Y-191808559D01*
X476852142Y-191427607D01*
X476804523Y-191332369D01*
X476756904Y-191284750D01*
X476661666Y-191237130D01*
X476471190Y-191237130D01*
X476375952Y-191284750D01*
X476328333Y-191332369D01*
X476280714Y-191427607D01*
X476280714Y-191665702D01*
X476328333Y-191760940D01*
X476375952Y-191808559D01*
X476471190Y-191856178D01*
X476661666Y-191856178D01*
X476756904Y-191808559D01*
X476804523Y-191760940D01*
X476852142Y-191665702D01*
X477185476Y-191237130D02*
X477852142Y-191237130D01*
X477423571Y-192237130D01*
%TO.C,SW95*%
X464660476Y-154089511D02*
X464803333Y-154137130D01*
X465041428Y-154137130D01*
X465136666Y-154089511D01*
X465184285Y-154041892D01*
X465231904Y-153946654D01*
X465231904Y-153851416D01*
X465184285Y-153756178D01*
X465136666Y-153708559D01*
X465041428Y-153660940D01*
X464850952Y-153613321D01*
X464755714Y-153565702D01*
X464708095Y-153518083D01*
X464660476Y-153422845D01*
X464660476Y-153327607D01*
X464708095Y-153232369D01*
X464755714Y-153184750D01*
X464850952Y-153137130D01*
X465089047Y-153137130D01*
X465231904Y-153184750D01*
X465565238Y-153137130D02*
X465803333Y-154137130D01*
X465993809Y-153422845D01*
X466184285Y-154137130D01*
X466422380Y-153137130D01*
X466850952Y-154137130D02*
X467041428Y-154137130D01*
X467136666Y-154089511D01*
X467184285Y-154041892D01*
X467279523Y-153899035D01*
X467327142Y-153708559D01*
X467327142Y-153327607D01*
X467279523Y-153232369D01*
X467231904Y-153184750D01*
X467136666Y-153137130D01*
X466946190Y-153137130D01*
X466850952Y-153184750D01*
X466803333Y-153232369D01*
X466755714Y-153327607D01*
X466755714Y-153565702D01*
X466803333Y-153660940D01*
X466850952Y-153708559D01*
X466946190Y-153756178D01*
X467136666Y-153756178D01*
X467231904Y-153708559D01*
X467279523Y-153660940D01*
X467327142Y-153565702D01*
X468231904Y-153137130D02*
X467755714Y-153137130D01*
X467708095Y-153613321D01*
X467755714Y-153565702D01*
X467850952Y-153518083D01*
X468089047Y-153518083D01*
X468184285Y-153565702D01*
X468231904Y-153613321D01*
X468279523Y-153708559D01*
X468279523Y-153946654D01*
X468231904Y-154041892D01*
X468184285Y-154089511D01*
X468089047Y-154137130D01*
X467850952Y-154137130D01*
X467755714Y-154089511D01*
X467708095Y-154041892D01*
%TO.C,SW110*%
X225280831Y-188596131D02*
X225430467Y-188613008D01*
X225663360Y-188563505D01*
X225746616Y-188497126D01*
X225783294Y-188440647D01*
X225810071Y-188337589D01*
X225790270Y-188244432D01*
X225723890Y-188161176D01*
X225667411Y-188124498D01*
X225564354Y-188097721D01*
X225368140Y-188090744D01*
X225265082Y-188063967D01*
X225208603Y-188027289D01*
X225142223Y-187944033D01*
X225122422Y-187850876D01*
X225149200Y-187747818D01*
X225185878Y-187691339D01*
X225269134Y-187624960D01*
X225502026Y-187575457D01*
X225651662Y-187592334D01*
X225967811Y-187476451D02*
X226408615Y-188405096D01*
X226446420Y-187666817D01*
X226781242Y-188325892D01*
X226806223Y-187298241D01*
X227899125Y-188088278D02*
X227340184Y-188207085D01*
X227619655Y-188147682D02*
X227411743Y-187169534D01*
X227348288Y-187329071D01*
X227274932Y-187442029D01*
X227191676Y-187508408D01*
X228830695Y-187890267D02*
X228271753Y-188009074D01*
X228551224Y-187949671D02*
X228343312Y-186971523D01*
X228279857Y-187131059D01*
X228206501Y-187244018D01*
X228123245Y-187310397D01*
X229228303Y-186783412D02*
X229321460Y-186763611D01*
X229424517Y-186790389D01*
X229480996Y-186827067D01*
X229547376Y-186910323D01*
X229633556Y-187086736D01*
X229683059Y-187319628D01*
X229676083Y-187515843D01*
X229649306Y-187618900D01*
X229612628Y-187675379D01*
X229529371Y-187741759D01*
X229436215Y-187761560D01*
X229333157Y-187734783D01*
X229276678Y-187698105D01*
X229210298Y-187614848D01*
X229124118Y-187438435D01*
X229074615Y-187205543D01*
X229081591Y-187009328D01*
X229108369Y-186906271D01*
X229145046Y-186849792D01*
X229228303Y-186783412D01*
%TO.C,SW59*%
X307504226Y-173039511D02*
X307647083Y-173087130D01*
X307885178Y-173087130D01*
X307980416Y-173039511D01*
X308028035Y-172991892D01*
X308075654Y-172896654D01*
X308075654Y-172801416D01*
X308028035Y-172706178D01*
X307980416Y-172658559D01*
X307885178Y-172610940D01*
X307694702Y-172563321D01*
X307599464Y-172515702D01*
X307551845Y-172468083D01*
X307504226Y-172372845D01*
X307504226Y-172277607D01*
X307551845Y-172182369D01*
X307599464Y-172134750D01*
X307694702Y-172087130D01*
X307932797Y-172087130D01*
X308075654Y-172134750D01*
X308408988Y-172087130D02*
X308647083Y-173087130D01*
X308837559Y-172372845D01*
X309028035Y-173087130D01*
X309266130Y-172087130D01*
X310123273Y-172087130D02*
X309647083Y-172087130D01*
X309599464Y-172563321D01*
X309647083Y-172515702D01*
X309742321Y-172468083D01*
X309980416Y-172468083D01*
X310075654Y-172515702D01*
X310123273Y-172563321D01*
X310170892Y-172658559D01*
X310170892Y-172896654D01*
X310123273Y-172991892D01*
X310075654Y-173039511D01*
X309980416Y-173087130D01*
X309742321Y-173087130D01*
X309647083Y-173039511D01*
X309599464Y-172991892D01*
X310647083Y-173087130D02*
X310837559Y-173087130D01*
X310932797Y-173039511D01*
X310980416Y-172991892D01*
X311075654Y-172849035D01*
X311123273Y-172658559D01*
X311123273Y-172277607D01*
X311075654Y-172182369D01*
X311028035Y-172134750D01*
X310932797Y-172087130D01*
X310742321Y-172087130D01*
X310647083Y-172134750D01*
X310599464Y-172182369D01*
X310551845Y-172277607D01*
X310551845Y-172515702D01*
X310599464Y-172610940D01*
X310647083Y-172658559D01*
X310742321Y-172706178D01*
X310932797Y-172706178D01*
X311028035Y-172658559D01*
X311075654Y-172610940D01*
X311123273Y-172515702D01*
%TO.C,SW11*%
X128356345Y-95167053D02*
X128226510Y-95090773D01*
X127993618Y-95041270D01*
X127890560Y-95068047D01*
X127834081Y-95104725D01*
X127767701Y-95187981D01*
X127747900Y-95281138D01*
X127774678Y-95384196D01*
X127811356Y-95440675D01*
X127894612Y-95507054D01*
X128071025Y-95593235D01*
X128154282Y-95659615D01*
X128190959Y-95716094D01*
X128217737Y-95819151D01*
X128197936Y-95912308D01*
X128131556Y-95995564D01*
X128075077Y-96032242D01*
X127972020Y-96059020D01*
X127739127Y-96009517D01*
X127609293Y-95933237D01*
X127273343Y-95910511D02*
X127248362Y-94882861D01*
X126913540Y-95541936D01*
X126875735Y-94803656D01*
X126434931Y-95732301D01*
X125757852Y-94566043D02*
X126316793Y-94684850D01*
X126037322Y-94625446D02*
X125829411Y-95603594D01*
X125952269Y-95483660D01*
X126065227Y-95410304D01*
X126168285Y-95383527D01*
X124826282Y-94368032D02*
X125385224Y-94486839D01*
X125105753Y-94427435D02*
X124897841Y-95405583D01*
X125020700Y-95285649D01*
X125133658Y-95212293D01*
X125236716Y-95185516D01*
%TO.C,SW40*%
X222483609Y-150239523D02*
X222633245Y-150256399D01*
X222866137Y-150206897D01*
X222949393Y-150140517D01*
X222986071Y-150084038D01*
X223012849Y-149980980D01*
X222993048Y-149887824D01*
X222926668Y-149804567D01*
X222870189Y-149767889D01*
X222767132Y-149741112D01*
X222570917Y-149734136D01*
X222467860Y-149707358D01*
X222411381Y-149670680D01*
X222345001Y-149587424D01*
X222325200Y-149494267D01*
X222351977Y-149391210D01*
X222388655Y-149334731D01*
X222471912Y-149268351D01*
X222704804Y-149218848D01*
X222854440Y-149235725D01*
X223170588Y-149119843D02*
X223611392Y-150048488D01*
X223649198Y-149310209D01*
X223984020Y-149969283D01*
X224009001Y-148941633D01*
X224870138Y-149099373D02*
X225008746Y-149751471D01*
X224558042Y-148776248D02*
X224473658Y-149524427D01*
X225079178Y-149395720D01*
X225499511Y-148624815D02*
X225592668Y-148605014D01*
X225695726Y-148631791D01*
X225752205Y-148668469D01*
X225818584Y-148751725D01*
X225904765Y-148928139D01*
X225954268Y-149161031D01*
X225947291Y-149357245D01*
X225920514Y-149460303D01*
X225883836Y-149516782D01*
X225800580Y-149583161D01*
X225707423Y-149602963D01*
X225604365Y-149576185D01*
X225547886Y-149539507D01*
X225481507Y-149456251D01*
X225395326Y-149279838D01*
X225345823Y-149046945D01*
X225352800Y-148850731D01*
X225379577Y-148747674D01*
X225416255Y-148691195D01*
X225499511Y-148624815D01*
%TO.C,SW105*%
X502284285Y-173139511D02*
X502427142Y-173187130D01*
X502665238Y-173187130D01*
X502760476Y-173139511D01*
X502808095Y-173091892D01*
X502855714Y-172996654D01*
X502855714Y-172901416D01*
X502808095Y-172806178D01*
X502760476Y-172758559D01*
X502665238Y-172710940D01*
X502474761Y-172663321D01*
X502379523Y-172615702D01*
X502331904Y-172568083D01*
X502284285Y-172472845D01*
X502284285Y-172377607D01*
X502331904Y-172282369D01*
X502379523Y-172234750D01*
X502474761Y-172187130D01*
X502712857Y-172187130D01*
X502855714Y-172234750D01*
X503189047Y-172187130D02*
X503427142Y-173187130D01*
X503617619Y-172472845D01*
X503808095Y-173187130D01*
X504046190Y-172187130D01*
X504950952Y-173187130D02*
X504379523Y-173187130D01*
X504665238Y-173187130D02*
X504665238Y-172187130D01*
X504570000Y-172329988D01*
X504474761Y-172425226D01*
X504379523Y-172472845D01*
X505570000Y-172187130D02*
X505665238Y-172187130D01*
X505760476Y-172234750D01*
X505808095Y-172282369D01*
X505855714Y-172377607D01*
X505903333Y-172568083D01*
X505903333Y-172806178D01*
X505855714Y-172996654D01*
X505808095Y-173091892D01*
X505760476Y-173139511D01*
X505665238Y-173187130D01*
X505570000Y-173187130D01*
X505474761Y-173139511D01*
X505427142Y-173091892D01*
X505379523Y-172996654D01*
X505331904Y-172806178D01*
X505331904Y-172568083D01*
X505379523Y-172377607D01*
X505427142Y-172282369D01*
X505474761Y-172234750D01*
X505570000Y-172187130D01*
X506808095Y-172187130D02*
X506331904Y-172187130D01*
X506284285Y-172663321D01*
X506331904Y-172615702D01*
X506427142Y-172568083D01*
X506665238Y-172568083D01*
X506760476Y-172615702D01*
X506808095Y-172663321D01*
X506855714Y-172758559D01*
X506855714Y-172996654D01*
X506808095Y-173091892D01*
X506760476Y-173139511D01*
X506665238Y-173187130D01*
X506427142Y-173187130D01*
X506331904Y-173139511D01*
X506284285Y-173091892D01*
%TO.C,SW4*%
X77669234Y-119538260D02*
X77812091Y-119585879D01*
X78050187Y-119585879D01*
X78145425Y-119538260D01*
X78193044Y-119490641D01*
X78240663Y-119395403D01*
X78240663Y-119300165D01*
X78193044Y-119204927D01*
X78145425Y-119157308D01*
X78050187Y-119109689D01*
X77859710Y-119062070D01*
X77764472Y-119014451D01*
X77716853Y-118966832D01*
X77669234Y-118871594D01*
X77669234Y-118776356D01*
X77716853Y-118681118D01*
X77764472Y-118633499D01*
X77859710Y-118585879D01*
X78097806Y-118585879D01*
X78240663Y-118633499D01*
X78573996Y-118585879D02*
X78812091Y-119585879D01*
X79002568Y-118871594D01*
X79193044Y-119585879D01*
X79431139Y-118585879D01*
X80240663Y-118919213D02*
X80240663Y-119585879D01*
X80002568Y-118538260D02*
X79764472Y-119252546D01*
X80383520Y-119252546D01*
%TO.C,SW33*%
X197098727Y-133622305D02*
X196968892Y-133546025D01*
X196736000Y-133496522D01*
X196632942Y-133523299D01*
X196576463Y-133559977D01*
X196510083Y-133643233D01*
X196490282Y-133736390D01*
X196517060Y-133839448D01*
X196553738Y-133895927D01*
X196636994Y-133962306D01*
X196813407Y-134048487D01*
X196896664Y-134114867D01*
X196933341Y-134171346D01*
X196960119Y-134274403D01*
X196940318Y-134367560D01*
X196873938Y-134450816D01*
X196817459Y-134487494D01*
X196714402Y-134514272D01*
X196481509Y-134464769D01*
X196351675Y-134388489D01*
X196015725Y-134365763D02*
X195990744Y-133338113D01*
X195655922Y-133997188D01*
X195618117Y-133258908D01*
X195177313Y-134187553D01*
X194897842Y-134128150D02*
X194292322Y-133999443D01*
X194697576Y-133696119D01*
X194557840Y-133666417D01*
X194474584Y-133600038D01*
X194437906Y-133543559D01*
X194411129Y-133440501D01*
X194460631Y-133207609D01*
X194527011Y-133124353D01*
X194583490Y-133087675D01*
X194686547Y-133060897D01*
X194966018Y-133120301D01*
X195049274Y-133186680D01*
X195085952Y-133243159D01*
X193966273Y-133930139D02*
X193360753Y-133801432D01*
X193766006Y-133498108D01*
X193626271Y-133468406D01*
X193543015Y-133402027D01*
X193506337Y-133345548D01*
X193479559Y-133242490D01*
X193529062Y-133009598D01*
X193595442Y-132926341D01*
X193651921Y-132889664D01*
X193754978Y-132862886D01*
X194034449Y-132922290D01*
X194117705Y-132988669D01*
X194154383Y-133045148D01*
%TO.C,SW47*%
X263014039Y-180575691D02*
X263163675Y-180592567D01*
X263396567Y-180543065D01*
X263479823Y-180476685D01*
X263516501Y-180420206D01*
X263543279Y-180317148D01*
X263523478Y-180223992D01*
X263457098Y-180140735D01*
X263400619Y-180104057D01*
X263297562Y-180077280D01*
X263101347Y-180070304D01*
X262998290Y-180043526D01*
X262941811Y-180006848D01*
X262875431Y-179923592D01*
X262855630Y-179830435D01*
X262882407Y-179727378D01*
X262919085Y-179670899D01*
X263002342Y-179604519D01*
X263235234Y-179555016D01*
X263384870Y-179571893D01*
X263701018Y-179456011D02*
X264141822Y-180384656D01*
X264179628Y-179646377D01*
X264514450Y-180305451D01*
X264539431Y-179277801D01*
X265400568Y-179435541D02*
X265539176Y-180087639D01*
X265088472Y-179112416D02*
X265004088Y-179860595D01*
X265609608Y-179731888D01*
X265750471Y-179020386D02*
X266402569Y-178881779D01*
X266191275Y-179949031D01*
%TO.C,SW84*%
X421804226Y-93484414D02*
X421947083Y-93532033D01*
X422185178Y-93532033D01*
X422280416Y-93484414D01*
X422328035Y-93436795D01*
X422375654Y-93341557D01*
X422375654Y-93246319D01*
X422328035Y-93151081D01*
X422280416Y-93103462D01*
X422185178Y-93055843D01*
X421994702Y-93008224D01*
X421899464Y-92960605D01*
X421851845Y-92912986D01*
X421804226Y-92817748D01*
X421804226Y-92722510D01*
X421851845Y-92627272D01*
X421899464Y-92579653D01*
X421994702Y-92532033D01*
X422232797Y-92532033D01*
X422375654Y-92579653D01*
X422708988Y-92532033D02*
X422947083Y-93532033D01*
X423137559Y-92817748D01*
X423328035Y-93532033D01*
X423566130Y-92532033D01*
X424089940Y-92960605D02*
X423994702Y-92912986D01*
X423947083Y-92865367D01*
X423899464Y-92770129D01*
X423899464Y-92722510D01*
X423947083Y-92627272D01*
X423994702Y-92579653D01*
X424089940Y-92532033D01*
X424280416Y-92532033D01*
X424375654Y-92579653D01*
X424423273Y-92627272D01*
X424470892Y-92722510D01*
X424470892Y-92770129D01*
X424423273Y-92865367D01*
X424375654Y-92912986D01*
X424280416Y-92960605D01*
X424089940Y-92960605D01*
X423994702Y-93008224D01*
X423947083Y-93055843D01*
X423899464Y-93151081D01*
X423899464Y-93341557D01*
X423947083Y-93436795D01*
X423994702Y-93484414D01*
X424089940Y-93532033D01*
X424280416Y-93532033D01*
X424375654Y-93484414D01*
X424423273Y-93436795D01*
X424470892Y-93341557D01*
X424470892Y-93151081D01*
X424423273Y-93055843D01*
X424375654Y-93008224D01*
X424280416Y-92960605D01*
X425328035Y-92865367D02*
X425328035Y-93532033D01*
X425089940Y-92484414D02*
X424851845Y-93198700D01*
X425470892Y-93198700D01*
%TO.C,SW8*%
X96719234Y-119538260D02*
X96862091Y-119585879D01*
X97100187Y-119585879D01*
X97195425Y-119538260D01*
X97243044Y-119490641D01*
X97290663Y-119395403D01*
X97290663Y-119300165D01*
X97243044Y-119204927D01*
X97195425Y-119157308D01*
X97100187Y-119109689D01*
X96909710Y-119062070D01*
X96814472Y-119014451D01*
X96766853Y-118966832D01*
X96719234Y-118871594D01*
X96719234Y-118776356D01*
X96766853Y-118681118D01*
X96814472Y-118633499D01*
X96909710Y-118585879D01*
X97147806Y-118585879D01*
X97290663Y-118633499D01*
X97623996Y-118585879D02*
X97862091Y-119585879D01*
X98052568Y-118871594D01*
X98243044Y-119585879D01*
X98481139Y-118585879D01*
X99004948Y-119014451D02*
X98909710Y-118966832D01*
X98862091Y-118919213D01*
X98814472Y-118823975D01*
X98814472Y-118776356D01*
X98862091Y-118681118D01*
X98909710Y-118633499D01*
X99004948Y-118585879D01*
X99195425Y-118585879D01*
X99290663Y-118633499D01*
X99338282Y-118681118D01*
X99385901Y-118776356D01*
X99385901Y-118823975D01*
X99338282Y-118919213D01*
X99290663Y-118966832D01*
X99195425Y-119014451D01*
X99004948Y-119014451D01*
X98909710Y-119062070D01*
X98862091Y-119109689D01*
X98814472Y-119204927D01*
X98814472Y-119395403D01*
X98862091Y-119490641D01*
X98909710Y-119538260D01*
X99004948Y-119585879D01*
X99195425Y-119585879D01*
X99290663Y-119538260D01*
X99338282Y-119490641D01*
X99385901Y-119395403D01*
X99385901Y-119204927D01*
X99338282Y-119109689D01*
X99290663Y-119062070D01*
X99195425Y-119014451D01*
%TO.C,SW102*%
X502284285Y-135039511D02*
X502427142Y-135087130D01*
X502665238Y-135087130D01*
X502760476Y-135039511D01*
X502808095Y-134991892D01*
X502855714Y-134896654D01*
X502855714Y-134801416D01*
X502808095Y-134706178D01*
X502760476Y-134658559D01*
X502665238Y-134610940D01*
X502474761Y-134563321D01*
X502379523Y-134515702D01*
X502331904Y-134468083D01*
X502284285Y-134372845D01*
X502284285Y-134277607D01*
X502331904Y-134182369D01*
X502379523Y-134134750D01*
X502474761Y-134087130D01*
X502712857Y-134087130D01*
X502855714Y-134134750D01*
X503189047Y-134087130D02*
X503427142Y-135087130D01*
X503617619Y-134372845D01*
X503808095Y-135087130D01*
X504046190Y-134087130D01*
X504950952Y-135087130D02*
X504379523Y-135087130D01*
X504665238Y-135087130D02*
X504665238Y-134087130D01*
X504570000Y-134229988D01*
X504474761Y-134325226D01*
X504379523Y-134372845D01*
X505570000Y-134087130D02*
X505665238Y-134087130D01*
X505760476Y-134134750D01*
X505808095Y-134182369D01*
X505855714Y-134277607D01*
X505903333Y-134468083D01*
X505903333Y-134706178D01*
X505855714Y-134896654D01*
X505808095Y-134991892D01*
X505760476Y-135039511D01*
X505665238Y-135087130D01*
X505570000Y-135087130D01*
X505474761Y-135039511D01*
X505427142Y-134991892D01*
X505379523Y-134896654D01*
X505331904Y-134706178D01*
X505331904Y-134468083D01*
X505379523Y-134277607D01*
X505427142Y-134182369D01*
X505474761Y-134134750D01*
X505570000Y-134087130D01*
X506284285Y-134182369D02*
X506331904Y-134134750D01*
X506427142Y-134087130D01*
X506665238Y-134087130D01*
X506760476Y-134134750D01*
X506808095Y-134182369D01*
X506855714Y-134277607D01*
X506855714Y-134372845D01*
X506808095Y-134515702D01*
X506236666Y-135087130D01*
X506855714Y-135087130D01*
%TO.C,SW34*%
X183319530Y-150264581D02*
X183189695Y-150188301D01*
X182956803Y-150138798D01*
X182853745Y-150165575D01*
X182797266Y-150202253D01*
X182730886Y-150285509D01*
X182711085Y-150378666D01*
X182737863Y-150481724D01*
X182774541Y-150538203D01*
X182857797Y-150604582D01*
X183034210Y-150690763D01*
X183117467Y-150757143D01*
X183154144Y-150813622D01*
X183180922Y-150916679D01*
X183161121Y-151009836D01*
X183094741Y-151093092D01*
X183038262Y-151129770D01*
X182935205Y-151156548D01*
X182702312Y-151107045D01*
X182572478Y-151030765D01*
X182236528Y-151008039D02*
X182211547Y-149980389D01*
X181876725Y-150639464D01*
X181838920Y-149901184D01*
X181398116Y-150829829D01*
X181118645Y-150770426D02*
X180513125Y-150641719D01*
X180918379Y-150338395D01*
X180778643Y-150308693D01*
X180695387Y-150242314D01*
X180658709Y-150185835D01*
X180631932Y-150082777D01*
X180681434Y-149849885D01*
X180747814Y-149766629D01*
X180804293Y-149729951D01*
X180907350Y-149703173D01*
X181186821Y-149762577D01*
X181270077Y-149828956D01*
X181306755Y-149885435D01*
X179744017Y-150137460D02*
X179882624Y-149485361D01*
X179897704Y-150559590D02*
X180279105Y-149910416D01*
X179673585Y-149781709D01*
%TO.C,SW93*%
X464660476Y-115989511D02*
X464803333Y-116037130D01*
X465041428Y-116037130D01*
X465136666Y-115989511D01*
X465184285Y-115941892D01*
X465231904Y-115846654D01*
X465231904Y-115751416D01*
X465184285Y-115656178D01*
X465136666Y-115608559D01*
X465041428Y-115560940D01*
X464850952Y-115513321D01*
X464755714Y-115465702D01*
X464708095Y-115418083D01*
X464660476Y-115322845D01*
X464660476Y-115227607D01*
X464708095Y-115132369D01*
X464755714Y-115084750D01*
X464850952Y-115037130D01*
X465089047Y-115037130D01*
X465231904Y-115084750D01*
X465565238Y-115037130D02*
X465803333Y-116037130D01*
X465993809Y-115322845D01*
X466184285Y-116037130D01*
X466422380Y-115037130D01*
X466850952Y-116037130D02*
X467041428Y-116037130D01*
X467136666Y-115989511D01*
X467184285Y-115941892D01*
X467279523Y-115799035D01*
X467327142Y-115608559D01*
X467327142Y-115227607D01*
X467279523Y-115132369D01*
X467231904Y-115084750D01*
X467136666Y-115037130D01*
X466946190Y-115037130D01*
X466850952Y-115084750D01*
X466803333Y-115132369D01*
X466755714Y-115227607D01*
X466755714Y-115465702D01*
X466803333Y-115560940D01*
X466850952Y-115608559D01*
X466946190Y-115656178D01*
X467136666Y-115656178D01*
X467231904Y-115608559D01*
X467279523Y-115560940D01*
X467327142Y-115465702D01*
X467660476Y-115037130D02*
X468279523Y-115037130D01*
X467946190Y-115418083D01*
X468089047Y-115418083D01*
X468184285Y-115465702D01*
X468231904Y-115513321D01*
X468279523Y-115608559D01*
X468279523Y-115846654D01*
X468231904Y-115941892D01*
X468184285Y-115989511D01*
X468089047Y-116037130D01*
X467803333Y-116037130D01*
X467708095Y-115989511D01*
X467660476Y-115941892D01*
%TO.C,SW10*%
X90686795Y-195738260D02*
X90829652Y-195785879D01*
X91067747Y-195785879D01*
X91162985Y-195738260D01*
X91210604Y-195690641D01*
X91258223Y-195595403D01*
X91258223Y-195500165D01*
X91210604Y-195404927D01*
X91162985Y-195357308D01*
X91067747Y-195309689D01*
X90877271Y-195262070D01*
X90782033Y-195214451D01*
X90734414Y-195166832D01*
X90686795Y-195071594D01*
X90686795Y-194976356D01*
X90734414Y-194881118D01*
X90782033Y-194833499D01*
X90877271Y-194785879D01*
X91115366Y-194785879D01*
X91258223Y-194833499D01*
X91591557Y-194785879D02*
X91829652Y-195785879D01*
X92020128Y-195071594D01*
X92210604Y-195785879D01*
X92448699Y-194785879D01*
X93353461Y-195785879D02*
X92782033Y-195785879D01*
X93067747Y-195785879D02*
X93067747Y-194785879D01*
X92972509Y-194928737D01*
X92877271Y-195023975D01*
X92782033Y-195071594D01*
X93972509Y-194785879D02*
X94067747Y-194785879D01*
X94162985Y-194833499D01*
X94210604Y-194881118D01*
X94258223Y-194976356D01*
X94305842Y-195166832D01*
X94305842Y-195404927D01*
X94258223Y-195595403D01*
X94210604Y-195690641D01*
X94162985Y-195738260D01*
X94067747Y-195785879D01*
X93972509Y-195785879D01*
X93877271Y-195738260D01*
X93829652Y-195690641D01*
X93782033Y-195595403D01*
X93734414Y-195404927D01*
X93734414Y-195166832D01*
X93782033Y-194976356D01*
X93829652Y-194881118D01*
X93877271Y-194833499D01*
X93972509Y-194785879D01*
%TO.C,SW31*%
X171354973Y-186738558D02*
X171225138Y-186662278D01*
X170992246Y-186612775D01*
X170889188Y-186639552D01*
X170832709Y-186676230D01*
X170766329Y-186759486D01*
X170746528Y-186852643D01*
X170773306Y-186955701D01*
X170809984Y-187012180D01*
X170893240Y-187078559D01*
X171069653Y-187164740D01*
X171152910Y-187231120D01*
X171189587Y-187287599D01*
X171216365Y-187390656D01*
X171196564Y-187483813D01*
X171130184Y-187567069D01*
X171073705Y-187603747D01*
X170970648Y-187630525D01*
X170737755Y-187581022D01*
X170607921Y-187504742D01*
X170271971Y-187482016D02*
X170246990Y-186454366D01*
X169912168Y-187113441D01*
X169874363Y-186375161D01*
X169433559Y-187303806D01*
X169154088Y-187244403D02*
X168548568Y-187115696D01*
X168953822Y-186812372D01*
X168814086Y-186782670D01*
X168730830Y-186716291D01*
X168694152Y-186659812D01*
X168667375Y-186556754D01*
X168716877Y-186323862D01*
X168783257Y-186240606D01*
X168839736Y-186203928D01*
X168942793Y-186177150D01*
X169222264Y-186236554D01*
X169305520Y-186302933D01*
X169342198Y-186359412D01*
X167824910Y-185939537D02*
X168383852Y-186058344D01*
X168104381Y-185998940D02*
X167896469Y-186977088D01*
X168019328Y-186857154D01*
X168132286Y-186783798D01*
X168235344Y-186757021D01*
%TO.C,SW96*%
X464660476Y-173139511D02*
X464803333Y-173187130D01*
X465041428Y-173187130D01*
X465136666Y-173139511D01*
X465184285Y-173091892D01*
X465231904Y-172996654D01*
X465231904Y-172901416D01*
X465184285Y-172806178D01*
X465136666Y-172758559D01*
X465041428Y-172710940D01*
X464850952Y-172663321D01*
X464755714Y-172615702D01*
X464708095Y-172568083D01*
X464660476Y-172472845D01*
X464660476Y-172377607D01*
X464708095Y-172282369D01*
X464755714Y-172234750D01*
X464850952Y-172187130D01*
X465089047Y-172187130D01*
X465231904Y-172234750D01*
X465565238Y-172187130D02*
X465803333Y-173187130D01*
X465993809Y-172472845D01*
X466184285Y-173187130D01*
X466422380Y-172187130D01*
X466850952Y-173187130D02*
X467041428Y-173187130D01*
X467136666Y-173139511D01*
X467184285Y-173091892D01*
X467279523Y-172949035D01*
X467327142Y-172758559D01*
X467327142Y-172377607D01*
X467279523Y-172282369D01*
X467231904Y-172234750D01*
X467136666Y-172187130D01*
X466946190Y-172187130D01*
X466850952Y-172234750D01*
X466803333Y-172282369D01*
X466755714Y-172377607D01*
X466755714Y-172615702D01*
X466803333Y-172710940D01*
X466850952Y-172758559D01*
X466946190Y-172806178D01*
X467136666Y-172806178D01*
X467231904Y-172758559D01*
X467279523Y-172710940D01*
X467327142Y-172615702D01*
X468184285Y-172187130D02*
X467993809Y-172187130D01*
X467898571Y-172234750D01*
X467850952Y-172282369D01*
X467755714Y-172425226D01*
X467708095Y-172615702D01*
X467708095Y-172996654D01*
X467755714Y-173091892D01*
X467803333Y-173139511D01*
X467898571Y-173187130D01*
X468089047Y-173187130D01*
X468184285Y-173139511D01*
X468231904Y-173091892D01*
X468279523Y-172996654D01*
X468279523Y-172758559D01*
X468231904Y-172663321D01*
X468184285Y-172615702D01*
X468089047Y-172568083D01*
X467898571Y-172568083D01*
X467803333Y-172615702D01*
X467755714Y-172663321D01*
X467708095Y-172758559D01*
%TO.C,SW15*%
X107355545Y-176688260D02*
X107498402Y-176735879D01*
X107736497Y-176735879D01*
X107831735Y-176688260D01*
X107879354Y-176640641D01*
X107926973Y-176545403D01*
X107926973Y-176450165D01*
X107879354Y-176354927D01*
X107831735Y-176307308D01*
X107736497Y-176259689D01*
X107546021Y-176212070D01*
X107450783Y-176164451D01*
X107403164Y-176116832D01*
X107355545Y-176021594D01*
X107355545Y-175926356D01*
X107403164Y-175831118D01*
X107450783Y-175783499D01*
X107546021Y-175735879D01*
X107784116Y-175735879D01*
X107926973Y-175783499D01*
X108260307Y-175735879D02*
X108498402Y-176735879D01*
X108688878Y-176021594D01*
X108879354Y-176735879D01*
X109117449Y-175735879D01*
X110022211Y-176735879D02*
X109450783Y-176735879D01*
X109736497Y-176735879D02*
X109736497Y-175735879D01*
X109641259Y-175878737D01*
X109546021Y-175973975D01*
X109450783Y-176021594D01*
X110926973Y-175735879D02*
X110450783Y-175735879D01*
X110403164Y-176212070D01*
X110450783Y-176164451D01*
X110546021Y-176116832D01*
X110784116Y-176116832D01*
X110879354Y-176164451D01*
X110926973Y-176212070D01*
X110974592Y-176307308D01*
X110974592Y-176545403D01*
X110926973Y-176640641D01*
X110879354Y-176688260D01*
X110784116Y-176735879D01*
X110546021Y-176735879D01*
X110450783Y-176688260D01*
X110403164Y-176640641D01*
%TO.C,SW101*%
X483234285Y-173139511D02*
X483377142Y-173187130D01*
X483615238Y-173187130D01*
X483710476Y-173139511D01*
X483758095Y-173091892D01*
X483805714Y-172996654D01*
X483805714Y-172901416D01*
X483758095Y-172806178D01*
X483710476Y-172758559D01*
X483615238Y-172710940D01*
X483424761Y-172663321D01*
X483329523Y-172615702D01*
X483281904Y-172568083D01*
X483234285Y-172472845D01*
X483234285Y-172377607D01*
X483281904Y-172282369D01*
X483329523Y-172234750D01*
X483424761Y-172187130D01*
X483662857Y-172187130D01*
X483805714Y-172234750D01*
X484139047Y-172187130D02*
X484377142Y-173187130D01*
X484567619Y-172472845D01*
X484758095Y-173187130D01*
X484996190Y-172187130D01*
X485900952Y-173187130D02*
X485329523Y-173187130D01*
X485615238Y-173187130D02*
X485615238Y-172187130D01*
X485520000Y-172329988D01*
X485424761Y-172425226D01*
X485329523Y-172472845D01*
X486520000Y-172187130D02*
X486615238Y-172187130D01*
X486710476Y-172234750D01*
X486758095Y-172282369D01*
X486805714Y-172377607D01*
X486853333Y-172568083D01*
X486853333Y-172806178D01*
X486805714Y-172996654D01*
X486758095Y-173091892D01*
X486710476Y-173139511D01*
X486615238Y-173187130D01*
X486520000Y-173187130D01*
X486424761Y-173139511D01*
X486377142Y-173091892D01*
X486329523Y-172996654D01*
X486281904Y-172806178D01*
X486281904Y-172568083D01*
X486329523Y-172377607D01*
X486377142Y-172282369D01*
X486424761Y-172234750D01*
X486520000Y-172187130D01*
X487805714Y-173187130D02*
X487234285Y-173187130D01*
X487520000Y-173187130D02*
X487520000Y-172187130D01*
X487424761Y-172329988D01*
X487329523Y-172425226D01*
X487234285Y-172472845D01*
%TO.C,SW13*%
X100211795Y-138588260D02*
X100354652Y-138635879D01*
X100592747Y-138635879D01*
X100687985Y-138588260D01*
X100735604Y-138540641D01*
X100783223Y-138445403D01*
X100783223Y-138350165D01*
X100735604Y-138254927D01*
X100687985Y-138207308D01*
X100592747Y-138159689D01*
X100402271Y-138112070D01*
X100307033Y-138064451D01*
X100259414Y-138016832D01*
X100211795Y-137921594D01*
X100211795Y-137826356D01*
X100259414Y-137731118D01*
X100307033Y-137683499D01*
X100402271Y-137635879D01*
X100640366Y-137635879D01*
X100783223Y-137683499D01*
X101116557Y-137635879D02*
X101354652Y-138635879D01*
X101545128Y-137921594D01*
X101735604Y-138635879D01*
X101973699Y-137635879D01*
X102878461Y-138635879D02*
X102307033Y-138635879D01*
X102592747Y-138635879D02*
X102592747Y-137635879D01*
X102497509Y-137778737D01*
X102402271Y-137873975D01*
X102307033Y-137921594D01*
X103211795Y-137635879D02*
X103830842Y-137635879D01*
X103497509Y-138016832D01*
X103640366Y-138016832D01*
X103735604Y-138064451D01*
X103783223Y-138112070D01*
X103830842Y-138207308D01*
X103830842Y-138445403D01*
X103783223Y-138540641D01*
X103735604Y-138588260D01*
X103640366Y-138635879D01*
X103354652Y-138635879D01*
X103259414Y-138588260D01*
X103211795Y-138540641D01*
%TO.C,SW81*%
X402754226Y-115889511D02*
X402897083Y-115937130D01*
X403135178Y-115937130D01*
X403230416Y-115889511D01*
X403278035Y-115841892D01*
X403325654Y-115746654D01*
X403325654Y-115651416D01*
X403278035Y-115556178D01*
X403230416Y-115508559D01*
X403135178Y-115460940D01*
X402944702Y-115413321D01*
X402849464Y-115365702D01*
X402801845Y-115318083D01*
X402754226Y-115222845D01*
X402754226Y-115127607D01*
X402801845Y-115032369D01*
X402849464Y-114984750D01*
X402944702Y-114937130D01*
X403182797Y-114937130D01*
X403325654Y-114984750D01*
X403658988Y-114937130D02*
X403897083Y-115937130D01*
X404087559Y-115222845D01*
X404278035Y-115937130D01*
X404516130Y-114937130D01*
X405039940Y-115365702D02*
X404944702Y-115318083D01*
X404897083Y-115270464D01*
X404849464Y-115175226D01*
X404849464Y-115127607D01*
X404897083Y-115032369D01*
X404944702Y-114984750D01*
X405039940Y-114937130D01*
X405230416Y-114937130D01*
X405325654Y-114984750D01*
X405373273Y-115032369D01*
X405420892Y-115127607D01*
X405420892Y-115175226D01*
X405373273Y-115270464D01*
X405325654Y-115318083D01*
X405230416Y-115365702D01*
X405039940Y-115365702D01*
X404944702Y-115413321D01*
X404897083Y-115460940D01*
X404849464Y-115556178D01*
X404849464Y-115746654D01*
X404897083Y-115841892D01*
X404944702Y-115889511D01*
X405039940Y-115937130D01*
X405230416Y-115937130D01*
X405325654Y-115889511D01*
X405373273Y-115841892D01*
X405420892Y-115746654D01*
X405420892Y-115556178D01*
X405373273Y-115460940D01*
X405325654Y-115413321D01*
X405230416Y-115365702D01*
X406373273Y-115937130D02*
X405801845Y-115937130D01*
X406087559Y-115937130D02*
X406087559Y-114937130D01*
X405992321Y-115079988D01*
X405897083Y-115175226D01*
X405801845Y-115222845D01*
%TO.C,SW104*%
X502284285Y-154089511D02*
X502427142Y-154137130D01*
X502665238Y-154137130D01*
X502760476Y-154089511D01*
X502808095Y-154041892D01*
X502855714Y-153946654D01*
X502855714Y-153851416D01*
X502808095Y-153756178D01*
X502760476Y-153708559D01*
X502665238Y-153660940D01*
X502474761Y-153613321D01*
X502379523Y-153565702D01*
X502331904Y-153518083D01*
X502284285Y-153422845D01*
X502284285Y-153327607D01*
X502331904Y-153232369D01*
X502379523Y-153184750D01*
X502474761Y-153137130D01*
X502712857Y-153137130D01*
X502855714Y-153184750D01*
X503189047Y-153137130D02*
X503427142Y-154137130D01*
X503617619Y-153422845D01*
X503808095Y-154137130D01*
X504046190Y-153137130D01*
X504950952Y-154137130D02*
X504379523Y-154137130D01*
X504665238Y-154137130D02*
X504665238Y-153137130D01*
X504570000Y-153279988D01*
X504474761Y-153375226D01*
X504379523Y-153422845D01*
X505570000Y-153137130D02*
X505665238Y-153137130D01*
X505760476Y-153184750D01*
X505808095Y-153232369D01*
X505855714Y-153327607D01*
X505903333Y-153518083D01*
X505903333Y-153756178D01*
X505855714Y-153946654D01*
X505808095Y-154041892D01*
X505760476Y-154089511D01*
X505665238Y-154137130D01*
X505570000Y-154137130D01*
X505474761Y-154089511D01*
X505427142Y-154041892D01*
X505379523Y-153946654D01*
X505331904Y-153756178D01*
X505331904Y-153518083D01*
X505379523Y-153327607D01*
X505427142Y-153232369D01*
X505474761Y-153184750D01*
X505570000Y-153137130D01*
X506760476Y-153470464D02*
X506760476Y-154137130D01*
X506522380Y-153089511D02*
X506284285Y-153803797D01*
X506903333Y-153803797D01*
%TO.C,SW20*%
X134087552Y-178817119D02*
X133957717Y-178740839D01*
X133724825Y-178691336D01*
X133621767Y-178718113D01*
X133565288Y-178754791D01*
X133498908Y-178838047D01*
X133479107Y-178931204D01*
X133505885Y-179034262D01*
X133542563Y-179090741D01*
X133625819Y-179157120D01*
X133802232Y-179243301D01*
X133885489Y-179309681D01*
X133922166Y-179366160D01*
X133948944Y-179469217D01*
X133929143Y-179562374D01*
X133862763Y-179645630D01*
X133806284Y-179682308D01*
X133703227Y-179709086D01*
X133470334Y-179659583D01*
X133340500Y-179583303D01*
X133004550Y-179560577D02*
X132979569Y-178532927D01*
X132644747Y-179192002D01*
X132606942Y-178453722D01*
X132166138Y-179382367D01*
X131859889Y-179219907D02*
X131803410Y-179256584D01*
X131700353Y-179283362D01*
X131467461Y-179233859D01*
X131384204Y-179167479D01*
X131347526Y-179111000D01*
X131320749Y-179007943D01*
X131340550Y-178914786D01*
X131416830Y-178784951D01*
X132094579Y-178344816D01*
X131489059Y-178216109D01*
X130675627Y-179065549D02*
X130582470Y-179045748D01*
X130499214Y-178979369D01*
X130462536Y-178922890D01*
X130435758Y-178819832D01*
X130428782Y-178623618D01*
X130478285Y-178390726D01*
X130564466Y-178214312D01*
X130630845Y-178131056D01*
X130687324Y-178094378D01*
X130790382Y-178067601D01*
X130883539Y-178087402D01*
X130966795Y-178153781D01*
X131003473Y-178210260D01*
X131030250Y-178313318D01*
X131037226Y-178509532D01*
X130987724Y-178742425D01*
X130901543Y-178918838D01*
X130835163Y-179002094D01*
X130778684Y-179038772D01*
X130675627Y-179065549D01*
%TO.C,SW78*%
X364654226Y-134939511D02*
X364797083Y-134987130D01*
X365035178Y-134987130D01*
X365130416Y-134939511D01*
X365178035Y-134891892D01*
X365225654Y-134796654D01*
X365225654Y-134701416D01*
X365178035Y-134606178D01*
X365130416Y-134558559D01*
X365035178Y-134510940D01*
X364844702Y-134463321D01*
X364749464Y-134415702D01*
X364701845Y-134368083D01*
X364654226Y-134272845D01*
X364654226Y-134177607D01*
X364701845Y-134082369D01*
X364749464Y-134034750D01*
X364844702Y-133987130D01*
X365082797Y-133987130D01*
X365225654Y-134034750D01*
X365558988Y-133987130D02*
X365797083Y-134987130D01*
X365987559Y-134272845D01*
X366178035Y-134987130D01*
X366416130Y-133987130D01*
X366701845Y-133987130D02*
X367368511Y-133987130D01*
X366939940Y-134987130D01*
X367892321Y-134415702D02*
X367797083Y-134368083D01*
X367749464Y-134320464D01*
X367701845Y-134225226D01*
X367701845Y-134177607D01*
X367749464Y-134082369D01*
X367797083Y-134034750D01*
X367892321Y-133987130D01*
X368082797Y-133987130D01*
X368178035Y-134034750D01*
X368225654Y-134082369D01*
X368273273Y-134177607D01*
X368273273Y-134225226D01*
X368225654Y-134320464D01*
X368178035Y-134368083D01*
X368082797Y-134415702D01*
X367892321Y-134415702D01*
X367797083Y-134463321D01*
X367749464Y-134510940D01*
X367701845Y-134606178D01*
X367701845Y-134796654D01*
X367749464Y-134891892D01*
X367797083Y-134939511D01*
X367892321Y-134987130D01*
X368082797Y-134987130D01*
X368178035Y-134939511D01*
X368225654Y-134891892D01*
X368273273Y-134796654D01*
X368273273Y-134606178D01*
X368225654Y-134510940D01*
X368178035Y-134463321D01*
X368082797Y-134415702D01*
%TO.C,SW85*%
X421804226Y-115889511D02*
X421947083Y-115937130D01*
X422185178Y-115937130D01*
X422280416Y-115889511D01*
X422328035Y-115841892D01*
X422375654Y-115746654D01*
X422375654Y-115651416D01*
X422328035Y-115556178D01*
X422280416Y-115508559D01*
X422185178Y-115460940D01*
X421994702Y-115413321D01*
X421899464Y-115365702D01*
X421851845Y-115318083D01*
X421804226Y-115222845D01*
X421804226Y-115127607D01*
X421851845Y-115032369D01*
X421899464Y-114984750D01*
X421994702Y-114937130D01*
X422232797Y-114937130D01*
X422375654Y-114984750D01*
X422708988Y-114937130D02*
X422947083Y-115937130D01*
X423137559Y-115222845D01*
X423328035Y-115937130D01*
X423566130Y-114937130D01*
X424089940Y-115365702D02*
X423994702Y-115318083D01*
X423947083Y-115270464D01*
X423899464Y-115175226D01*
X423899464Y-115127607D01*
X423947083Y-115032369D01*
X423994702Y-114984750D01*
X424089940Y-114937130D01*
X424280416Y-114937130D01*
X424375654Y-114984750D01*
X424423273Y-115032369D01*
X424470892Y-115127607D01*
X424470892Y-115175226D01*
X424423273Y-115270464D01*
X424375654Y-115318083D01*
X424280416Y-115365702D01*
X424089940Y-115365702D01*
X423994702Y-115413321D01*
X423947083Y-115460940D01*
X423899464Y-115556178D01*
X423899464Y-115746654D01*
X423947083Y-115841892D01*
X423994702Y-115889511D01*
X424089940Y-115937130D01*
X424280416Y-115937130D01*
X424375654Y-115889511D01*
X424423273Y-115841892D01*
X424470892Y-115746654D01*
X424470892Y-115556178D01*
X424423273Y-115460940D01*
X424375654Y-115413321D01*
X424280416Y-115365702D01*
X425375654Y-114937130D02*
X424899464Y-114937130D01*
X424851845Y-115413321D01*
X424899464Y-115365702D01*
X424994702Y-115318083D01*
X425232797Y-115318083D01*
X425328035Y-115365702D01*
X425375654Y-115413321D01*
X425423273Y-115508559D01*
X425423273Y-115746654D01*
X425375654Y-115841892D01*
X425328035Y-115889511D01*
X425232797Y-115937130D01*
X424994702Y-115937130D01*
X424899464Y-115889511D01*
X424851845Y-115841892D01*
%TO.C,SW92*%
X440854226Y-192189511D02*
X440997083Y-192237130D01*
X441235178Y-192237130D01*
X441330416Y-192189511D01*
X441378035Y-192141892D01*
X441425654Y-192046654D01*
X441425654Y-191951416D01*
X441378035Y-191856178D01*
X441330416Y-191808559D01*
X441235178Y-191760940D01*
X441044702Y-191713321D01*
X440949464Y-191665702D01*
X440901845Y-191618083D01*
X440854226Y-191522845D01*
X440854226Y-191427607D01*
X440901845Y-191332369D01*
X440949464Y-191284750D01*
X441044702Y-191237130D01*
X441282797Y-191237130D01*
X441425654Y-191284750D01*
X441758988Y-191237130D02*
X441997083Y-192237130D01*
X442187559Y-191522845D01*
X442378035Y-192237130D01*
X442616130Y-191237130D01*
X443044702Y-192237130D02*
X443235178Y-192237130D01*
X443330416Y-192189511D01*
X443378035Y-192141892D01*
X443473273Y-191999035D01*
X443520892Y-191808559D01*
X443520892Y-191427607D01*
X443473273Y-191332369D01*
X443425654Y-191284750D01*
X443330416Y-191237130D01*
X443139940Y-191237130D01*
X443044702Y-191284750D01*
X442997083Y-191332369D01*
X442949464Y-191427607D01*
X442949464Y-191665702D01*
X442997083Y-191760940D01*
X443044702Y-191808559D01*
X443139940Y-191856178D01*
X443330416Y-191856178D01*
X443425654Y-191808559D01*
X443473273Y-191760940D01*
X443520892Y-191665702D01*
X443901845Y-191332369D02*
X443949464Y-191284750D01*
X444044702Y-191237130D01*
X444282797Y-191237130D01*
X444378035Y-191284750D01*
X444425654Y-191332369D01*
X444473273Y-191427607D01*
X444473273Y-191522845D01*
X444425654Y-191665702D01*
X443854226Y-192237130D01*
X444473273Y-192237130D01*
%TO.C,SW28*%
X178465014Y-129661588D02*
X178335179Y-129585308D01*
X178102287Y-129535805D01*
X177999229Y-129562582D01*
X177942750Y-129599260D01*
X177876370Y-129682516D01*
X177856569Y-129775673D01*
X177883347Y-129878731D01*
X177920025Y-129935210D01*
X178003281Y-130001589D01*
X178179694Y-130087770D01*
X178262951Y-130154150D01*
X178299628Y-130210629D01*
X178326406Y-130313686D01*
X178306605Y-130406843D01*
X178240225Y-130490099D01*
X178183746Y-130526777D01*
X178080689Y-130553555D01*
X177847796Y-130504052D01*
X177717962Y-130427772D01*
X177382012Y-130405046D02*
X177357031Y-129377396D01*
X177022209Y-130036471D01*
X176984404Y-129298191D01*
X176543600Y-130226836D01*
X176237351Y-130064376D02*
X176180872Y-130101053D01*
X176077815Y-130127831D01*
X175844923Y-130078328D01*
X175761666Y-130011948D01*
X175724988Y-129955469D01*
X175698211Y-129852412D01*
X175718012Y-129759255D01*
X175794292Y-129629420D01*
X176472041Y-129189285D01*
X175866521Y-129060578D01*
X175188772Y-129500713D02*
X175272029Y-129567093D01*
X175308707Y-129623572D01*
X175335484Y-129726629D01*
X175325583Y-129773207D01*
X175259204Y-129856464D01*
X175202725Y-129893142D01*
X175099667Y-129919919D01*
X174913354Y-129880317D01*
X174830097Y-129813937D01*
X174793419Y-129757458D01*
X174766642Y-129654401D01*
X174776543Y-129607822D01*
X174842922Y-129524566D01*
X174899401Y-129487888D01*
X175002459Y-129461111D01*
X175188772Y-129500713D01*
X175291830Y-129473936D01*
X175348309Y-129437258D01*
X175414688Y-129354001D01*
X175454291Y-129167688D01*
X175427513Y-129064630D01*
X175390835Y-129008151D01*
X175307579Y-128941771D01*
X175121265Y-128902169D01*
X175018208Y-128928947D01*
X174961729Y-128965624D01*
X174895349Y-129048881D01*
X174855747Y-129235195D01*
X174882524Y-129338252D01*
X174919202Y-129394731D01*
X175002459Y-129461111D01*
%TO.C,SW76*%
X374179226Y-93484414D02*
X374322083Y-93532033D01*
X374560178Y-93532033D01*
X374655416Y-93484414D01*
X374703035Y-93436795D01*
X374750654Y-93341557D01*
X374750654Y-93246319D01*
X374703035Y-93151081D01*
X374655416Y-93103462D01*
X374560178Y-93055843D01*
X374369702Y-93008224D01*
X374274464Y-92960605D01*
X374226845Y-92912986D01*
X374179226Y-92817748D01*
X374179226Y-92722510D01*
X374226845Y-92627272D01*
X374274464Y-92579653D01*
X374369702Y-92532033D01*
X374607797Y-92532033D01*
X374750654Y-92579653D01*
X375083988Y-92532033D02*
X375322083Y-93532033D01*
X375512559Y-92817748D01*
X375703035Y-93532033D01*
X375941130Y-92532033D01*
X376226845Y-92532033D02*
X376893511Y-92532033D01*
X376464940Y-93532033D01*
X377703035Y-92532033D02*
X377512559Y-92532033D01*
X377417321Y-92579653D01*
X377369702Y-92627272D01*
X377274464Y-92770129D01*
X377226845Y-92960605D01*
X377226845Y-93341557D01*
X377274464Y-93436795D01*
X377322083Y-93484414D01*
X377417321Y-93532033D01*
X377607797Y-93532033D01*
X377703035Y-93484414D01*
X377750654Y-93436795D01*
X377798273Y-93341557D01*
X377798273Y-93103462D01*
X377750654Y-93008224D01*
X377703035Y-92960605D01*
X377607797Y-92912986D01*
X377417321Y-92912986D01*
X377322083Y-92960605D01*
X377274464Y-93008224D01*
X377226845Y-93103462D01*
%TO.C,SW37*%
X195344824Y-211313343D02*
X195214989Y-211237063D01*
X194982097Y-211187560D01*
X194879039Y-211214337D01*
X194822560Y-211251015D01*
X194756180Y-211334271D01*
X194736379Y-211427428D01*
X194763157Y-211530486D01*
X194799835Y-211586965D01*
X194883091Y-211653344D01*
X195059504Y-211739525D01*
X195142761Y-211805905D01*
X195179438Y-211862384D01*
X195206216Y-211965441D01*
X195186415Y-212058598D01*
X195120035Y-212141854D01*
X195063556Y-212178532D01*
X194960499Y-212205310D01*
X194727606Y-212155807D01*
X194597772Y-212079527D01*
X194261822Y-212056801D02*
X194236841Y-211029151D01*
X193902019Y-211688226D01*
X193864214Y-210949946D01*
X193423410Y-211878591D01*
X193143939Y-211819188D02*
X192538419Y-211690481D01*
X192943673Y-211387157D01*
X192803937Y-211357455D01*
X192720681Y-211291076D01*
X192684003Y-211234597D01*
X192657226Y-211131539D01*
X192706728Y-210898647D01*
X192773108Y-210815391D01*
X192829587Y-210778713D01*
X192932644Y-210751935D01*
X193212115Y-210811339D01*
X193295371Y-210877718D01*
X193332049Y-210934197D01*
X192212370Y-211621177D02*
X191560271Y-211482569D01*
X192187389Y-210593526D01*
%TO.C,SW46*%
X249736466Y-163922338D02*
X249886102Y-163939214D01*
X250118994Y-163889712D01*
X250202250Y-163823332D01*
X250238928Y-163766853D01*
X250265706Y-163663795D01*
X250245905Y-163570639D01*
X250179525Y-163487382D01*
X250123046Y-163450704D01*
X250019989Y-163423927D01*
X249823774Y-163416951D01*
X249720717Y-163390173D01*
X249664238Y-163353495D01*
X249597858Y-163270239D01*
X249578057Y-163177082D01*
X249604834Y-163074025D01*
X249641512Y-163017546D01*
X249724769Y-162951166D01*
X249957661Y-162901663D01*
X250107297Y-162918540D01*
X250423445Y-162802658D02*
X250864249Y-163731303D01*
X250902055Y-162993024D01*
X251236877Y-163652098D01*
X251261858Y-162624448D01*
X252122995Y-162782188D02*
X252261603Y-163434286D01*
X251810899Y-162459063D02*
X251726515Y-163207242D01*
X252332035Y-163078535D01*
X252985261Y-162258127D02*
X252798947Y-162297729D01*
X252715690Y-162364109D01*
X252679012Y-162420588D01*
X252615557Y-162580124D01*
X252608581Y-162776339D01*
X252687785Y-163148967D01*
X252754165Y-163232223D01*
X252810644Y-163268901D01*
X252913702Y-163295678D01*
X253100015Y-163256076D01*
X253183272Y-163189696D01*
X253219950Y-163133217D01*
X253246727Y-163030160D01*
X253197224Y-162797268D01*
X253130845Y-162714011D01*
X253074366Y-162677333D01*
X252971308Y-162650556D01*
X252784994Y-162690158D01*
X252701738Y-162756538D01*
X252665060Y-162813017D01*
X252638283Y-162916074D01*
%TO.C,SW58*%
X287003890Y-156000903D02*
X287153526Y-156017779D01*
X287386418Y-155968277D01*
X287469674Y-155901897D01*
X287506352Y-155845418D01*
X287533130Y-155742360D01*
X287513329Y-155649204D01*
X287446949Y-155565947D01*
X287390470Y-155529269D01*
X287287413Y-155502492D01*
X287091198Y-155495516D01*
X286988141Y-155468738D01*
X286931662Y-155432060D01*
X286865282Y-155348804D01*
X286845481Y-155255647D01*
X286872258Y-155152590D01*
X286908936Y-155096111D01*
X286992193Y-155029731D01*
X287225085Y-154980228D01*
X287374721Y-154997105D01*
X287690869Y-154881223D02*
X288131673Y-155809868D01*
X288169479Y-155071589D01*
X288504301Y-155730663D01*
X288529282Y-154703013D01*
X289367694Y-154524803D02*
X288901909Y-154623808D01*
X288954336Y-155099493D01*
X288991014Y-155043014D01*
X289074271Y-154976635D01*
X289307163Y-154927132D01*
X289410220Y-154953909D01*
X289466699Y-154990587D01*
X289533079Y-155073844D01*
X289582582Y-155306736D01*
X289555804Y-155409793D01*
X289519127Y-155466272D01*
X289435870Y-155532652D01*
X289202978Y-155582155D01*
X289099920Y-155555377D01*
X289043441Y-155518700D01*
X290062319Y-154815302D02*
X289959261Y-154788524D01*
X289902782Y-154751846D01*
X289836403Y-154668590D01*
X289826502Y-154622012D01*
X289853280Y-154518954D01*
X289889957Y-154462475D01*
X289973214Y-154396096D01*
X290159528Y-154356493D01*
X290262585Y-154383271D01*
X290319064Y-154419949D01*
X290385444Y-154503205D01*
X290395344Y-154549783D01*
X290368567Y-154652841D01*
X290331889Y-154709320D01*
X290248633Y-154775699D01*
X290062319Y-154815302D01*
X289979062Y-154881681D01*
X289942385Y-154938160D01*
X289915607Y-155041218D01*
X289955209Y-155227532D01*
X290021589Y-155310788D01*
X290078068Y-155347466D01*
X290181126Y-155374243D01*
X290367439Y-155334641D01*
X290450696Y-155268261D01*
X290487374Y-155211782D01*
X290514151Y-155108725D01*
X290474549Y-154922411D01*
X290408169Y-154839155D01*
X290351690Y-154802477D01*
X290248633Y-154775699D01*
%TO.C,SW41*%
X231102754Y-167883056D02*
X231252390Y-167899932D01*
X231485282Y-167850430D01*
X231568538Y-167784050D01*
X231605216Y-167727571D01*
X231631994Y-167624513D01*
X231612193Y-167531357D01*
X231545813Y-167448100D01*
X231489334Y-167411422D01*
X231386277Y-167384645D01*
X231190062Y-167377669D01*
X231087005Y-167350891D01*
X231030526Y-167314213D01*
X230964146Y-167230957D01*
X230944345Y-167137800D01*
X230971122Y-167034743D01*
X231007800Y-166978264D01*
X231091057Y-166911884D01*
X231323949Y-166862381D01*
X231473585Y-166879258D01*
X231789733Y-166763376D02*
X232230537Y-167692021D01*
X232268343Y-166953742D01*
X232603165Y-167612816D01*
X232628146Y-166585166D01*
X233489283Y-166742906D02*
X233627891Y-167395004D01*
X233177187Y-166419781D02*
X233092803Y-167167960D01*
X233698323Y-167039253D01*
X234652617Y-167177192D02*
X234093676Y-167295998D01*
X234373146Y-167236595D02*
X234165235Y-166258447D01*
X234101779Y-166417984D01*
X234028424Y-166530942D01*
X233945167Y-166597322D01*
%TO.C,SW5*%
X76875485Y-138592010D02*
X77018342Y-138639629D01*
X77256438Y-138639629D01*
X77351676Y-138592010D01*
X77399295Y-138544391D01*
X77446914Y-138449153D01*
X77446914Y-138353915D01*
X77399295Y-138258677D01*
X77351676Y-138211058D01*
X77256438Y-138163439D01*
X77065961Y-138115820D01*
X76970723Y-138068201D01*
X76923104Y-138020582D01*
X76875485Y-137925344D01*
X76875485Y-137830106D01*
X76923104Y-137734868D01*
X76970723Y-137687249D01*
X77065961Y-137639629D01*
X77304057Y-137639629D01*
X77446914Y-137687249D01*
X77780247Y-137639629D02*
X78018342Y-138639629D01*
X78208819Y-137925344D01*
X78399295Y-138639629D01*
X78637390Y-137639629D01*
X79494533Y-137639629D02*
X79018342Y-137639629D01*
X78970723Y-138115820D01*
X79018342Y-138068201D01*
X79113580Y-138020582D01*
X79351676Y-138020582D01*
X79446914Y-138068201D01*
X79494533Y-138115820D01*
X79542152Y-138211058D01*
X79542152Y-138449153D01*
X79494533Y-138544391D01*
X79446914Y-138592010D01*
X79351676Y-138639629D01*
X79113580Y-138639629D01*
X79018342Y-138592010D01*
X78970723Y-138544391D01*
%TO.C,SW75*%
X352747976Y-192089511D02*
X352890833Y-192137130D01*
X353128928Y-192137130D01*
X353224166Y-192089511D01*
X353271785Y-192041892D01*
X353319404Y-191946654D01*
X353319404Y-191851416D01*
X353271785Y-191756178D01*
X353224166Y-191708559D01*
X353128928Y-191660940D01*
X352938452Y-191613321D01*
X352843214Y-191565702D01*
X352795595Y-191518083D01*
X352747976Y-191422845D01*
X352747976Y-191327607D01*
X352795595Y-191232369D01*
X352843214Y-191184750D01*
X352938452Y-191137130D01*
X353176547Y-191137130D01*
X353319404Y-191184750D01*
X353652738Y-191137130D02*
X353890833Y-192137130D01*
X354081309Y-191422845D01*
X354271785Y-192137130D01*
X354509880Y-191137130D01*
X354795595Y-191137130D02*
X355462261Y-191137130D01*
X355033690Y-192137130D01*
X356319404Y-191137130D02*
X355843214Y-191137130D01*
X355795595Y-191613321D01*
X355843214Y-191565702D01*
X355938452Y-191518083D01*
X356176547Y-191518083D01*
X356271785Y-191565702D01*
X356319404Y-191613321D01*
X356367023Y-191708559D01*
X356367023Y-191946654D01*
X356319404Y-192041892D01*
X356271785Y-192089511D01*
X356176547Y-192137130D01*
X355938452Y-192137130D01*
X355843214Y-192089511D01*
X355795595Y-192041892D01*
%TO.C,SW98*%
X483710476Y-115989511D02*
X483853333Y-116037130D01*
X484091428Y-116037130D01*
X484186666Y-115989511D01*
X484234285Y-115941892D01*
X484281904Y-115846654D01*
X484281904Y-115751416D01*
X484234285Y-115656178D01*
X484186666Y-115608559D01*
X484091428Y-115560940D01*
X483900952Y-115513321D01*
X483805714Y-115465702D01*
X483758095Y-115418083D01*
X483710476Y-115322845D01*
X483710476Y-115227607D01*
X483758095Y-115132369D01*
X483805714Y-115084750D01*
X483900952Y-115037130D01*
X484139047Y-115037130D01*
X484281904Y-115084750D01*
X484615238Y-115037130D02*
X484853333Y-116037130D01*
X485043809Y-115322845D01*
X485234285Y-116037130D01*
X485472380Y-115037130D01*
X485900952Y-116037130D02*
X486091428Y-116037130D01*
X486186666Y-115989511D01*
X486234285Y-115941892D01*
X486329523Y-115799035D01*
X486377142Y-115608559D01*
X486377142Y-115227607D01*
X486329523Y-115132369D01*
X486281904Y-115084750D01*
X486186666Y-115037130D01*
X485996190Y-115037130D01*
X485900952Y-115084750D01*
X485853333Y-115132369D01*
X485805714Y-115227607D01*
X485805714Y-115465702D01*
X485853333Y-115560940D01*
X485900952Y-115608559D01*
X485996190Y-115656178D01*
X486186666Y-115656178D01*
X486281904Y-115608559D01*
X486329523Y-115560940D01*
X486377142Y-115465702D01*
X486948571Y-115465702D02*
X486853333Y-115418083D01*
X486805714Y-115370464D01*
X486758095Y-115275226D01*
X486758095Y-115227607D01*
X486805714Y-115132369D01*
X486853333Y-115084750D01*
X486948571Y-115037130D01*
X487139047Y-115037130D01*
X487234285Y-115084750D01*
X487281904Y-115132369D01*
X487329523Y-115227607D01*
X487329523Y-115275226D01*
X487281904Y-115370464D01*
X487234285Y-115418083D01*
X487139047Y-115465702D01*
X486948571Y-115465702D01*
X486853333Y-115513321D01*
X486805714Y-115560940D01*
X486758095Y-115656178D01*
X486758095Y-115846654D01*
X486805714Y-115941892D01*
X486853333Y-115989511D01*
X486948571Y-116037130D01*
X487139047Y-116037130D01*
X487234285Y-115989511D01*
X487281904Y-115941892D01*
X487329523Y-115846654D01*
X487329523Y-115656178D01*
X487281904Y-115560940D01*
X487234285Y-115513321D01*
X487139047Y-115465702D01*
%TO.C,SW49*%
X260448889Y-99788525D02*
X260598525Y-99805401D01*
X260831417Y-99755899D01*
X260914673Y-99689519D01*
X260951351Y-99633040D01*
X260978129Y-99529982D01*
X260958328Y-99436826D01*
X260891948Y-99353569D01*
X260835469Y-99316891D01*
X260732412Y-99290114D01*
X260536197Y-99283138D01*
X260433140Y-99256360D01*
X260376661Y-99219682D01*
X260310281Y-99136426D01*
X260290480Y-99043269D01*
X260317257Y-98940212D01*
X260353935Y-98883733D01*
X260437192Y-98817353D01*
X260670084Y-98767850D01*
X260819720Y-98784727D01*
X261135868Y-98668845D02*
X261576672Y-99597490D01*
X261614478Y-98859211D01*
X261949300Y-99518285D01*
X261974281Y-98490635D01*
X262835418Y-98648375D02*
X262974026Y-99300473D01*
X262523322Y-98325250D02*
X262438938Y-99073429D01*
X263044458Y-98944722D01*
X263532968Y-99181666D02*
X263719281Y-99142064D01*
X263802538Y-99075684D01*
X263839216Y-99019205D01*
X263902671Y-98859669D01*
X263909647Y-98663455D01*
X263830443Y-98290827D01*
X263764063Y-98207571D01*
X263707584Y-98170893D01*
X263604527Y-98144115D01*
X263418213Y-98183718D01*
X263334956Y-98250097D01*
X263298279Y-98306576D01*
X263271501Y-98409634D01*
X263321004Y-98642526D01*
X263387384Y-98725782D01*
X263443863Y-98762460D01*
X263546920Y-98789237D01*
X263733234Y-98749635D01*
X263816490Y-98683256D01*
X263853168Y-98626777D01*
X263879945Y-98523719D01*
%TO.C,SW42*%
X244380328Y-184536409D02*
X244529964Y-184553285D01*
X244762856Y-184503783D01*
X244846112Y-184437403D01*
X244882790Y-184380924D01*
X244909568Y-184277866D01*
X244889767Y-184184710D01*
X244823387Y-184101453D01*
X244766908Y-184064775D01*
X244663851Y-184037998D01*
X244467636Y-184031022D01*
X244364579Y-184004244D01*
X244308100Y-183967566D01*
X244241720Y-183884310D01*
X244221919Y-183791153D01*
X244248696Y-183688096D01*
X244285374Y-183631617D01*
X244368631Y-183565237D01*
X244601523Y-183515734D01*
X244751159Y-183532611D01*
X245067307Y-183416729D02*
X245508111Y-184345374D01*
X245545917Y-183607095D01*
X245880739Y-184266169D01*
X245905720Y-183238519D01*
X246766857Y-183396259D02*
X246905465Y-184048357D01*
X246454761Y-183073134D02*
X246370377Y-183821313D01*
X246975897Y-183692606D01*
X247183139Y-183064361D02*
X247219817Y-183007882D01*
X247303073Y-182941502D01*
X247535966Y-182891999D01*
X247639023Y-182918777D01*
X247695502Y-182955455D01*
X247761882Y-183038711D01*
X247781683Y-183131868D01*
X247764806Y-183281504D01*
X247324671Y-183959252D01*
X247930191Y-183830545D01*
%TO.C,SW62*%
X307504226Y-115889511D02*
X307647083Y-115937130D01*
X307885178Y-115937130D01*
X307980416Y-115889511D01*
X308028035Y-115841892D01*
X308075654Y-115746654D01*
X308075654Y-115651416D01*
X308028035Y-115556178D01*
X307980416Y-115508559D01*
X307885178Y-115460940D01*
X307694702Y-115413321D01*
X307599464Y-115365702D01*
X307551845Y-115318083D01*
X307504226Y-115222845D01*
X307504226Y-115127607D01*
X307551845Y-115032369D01*
X307599464Y-114984750D01*
X307694702Y-114937130D01*
X307932797Y-114937130D01*
X308075654Y-114984750D01*
X308408988Y-114937130D02*
X308647083Y-115937130D01*
X308837559Y-115222845D01*
X309028035Y-115937130D01*
X309266130Y-114937130D01*
X310075654Y-114937130D02*
X309885178Y-114937130D01*
X309789940Y-114984750D01*
X309742321Y-115032369D01*
X309647083Y-115175226D01*
X309599464Y-115365702D01*
X309599464Y-115746654D01*
X309647083Y-115841892D01*
X309694702Y-115889511D01*
X309789940Y-115937130D01*
X309980416Y-115937130D01*
X310075654Y-115889511D01*
X310123273Y-115841892D01*
X310170892Y-115746654D01*
X310170892Y-115508559D01*
X310123273Y-115413321D01*
X310075654Y-115365702D01*
X309980416Y-115318083D01*
X309789940Y-115318083D01*
X309694702Y-115365702D01*
X309647083Y-115413321D01*
X309599464Y-115508559D01*
X310551845Y-115032369D02*
X310599464Y-114984750D01*
X310694702Y-114937130D01*
X310932797Y-114937130D01*
X311028035Y-114984750D01*
X311075654Y-115032369D01*
X311123273Y-115127607D01*
X311123273Y-115222845D01*
X311075654Y-115365702D01*
X310504226Y-115937130D01*
X311123273Y-115937130D01*
%TO.C,SW108*%
X521334285Y-144564511D02*
X521477142Y-144612130D01*
X521715238Y-144612130D01*
X521810476Y-144564511D01*
X521858095Y-144516892D01*
X521905714Y-144421654D01*
X521905714Y-144326416D01*
X521858095Y-144231178D01*
X521810476Y-144183559D01*
X521715238Y-144135940D01*
X521524761Y-144088321D01*
X521429523Y-144040702D01*
X521381904Y-143993083D01*
X521334285Y-143897845D01*
X521334285Y-143802607D01*
X521381904Y-143707369D01*
X521429523Y-143659750D01*
X521524761Y-143612130D01*
X521762857Y-143612130D01*
X521905714Y-143659750D01*
X522239047Y-143612130D02*
X522477142Y-144612130D01*
X522667619Y-143897845D01*
X522858095Y-144612130D01*
X523096190Y-143612130D01*
X524000952Y-144612130D02*
X523429523Y-144612130D01*
X523715238Y-144612130D02*
X523715238Y-143612130D01*
X523620000Y-143754988D01*
X523524761Y-143850226D01*
X523429523Y-143897845D01*
X524620000Y-143612130D02*
X524715238Y-143612130D01*
X524810476Y-143659750D01*
X524858095Y-143707369D01*
X524905714Y-143802607D01*
X524953333Y-143993083D01*
X524953333Y-144231178D01*
X524905714Y-144421654D01*
X524858095Y-144516892D01*
X524810476Y-144564511D01*
X524715238Y-144612130D01*
X524620000Y-144612130D01*
X524524761Y-144564511D01*
X524477142Y-144516892D01*
X524429523Y-144421654D01*
X524381904Y-144231178D01*
X524381904Y-143993083D01*
X524429523Y-143802607D01*
X524477142Y-143707369D01*
X524524761Y-143659750D01*
X524620000Y-143612130D01*
X525524761Y-144040702D02*
X525429523Y-143993083D01*
X525381904Y-143945464D01*
X525334285Y-143850226D01*
X525334285Y-143802607D01*
X525381904Y-143707369D01*
X525429523Y-143659750D01*
X525524761Y-143612130D01*
X525715238Y-143612130D01*
X525810476Y-143659750D01*
X525858095Y-143707369D01*
X525905714Y-143802607D01*
X525905714Y-143850226D01*
X525858095Y-143945464D01*
X525810476Y-143993083D01*
X525715238Y-144040702D01*
X525524761Y-144040702D01*
X525429523Y-144088321D01*
X525381904Y-144135940D01*
X525334285Y-144231178D01*
X525334285Y-144421654D01*
X525381904Y-144516892D01*
X525429523Y-144564511D01*
X525524761Y-144612130D01*
X525715238Y-144612130D01*
X525810476Y-144564511D01*
X525858095Y-144516892D01*
X525905714Y-144421654D01*
X525905714Y-144231178D01*
X525858095Y-144135940D01*
X525810476Y-144088321D01*
X525715238Y-144040702D01*
%TO.C,SW86*%
X421804226Y-134939511D02*
X421947083Y-134987130D01*
X422185178Y-134987130D01*
X422280416Y-134939511D01*
X422328035Y-134891892D01*
X422375654Y-134796654D01*
X422375654Y-134701416D01*
X422328035Y-134606178D01*
X422280416Y-134558559D01*
X422185178Y-134510940D01*
X421994702Y-134463321D01*
X421899464Y-134415702D01*
X421851845Y-134368083D01*
X421804226Y-134272845D01*
X421804226Y-134177607D01*
X421851845Y-134082369D01*
X421899464Y-134034750D01*
X421994702Y-133987130D01*
X422232797Y-133987130D01*
X422375654Y-134034750D01*
X422708988Y-133987130D02*
X422947083Y-134987130D01*
X423137559Y-134272845D01*
X423328035Y-134987130D01*
X423566130Y-133987130D01*
X424089940Y-134415702D02*
X423994702Y-134368083D01*
X423947083Y-134320464D01*
X423899464Y-134225226D01*
X423899464Y-134177607D01*
X423947083Y-134082369D01*
X423994702Y-134034750D01*
X424089940Y-133987130D01*
X424280416Y-133987130D01*
X424375654Y-134034750D01*
X424423273Y-134082369D01*
X424470892Y-134177607D01*
X424470892Y-134225226D01*
X424423273Y-134320464D01*
X424375654Y-134368083D01*
X424280416Y-134415702D01*
X424089940Y-134415702D01*
X423994702Y-134463321D01*
X423947083Y-134510940D01*
X423899464Y-134606178D01*
X423899464Y-134796654D01*
X423947083Y-134891892D01*
X423994702Y-134939511D01*
X424089940Y-134987130D01*
X424280416Y-134987130D01*
X424375654Y-134939511D01*
X424423273Y-134891892D01*
X424470892Y-134796654D01*
X424470892Y-134606178D01*
X424423273Y-134510940D01*
X424375654Y-134463321D01*
X424280416Y-134415702D01*
X425328035Y-133987130D02*
X425137559Y-133987130D01*
X425042321Y-134034750D01*
X424994702Y-134082369D01*
X424899464Y-134225226D01*
X424851845Y-134415702D01*
X424851845Y-134796654D01*
X424899464Y-134891892D01*
X424947083Y-134939511D01*
X425042321Y-134987130D01*
X425232797Y-134987130D01*
X425328035Y-134939511D01*
X425375654Y-134891892D01*
X425423273Y-134796654D01*
X425423273Y-134558559D01*
X425375654Y-134463321D01*
X425328035Y-134415702D01*
X425232797Y-134368083D01*
X425042321Y-134368083D01*
X424947083Y-134415702D01*
X424899464Y-134463321D01*
X424851845Y-134558559D01*
%TO.C,SW26*%
X152721258Y-182777837D02*
X152591423Y-182701557D01*
X152358531Y-182652054D01*
X152255473Y-182678831D01*
X152198994Y-182715509D01*
X152132614Y-182798765D01*
X152112813Y-182891922D01*
X152139591Y-182994980D01*
X152176269Y-183051459D01*
X152259525Y-183117838D01*
X152435938Y-183204019D01*
X152519195Y-183270399D01*
X152555872Y-183326878D01*
X152582650Y-183429935D01*
X152562849Y-183523092D01*
X152496469Y-183606348D01*
X152439990Y-183643026D01*
X152336933Y-183669804D01*
X152104040Y-183620301D01*
X151974206Y-183544021D01*
X151638256Y-183521295D02*
X151613275Y-182493645D01*
X151278453Y-183152720D01*
X151240648Y-182414440D01*
X150799844Y-183343085D01*
X150493595Y-183180625D02*
X150437116Y-183217302D01*
X150334059Y-183244080D01*
X150101167Y-183194577D01*
X150017910Y-183128197D01*
X149981232Y-183071718D01*
X149954455Y-182968661D01*
X149974256Y-182875504D01*
X150050536Y-182745669D01*
X150728285Y-182305534D01*
X150122765Y-182176827D01*
X149076441Y-182976765D02*
X149262754Y-183016367D01*
X149365812Y-182989590D01*
X149422291Y-182952912D01*
X149545150Y-182832977D01*
X149631330Y-182656564D01*
X149710535Y-182283937D01*
X149683757Y-182180879D01*
X149647079Y-182124400D01*
X149563823Y-182058020D01*
X149377509Y-182018418D01*
X149274452Y-182045196D01*
X149217973Y-182081873D01*
X149151593Y-182165130D01*
X149102090Y-182398022D01*
X149128868Y-182501080D01*
X149165546Y-182557559D01*
X149248802Y-182623938D01*
X149435116Y-182663540D01*
X149538173Y-182636763D01*
X149594652Y-182600085D01*
X149661032Y-182516829D01*
%TO.C,SW30*%
X166027582Y-166030339D02*
X165897747Y-165954059D01*
X165664855Y-165904556D01*
X165561797Y-165931333D01*
X165505318Y-165968011D01*
X165438938Y-166051267D01*
X165419137Y-166144424D01*
X165445915Y-166247482D01*
X165482593Y-166303961D01*
X165565849Y-166370340D01*
X165742262Y-166456521D01*
X165825519Y-166522901D01*
X165862196Y-166579380D01*
X165888974Y-166682437D01*
X165869173Y-166775594D01*
X165802793Y-166858850D01*
X165746314Y-166895528D01*
X165643257Y-166922306D01*
X165410364Y-166872803D01*
X165280530Y-166796523D01*
X164944580Y-166773797D02*
X164919599Y-165746147D01*
X164584777Y-166405222D01*
X164546972Y-165666942D01*
X164106168Y-166595587D01*
X163826697Y-166536184D02*
X163221177Y-166407477D01*
X163626431Y-166104153D01*
X163486695Y-166074451D01*
X163403439Y-166008072D01*
X163366761Y-165951593D01*
X163339984Y-165848535D01*
X163389486Y-165615643D01*
X163455866Y-165532387D01*
X163512345Y-165495709D01*
X163615402Y-165468931D01*
X163894873Y-165528335D01*
X163978129Y-165594714D01*
X164014807Y-165651193D01*
X162615657Y-166278769D02*
X162522500Y-166258968D01*
X162439244Y-166192589D01*
X162402566Y-166136110D01*
X162375788Y-166033052D01*
X162368812Y-165836838D01*
X162418315Y-165603946D01*
X162504496Y-165427532D01*
X162570875Y-165344276D01*
X162627354Y-165307598D01*
X162730412Y-165280821D01*
X162823569Y-165300622D01*
X162906825Y-165367001D01*
X162943503Y-165423480D01*
X162970280Y-165526538D01*
X162977256Y-165722752D01*
X162927754Y-165955645D01*
X162841573Y-166132058D01*
X162775193Y-166215314D01*
X162718714Y-166251992D01*
X162615657Y-166278769D01*
%TO.C,SW22*%
X165597592Y-103110150D02*
X165467757Y-103033870D01*
X165234865Y-102984367D01*
X165131807Y-103011144D01*
X165075328Y-103047822D01*
X165008948Y-103131078D01*
X164989147Y-103224235D01*
X165015925Y-103327293D01*
X165052603Y-103383772D01*
X165135859Y-103450151D01*
X165312272Y-103536332D01*
X165395529Y-103602712D01*
X165432206Y-103659191D01*
X165458984Y-103762248D01*
X165439183Y-103855405D01*
X165372803Y-103938661D01*
X165316324Y-103975339D01*
X165213267Y-104002117D01*
X164980374Y-103952614D01*
X164850540Y-103876334D01*
X164514590Y-103853608D02*
X164489609Y-102825958D01*
X164154787Y-103485033D01*
X164116982Y-102746753D01*
X163676178Y-103675398D01*
X163369929Y-103512938D02*
X163313450Y-103549615D01*
X163210393Y-103576393D01*
X162977501Y-103526890D01*
X162894244Y-103460510D01*
X162857566Y-103404031D01*
X162830789Y-103300974D01*
X162850590Y-103207817D01*
X162926870Y-103077982D01*
X163604619Y-102637847D01*
X162999099Y-102509140D01*
X162438360Y-103314926D02*
X162381881Y-103351604D01*
X162278824Y-103378382D01*
X162045932Y-103328879D01*
X161962675Y-103262499D01*
X161925997Y-103206020D01*
X161899220Y-103102963D01*
X161919021Y-103009806D01*
X161995301Y-102879971D01*
X162673049Y-102439836D01*
X162067529Y-102311129D01*
%TO.C,SW60*%
X283287077Y-195720204D02*
X283436713Y-195737080D01*
X283669605Y-195687578D01*
X283752861Y-195621198D01*
X283789539Y-195564719D01*
X283816317Y-195461661D01*
X283796516Y-195368505D01*
X283730136Y-195285248D01*
X283673657Y-195248570D01*
X283570600Y-195221793D01*
X283374385Y-195214817D01*
X283271328Y-195188039D01*
X283214849Y-195151361D01*
X283148469Y-195068105D01*
X283128668Y-194974948D01*
X283155445Y-194871891D01*
X283192123Y-194815412D01*
X283275380Y-194749032D01*
X283508272Y-194699529D01*
X283657908Y-194716406D01*
X283974056Y-194600524D02*
X284414860Y-195529169D01*
X284452666Y-194790890D01*
X284787488Y-195449964D01*
X284812469Y-194422314D01*
X285604302Y-194254004D02*
X285417989Y-194293607D01*
X285334732Y-194359986D01*
X285298054Y-194416465D01*
X285234599Y-194576002D01*
X285227623Y-194772216D01*
X285306827Y-195144844D01*
X285373207Y-195228100D01*
X285429686Y-195264778D01*
X285532743Y-195291555D01*
X285719057Y-195251953D01*
X285802314Y-195185573D01*
X285838991Y-195129094D01*
X285865769Y-195026037D01*
X285816266Y-194793145D01*
X285749886Y-194709888D01*
X285693407Y-194673210D01*
X285590350Y-194646433D01*
X285404036Y-194686035D01*
X285320780Y-194752415D01*
X285284102Y-194808894D01*
X285257325Y-194911951D01*
X286302979Y-194105496D02*
X286396136Y-194085695D01*
X286499194Y-194112472D01*
X286555673Y-194149150D01*
X286622052Y-194232406D01*
X286708233Y-194408820D01*
X286757736Y-194641712D01*
X286750759Y-194837926D01*
X286723982Y-194940984D01*
X286687304Y-194997463D01*
X286604048Y-195063842D01*
X286510891Y-195083644D01*
X286407833Y-195056866D01*
X286351354Y-195020188D01*
X286284975Y-194936932D01*
X286198794Y-194760519D01*
X286149291Y-194527626D01*
X286156268Y-194331412D01*
X286183045Y-194228355D01*
X286219723Y-194171876D01*
X286302979Y-194105496D01*
%TO.C,SW48*%
X220390478Y-209111197D02*
X220540114Y-209128073D01*
X220773006Y-209078571D01*
X220856262Y-209012191D01*
X220892940Y-208955712D01*
X220919718Y-208852654D01*
X220899917Y-208759498D01*
X220833537Y-208676241D01*
X220777058Y-208639563D01*
X220674001Y-208612786D01*
X220477786Y-208605810D01*
X220374729Y-208579032D01*
X220318250Y-208542354D01*
X220251870Y-208459098D01*
X220232069Y-208365941D01*
X220258846Y-208262884D01*
X220295524Y-208206405D01*
X220378781Y-208140025D01*
X220611673Y-208090522D01*
X220761309Y-208107399D01*
X221077457Y-207991517D02*
X221518261Y-208920162D01*
X221556067Y-208181883D01*
X221890889Y-208840957D01*
X221915870Y-207813307D01*
X222777007Y-207971047D02*
X222915615Y-208623145D01*
X222464911Y-207647922D02*
X222380527Y-208396101D01*
X222986047Y-208267394D01*
X223448907Y-207925596D02*
X223345849Y-207898818D01*
X223289370Y-207862140D01*
X223222991Y-207778884D01*
X223213090Y-207732306D01*
X223239868Y-207629248D01*
X223276545Y-207572769D01*
X223359802Y-207506390D01*
X223546116Y-207466787D01*
X223649173Y-207493565D01*
X223705652Y-207530243D01*
X223772032Y-207613499D01*
X223781932Y-207660077D01*
X223755155Y-207763135D01*
X223718477Y-207819614D01*
X223635221Y-207885993D01*
X223448907Y-207925596D01*
X223365650Y-207991975D01*
X223328973Y-208048454D01*
X223302195Y-208151512D01*
X223341797Y-208337826D01*
X223408177Y-208421082D01*
X223464656Y-208457760D01*
X223567714Y-208484537D01*
X223754027Y-208444935D01*
X223837284Y-208378555D01*
X223873962Y-208322076D01*
X223900739Y-208219019D01*
X223861137Y-208032705D01*
X223794757Y-207949449D01*
X223738278Y-207912771D01*
X223635221Y-207885993D01*
%TO.C,SW7*%
X67350485Y-195738260D02*
X67493342Y-195785879D01*
X67731438Y-195785879D01*
X67826676Y-195738260D01*
X67874295Y-195690641D01*
X67921914Y-195595403D01*
X67921914Y-195500165D01*
X67874295Y-195404927D01*
X67826676Y-195357308D01*
X67731438Y-195309689D01*
X67540961Y-195262070D01*
X67445723Y-195214451D01*
X67398104Y-195166832D01*
X67350485Y-195071594D01*
X67350485Y-194976356D01*
X67398104Y-194881118D01*
X67445723Y-194833499D01*
X67540961Y-194785879D01*
X67779057Y-194785879D01*
X67921914Y-194833499D01*
X68255247Y-194785879D02*
X68493342Y-195785879D01*
X68683819Y-195071594D01*
X68874295Y-195785879D01*
X69112390Y-194785879D01*
X69398104Y-194785879D02*
X70064771Y-194785879D01*
X69636199Y-195785879D01*
%TO.C,SW63*%
X302741726Y-134939511D02*
X302884583Y-134987130D01*
X303122678Y-134987130D01*
X303217916Y-134939511D01*
X303265535Y-134891892D01*
X303313154Y-134796654D01*
X303313154Y-134701416D01*
X303265535Y-134606178D01*
X303217916Y-134558559D01*
X303122678Y-134510940D01*
X302932202Y-134463321D01*
X302836964Y-134415702D01*
X302789345Y-134368083D01*
X302741726Y-134272845D01*
X302741726Y-134177607D01*
X302789345Y-134082369D01*
X302836964Y-134034750D01*
X302932202Y-133987130D01*
X303170297Y-133987130D01*
X303313154Y-134034750D01*
X303646488Y-133987130D02*
X303884583Y-134987130D01*
X304075059Y-134272845D01*
X304265535Y-134987130D01*
X304503630Y-133987130D01*
X305313154Y-133987130D02*
X305122678Y-133987130D01*
X305027440Y-134034750D01*
X304979821Y-134082369D01*
X304884583Y-134225226D01*
X304836964Y-134415702D01*
X304836964Y-134796654D01*
X304884583Y-134891892D01*
X304932202Y-134939511D01*
X305027440Y-134987130D01*
X305217916Y-134987130D01*
X305313154Y-134939511D01*
X305360773Y-134891892D01*
X305408392Y-134796654D01*
X305408392Y-134558559D01*
X305360773Y-134463321D01*
X305313154Y-134415702D01*
X305217916Y-134368083D01*
X305027440Y-134368083D01*
X304932202Y-134415702D01*
X304884583Y-134463321D01*
X304836964Y-134558559D01*
X305741726Y-133987130D02*
X306360773Y-133987130D01*
X306027440Y-134368083D01*
X306170297Y-134368083D01*
X306265535Y-134415702D01*
X306313154Y-134463321D01*
X306360773Y-134558559D01*
X306360773Y-134796654D01*
X306313154Y-134891892D01*
X306265535Y-134939511D01*
X306170297Y-134987130D01*
X305884583Y-134987130D01*
X305789345Y-134939511D01*
X305741726Y-134891892D01*
%TO.C,SW55*%
X279082601Y-95827808D02*
X279232237Y-95844684D01*
X279465129Y-95795182D01*
X279548385Y-95728802D01*
X279585063Y-95672323D01*
X279611841Y-95569265D01*
X279592040Y-95476109D01*
X279525660Y-95392852D01*
X279469181Y-95356174D01*
X279366124Y-95329397D01*
X279169909Y-95322421D01*
X279066852Y-95295643D01*
X279010373Y-95258965D01*
X278943993Y-95175709D01*
X278924192Y-95082552D01*
X278950969Y-94979495D01*
X278987647Y-94923016D01*
X279070904Y-94856636D01*
X279303796Y-94807133D01*
X279453432Y-94824010D01*
X279769580Y-94708128D02*
X280210384Y-95636773D01*
X280248190Y-94898494D01*
X280583012Y-95557568D01*
X280607993Y-94529918D01*
X281446405Y-94351708D02*
X280980620Y-94450713D01*
X281033047Y-94926398D01*
X281069725Y-94869919D01*
X281152982Y-94803540D01*
X281385874Y-94754037D01*
X281488931Y-94780814D01*
X281545410Y-94817492D01*
X281611790Y-94900749D01*
X281661293Y-95133641D01*
X281634515Y-95236698D01*
X281597838Y-95293177D01*
X281514581Y-95359557D01*
X281281689Y-95409060D01*
X281178631Y-95382282D01*
X281122152Y-95345605D01*
X282377974Y-94153697D02*
X281912189Y-94252702D01*
X281964617Y-94728387D01*
X282001294Y-94671908D01*
X282084551Y-94605529D01*
X282317443Y-94556026D01*
X282420501Y-94582803D01*
X282476980Y-94619481D01*
X282543359Y-94702738D01*
X282592862Y-94935630D01*
X282566085Y-95038687D01*
X282529407Y-95095166D01*
X282446150Y-95161546D01*
X282213258Y-95211049D01*
X282110201Y-95184271D01*
X282053722Y-95147593D01*
%TO.C,SW61*%
X317029226Y-93484414D02*
X317172083Y-93532033D01*
X317410178Y-93532033D01*
X317505416Y-93484414D01*
X317553035Y-93436795D01*
X317600654Y-93341557D01*
X317600654Y-93246319D01*
X317553035Y-93151081D01*
X317505416Y-93103462D01*
X317410178Y-93055843D01*
X317219702Y-93008224D01*
X317124464Y-92960605D01*
X317076845Y-92912986D01*
X317029226Y-92817748D01*
X317029226Y-92722510D01*
X317076845Y-92627272D01*
X317124464Y-92579653D01*
X317219702Y-92532033D01*
X317457797Y-92532033D01*
X317600654Y-92579653D01*
X317933988Y-92532033D02*
X318172083Y-93532033D01*
X318362559Y-92817748D01*
X318553035Y-93532033D01*
X318791130Y-92532033D01*
X319600654Y-92532033D02*
X319410178Y-92532033D01*
X319314940Y-92579653D01*
X319267321Y-92627272D01*
X319172083Y-92770129D01*
X319124464Y-92960605D01*
X319124464Y-93341557D01*
X319172083Y-93436795D01*
X319219702Y-93484414D01*
X319314940Y-93532033D01*
X319505416Y-93532033D01*
X319600654Y-93484414D01*
X319648273Y-93436795D01*
X319695892Y-93341557D01*
X319695892Y-93103462D01*
X319648273Y-93008224D01*
X319600654Y-92960605D01*
X319505416Y-92912986D01*
X319314940Y-92912986D01*
X319219702Y-92960605D01*
X319172083Y-93008224D01*
X319124464Y-93103462D01*
X320648273Y-93532033D02*
X320076845Y-93532033D01*
X320362559Y-93532033D02*
X320362559Y-92532033D01*
X320267321Y-92674891D01*
X320172083Y-92770129D01*
X320076845Y-92817748D01*
%TO.C,SW24*%
X146052106Y-142343149D02*
X145922271Y-142266869D01*
X145689379Y-142217366D01*
X145586321Y-142244143D01*
X145529842Y-142280821D01*
X145463462Y-142364077D01*
X145443661Y-142457234D01*
X145470439Y-142560292D01*
X145507117Y-142616771D01*
X145590373Y-142683150D01*
X145766786Y-142769331D01*
X145850043Y-142835711D01*
X145886720Y-142892190D01*
X145913498Y-142995247D01*
X145893697Y-143088404D01*
X145827317Y-143171660D01*
X145770838Y-143208338D01*
X145667781Y-143235116D01*
X145434888Y-143185613D01*
X145305054Y-143109333D01*
X144969104Y-143086607D02*
X144944123Y-142058957D01*
X144609301Y-142718032D01*
X144571496Y-141979752D01*
X144130692Y-142908397D01*
X143824443Y-142745937D02*
X143767964Y-142782614D01*
X143664907Y-142809392D01*
X143432015Y-142759889D01*
X143348758Y-142693509D01*
X143312080Y-142637030D01*
X143285303Y-142533973D01*
X143305104Y-142440816D01*
X143381384Y-142310981D01*
X144059133Y-141870846D01*
X143453613Y-141742139D01*
X142476593Y-142216028D02*
X142615200Y-141563929D01*
X142630280Y-142638158D02*
X143011681Y-141988984D01*
X142406161Y-141860277D01*
%TO.C,SW6*%
X74494235Y-157638260D02*
X74637092Y-157685879D01*
X74875188Y-157685879D01*
X74970426Y-157638260D01*
X75018045Y-157590641D01*
X75065664Y-157495403D01*
X75065664Y-157400165D01*
X75018045Y-157304927D01*
X74970426Y-157257308D01*
X74875188Y-157209689D01*
X74684711Y-157162070D01*
X74589473Y-157114451D01*
X74541854Y-157066832D01*
X74494235Y-156971594D01*
X74494235Y-156876356D01*
X74541854Y-156781118D01*
X74589473Y-156733499D01*
X74684711Y-156685879D01*
X74922807Y-156685879D01*
X75065664Y-156733499D01*
X75398997Y-156685879D02*
X75637092Y-157685879D01*
X75827569Y-156971594D01*
X76018045Y-157685879D01*
X76256140Y-156685879D01*
X77065664Y-156685879D02*
X76875188Y-156685879D01*
X76779949Y-156733499D01*
X76732330Y-156781118D01*
X76637092Y-156923975D01*
X76589473Y-157114451D01*
X76589473Y-157495403D01*
X76637092Y-157590641D01*
X76684711Y-157638260D01*
X76779949Y-157685879D01*
X76970426Y-157685879D01*
X77065664Y-157638260D01*
X77113283Y-157590641D01*
X77160902Y-157495403D01*
X77160902Y-157257308D01*
X77113283Y-157162070D01*
X77065664Y-157114451D01*
X76970426Y-157066832D01*
X76779949Y-157066832D01*
X76684711Y-157114451D01*
X76637092Y-157162070D01*
X76589473Y-157257308D01*
%TO.C,SW66*%
X328935476Y-192089511D02*
X329078333Y-192137130D01*
X329316428Y-192137130D01*
X329411666Y-192089511D01*
X329459285Y-192041892D01*
X329506904Y-191946654D01*
X329506904Y-191851416D01*
X329459285Y-191756178D01*
X329411666Y-191708559D01*
X329316428Y-191660940D01*
X329125952Y-191613321D01*
X329030714Y-191565702D01*
X328983095Y-191518083D01*
X328935476Y-191422845D01*
X328935476Y-191327607D01*
X328983095Y-191232369D01*
X329030714Y-191184750D01*
X329125952Y-191137130D01*
X329364047Y-191137130D01*
X329506904Y-191184750D01*
X329840238Y-191137130D02*
X330078333Y-192137130D01*
X330268809Y-191422845D01*
X330459285Y-192137130D01*
X330697380Y-191137130D01*
X331506904Y-191137130D02*
X331316428Y-191137130D01*
X331221190Y-191184750D01*
X331173571Y-191232369D01*
X331078333Y-191375226D01*
X331030714Y-191565702D01*
X331030714Y-191946654D01*
X331078333Y-192041892D01*
X331125952Y-192089511D01*
X331221190Y-192137130D01*
X331411666Y-192137130D01*
X331506904Y-192089511D01*
X331554523Y-192041892D01*
X331602142Y-191946654D01*
X331602142Y-191708559D01*
X331554523Y-191613321D01*
X331506904Y-191565702D01*
X331411666Y-191518083D01*
X331221190Y-191518083D01*
X331125952Y-191565702D01*
X331078333Y-191613321D01*
X331030714Y-191708559D01*
X332459285Y-191137130D02*
X332268809Y-191137130D01*
X332173571Y-191184750D01*
X332125952Y-191232369D01*
X332030714Y-191375226D01*
X331983095Y-191565702D01*
X331983095Y-191946654D01*
X332030714Y-192041892D01*
X332078333Y-192089511D01*
X332173571Y-192137130D01*
X332364047Y-192137130D01*
X332459285Y-192089511D01*
X332506904Y-192041892D01*
X332554523Y-191946654D01*
X332554523Y-191708559D01*
X332506904Y-191613321D01*
X332459285Y-191565702D01*
X332364047Y-191518083D01*
X332173571Y-191518083D01*
X332078333Y-191565702D01*
X332030714Y-191613321D01*
X331983095Y-191708559D01*
%TO.C,SW94*%
X464660476Y-135039511D02*
X464803333Y-135087130D01*
X465041428Y-135087130D01*
X465136666Y-135039511D01*
X465184285Y-134991892D01*
X465231904Y-134896654D01*
X465231904Y-134801416D01*
X465184285Y-134706178D01*
X465136666Y-134658559D01*
X465041428Y-134610940D01*
X464850952Y-134563321D01*
X464755714Y-134515702D01*
X464708095Y-134468083D01*
X464660476Y-134372845D01*
X464660476Y-134277607D01*
X464708095Y-134182369D01*
X464755714Y-134134750D01*
X464850952Y-134087130D01*
X465089047Y-134087130D01*
X465231904Y-134134750D01*
X465565238Y-134087130D02*
X465803333Y-135087130D01*
X465993809Y-134372845D01*
X466184285Y-135087130D01*
X466422380Y-134087130D01*
X466850952Y-135087130D02*
X467041428Y-135087130D01*
X467136666Y-135039511D01*
X467184285Y-134991892D01*
X467279523Y-134849035D01*
X467327142Y-134658559D01*
X467327142Y-134277607D01*
X467279523Y-134182369D01*
X467231904Y-134134750D01*
X467136666Y-134087130D01*
X466946190Y-134087130D01*
X466850952Y-134134750D01*
X466803333Y-134182369D01*
X466755714Y-134277607D01*
X466755714Y-134515702D01*
X466803333Y-134610940D01*
X466850952Y-134658559D01*
X466946190Y-134706178D01*
X467136666Y-134706178D01*
X467231904Y-134658559D01*
X467279523Y-134610940D01*
X467327142Y-134515702D01*
X468184285Y-134420464D02*
X468184285Y-135087130D01*
X467946190Y-134039511D02*
X467708095Y-134753797D01*
X468327142Y-134753797D01*
%TO.C,SW36*%
X189988685Y-190699271D02*
X189858850Y-190622991D01*
X189625958Y-190573488D01*
X189522900Y-190600265D01*
X189466421Y-190636943D01*
X189400041Y-190720199D01*
X189380240Y-190813356D01*
X189407018Y-190916414D01*
X189443696Y-190972893D01*
X189526952Y-191039272D01*
X189703365Y-191125453D01*
X189786622Y-191191833D01*
X189823299Y-191248312D01*
X189850077Y-191351369D01*
X189830276Y-191444526D01*
X189763896Y-191527782D01*
X189707417Y-191564460D01*
X189604360Y-191591238D01*
X189371467Y-191541735D01*
X189241633Y-191465455D01*
X188905683Y-191442729D02*
X188880702Y-190415079D01*
X188545880Y-191074154D01*
X188508075Y-190335874D01*
X188067271Y-191264519D01*
X187787800Y-191205116D02*
X187182280Y-191076409D01*
X187587534Y-190773085D01*
X187447798Y-190743383D01*
X187364542Y-190677004D01*
X187327864Y-190620525D01*
X187301087Y-190517467D01*
X187350589Y-190284575D01*
X187416969Y-190201319D01*
X187473448Y-190164641D01*
X187576505Y-190137863D01*
X187855976Y-190197267D01*
X187939232Y-190263646D01*
X187975910Y-190320125D01*
X186343868Y-190898199D02*
X186530181Y-190937801D01*
X186633239Y-190911024D01*
X186689718Y-190874346D01*
X186812577Y-190754411D01*
X186898757Y-190577998D01*
X186977962Y-190205371D01*
X186951184Y-190102313D01*
X186914506Y-190045834D01*
X186831250Y-189979454D01*
X186644936Y-189939852D01*
X186541879Y-189966630D01*
X186485400Y-190003307D01*
X186419020Y-190086564D01*
X186369517Y-190319456D01*
X186396295Y-190422514D01*
X186432973Y-190478993D01*
X186516229Y-190545372D01*
X186702543Y-190584974D01*
X186805600Y-190558197D01*
X186862079Y-190521519D01*
X186928459Y-190438263D01*
%TO.C,SW50*%
X265107170Y-121704017D02*
X265256806Y-121720893D01*
X265489698Y-121671391D01*
X265572954Y-121605011D01*
X265609632Y-121548532D01*
X265636410Y-121445474D01*
X265616609Y-121352318D01*
X265550229Y-121269061D01*
X265493750Y-121232383D01*
X265390693Y-121205606D01*
X265194478Y-121198630D01*
X265091421Y-121171852D01*
X265034942Y-121135174D01*
X264968562Y-121051918D01*
X264948761Y-120958761D01*
X264975538Y-120855704D01*
X265012216Y-120799225D01*
X265095473Y-120732845D01*
X265328365Y-120683342D01*
X265478001Y-120700219D01*
X265794149Y-120584337D02*
X266234953Y-121512982D01*
X266272759Y-120774703D01*
X266607581Y-121433777D01*
X266632562Y-120406127D01*
X267470974Y-120227917D02*
X267005189Y-120326922D01*
X267057616Y-120802607D01*
X267094294Y-120746128D01*
X267177551Y-120679749D01*
X267410443Y-120630246D01*
X267513500Y-120657023D01*
X267569979Y-120693701D01*
X267636359Y-120776958D01*
X267685862Y-121009850D01*
X267659084Y-121112907D01*
X267622407Y-121169386D01*
X267539150Y-121235766D01*
X267306258Y-121285269D01*
X267203200Y-121258491D01*
X267146721Y-121221814D01*
X268123072Y-120089309D02*
X268216229Y-120069508D01*
X268319287Y-120096285D01*
X268375766Y-120132963D01*
X268442145Y-120216219D01*
X268528326Y-120392633D01*
X268577829Y-120625525D01*
X268570852Y-120821739D01*
X268544075Y-120924797D01*
X268507397Y-120981276D01*
X268424141Y-121047655D01*
X268330984Y-121067457D01*
X268227926Y-121040679D01*
X268171447Y-121004001D01*
X268105068Y-120920745D01*
X268018887Y-120744332D01*
X267969384Y-120511439D01*
X267976361Y-120315225D01*
X268003138Y-120212168D01*
X268039816Y-120155689D01*
X268123072Y-120089309D01*
%TO.C,SW80*%
X402754226Y-93484414D02*
X402897083Y-93532033D01*
X403135178Y-93532033D01*
X403230416Y-93484414D01*
X403278035Y-93436795D01*
X403325654Y-93341557D01*
X403325654Y-93246319D01*
X403278035Y-93151081D01*
X403230416Y-93103462D01*
X403135178Y-93055843D01*
X402944702Y-93008224D01*
X402849464Y-92960605D01*
X402801845Y-92912986D01*
X402754226Y-92817748D01*
X402754226Y-92722510D01*
X402801845Y-92627272D01*
X402849464Y-92579653D01*
X402944702Y-92532033D01*
X403182797Y-92532033D01*
X403325654Y-92579653D01*
X403658988Y-92532033D02*
X403897083Y-93532033D01*
X404087559Y-92817748D01*
X404278035Y-93532033D01*
X404516130Y-92532033D01*
X405039940Y-92960605D02*
X404944702Y-92912986D01*
X404897083Y-92865367D01*
X404849464Y-92770129D01*
X404849464Y-92722510D01*
X404897083Y-92627272D01*
X404944702Y-92579653D01*
X405039940Y-92532033D01*
X405230416Y-92532033D01*
X405325654Y-92579653D01*
X405373273Y-92627272D01*
X405420892Y-92722510D01*
X405420892Y-92770129D01*
X405373273Y-92865367D01*
X405325654Y-92912986D01*
X405230416Y-92960605D01*
X405039940Y-92960605D01*
X404944702Y-93008224D01*
X404897083Y-93055843D01*
X404849464Y-93151081D01*
X404849464Y-93341557D01*
X404897083Y-93436795D01*
X404944702Y-93484414D01*
X405039940Y-93532033D01*
X405230416Y-93532033D01*
X405325654Y-93484414D01*
X405373273Y-93436795D01*
X405420892Y-93341557D01*
X405420892Y-93151081D01*
X405373273Y-93055843D01*
X405325654Y-93008224D01*
X405230416Y-92960605D01*
X406039940Y-92532033D02*
X406135178Y-92532033D01*
X406230416Y-92579653D01*
X406278035Y-92627272D01*
X406325654Y-92722510D01*
X406373273Y-92912986D01*
X406373273Y-93151081D01*
X406325654Y-93341557D01*
X406278035Y-93436795D01*
X406230416Y-93484414D01*
X406135178Y-93532033D01*
X406039940Y-93532033D01*
X405944702Y-93484414D01*
X405897083Y-93436795D01*
X405849464Y-93341557D01*
X405801845Y-93151081D01*
X405801845Y-92912986D01*
X405849464Y-92722510D01*
X405897083Y-92627272D01*
X405944702Y-92579653D01*
X406039940Y-92532033D01*
%TO.C,SW109*%
X521334285Y-182664511D02*
X521477142Y-182712130D01*
X521715238Y-182712130D01*
X521810476Y-182664511D01*
X521858095Y-182616892D01*
X521905714Y-182521654D01*
X521905714Y-182426416D01*
X521858095Y-182331178D01*
X521810476Y-182283559D01*
X521715238Y-182235940D01*
X521524761Y-182188321D01*
X521429523Y-182140702D01*
X521381904Y-182093083D01*
X521334285Y-181997845D01*
X521334285Y-181902607D01*
X521381904Y-181807369D01*
X521429523Y-181759750D01*
X521524761Y-181712130D01*
X521762857Y-181712130D01*
X521905714Y-181759750D01*
X522239047Y-181712130D02*
X522477142Y-182712130D01*
X522667619Y-181997845D01*
X522858095Y-182712130D01*
X523096190Y-181712130D01*
X524000952Y-182712130D02*
X523429523Y-182712130D01*
X523715238Y-182712130D02*
X523715238Y-181712130D01*
X523620000Y-181854988D01*
X523524761Y-181950226D01*
X523429523Y-181997845D01*
X524620000Y-181712130D02*
X524715238Y-181712130D01*
X524810476Y-181759750D01*
X524858095Y-181807369D01*
X524905714Y-181902607D01*
X524953333Y-182093083D01*
X524953333Y-182331178D01*
X524905714Y-182521654D01*
X524858095Y-182616892D01*
X524810476Y-182664511D01*
X524715238Y-182712130D01*
X524620000Y-182712130D01*
X524524761Y-182664511D01*
X524477142Y-182616892D01*
X524429523Y-182521654D01*
X524381904Y-182331178D01*
X524381904Y-182093083D01*
X524429523Y-181902607D01*
X524477142Y-181807369D01*
X524524761Y-181759750D01*
X524620000Y-181712130D01*
X525429523Y-182712130D02*
X525620000Y-182712130D01*
X525715238Y-182664511D01*
X525762857Y-182616892D01*
X525858095Y-182474035D01*
X525905714Y-182283559D01*
X525905714Y-181902607D01*
X525858095Y-181807369D01*
X525810476Y-181759750D01*
X525715238Y-181712130D01*
X525524761Y-181712130D01*
X525429523Y-181759750D01*
X525381904Y-181807369D01*
X525334285Y-181902607D01*
X525334285Y-182140702D01*
X525381904Y-182235940D01*
X525429523Y-182283559D01*
X525524761Y-182331178D01*
X525715238Y-182331178D01*
X525810476Y-182283559D01*
X525858095Y-182235940D01*
X525905714Y-182140702D01*
%TO.C,SW29*%
X164685818Y-146303866D02*
X164555983Y-146227586D01*
X164323091Y-146178083D01*
X164220033Y-146204860D01*
X164163554Y-146241538D01*
X164097174Y-146324794D01*
X164077373Y-146417951D01*
X164104151Y-146521009D01*
X164140829Y-146577488D01*
X164224085Y-146643867D01*
X164400498Y-146730048D01*
X164483755Y-146796428D01*
X164520432Y-146852907D01*
X164547210Y-146955964D01*
X164527409Y-147049121D01*
X164461029Y-147132377D01*
X164404550Y-147169055D01*
X164301493Y-147195833D01*
X164068600Y-147146330D01*
X163938766Y-147070050D01*
X163602816Y-147047324D02*
X163577835Y-146019674D01*
X163243013Y-146678749D01*
X163205208Y-145940469D01*
X162764404Y-146869114D01*
X162458155Y-146706654D02*
X162401676Y-146743331D01*
X162298619Y-146770109D01*
X162065727Y-146720606D01*
X161982470Y-146654226D01*
X161945792Y-146597747D01*
X161919015Y-146494690D01*
X161938816Y-146401533D01*
X162015096Y-146271698D01*
X162692845Y-145831563D01*
X162087325Y-145702856D01*
X161621540Y-145603851D02*
X161435226Y-145564248D01*
X161332169Y-145591026D01*
X161275690Y-145627704D01*
X161152831Y-145747638D01*
X161066650Y-145924051D01*
X160987446Y-146296679D01*
X161014223Y-146399736D01*
X161050901Y-146456215D01*
X161134158Y-146522595D01*
X161320471Y-146562197D01*
X161423529Y-146535420D01*
X161480008Y-146498742D01*
X161546387Y-146415485D01*
X161595890Y-146182593D01*
X161569113Y-146079536D01*
X161532435Y-146023057D01*
X161449179Y-145956677D01*
X161262865Y-145917075D01*
X161159807Y-145943852D01*
X161103328Y-145980530D01*
X161036949Y-146063786D01*
%TO.C,SW88*%
X421804226Y-192189511D02*
X421947083Y-192237130D01*
X422185178Y-192237130D01*
X422280416Y-192189511D01*
X422328035Y-192141892D01*
X422375654Y-192046654D01*
X422375654Y-191951416D01*
X422328035Y-191856178D01*
X422280416Y-191808559D01*
X422185178Y-191760940D01*
X421994702Y-191713321D01*
X421899464Y-191665702D01*
X421851845Y-191618083D01*
X421804226Y-191522845D01*
X421804226Y-191427607D01*
X421851845Y-191332369D01*
X421899464Y-191284750D01*
X421994702Y-191237130D01*
X422232797Y-191237130D01*
X422375654Y-191284750D01*
X422708988Y-191237130D02*
X422947083Y-192237130D01*
X423137559Y-191522845D01*
X423328035Y-192237130D01*
X423566130Y-191237130D01*
X424089940Y-191665702D02*
X423994702Y-191618083D01*
X423947083Y-191570464D01*
X423899464Y-191475226D01*
X423899464Y-191427607D01*
X423947083Y-191332369D01*
X423994702Y-191284750D01*
X424089940Y-191237130D01*
X424280416Y-191237130D01*
X424375654Y-191284750D01*
X424423273Y-191332369D01*
X424470892Y-191427607D01*
X424470892Y-191475226D01*
X424423273Y-191570464D01*
X424375654Y-191618083D01*
X424280416Y-191665702D01*
X424089940Y-191665702D01*
X423994702Y-191713321D01*
X423947083Y-191760940D01*
X423899464Y-191856178D01*
X423899464Y-192046654D01*
X423947083Y-192141892D01*
X423994702Y-192189511D01*
X424089940Y-192237130D01*
X424280416Y-192237130D01*
X424375654Y-192189511D01*
X424423273Y-192141892D01*
X424470892Y-192046654D01*
X424470892Y-191856178D01*
X424423273Y-191760940D01*
X424375654Y-191713321D01*
X424280416Y-191665702D01*
X425042321Y-191665702D02*
X424947083Y-191618083D01*
X424899464Y-191570464D01*
X424851845Y-191475226D01*
X424851845Y-191427607D01*
X424899464Y-191332369D01*
X424947083Y-191284750D01*
X425042321Y-191237130D01*
X425232797Y-191237130D01*
X425328035Y-191284750D01*
X425375654Y-191332369D01*
X425423273Y-191427607D01*
X425423273Y-191475226D01*
X425375654Y-191570464D01*
X425328035Y-191618083D01*
X425232797Y-191665702D01*
X425042321Y-191665702D01*
X424947083Y-191713321D01*
X424899464Y-191760940D01*
X424851845Y-191856178D01*
X424851845Y-192046654D01*
X424899464Y-192141892D01*
X424947083Y-192189511D01*
X425042321Y-192237130D01*
X425232797Y-192237130D01*
X425328035Y-192189511D01*
X425375654Y-192141892D01*
X425423273Y-192046654D01*
X425423273Y-191856178D01*
X425375654Y-191760940D01*
X425328035Y-191713321D01*
X425232797Y-191665702D01*
%TO.C,SW44*%
X246473459Y-125664735D02*
X246623095Y-125681611D01*
X246855987Y-125632109D01*
X246939243Y-125565729D01*
X246975921Y-125509250D01*
X247002699Y-125406192D01*
X246982898Y-125313036D01*
X246916518Y-125229779D01*
X246860039Y-125193101D01*
X246756982Y-125166324D01*
X246560767Y-125159348D01*
X246457710Y-125132570D01*
X246401231Y-125095892D01*
X246334851Y-125012636D01*
X246315050Y-124919479D01*
X246341827Y-124816422D01*
X246378505Y-124759943D01*
X246461762Y-124693563D01*
X246694654Y-124644060D01*
X246844290Y-124660937D01*
X247160438Y-124545055D02*
X247601242Y-125473700D01*
X247639048Y-124735421D01*
X247973870Y-125394495D01*
X247998851Y-124366845D01*
X248859988Y-124524585D02*
X248998596Y-125176683D01*
X248547892Y-124201460D02*
X248463508Y-124949639D01*
X249069028Y-124820932D01*
X249791557Y-124326573D02*
X249930165Y-124978672D01*
X249479461Y-124003449D02*
X249395077Y-124751628D01*
X250000597Y-124622921D01*
%TO.C,SW82*%
X402754226Y-134939511D02*
X402897083Y-134987130D01*
X403135178Y-134987130D01*
X403230416Y-134939511D01*
X403278035Y-134891892D01*
X403325654Y-134796654D01*
X403325654Y-134701416D01*
X403278035Y-134606178D01*
X403230416Y-134558559D01*
X403135178Y-134510940D01*
X402944702Y-134463321D01*
X402849464Y-134415702D01*
X402801845Y-134368083D01*
X402754226Y-134272845D01*
X402754226Y-134177607D01*
X402801845Y-134082369D01*
X402849464Y-134034750D01*
X402944702Y-133987130D01*
X403182797Y-133987130D01*
X403325654Y-134034750D01*
X403658988Y-133987130D02*
X403897083Y-134987130D01*
X404087559Y-134272845D01*
X404278035Y-134987130D01*
X404516130Y-133987130D01*
X405039940Y-134415702D02*
X404944702Y-134368083D01*
X404897083Y-134320464D01*
X404849464Y-134225226D01*
X404849464Y-134177607D01*
X404897083Y-134082369D01*
X404944702Y-134034750D01*
X405039940Y-133987130D01*
X405230416Y-133987130D01*
X405325654Y-134034750D01*
X405373273Y-134082369D01*
X405420892Y-134177607D01*
X405420892Y-134225226D01*
X405373273Y-134320464D01*
X405325654Y-134368083D01*
X405230416Y-134415702D01*
X405039940Y-134415702D01*
X404944702Y-134463321D01*
X404897083Y-134510940D01*
X404849464Y-134606178D01*
X404849464Y-134796654D01*
X404897083Y-134891892D01*
X404944702Y-134939511D01*
X405039940Y-134987130D01*
X405230416Y-134987130D01*
X405325654Y-134939511D01*
X405373273Y-134891892D01*
X405420892Y-134796654D01*
X405420892Y-134606178D01*
X405373273Y-134510940D01*
X405325654Y-134463321D01*
X405230416Y-134415702D01*
X405801845Y-134082369D02*
X405849464Y-134034750D01*
X405944702Y-133987130D01*
X406182797Y-133987130D01*
X406278035Y-134034750D01*
X406325654Y-134082369D01*
X406373273Y-134177607D01*
X406373273Y-134272845D01*
X406325654Y-134415702D01*
X405754226Y-134987130D01*
X406373273Y-134987130D01*
%TO.C,SW72*%
X340841726Y-134939511D02*
X340984583Y-134987130D01*
X341222678Y-134987130D01*
X341317916Y-134939511D01*
X341365535Y-134891892D01*
X341413154Y-134796654D01*
X341413154Y-134701416D01*
X341365535Y-134606178D01*
X341317916Y-134558559D01*
X341222678Y-134510940D01*
X341032202Y-134463321D01*
X340936964Y-134415702D01*
X340889345Y-134368083D01*
X340841726Y-134272845D01*
X340841726Y-134177607D01*
X340889345Y-134082369D01*
X340936964Y-134034750D01*
X341032202Y-133987130D01*
X341270297Y-133987130D01*
X341413154Y-134034750D01*
X341746488Y-133987130D02*
X341984583Y-134987130D01*
X342175059Y-134272845D01*
X342365535Y-134987130D01*
X342603630Y-133987130D01*
X342889345Y-133987130D02*
X343556011Y-133987130D01*
X343127440Y-134987130D01*
X343889345Y-134082369D02*
X343936964Y-134034750D01*
X344032202Y-133987130D01*
X344270297Y-133987130D01*
X344365535Y-134034750D01*
X344413154Y-134082369D01*
X344460773Y-134177607D01*
X344460773Y-134272845D01*
X344413154Y-134415702D01*
X343841726Y-134987130D01*
X344460773Y-134987130D01*
%TO.C,SW32*%
X165065042Y-204877176D02*
X164935207Y-204800896D01*
X164702315Y-204751393D01*
X164599257Y-204778170D01*
X164542778Y-204814848D01*
X164476398Y-204898104D01*
X164456597Y-204991261D01*
X164483375Y-205094319D01*
X164520053Y-205150798D01*
X164603309Y-205217177D01*
X164779722Y-205303358D01*
X164862979Y-205369738D01*
X164899656Y-205426217D01*
X164926434Y-205529274D01*
X164906633Y-205622431D01*
X164840253Y-205705687D01*
X164783774Y-205742365D01*
X164680717Y-205769143D01*
X164447824Y-205719640D01*
X164317990Y-205643360D01*
X163982040Y-205620634D02*
X163957059Y-204592984D01*
X163622237Y-205252059D01*
X163584432Y-204513779D01*
X163143628Y-205442424D01*
X162864157Y-205383021D02*
X162258637Y-205254314D01*
X162663891Y-204950990D01*
X162524155Y-204921288D01*
X162440899Y-204854909D01*
X162404221Y-204798430D01*
X162377444Y-204695372D01*
X162426946Y-204462480D01*
X162493326Y-204379224D01*
X162549805Y-204342546D01*
X162652862Y-204315768D01*
X162932333Y-204375172D01*
X163015589Y-204441551D01*
X163052267Y-204498030D01*
X161905810Y-205081952D02*
X161849331Y-205118630D01*
X161746274Y-205145408D01*
X161513382Y-205095905D01*
X161430125Y-205029525D01*
X161393447Y-204973046D01*
X161366670Y-204869989D01*
X161386471Y-204776832D01*
X161462751Y-204646997D01*
X162140499Y-204206862D01*
X161534979Y-204078155D01*
%TO.C,SW91*%
X440854226Y-134939511D02*
X440997083Y-134987130D01*
X441235178Y-134987130D01*
X441330416Y-134939511D01*
X441378035Y-134891892D01*
X441425654Y-134796654D01*
X441425654Y-134701416D01*
X441378035Y-134606178D01*
X441330416Y-134558559D01*
X441235178Y-134510940D01*
X441044702Y-134463321D01*
X440949464Y-134415702D01*
X440901845Y-134368083D01*
X440854226Y-134272845D01*
X440854226Y-134177607D01*
X440901845Y-134082369D01*
X440949464Y-134034750D01*
X441044702Y-133987130D01*
X441282797Y-133987130D01*
X441425654Y-134034750D01*
X441758988Y-133987130D02*
X441997083Y-134987130D01*
X442187559Y-134272845D01*
X442378035Y-134987130D01*
X442616130Y-133987130D01*
X443044702Y-134987130D02*
X443235178Y-134987130D01*
X443330416Y-134939511D01*
X443378035Y-134891892D01*
X443473273Y-134749035D01*
X443520892Y-134558559D01*
X443520892Y-134177607D01*
X443473273Y-134082369D01*
X443425654Y-134034750D01*
X443330416Y-133987130D01*
X443139940Y-133987130D01*
X443044702Y-134034750D01*
X442997083Y-134082369D01*
X442949464Y-134177607D01*
X442949464Y-134415702D01*
X442997083Y-134510940D01*
X443044702Y-134558559D01*
X443139940Y-134606178D01*
X443330416Y-134606178D01*
X443425654Y-134558559D01*
X443473273Y-134510940D01*
X443520892Y-134415702D01*
X444473273Y-134987130D02*
X443901845Y-134987130D01*
X444187559Y-134987130D02*
X444187559Y-133987130D01*
X444092321Y-134129988D01*
X443997083Y-134225226D01*
X443901845Y-134272845D01*
%TO.C,SW89*%
X440854226Y-93484414D02*
X440997083Y-93532033D01*
X441235178Y-93532033D01*
X441330416Y-93484414D01*
X441378035Y-93436795D01*
X441425654Y-93341557D01*
X441425654Y-93246319D01*
X441378035Y-93151081D01*
X441330416Y-93103462D01*
X441235178Y-93055843D01*
X441044702Y-93008224D01*
X440949464Y-92960605D01*
X440901845Y-92912986D01*
X440854226Y-92817748D01*
X440854226Y-92722510D01*
X440901845Y-92627272D01*
X440949464Y-92579653D01*
X441044702Y-92532033D01*
X441282797Y-92532033D01*
X441425654Y-92579653D01*
X441758988Y-92532033D02*
X441997083Y-93532033D01*
X442187559Y-92817748D01*
X442378035Y-93532033D01*
X442616130Y-92532033D01*
X443139940Y-92960605D02*
X443044702Y-92912986D01*
X442997083Y-92865367D01*
X442949464Y-92770129D01*
X442949464Y-92722510D01*
X442997083Y-92627272D01*
X443044702Y-92579653D01*
X443139940Y-92532033D01*
X443330416Y-92532033D01*
X443425654Y-92579653D01*
X443473273Y-92627272D01*
X443520892Y-92722510D01*
X443520892Y-92770129D01*
X443473273Y-92865367D01*
X443425654Y-92912986D01*
X443330416Y-92960605D01*
X443139940Y-92960605D01*
X443044702Y-93008224D01*
X442997083Y-93055843D01*
X442949464Y-93151081D01*
X442949464Y-93341557D01*
X442997083Y-93436795D01*
X443044702Y-93484414D01*
X443139940Y-93532033D01*
X443330416Y-93532033D01*
X443425654Y-93484414D01*
X443473273Y-93436795D01*
X443520892Y-93341557D01*
X443520892Y-93151081D01*
X443473273Y-93055843D01*
X443425654Y-93008224D01*
X443330416Y-92960605D01*
X443997083Y-93532033D02*
X444187559Y-93532033D01*
X444282797Y-93484414D01*
X444330416Y-93436795D01*
X444425654Y-93293938D01*
X444473273Y-93103462D01*
X444473273Y-92722510D01*
X444425654Y-92627272D01*
X444378035Y-92579653D01*
X444282797Y-92532033D01*
X444092321Y-92532033D01*
X443997083Y-92579653D01*
X443949464Y-92627272D01*
X443901845Y-92722510D01*
X443901845Y-92960605D01*
X443949464Y-93055843D01*
X443997083Y-93103462D01*
X444092321Y-93151081D01*
X444282797Y-93151081D01*
X444378035Y-93103462D01*
X444425654Y-93055843D01*
X444473273Y-92960605D01*
%TO.C,SW79*%
X376560476Y-192089511D02*
X376703333Y-192137130D01*
X376941428Y-192137130D01*
X377036666Y-192089511D01*
X377084285Y-192041892D01*
X377131904Y-191946654D01*
X377131904Y-191851416D01*
X377084285Y-191756178D01*
X377036666Y-191708559D01*
X376941428Y-191660940D01*
X376750952Y-191613321D01*
X376655714Y-191565702D01*
X376608095Y-191518083D01*
X376560476Y-191422845D01*
X376560476Y-191327607D01*
X376608095Y-191232369D01*
X376655714Y-191184750D01*
X376750952Y-191137130D01*
X376989047Y-191137130D01*
X377131904Y-191184750D01*
X377465238Y-191137130D02*
X377703333Y-192137130D01*
X377893809Y-191422845D01*
X378084285Y-192137130D01*
X378322380Y-191137130D01*
X378608095Y-191137130D02*
X379274761Y-191137130D01*
X378846190Y-192137130D01*
X379703333Y-192137130D02*
X379893809Y-192137130D01*
X379989047Y-192089511D01*
X380036666Y-192041892D01*
X380131904Y-191899035D01*
X380179523Y-191708559D01*
X380179523Y-191327607D01*
X380131904Y-191232369D01*
X380084285Y-191184750D01*
X379989047Y-191137130D01*
X379798571Y-191137130D01*
X379703333Y-191184750D01*
X379655714Y-191232369D01*
X379608095Y-191327607D01*
X379608095Y-191565702D01*
X379655714Y-191660940D01*
X379703333Y-191708559D01*
X379798571Y-191756178D01*
X379989047Y-191756178D01*
X380084285Y-191708559D01*
X380131904Y-191660940D01*
X380179523Y-191565702D01*
%TO.C,SW27*%
X184231302Y-107070869D02*
X184101467Y-106994589D01*
X183868575Y-106945086D01*
X183765517Y-106971863D01*
X183709038Y-107008541D01*
X183642658Y-107091797D01*
X183622857Y-107184954D01*
X183649635Y-107288012D01*
X183686313Y-107344491D01*
X183769569Y-107410870D01*
X183945982Y-107497051D01*
X184029239Y-107563431D01*
X184065916Y-107619910D01*
X184092694Y-107722967D01*
X184072893Y-107816124D01*
X184006513Y-107899380D01*
X183950034Y-107936058D01*
X183846977Y-107962836D01*
X183614084Y-107913333D01*
X183484250Y-107837053D01*
X183148300Y-107814327D02*
X183123319Y-106786677D01*
X182788497Y-107445752D01*
X182750692Y-106707472D01*
X182309888Y-107636117D01*
X182003639Y-107473657D02*
X181947160Y-107510334D01*
X181844103Y-107537112D01*
X181611211Y-107487609D01*
X181527954Y-107421229D01*
X181491276Y-107364750D01*
X181464499Y-107261693D01*
X181484300Y-107168536D01*
X181560580Y-107038701D01*
X182238329Y-106598566D01*
X181632809Y-106469859D01*
X181098848Y-107378703D02*
X180446749Y-107240095D01*
X181073867Y-106351052D01*
%TO.C,SW68*%
X326554226Y-115889511D02*
X326697083Y-115937130D01*
X326935178Y-115937130D01*
X327030416Y-115889511D01*
X327078035Y-115841892D01*
X327125654Y-115746654D01*
X327125654Y-115651416D01*
X327078035Y-115556178D01*
X327030416Y-115508559D01*
X326935178Y-115460940D01*
X326744702Y-115413321D01*
X326649464Y-115365702D01*
X326601845Y-115318083D01*
X326554226Y-115222845D01*
X326554226Y-115127607D01*
X326601845Y-115032369D01*
X326649464Y-114984750D01*
X326744702Y-114937130D01*
X326982797Y-114937130D01*
X327125654Y-114984750D01*
X327458988Y-114937130D02*
X327697083Y-115937130D01*
X327887559Y-115222845D01*
X328078035Y-115937130D01*
X328316130Y-114937130D01*
X329125654Y-114937130D02*
X328935178Y-114937130D01*
X328839940Y-114984750D01*
X328792321Y-115032369D01*
X328697083Y-115175226D01*
X328649464Y-115365702D01*
X328649464Y-115746654D01*
X328697083Y-115841892D01*
X328744702Y-115889511D01*
X328839940Y-115937130D01*
X329030416Y-115937130D01*
X329125654Y-115889511D01*
X329173273Y-115841892D01*
X329220892Y-115746654D01*
X329220892Y-115508559D01*
X329173273Y-115413321D01*
X329125654Y-115365702D01*
X329030416Y-115318083D01*
X328839940Y-115318083D01*
X328744702Y-115365702D01*
X328697083Y-115413321D01*
X328649464Y-115508559D01*
X329792321Y-115365702D02*
X329697083Y-115318083D01*
X329649464Y-115270464D01*
X329601845Y-115175226D01*
X329601845Y-115127607D01*
X329649464Y-115032369D01*
X329697083Y-114984750D01*
X329792321Y-114937130D01*
X329982797Y-114937130D01*
X330078035Y-114984750D01*
X330125654Y-115032369D01*
X330173273Y-115127607D01*
X330173273Y-115175226D01*
X330125654Y-115270464D01*
X330078035Y-115318083D01*
X329982797Y-115365702D01*
X329792321Y-115365702D01*
X329697083Y-115413321D01*
X329649464Y-115460940D01*
X329601845Y-115556178D01*
X329601845Y-115746654D01*
X329649464Y-115841892D01*
X329697083Y-115889511D01*
X329792321Y-115937130D01*
X329982797Y-115937130D01*
X330078035Y-115889511D01*
X330125654Y-115841892D01*
X330173273Y-115746654D01*
X330173273Y-115556178D01*
X330125654Y-115460940D01*
X330078035Y-115413321D01*
X329982797Y-115365702D01*
%TO.C,SW70*%
X331316726Y-153989511D02*
X331459583Y-154037130D01*
X331697678Y-154037130D01*
X331792916Y-153989511D01*
X331840535Y-153941892D01*
X331888154Y-153846654D01*
X331888154Y-153751416D01*
X331840535Y-153656178D01*
X331792916Y-153608559D01*
X331697678Y-153560940D01*
X331507202Y-153513321D01*
X331411964Y-153465702D01*
X331364345Y-153418083D01*
X331316726Y-153322845D01*
X331316726Y-153227607D01*
X331364345Y-153132369D01*
X331411964Y-153084750D01*
X331507202Y-153037130D01*
X331745297Y-153037130D01*
X331888154Y-153084750D01*
X332221488Y-153037130D02*
X332459583Y-154037130D01*
X332650059Y-153322845D01*
X332840535Y-154037130D01*
X333078630Y-153037130D01*
X333364345Y-153037130D02*
X334031011Y-153037130D01*
X333602440Y-154037130D01*
X334602440Y-153037130D02*
X334697678Y-153037130D01*
X334792916Y-153084750D01*
X334840535Y-153132369D01*
X334888154Y-153227607D01*
X334935773Y-153418083D01*
X334935773Y-153656178D01*
X334888154Y-153846654D01*
X334840535Y-153941892D01*
X334792916Y-153989511D01*
X334697678Y-154037130D01*
X334602440Y-154037130D01*
X334507202Y-153989511D01*
X334459583Y-153941892D01*
X334411964Y-153846654D01*
X334364345Y-153656178D01*
X334364345Y-153418083D01*
X334411964Y-153227607D01*
X334459583Y-153132369D01*
X334507202Y-153084750D01*
X334602440Y-153037130D01*
%TO.C,SW74*%
X362272976Y-173039511D02*
X362415833Y-173087130D01*
X362653928Y-173087130D01*
X362749166Y-173039511D01*
X362796785Y-172991892D01*
X362844404Y-172896654D01*
X362844404Y-172801416D01*
X362796785Y-172706178D01*
X362749166Y-172658559D01*
X362653928Y-172610940D01*
X362463452Y-172563321D01*
X362368214Y-172515702D01*
X362320595Y-172468083D01*
X362272976Y-172372845D01*
X362272976Y-172277607D01*
X362320595Y-172182369D01*
X362368214Y-172134750D01*
X362463452Y-172087130D01*
X362701547Y-172087130D01*
X362844404Y-172134750D01*
X363177738Y-172087130D02*
X363415833Y-173087130D01*
X363606309Y-172372845D01*
X363796785Y-173087130D01*
X364034880Y-172087130D01*
X364320595Y-172087130D02*
X364987261Y-172087130D01*
X364558690Y-173087130D01*
X365796785Y-172420464D02*
X365796785Y-173087130D01*
X365558690Y-172039511D02*
X365320595Y-172753797D01*
X365939642Y-172753797D01*
%TO.C,SW57*%
X278384744Y-138357370D02*
X278534380Y-138374246D01*
X278767272Y-138324744D01*
X278850528Y-138258364D01*
X278887206Y-138201885D01*
X278913984Y-138098827D01*
X278894183Y-138005671D01*
X278827803Y-137922414D01*
X278771324Y-137885736D01*
X278668267Y-137858959D01*
X278472052Y-137851983D01*
X278368995Y-137825205D01*
X278312516Y-137788527D01*
X278246136Y-137705271D01*
X278226335Y-137612114D01*
X278253112Y-137509057D01*
X278289790Y-137452578D01*
X278373047Y-137386198D01*
X278605939Y-137336695D01*
X278755575Y-137353572D01*
X279071723Y-137237690D02*
X279512527Y-138166335D01*
X279550333Y-137428056D01*
X279885155Y-138087130D01*
X279910136Y-137059480D01*
X280748548Y-136881270D02*
X280282763Y-136980275D01*
X280335190Y-137455960D01*
X280371868Y-137399481D01*
X280455125Y-137333102D01*
X280688017Y-137283599D01*
X280791074Y-137310376D01*
X280847553Y-137347054D01*
X280913933Y-137430311D01*
X280963436Y-137663203D01*
X280936658Y-137766260D01*
X280899981Y-137822739D01*
X280816724Y-137889119D01*
X280583832Y-137938622D01*
X280480774Y-137911844D01*
X280424295Y-137875167D01*
X281121176Y-136802065D02*
X281773274Y-136663458D01*
X281561980Y-137730710D01*
%TO.C,SW43*%
X241815177Y-103749243D02*
X241964813Y-103766119D01*
X242197705Y-103716617D01*
X242280961Y-103650237D01*
X242317639Y-103593758D01*
X242344417Y-103490700D01*
X242324616Y-103397544D01*
X242258236Y-103314287D01*
X242201757Y-103277609D01*
X242098700Y-103250832D01*
X241902485Y-103243856D01*
X241799428Y-103217078D01*
X241742949Y-103180400D01*
X241676569Y-103097144D01*
X241656768Y-103003987D01*
X241683545Y-102900930D01*
X241720223Y-102844451D01*
X241803480Y-102778071D01*
X242036372Y-102728568D01*
X242186008Y-102745445D01*
X242502156Y-102629563D02*
X242942960Y-103558208D01*
X242980766Y-102819929D01*
X243315588Y-103479003D01*
X243340569Y-102451353D01*
X244201706Y-102609093D02*
X244340314Y-103261191D01*
X243889610Y-102285968D02*
X243805226Y-103034147D01*
X244410746Y-102905440D01*
X244551609Y-102193938D02*
X245157128Y-102065231D01*
X244910284Y-102507163D01*
X245050019Y-102477461D01*
X245153077Y-102504238D01*
X245209556Y-102540916D01*
X245275935Y-102624173D01*
X245325438Y-102857065D01*
X245298661Y-102960122D01*
X245261983Y-103016601D01*
X245178726Y-103082981D01*
X244899256Y-103142384D01*
X244796198Y-103115607D01*
X244739719Y-103078929D01*
%TO.C,SW73*%
X362272976Y-153989511D02*
X362415833Y-154037130D01*
X362653928Y-154037130D01*
X362749166Y-153989511D01*
X362796785Y-153941892D01*
X362844404Y-153846654D01*
X362844404Y-153751416D01*
X362796785Y-153656178D01*
X362749166Y-153608559D01*
X362653928Y-153560940D01*
X362463452Y-153513321D01*
X362368214Y-153465702D01*
X362320595Y-153418083D01*
X362272976Y-153322845D01*
X362272976Y-153227607D01*
X362320595Y-153132369D01*
X362368214Y-153084750D01*
X362463452Y-153037130D01*
X362701547Y-153037130D01*
X362844404Y-153084750D01*
X363177738Y-153037130D02*
X363415833Y-154037130D01*
X363606309Y-153322845D01*
X363796785Y-154037130D01*
X364034880Y-153037130D01*
X364320595Y-153037130D02*
X364987261Y-153037130D01*
X364558690Y-154037130D01*
X365272976Y-153037130D02*
X365892023Y-153037130D01*
X365558690Y-153418083D01*
X365701547Y-153418083D01*
X365796785Y-153465702D01*
X365844404Y-153513321D01*
X365892023Y-153608559D01*
X365892023Y-153846654D01*
X365844404Y-153941892D01*
X365796785Y-153989511D01*
X365701547Y-154037130D01*
X365415833Y-154037130D01*
X365320595Y-153989511D01*
X365272976Y-153941892D01*
%TO.C,SW54*%
X250587077Y-202730204D02*
X250736713Y-202747080D01*
X250969605Y-202697578D01*
X251052861Y-202631198D01*
X251089539Y-202574719D01*
X251116317Y-202471661D01*
X251096516Y-202378505D01*
X251030136Y-202295248D01*
X250973657Y-202258570D01*
X250870600Y-202231793D01*
X250674385Y-202224817D01*
X250571328Y-202198039D01*
X250514849Y-202161361D01*
X250448469Y-202078105D01*
X250428668Y-201984948D01*
X250455445Y-201881891D01*
X250492123Y-201825412D01*
X250575380Y-201759032D01*
X250808272Y-201709529D01*
X250957908Y-201726406D01*
X251274056Y-201610524D02*
X251714860Y-202539169D01*
X251752666Y-201800890D01*
X252087488Y-202459964D01*
X252112469Y-201432314D01*
X252950881Y-201254104D02*
X252485096Y-201353109D01*
X252537523Y-201828794D01*
X252574201Y-201772315D01*
X252657458Y-201705936D01*
X252890350Y-201656433D01*
X252993407Y-201683210D01*
X253049886Y-201719888D01*
X253116266Y-201803145D01*
X253165769Y-202036037D01*
X253138991Y-202139094D01*
X253102314Y-202195573D01*
X253019057Y-202261953D01*
X252786165Y-202311456D01*
X252683107Y-202284678D01*
X252626628Y-202248001D01*
X253905175Y-201392042D02*
X254043783Y-202044141D01*
X253593079Y-201068918D02*
X253508695Y-201817097D01*
X254114215Y-201688390D01*
%TO.C,SW52*%
X268370178Y-159961620D02*
X268519814Y-159978496D01*
X268752706Y-159928994D01*
X268835962Y-159862614D01*
X268872640Y-159806135D01*
X268899418Y-159703077D01*
X268879617Y-159609921D01*
X268813237Y-159526664D01*
X268756758Y-159489986D01*
X268653701Y-159463209D01*
X268457486Y-159456233D01*
X268354429Y-159429455D01*
X268297950Y-159392777D01*
X268231570Y-159309521D01*
X268211769Y-159216364D01*
X268238546Y-159113307D01*
X268275224Y-159056828D01*
X268358481Y-158990448D01*
X268591373Y-158940945D01*
X268741009Y-158957822D01*
X269057157Y-158841940D02*
X269497961Y-159770585D01*
X269535767Y-159032306D01*
X269870589Y-159691380D01*
X269895570Y-158663730D01*
X270733982Y-158485520D02*
X270268197Y-158584525D01*
X270320624Y-159060210D01*
X270357302Y-159003731D01*
X270440559Y-158937352D01*
X270673451Y-158887849D01*
X270776508Y-158914626D01*
X270832987Y-158951304D01*
X270899367Y-159034561D01*
X270948870Y-159267453D01*
X270922092Y-159370510D01*
X270885415Y-159426989D01*
X270802158Y-159493369D01*
X270569266Y-159542872D01*
X270466208Y-159516094D01*
X270409729Y-159479417D01*
X271172989Y-158489572D02*
X271209667Y-158433093D01*
X271292923Y-158366713D01*
X271525816Y-158317210D01*
X271628873Y-158343988D01*
X271685352Y-158380666D01*
X271751732Y-158463922D01*
X271771533Y-158557079D01*
X271754656Y-158706715D01*
X271314521Y-159384463D01*
X271920041Y-159255756D01*
%TO.C,SW83*%
X402754226Y-192189511D02*
X402897083Y-192237130D01*
X403135178Y-192237130D01*
X403230416Y-192189511D01*
X403278035Y-192141892D01*
X403325654Y-192046654D01*
X403325654Y-191951416D01*
X403278035Y-191856178D01*
X403230416Y-191808559D01*
X403135178Y-191760940D01*
X402944702Y-191713321D01*
X402849464Y-191665702D01*
X402801845Y-191618083D01*
X402754226Y-191522845D01*
X402754226Y-191427607D01*
X402801845Y-191332369D01*
X402849464Y-191284750D01*
X402944702Y-191237130D01*
X403182797Y-191237130D01*
X403325654Y-191284750D01*
X403658988Y-191237130D02*
X403897083Y-192237130D01*
X404087559Y-191522845D01*
X404278035Y-192237130D01*
X404516130Y-191237130D01*
X405039940Y-191665702D02*
X404944702Y-191618083D01*
X404897083Y-191570464D01*
X404849464Y-191475226D01*
X404849464Y-191427607D01*
X404897083Y-191332369D01*
X404944702Y-191284750D01*
X405039940Y-191237130D01*
X405230416Y-191237130D01*
X405325654Y-191284750D01*
X405373273Y-191332369D01*
X405420892Y-191427607D01*
X405420892Y-191475226D01*
X405373273Y-191570464D01*
X405325654Y-191618083D01*
X405230416Y-191665702D01*
X405039940Y-191665702D01*
X404944702Y-191713321D01*
X404897083Y-191760940D01*
X404849464Y-191856178D01*
X404849464Y-192046654D01*
X404897083Y-192141892D01*
X404944702Y-192189511D01*
X405039940Y-192237130D01*
X405230416Y-192237130D01*
X405325654Y-192189511D01*
X405373273Y-192141892D01*
X405420892Y-192046654D01*
X405420892Y-191856178D01*
X405373273Y-191760940D01*
X405325654Y-191713321D01*
X405230416Y-191665702D01*
X405754226Y-191237130D02*
X406373273Y-191237130D01*
X406039940Y-191618083D01*
X406182797Y-191618083D01*
X406278035Y-191665702D01*
X406325654Y-191713321D01*
X406373273Y-191808559D01*
X406373273Y-192046654D01*
X406325654Y-192141892D01*
X406278035Y-192189511D01*
X406182797Y-192237130D01*
X405897083Y-192237130D01*
X405801845Y-192189511D01*
X405754226Y-192141892D01*
%TO.C,SW69*%
X321791726Y-134939511D02*
X321934583Y-134987130D01*
X322172678Y-134987130D01*
X322267916Y-134939511D01*
X322315535Y-134891892D01*
X322363154Y-134796654D01*
X322363154Y-134701416D01*
X322315535Y-134606178D01*
X322267916Y-134558559D01*
X322172678Y-134510940D01*
X321982202Y-134463321D01*
X321886964Y-134415702D01*
X321839345Y-134368083D01*
X321791726Y-134272845D01*
X321791726Y-134177607D01*
X321839345Y-134082369D01*
X321886964Y-134034750D01*
X321982202Y-133987130D01*
X322220297Y-133987130D01*
X322363154Y-134034750D01*
X322696488Y-133987130D02*
X322934583Y-134987130D01*
X323125059Y-134272845D01*
X323315535Y-134987130D01*
X323553630Y-133987130D01*
X324363154Y-133987130D02*
X324172678Y-133987130D01*
X324077440Y-134034750D01*
X324029821Y-134082369D01*
X323934583Y-134225226D01*
X323886964Y-134415702D01*
X323886964Y-134796654D01*
X323934583Y-134891892D01*
X323982202Y-134939511D01*
X324077440Y-134987130D01*
X324267916Y-134987130D01*
X324363154Y-134939511D01*
X324410773Y-134891892D01*
X324458392Y-134796654D01*
X324458392Y-134558559D01*
X324410773Y-134463321D01*
X324363154Y-134415702D01*
X324267916Y-134368083D01*
X324077440Y-134368083D01*
X323982202Y-134415702D01*
X323934583Y-134463321D01*
X323886964Y-134558559D01*
X324934583Y-134987130D02*
X325125059Y-134987130D01*
X325220297Y-134939511D01*
X325267916Y-134891892D01*
X325363154Y-134749035D01*
X325410773Y-134558559D01*
X325410773Y-134177607D01*
X325363154Y-134082369D01*
X325315535Y-134034750D01*
X325220297Y-133987130D01*
X325029821Y-133987130D01*
X324934583Y-134034750D01*
X324886964Y-134082369D01*
X324839345Y-134177607D01*
X324839345Y-134415702D01*
X324886964Y-134510940D01*
X324934583Y-134558559D01*
X325029821Y-134606178D01*
X325220297Y-134606178D01*
X325315535Y-134558559D01*
X325363154Y-134510940D01*
X325410773Y-134415702D01*
%TO.C,SW35*%
X184661297Y-169991057D02*
X184531462Y-169914777D01*
X184298570Y-169865274D01*
X184195512Y-169892051D01*
X184139033Y-169928729D01*
X184072653Y-170011985D01*
X184052852Y-170105142D01*
X184079630Y-170208200D01*
X184116308Y-170264679D01*
X184199564Y-170331058D01*
X184375977Y-170417239D01*
X184459234Y-170483619D01*
X184495911Y-170540098D01*
X184522689Y-170643155D01*
X184502888Y-170736312D01*
X184436508Y-170819568D01*
X184380029Y-170856246D01*
X184276972Y-170883024D01*
X184044079Y-170833521D01*
X183914245Y-170757241D01*
X183578295Y-170734515D02*
X183553314Y-169706865D01*
X183218492Y-170365940D01*
X183180687Y-169627660D01*
X182739883Y-170556305D01*
X182460412Y-170496902D02*
X181854892Y-170368195D01*
X182260146Y-170064871D01*
X182120410Y-170035169D01*
X182037154Y-169968790D01*
X182000476Y-169912311D01*
X181973699Y-169809253D01*
X182023201Y-169576361D01*
X182089581Y-169493105D01*
X182146060Y-169456427D01*
X182249117Y-169429649D01*
X182528588Y-169489053D01*
X182611844Y-169555432D01*
X182648522Y-169611911D01*
X180969901Y-170180084D02*
X181435686Y-170279090D01*
X181581270Y-169823206D01*
X181524791Y-169859884D01*
X181421733Y-169886661D01*
X181188841Y-169837158D01*
X181105585Y-169770779D01*
X181068907Y-169714300D01*
X181042129Y-169611242D01*
X181091632Y-169378350D01*
X181158012Y-169295093D01*
X181214491Y-169258416D01*
X181317548Y-169231638D01*
X181550441Y-169281141D01*
X181633697Y-169347521D01*
X181670375Y-169404000D01*
%TO.C,SW56*%
X283740882Y-117743300D02*
X283890518Y-117760176D01*
X284123410Y-117710674D01*
X284206666Y-117644294D01*
X284243344Y-117587815D01*
X284270122Y-117484757D01*
X284250321Y-117391601D01*
X284183941Y-117308344D01*
X284127462Y-117271666D01*
X284024405Y-117244889D01*
X283828190Y-117237913D01*
X283725133Y-117211135D01*
X283668654Y-117174457D01*
X283602274Y-117091201D01*
X283582473Y-116998044D01*
X283609250Y-116894987D01*
X283645928Y-116838508D01*
X283729185Y-116772128D01*
X283962077Y-116722625D01*
X284111713Y-116739502D01*
X284427861Y-116623620D02*
X284868665Y-117552265D01*
X284906471Y-116813986D01*
X285241293Y-117473060D01*
X285266274Y-116445410D01*
X286104686Y-116267200D02*
X285638901Y-116366205D01*
X285691328Y-116841890D01*
X285728006Y-116785411D01*
X285811263Y-116719032D01*
X286044155Y-116669529D01*
X286147212Y-116696306D01*
X286203691Y-116732984D01*
X286270071Y-116816241D01*
X286319574Y-117049133D01*
X286292796Y-117152190D01*
X286256119Y-117208669D01*
X286172862Y-117275049D01*
X285939970Y-117324552D01*
X285836912Y-117297774D01*
X285780433Y-117261097D01*
X286989677Y-116079089D02*
X286803363Y-116118691D01*
X286720106Y-116185071D01*
X286683428Y-116241550D01*
X286619973Y-116401086D01*
X286612997Y-116597301D01*
X286692201Y-116969929D01*
X286758581Y-117053185D01*
X286815060Y-117089863D01*
X286918118Y-117116640D01*
X287104431Y-117077038D01*
X287187688Y-117010658D01*
X287224366Y-116954179D01*
X287251143Y-116851122D01*
X287201640Y-116618230D01*
X287135261Y-116534973D01*
X287078782Y-116498295D01*
X286975724Y-116471518D01*
X286789410Y-116511120D01*
X286706154Y-116577500D01*
X286669476Y-116633979D01*
X286642699Y-116737036D01*
%TO.C,SW39*%
X227839747Y-129625453D02*
X227989383Y-129642329D01*
X228222275Y-129592827D01*
X228305531Y-129526447D01*
X228342209Y-129469968D01*
X228368987Y-129366910D01*
X228349186Y-129273754D01*
X228282806Y-129190497D01*
X228226327Y-129153819D01*
X228123270Y-129127042D01*
X227927055Y-129120066D01*
X227823998Y-129093288D01*
X227767519Y-129056610D01*
X227701139Y-128973354D01*
X227681338Y-128880197D01*
X227708115Y-128777140D01*
X227744793Y-128720661D01*
X227828050Y-128654281D01*
X228060942Y-128604778D01*
X228210578Y-128621655D01*
X228526726Y-128505773D02*
X228967530Y-129434418D01*
X229005336Y-128696139D01*
X229340158Y-129355213D01*
X229365139Y-128327563D01*
X229644609Y-128268159D02*
X230250129Y-128139452D01*
X230003285Y-128581384D01*
X230143020Y-128551682D01*
X230246077Y-128578459D01*
X230302556Y-128615137D01*
X230368936Y-128698394D01*
X230418439Y-128931286D01*
X230391661Y-129034343D01*
X230354984Y-129090822D01*
X230271727Y-129157202D01*
X229992256Y-129216605D01*
X229889199Y-129189828D01*
X229832720Y-129153150D01*
X230923826Y-129018594D02*
X231110139Y-128978992D01*
X231193396Y-128912612D01*
X231230074Y-128856133D01*
X231293529Y-128696597D01*
X231300505Y-128500383D01*
X231221301Y-128127755D01*
X231154921Y-128044499D01*
X231098442Y-128007821D01*
X230995385Y-127981043D01*
X230809071Y-128020646D01*
X230725814Y-128087025D01*
X230689137Y-128143504D01*
X230662359Y-128246562D01*
X230711862Y-128479454D01*
X230778242Y-128562710D01*
X230834721Y-128599388D01*
X230937778Y-128626165D01*
X231124092Y-128586563D01*
X231207348Y-128520184D01*
X231244026Y-128463705D01*
X231270803Y-128360647D01*
%TO.C,SW106*%
X502284285Y-192189511D02*
X502427142Y-192237130D01*
X502665238Y-192237130D01*
X502760476Y-192189511D01*
X502808095Y-192141892D01*
X502855714Y-192046654D01*
X502855714Y-191951416D01*
X502808095Y-191856178D01*
X502760476Y-191808559D01*
X502665238Y-191760940D01*
X502474761Y-191713321D01*
X502379523Y-191665702D01*
X502331904Y-191618083D01*
X502284285Y-191522845D01*
X502284285Y-191427607D01*
X502331904Y-191332369D01*
X502379523Y-191284750D01*
X502474761Y-191237130D01*
X502712857Y-191237130D01*
X502855714Y-191284750D01*
X503189047Y-191237130D02*
X503427142Y-192237130D01*
X503617619Y-191522845D01*
X503808095Y-192237130D01*
X504046190Y-191237130D01*
X504950952Y-192237130D02*
X504379523Y-192237130D01*
X504665238Y-192237130D02*
X504665238Y-191237130D01*
X504570000Y-191379988D01*
X504474761Y-191475226D01*
X504379523Y-191522845D01*
X505570000Y-191237130D02*
X505665238Y-191237130D01*
X505760476Y-191284750D01*
X505808095Y-191332369D01*
X505855714Y-191427607D01*
X505903333Y-191618083D01*
X505903333Y-191856178D01*
X505855714Y-192046654D01*
X505808095Y-192141892D01*
X505760476Y-192189511D01*
X505665238Y-192237130D01*
X505570000Y-192237130D01*
X505474761Y-192189511D01*
X505427142Y-192141892D01*
X505379523Y-192046654D01*
X505331904Y-191856178D01*
X505331904Y-191618083D01*
X505379523Y-191427607D01*
X505427142Y-191332369D01*
X505474761Y-191284750D01*
X505570000Y-191237130D01*
X506760476Y-191237130D02*
X506570000Y-191237130D01*
X506474761Y-191284750D01*
X506427142Y-191332369D01*
X506331904Y-191475226D01*
X506284285Y-191665702D01*
X506284285Y-192046654D01*
X506331904Y-192141892D01*
X506379523Y-192189511D01*
X506474761Y-192237130D01*
X506665238Y-192237130D01*
X506760476Y-192189511D01*
X506808095Y-192141892D01*
X506855714Y-192046654D01*
X506855714Y-191808559D01*
X506808095Y-191713321D01*
X506760476Y-191665702D01*
X506665238Y-191618083D01*
X506474761Y-191618083D01*
X506379523Y-191665702D01*
X506331904Y-191713321D01*
X506284285Y-191808559D01*
%TO.C,SW21*%
X132456047Y-197945921D02*
X132326212Y-197869641D01*
X132093320Y-197820138D01*
X131990262Y-197846915D01*
X131933783Y-197883593D01*
X131867403Y-197966849D01*
X131847602Y-198060006D01*
X131874380Y-198163064D01*
X131911058Y-198219543D01*
X131994314Y-198285922D01*
X132170727Y-198372103D01*
X132253984Y-198438483D01*
X132290661Y-198494962D01*
X132317439Y-198598019D01*
X132297638Y-198691176D01*
X132231258Y-198774432D01*
X132174779Y-198811110D01*
X132071722Y-198837888D01*
X131838829Y-198788385D01*
X131708995Y-198712105D01*
X131373045Y-198689379D02*
X131348064Y-197661729D01*
X131013242Y-198320804D01*
X130975437Y-197582524D01*
X130534633Y-198511169D01*
X130228384Y-198348709D02*
X130171905Y-198385386D01*
X130068848Y-198412164D01*
X129835956Y-198362661D01*
X129752699Y-198296281D01*
X129716021Y-198239802D01*
X129689244Y-198136745D01*
X129709045Y-198043588D01*
X129785325Y-197913753D01*
X130463074Y-197473618D01*
X129857554Y-197344911D01*
X128925984Y-197146900D02*
X129484926Y-197265707D01*
X129205455Y-197206303D02*
X128997543Y-198184451D01*
X129120402Y-198064517D01*
X129233360Y-197991161D01*
X129336418Y-197964384D01*
%TO.C,SW25*%
X147393870Y-162069619D02*
X147264035Y-161993339D01*
X147031143Y-161943836D01*
X146928085Y-161970613D01*
X146871606Y-162007291D01*
X146805226Y-162090547D01*
X146785425Y-162183704D01*
X146812203Y-162286762D01*
X146848881Y-162343241D01*
X146932137Y-162409620D01*
X147108550Y-162495801D01*
X147191807Y-162562181D01*
X147228484Y-162618660D01*
X147255262Y-162721717D01*
X147235461Y-162814874D01*
X147169081Y-162898130D01*
X147112602Y-162934808D01*
X147009545Y-162961586D01*
X146776652Y-162912083D01*
X146646818Y-162835803D01*
X146310868Y-162813077D02*
X146285887Y-161785427D01*
X145951065Y-162444502D01*
X145913260Y-161706222D01*
X145472456Y-162634867D01*
X145166207Y-162472407D02*
X145109728Y-162509084D01*
X145006671Y-162535862D01*
X144773779Y-162486359D01*
X144690522Y-162419979D01*
X144653844Y-162363500D01*
X144627067Y-162260443D01*
X144646868Y-162167286D01*
X144723148Y-162037451D01*
X145400897Y-161597316D01*
X144795377Y-161468609D01*
X143702474Y-162258646D02*
X144168259Y-162357652D01*
X144313843Y-161901768D01*
X144257364Y-161938446D01*
X144154306Y-161965223D01*
X143921414Y-161915720D01*
X143838158Y-161849341D01*
X143801480Y-161792862D01*
X143774702Y-161689804D01*
X143824205Y-161456912D01*
X143890585Y-161373655D01*
X143947064Y-161336978D01*
X144050121Y-161310200D01*
X144283014Y-161359703D01*
X144366270Y-161426083D01*
X144402948Y-161482562D01*
%TO.C,SW67*%
X336079226Y-93484414D02*
X336222083Y-93532033D01*
X336460178Y-93532033D01*
X336555416Y-93484414D01*
X336603035Y-93436795D01*
X336650654Y-93341557D01*
X336650654Y-93246319D01*
X336603035Y-93151081D01*
X336555416Y-93103462D01*
X336460178Y-93055843D01*
X336269702Y-93008224D01*
X336174464Y-92960605D01*
X336126845Y-92912986D01*
X336079226Y-92817748D01*
X336079226Y-92722510D01*
X336126845Y-92627272D01*
X336174464Y-92579653D01*
X336269702Y-92532033D01*
X336507797Y-92532033D01*
X336650654Y-92579653D01*
X336983988Y-92532033D02*
X337222083Y-93532033D01*
X337412559Y-92817748D01*
X337603035Y-93532033D01*
X337841130Y-92532033D01*
X338650654Y-92532033D02*
X338460178Y-92532033D01*
X338364940Y-92579653D01*
X338317321Y-92627272D01*
X338222083Y-92770129D01*
X338174464Y-92960605D01*
X338174464Y-93341557D01*
X338222083Y-93436795D01*
X338269702Y-93484414D01*
X338364940Y-93532033D01*
X338555416Y-93532033D01*
X338650654Y-93484414D01*
X338698273Y-93436795D01*
X338745892Y-93341557D01*
X338745892Y-93103462D01*
X338698273Y-93008224D01*
X338650654Y-92960605D01*
X338555416Y-92912986D01*
X338364940Y-92912986D01*
X338269702Y-92960605D01*
X338222083Y-93008224D01*
X338174464Y-93103462D01*
X339079226Y-92532033D02*
X339745892Y-92532033D01*
X339317321Y-93532033D01*
%TO.C,SW23*%
X159831302Y-125700869D02*
X159701467Y-125624589D01*
X159468575Y-125575086D01*
X159365517Y-125601863D01*
X159309038Y-125638541D01*
X159242658Y-125721797D01*
X159222857Y-125814954D01*
X159249635Y-125918012D01*
X159286313Y-125974491D01*
X159369569Y-126040870D01*
X159545982Y-126127051D01*
X159629239Y-126193431D01*
X159665916Y-126249910D01*
X159692694Y-126352967D01*
X159672893Y-126446124D01*
X159606513Y-126529380D01*
X159550034Y-126566058D01*
X159446977Y-126592836D01*
X159214084Y-126543333D01*
X159084250Y-126467053D01*
X158748300Y-126444327D02*
X158723319Y-125416677D01*
X158388497Y-126075752D01*
X158350692Y-125337472D01*
X157909888Y-126266117D01*
X157603639Y-126103657D02*
X157547160Y-126140334D01*
X157444103Y-126167112D01*
X157211211Y-126117609D01*
X157127954Y-126051229D01*
X157091276Y-125994750D01*
X157064499Y-125891693D01*
X157084300Y-125798536D01*
X157160580Y-125668701D01*
X157838329Y-125228566D01*
X157232809Y-125099859D01*
X156698848Y-126008703D02*
X156093328Y-125879996D01*
X156498581Y-125576672D01*
X156358846Y-125546970D01*
X156275590Y-125480591D01*
X156238912Y-125424112D01*
X156212134Y-125321054D01*
X156261637Y-125088162D01*
X156328017Y-125004905D01*
X156384496Y-124968228D01*
X156487553Y-124941450D01*
X156767024Y-125000854D01*
X156850280Y-125067233D01*
X156886958Y-125123712D01*
%TO.C,SW18*%
X127418395Y-138382427D02*
X127288560Y-138306147D01*
X127055668Y-138256644D01*
X126952610Y-138283421D01*
X126896131Y-138320099D01*
X126829751Y-138403355D01*
X126809950Y-138496512D01*
X126836728Y-138599570D01*
X126873406Y-138656049D01*
X126956662Y-138722428D01*
X127133075Y-138808609D01*
X127216332Y-138874989D01*
X127253009Y-138931468D01*
X127279787Y-139034525D01*
X127259986Y-139127682D01*
X127193606Y-139210938D01*
X127137127Y-139247616D01*
X127034070Y-139274394D01*
X126801177Y-139224891D01*
X126671343Y-139148611D01*
X126335393Y-139125885D02*
X126310412Y-138098235D01*
X125975590Y-138757310D01*
X125937785Y-138019030D01*
X125496981Y-138947675D01*
X124819902Y-137781417D02*
X125378843Y-137900224D01*
X125099372Y-137840820D02*
X124891461Y-138818968D01*
X125014319Y-138699034D01*
X125127277Y-138625678D01*
X125230335Y-138598901D01*
X124142153Y-138221552D02*
X124225410Y-138287932D01*
X124262088Y-138344411D01*
X124288865Y-138447468D01*
X124278964Y-138494046D01*
X124212585Y-138577303D01*
X124156106Y-138613981D01*
X124053048Y-138640758D01*
X123866735Y-138601156D01*
X123783478Y-138534776D01*
X123746800Y-138478297D01*
X123720023Y-138375240D01*
X123729924Y-138328661D01*
X123796303Y-138245405D01*
X123852782Y-138208727D01*
X123955840Y-138181950D01*
X124142153Y-138221552D01*
X124245211Y-138194775D01*
X124301690Y-138158097D01*
X124368069Y-138074840D01*
X124407672Y-137888527D01*
X124380894Y-137785469D01*
X124344216Y-137728990D01*
X124260960Y-137662610D01*
X124074646Y-137623008D01*
X123971589Y-137649786D01*
X123915110Y-137686463D01*
X123848730Y-137769720D01*
X123809128Y-137956034D01*
X123835905Y-138059091D01*
X123872583Y-138115570D01*
X123955840Y-138181950D01*
%TO.C,SW77*%
X355129226Y-115889511D02*
X355272083Y-115937130D01*
X355510178Y-115937130D01*
X355605416Y-115889511D01*
X355653035Y-115841892D01*
X355700654Y-115746654D01*
X355700654Y-115651416D01*
X355653035Y-115556178D01*
X355605416Y-115508559D01*
X355510178Y-115460940D01*
X355319702Y-115413321D01*
X355224464Y-115365702D01*
X355176845Y-115318083D01*
X355129226Y-115222845D01*
X355129226Y-115127607D01*
X355176845Y-115032369D01*
X355224464Y-114984750D01*
X355319702Y-114937130D01*
X355557797Y-114937130D01*
X355700654Y-114984750D01*
X356033988Y-114937130D02*
X356272083Y-115937130D01*
X356462559Y-115222845D01*
X356653035Y-115937130D01*
X356891130Y-114937130D01*
X357176845Y-114937130D02*
X357843511Y-114937130D01*
X357414940Y-115937130D01*
X358129226Y-114937130D02*
X358795892Y-114937130D01*
X358367321Y-115937130D01*
%TO.C,SW38*%
X223181465Y-107709961D02*
X223331101Y-107726837D01*
X223563993Y-107677335D01*
X223647249Y-107610955D01*
X223683927Y-107554476D01*
X223710705Y-107451418D01*
X223690904Y-107358262D01*
X223624524Y-107275005D01*
X223568045Y-107238327D01*
X223464988Y-107211550D01*
X223268773Y-107204574D01*
X223165716Y-107177796D01*
X223109237Y-107141118D01*
X223042857Y-107057862D01*
X223023056Y-106964705D01*
X223049833Y-106861648D01*
X223086511Y-106805169D01*
X223169768Y-106738789D01*
X223402660Y-106689286D01*
X223552296Y-106706163D01*
X223868444Y-106590281D02*
X224309248Y-107518926D01*
X224347054Y-106780647D01*
X224681876Y-107439721D01*
X224706857Y-106412071D01*
X224986327Y-106352667D02*
X225591847Y-106223960D01*
X225345003Y-106665892D01*
X225484738Y-106636190D01*
X225587795Y-106662967D01*
X225644274Y-106699645D01*
X225710654Y-106782902D01*
X225760157Y-107015794D01*
X225733379Y-107118851D01*
X225696702Y-107175330D01*
X225613445Y-107241710D01*
X225333974Y-107301113D01*
X225230917Y-107274336D01*
X225174438Y-107237658D01*
X226239894Y-106524360D02*
X226136836Y-106497582D01*
X226080357Y-106460904D01*
X226013978Y-106377648D01*
X226004077Y-106331070D01*
X226030855Y-106228012D01*
X226067532Y-106171533D01*
X226150789Y-106105154D01*
X226337103Y-106065551D01*
X226440160Y-106092329D01*
X226496639Y-106129007D01*
X226563019Y-106212263D01*
X226572919Y-106258841D01*
X226546142Y-106361899D01*
X226509464Y-106418378D01*
X226426208Y-106484757D01*
X226239894Y-106524360D01*
X226156637Y-106590739D01*
X226119960Y-106647218D01*
X226093182Y-106750276D01*
X226132784Y-106936590D01*
X226199164Y-107019846D01*
X226255643Y-107056524D01*
X226358701Y-107083301D01*
X226545014Y-107043699D01*
X226628271Y-106977319D01*
X226664949Y-106920840D01*
X226691726Y-106817783D01*
X226652124Y-106631469D01*
X226585744Y-106548213D01*
X226529265Y-106511535D01*
X226426208Y-106484757D01*
%TO.C,SW107*%
X521334285Y-115989511D02*
X521477142Y-116037130D01*
X521715238Y-116037130D01*
X521810476Y-115989511D01*
X521858095Y-115941892D01*
X521905714Y-115846654D01*
X521905714Y-115751416D01*
X521858095Y-115656178D01*
X521810476Y-115608559D01*
X521715238Y-115560940D01*
X521524761Y-115513321D01*
X521429523Y-115465702D01*
X521381904Y-115418083D01*
X521334285Y-115322845D01*
X521334285Y-115227607D01*
X521381904Y-115132369D01*
X521429523Y-115084750D01*
X521524761Y-115037130D01*
X521762857Y-115037130D01*
X521905714Y-115084750D01*
X522239047Y-115037130D02*
X522477142Y-116037130D01*
X522667619Y-115322845D01*
X522858095Y-116037130D01*
X523096190Y-115037130D01*
X524000952Y-116037130D02*
X523429523Y-116037130D01*
X523715238Y-116037130D02*
X523715238Y-115037130D01*
X523620000Y-115179988D01*
X523524761Y-115275226D01*
X523429523Y-115322845D01*
X524620000Y-115037130D02*
X524715238Y-115037130D01*
X524810476Y-115084750D01*
X524858095Y-115132369D01*
X524905714Y-115227607D01*
X524953333Y-115418083D01*
X524953333Y-115656178D01*
X524905714Y-115846654D01*
X524858095Y-115941892D01*
X524810476Y-115989511D01*
X524715238Y-116037130D01*
X524620000Y-116037130D01*
X524524761Y-115989511D01*
X524477142Y-115941892D01*
X524429523Y-115846654D01*
X524381904Y-115656178D01*
X524381904Y-115418083D01*
X524429523Y-115227607D01*
X524477142Y-115132369D01*
X524524761Y-115084750D01*
X524620000Y-115037130D01*
X525286666Y-115037130D02*
X525953333Y-115037130D01*
X525524761Y-116037130D01*
%TO.C,SW90*%
X440854226Y-115889511D02*
X440997083Y-115937130D01*
X441235178Y-115937130D01*
X441330416Y-115889511D01*
X441378035Y-115841892D01*
X441425654Y-115746654D01*
X441425654Y-115651416D01*
X441378035Y-115556178D01*
X441330416Y-115508559D01*
X441235178Y-115460940D01*
X441044702Y-115413321D01*
X440949464Y-115365702D01*
X440901845Y-115318083D01*
X440854226Y-115222845D01*
X440854226Y-115127607D01*
X440901845Y-115032369D01*
X440949464Y-114984750D01*
X441044702Y-114937130D01*
X441282797Y-114937130D01*
X441425654Y-114984750D01*
X441758988Y-114937130D02*
X441997083Y-115937130D01*
X442187559Y-115222845D01*
X442378035Y-115937130D01*
X442616130Y-114937130D01*
X443044702Y-115937130D02*
X443235178Y-115937130D01*
X443330416Y-115889511D01*
X443378035Y-115841892D01*
X443473273Y-115699035D01*
X443520892Y-115508559D01*
X443520892Y-115127607D01*
X443473273Y-115032369D01*
X443425654Y-114984750D01*
X443330416Y-114937130D01*
X443139940Y-114937130D01*
X443044702Y-114984750D01*
X442997083Y-115032369D01*
X442949464Y-115127607D01*
X442949464Y-115365702D01*
X442997083Y-115460940D01*
X443044702Y-115508559D01*
X443139940Y-115556178D01*
X443330416Y-115556178D01*
X443425654Y-115508559D01*
X443473273Y-115460940D01*
X443520892Y-115365702D01*
X444139940Y-114937130D02*
X444235178Y-114937130D01*
X444330416Y-114984750D01*
X444378035Y-115032369D01*
X444425654Y-115127607D01*
X444473273Y-115318083D01*
X444473273Y-115556178D01*
X444425654Y-115746654D01*
X444378035Y-115841892D01*
X444330416Y-115889511D01*
X444235178Y-115937130D01*
X444139940Y-115937130D01*
X444044702Y-115889511D01*
X443997083Y-115841892D01*
X443949464Y-115746654D01*
X443901845Y-115556178D01*
X443901845Y-115318083D01*
X443949464Y-115127607D01*
X443997083Y-115032369D01*
X444044702Y-114984750D01*
X444139940Y-114937130D01*
%TO.C,SW45*%
X241117320Y-146278806D02*
X241266956Y-146295682D01*
X241499848Y-146246180D01*
X241583104Y-146179800D01*
X241619782Y-146123321D01*
X241646560Y-146020263D01*
X241626759Y-145927107D01*
X241560379Y-145843850D01*
X241503900Y-145807172D01*
X241400843Y-145780395D01*
X241204628Y-145773419D01*
X241101571Y-145746641D01*
X241045092Y-145709963D01*
X240978712Y-145626707D01*
X240958911Y-145533550D01*
X240985688Y-145430493D01*
X241022366Y-145374014D01*
X241105623Y-145307634D01*
X241338515Y-145258131D01*
X241488151Y-145275008D01*
X241804299Y-145159126D02*
X242245103Y-146087771D01*
X242282909Y-145349492D01*
X242617731Y-146008566D01*
X242642712Y-144980916D01*
X243503849Y-145138656D02*
X243642457Y-145790754D01*
X243191753Y-144815531D02*
X243107369Y-145563710D01*
X243712889Y-145435003D01*
X244412693Y-144604695D02*
X243946908Y-144703700D01*
X243999336Y-145179385D01*
X244036013Y-145122906D01*
X244119270Y-145056527D01*
X244352162Y-145007024D01*
X244455220Y-145033801D01*
X244511699Y-145070479D01*
X244578078Y-145153736D01*
X244627581Y-145386628D01*
X244600804Y-145489685D01*
X244564126Y-145546164D01*
X244480869Y-145612544D01*
X244247977Y-145662047D01*
X244144920Y-145635269D01*
X244088441Y-145598591D01*
%TO.C,SW19*%
X128760159Y-158108901D02*
X128630324Y-158032621D01*
X128397432Y-157983118D01*
X128294374Y-158009895D01*
X128237895Y-158046573D01*
X128171515Y-158129829D01*
X128151714Y-158222986D01*
X128178492Y-158326044D01*
X128215170Y-158382523D01*
X128298426Y-158448902D01*
X128474839Y-158535083D01*
X128558096Y-158601463D01*
X128594773Y-158657942D01*
X128621551Y-158760999D01*
X128601750Y-158854156D01*
X128535370Y-158937412D01*
X128478891Y-158974090D01*
X128375834Y-159000868D01*
X128142941Y-158951365D01*
X128013107Y-158875085D01*
X127677157Y-158852359D02*
X127652176Y-157824709D01*
X127317354Y-158483784D01*
X127279549Y-157745504D01*
X126838745Y-158674149D01*
X126161666Y-157507891D02*
X126720607Y-157626698D01*
X126441136Y-157567294D02*
X126233225Y-158545442D01*
X126356083Y-158425508D01*
X126469041Y-158352152D01*
X126572099Y-158325375D01*
X125695881Y-157408886D02*
X125509567Y-157369283D01*
X125406510Y-157396061D01*
X125350031Y-157432739D01*
X125227172Y-157552673D01*
X125140991Y-157729086D01*
X125061787Y-158101714D01*
X125088564Y-158204771D01*
X125125242Y-158261250D01*
X125208499Y-158327630D01*
X125394812Y-158367232D01*
X125497870Y-158340455D01*
X125554349Y-158303777D01*
X125620728Y-158220520D01*
X125670231Y-157987628D01*
X125643454Y-157884571D01*
X125606776Y-157828092D01*
X125523520Y-157761712D01*
X125337206Y-157722110D01*
X125234148Y-157748887D01*
X125177669Y-157785565D01*
X125111290Y-157868821D01*
%TO.C,SW53*%
X281647750Y-176614973D02*
X281797386Y-176631849D01*
X282030278Y-176582347D01*
X282113534Y-176515967D01*
X282150212Y-176459488D01*
X282176990Y-176356430D01*
X282157189Y-176263274D01*
X282090809Y-176180017D01*
X282034330Y-176143339D01*
X281931273Y-176116562D01*
X281735058Y-176109586D01*
X281632001Y-176082808D01*
X281575522Y-176046130D01*
X281509142Y-175962874D01*
X281489341Y-175869717D01*
X281516118Y-175766660D01*
X281552796Y-175710181D01*
X281636053Y-175643801D01*
X281868945Y-175594298D01*
X282018581Y-175611175D01*
X282334729Y-175495293D02*
X282775533Y-176423938D01*
X282813339Y-175685659D01*
X283148161Y-176344733D01*
X283173142Y-175317083D01*
X284011554Y-175138873D02*
X283545769Y-175237878D01*
X283598196Y-175713563D01*
X283634874Y-175657084D01*
X283718131Y-175590705D01*
X283951023Y-175541202D01*
X284054080Y-175567979D01*
X284110559Y-175604657D01*
X284176939Y-175687914D01*
X284226442Y-175920806D01*
X284199664Y-176023863D01*
X284162987Y-176080342D01*
X284079730Y-176146722D01*
X283846838Y-176196225D01*
X283743780Y-176169447D01*
X283687301Y-176132770D01*
X284384182Y-175059668D02*
X284989701Y-174930961D01*
X284742857Y-175372893D01*
X284882592Y-175343191D01*
X284985650Y-175369968D01*
X285042129Y-175406646D01*
X285108508Y-175489903D01*
X285158011Y-175722795D01*
X285131234Y-175825852D01*
X285094556Y-175882331D01*
X285011299Y-175948711D01*
X284731829Y-176008114D01*
X284628771Y-175981337D01*
X284572292Y-175944659D01*
%TO.C,SW65*%
X326554226Y-173039511D02*
X326697083Y-173087130D01*
X326935178Y-173087130D01*
X327030416Y-173039511D01*
X327078035Y-172991892D01*
X327125654Y-172896654D01*
X327125654Y-172801416D01*
X327078035Y-172706178D01*
X327030416Y-172658559D01*
X326935178Y-172610940D01*
X326744702Y-172563321D01*
X326649464Y-172515702D01*
X326601845Y-172468083D01*
X326554226Y-172372845D01*
X326554226Y-172277607D01*
X326601845Y-172182369D01*
X326649464Y-172134750D01*
X326744702Y-172087130D01*
X326982797Y-172087130D01*
X327125654Y-172134750D01*
X327458988Y-172087130D02*
X327697083Y-173087130D01*
X327887559Y-172372845D01*
X328078035Y-173087130D01*
X328316130Y-172087130D01*
X329125654Y-172087130D02*
X328935178Y-172087130D01*
X328839940Y-172134750D01*
X328792321Y-172182369D01*
X328697083Y-172325226D01*
X328649464Y-172515702D01*
X328649464Y-172896654D01*
X328697083Y-172991892D01*
X328744702Y-173039511D01*
X328839940Y-173087130D01*
X329030416Y-173087130D01*
X329125654Y-173039511D01*
X329173273Y-172991892D01*
X329220892Y-172896654D01*
X329220892Y-172658559D01*
X329173273Y-172563321D01*
X329125654Y-172515702D01*
X329030416Y-172468083D01*
X328839940Y-172468083D01*
X328744702Y-172515702D01*
X328697083Y-172563321D01*
X328649464Y-172658559D01*
X330125654Y-172087130D02*
X329649464Y-172087130D01*
X329601845Y-172563321D01*
X329649464Y-172515702D01*
X329744702Y-172468083D01*
X329982797Y-172468083D01*
X330078035Y-172515702D01*
X330125654Y-172563321D01*
X330173273Y-172658559D01*
X330173273Y-172896654D01*
X330125654Y-172991892D01*
X330078035Y-173039511D01*
X329982797Y-173087130D01*
X329744702Y-173087130D01*
X329649464Y-173039511D01*
X329601845Y-172991892D01*
%TO.C,SW87*%
X421804226Y-173139511D02*
X421947083Y-173187130D01*
X422185178Y-173187130D01*
X422280416Y-173139511D01*
X422328035Y-173091892D01*
X422375654Y-172996654D01*
X422375654Y-172901416D01*
X422328035Y-172806178D01*
X422280416Y-172758559D01*
X422185178Y-172710940D01*
X421994702Y-172663321D01*
X421899464Y-172615702D01*
X421851845Y-172568083D01*
X421804226Y-172472845D01*
X421804226Y-172377607D01*
X421851845Y-172282369D01*
X421899464Y-172234750D01*
X421994702Y-172187130D01*
X422232797Y-172187130D01*
X422375654Y-172234750D01*
X422708988Y-172187130D02*
X422947083Y-173187130D01*
X423137559Y-172472845D01*
X423328035Y-173187130D01*
X423566130Y-172187130D01*
X424089940Y-172615702D02*
X423994702Y-172568083D01*
X423947083Y-172520464D01*
X423899464Y-172425226D01*
X423899464Y-172377607D01*
X423947083Y-172282369D01*
X423994702Y-172234750D01*
X424089940Y-172187130D01*
X424280416Y-172187130D01*
X424375654Y-172234750D01*
X424423273Y-172282369D01*
X424470892Y-172377607D01*
X424470892Y-172425226D01*
X424423273Y-172520464D01*
X424375654Y-172568083D01*
X424280416Y-172615702D01*
X424089940Y-172615702D01*
X423994702Y-172663321D01*
X423947083Y-172710940D01*
X423899464Y-172806178D01*
X423899464Y-172996654D01*
X423947083Y-173091892D01*
X423994702Y-173139511D01*
X424089940Y-173187130D01*
X424280416Y-173187130D01*
X424375654Y-173139511D01*
X424423273Y-173091892D01*
X424470892Y-172996654D01*
X424470892Y-172806178D01*
X424423273Y-172710940D01*
X424375654Y-172663321D01*
X424280416Y-172615702D01*
X424804226Y-172187130D02*
X425470892Y-172187130D01*
X425042321Y-173187130D01*
D11*
%TO.C,SW103*%
X497685000Y-130443750D02*
X497685000Y-116473750D01*
X511655000Y-130443750D02*
X497685000Y-130443750D01*
X497685000Y-116473750D02*
X511655000Y-116473750D01*
X511655000Y-116473750D02*
X511655000Y-130443750D01*
%TO.C,SW16*%
X135188023Y-112251162D02*
X138092549Y-98586440D01*
X148852745Y-115155688D02*
X135188023Y-112251162D01*
X138092549Y-98586440D02*
X151757271Y-101490966D01*
X151757271Y-101490966D02*
X148852745Y-115155688D01*
%TO.C,SW14*%
X109006319Y-158122499D02*
X109006319Y-172092499D01*
X95036319Y-172092499D02*
X95036319Y-158122499D01*
X95036319Y-158122499D02*
X109006319Y-158122499D01*
X109006319Y-172092499D02*
X95036319Y-172092499D01*
%TO.C,SW12*%
X110117568Y-131611249D02*
X110117568Y-117641249D01*
X110117568Y-117641249D02*
X124087568Y-117641249D01*
X124087568Y-131611249D02*
X110117568Y-131611249D01*
X124087568Y-117641249D02*
X124087568Y-131611249D01*
%TO.C,SW64*%
X321061250Y-154473750D02*
X321061250Y-168443750D01*
X307091250Y-154473750D02*
X321061250Y-154473750D01*
X307091250Y-168443750D02*
X307091250Y-154473750D01*
X321061250Y-168443750D02*
X307091250Y-168443750D01*
%TO.C,SW99*%
X492505000Y-149493750D02*
X478535000Y-149493750D01*
X492505000Y-135523750D02*
X492505000Y-149493750D01*
X478535000Y-149493750D02*
X478535000Y-135523750D01*
X478535000Y-135523750D02*
X492505000Y-135523750D01*
%TO.C,SW9*%
X85193819Y-191142499D02*
X71223819Y-191142499D01*
X71223819Y-191142499D02*
X71223819Y-177172499D01*
X85193819Y-177172499D02*
X85193819Y-191142499D01*
X71223819Y-177172499D02*
X85193819Y-177172499D01*
%TO.C,SW51*%
X254789331Y-143867787D02*
X268454053Y-140963260D01*
X257693858Y-157532509D02*
X254789331Y-143867787D01*
X268454053Y-140963260D02*
X271358580Y-154627982D01*
X271358580Y-154627982D02*
X257693858Y-157532509D01*
%TO.C,SW3*%
X85987568Y-96377499D02*
X85987568Y-110347499D01*
X72017568Y-110347499D02*
X72017568Y-96377499D01*
X72017568Y-96377499D02*
X85987568Y-96377499D01*
X85987568Y-110347499D02*
X72017568Y-110347499D01*
%TO.C,SW71*%
X349953750Y-93968653D02*
X363923750Y-93968653D01*
X363923750Y-93968653D02*
X363923750Y-107938653D01*
X349953750Y-107938653D02*
X349953750Y-93968653D01*
X363923750Y-107938653D02*
X349953750Y-107938653D01*
%TO.C,SW17*%
X143086458Y-137746407D02*
X129421736Y-134841881D01*
X145990984Y-124081685D02*
X143086458Y-137746407D01*
X132326262Y-121177159D02*
X145990984Y-124081685D01*
X129421736Y-134841881D02*
X132326262Y-121177159D01*
%TO.C,SW100*%
X478535000Y-154573750D02*
X492505000Y-154573750D01*
X492505000Y-154573750D02*
X492505000Y-168543750D01*
X492505000Y-168543750D02*
X478535000Y-168543750D01*
X478535000Y-168543750D02*
X478535000Y-154573750D01*
%TO.C,SW97*%
X469010000Y-192673750D02*
X482980000Y-192673750D01*
X469010000Y-206643750D02*
X469010000Y-192673750D01*
X482980000Y-206643750D02*
X469010000Y-206643750D01*
X482980000Y-192673750D02*
X482980000Y-206643750D01*
%TO.C,SW95*%
X459485000Y-154573750D02*
X473455000Y-154573750D01*
X459485000Y-168543750D02*
X459485000Y-154573750D01*
X473455000Y-168543750D02*
X459485000Y-168543750D01*
X473455000Y-154573750D02*
X473455000Y-168543750D01*
%TO.C,SW110*%
X223689442Y-203711547D02*
X220784915Y-190046825D01*
X220784915Y-190046825D02*
X234449637Y-187142298D01*
X237354164Y-200807020D02*
X223689442Y-203711547D01*
X234449637Y-187142298D02*
X237354164Y-200807020D01*
%TO.C,SW59*%
X316298750Y-173523750D02*
X316298750Y-187493750D01*
X302328750Y-173523750D02*
X316298750Y-173523750D01*
X302328750Y-187493750D02*
X302328750Y-173523750D01*
X316298750Y-187493750D02*
X302328750Y-187493750D01*
%TO.C,SW11*%
X119485015Y-94604059D02*
X133149737Y-97508585D01*
X133149737Y-97508585D02*
X130245211Y-111173307D01*
X130245211Y-111173307D02*
X116580489Y-108268781D01*
X116580489Y-108268781D02*
X119485015Y-94604059D01*
%TO.C,SW40*%
X231186630Y-148884695D02*
X234091157Y-162549417D01*
X234091157Y-162549417D02*
X220426435Y-165453944D01*
X220426435Y-165453944D02*
X217521908Y-151789222D01*
X217521908Y-151789222D02*
X231186630Y-148884695D01*
%TO.C,SW105*%
X511555000Y-187593750D02*
X497585000Y-187593750D01*
X497585000Y-187593750D02*
X497585000Y-173623750D01*
X511555000Y-173623750D02*
X511555000Y-187593750D01*
X497585000Y-173623750D02*
X511555000Y-173623750D01*
%TO.C,SW4*%
X85987568Y-133992499D02*
X72017568Y-133992499D01*
X72017568Y-120022499D02*
X85987568Y-120022499D01*
X72017568Y-133992499D02*
X72017568Y-120022499D01*
X85987568Y-120022499D02*
X85987568Y-133992499D01*
%TO.C,SW33*%
X188227397Y-133059311D02*
X201892119Y-135963837D01*
X201892119Y-135963837D02*
X198987593Y-149628559D01*
X185322871Y-146724033D02*
X188227397Y-133059311D01*
X198987593Y-149628559D02*
X185322871Y-146724033D01*
%TO.C,SW47*%
X260956865Y-195790112D02*
X258052338Y-182125390D01*
X258052338Y-182125390D02*
X271717060Y-179220863D01*
X271717060Y-179220863D02*
X274621587Y-192885585D01*
X274621587Y-192885585D02*
X260956865Y-195790112D01*
%TO.C,SW84*%
X430598750Y-107938653D02*
X416628750Y-107938653D01*
X416628750Y-107938653D02*
X416628750Y-93968653D01*
X416628750Y-93968653D02*
X430598750Y-93968653D01*
X430598750Y-93968653D02*
X430598750Y-107938653D01*
%TO.C,SW8*%
X105037568Y-120022499D02*
X105037568Y-133992499D01*
X91067568Y-120022499D02*
X105037568Y-120022499D01*
X91067568Y-133992499D02*
X91067568Y-120022499D01*
X105037568Y-133992499D02*
X91067568Y-133992499D01*
%TO.C,SW102*%
X511555000Y-135523750D02*
X511555000Y-149493750D01*
X497585000Y-135523750D02*
X511555000Y-135523750D01*
X497585000Y-149493750D02*
X497585000Y-135523750D01*
X511555000Y-149493750D02*
X497585000Y-149493750D01*
%TO.C,SW34*%
X185208396Y-166270835D02*
X171543674Y-163366309D01*
X171543674Y-163366309D02*
X174448200Y-149701587D01*
X174448200Y-149701587D02*
X188112922Y-152606113D01*
X188112922Y-152606113D02*
X185208396Y-166270835D01*
%TO.C,SW93*%
X459485000Y-130443750D02*
X459485000Y-116473750D01*
X459485000Y-116473750D02*
X473455000Y-116473750D01*
X473455000Y-130443750D02*
X459485000Y-130443750D01*
X473455000Y-116473750D02*
X473455000Y-130443750D01*
%TO.C,SW10*%
X99481319Y-210192499D02*
X85511319Y-210192499D01*
X99481319Y-196222499D02*
X99481319Y-210192499D01*
X85511319Y-210192499D02*
X85511319Y-196222499D01*
X85511319Y-196222499D02*
X99481319Y-196222499D01*
%TO.C,SW31*%
X159579117Y-199840286D02*
X162483643Y-186175564D01*
X162483643Y-186175564D02*
X176148365Y-189080090D01*
X173243839Y-202744812D02*
X159579117Y-199840286D01*
X176148365Y-189080090D02*
X173243839Y-202744812D01*
%TO.C,SW96*%
X473455000Y-187593750D02*
X459485000Y-187593750D01*
X473455000Y-173623750D02*
X473455000Y-187593750D01*
X459485000Y-187593750D02*
X459485000Y-173623750D01*
X459485000Y-173623750D02*
X473455000Y-173623750D01*
%TO.C,SW15*%
X116150069Y-177172499D02*
X116150069Y-191142499D01*
X102180069Y-191142499D02*
X102180069Y-177172499D01*
X102180069Y-177172499D02*
X116150069Y-177172499D01*
X116150069Y-191142499D02*
X102180069Y-191142499D01*
%TO.C,SW101*%
X492505000Y-173623750D02*
X492505000Y-187593750D01*
X478535000Y-173623750D02*
X492505000Y-173623750D01*
X478535000Y-187593750D02*
X478535000Y-173623750D01*
X492505000Y-187593750D02*
X478535000Y-187593750D01*
%TO.C,SW13*%
X109006319Y-153042499D02*
X95036319Y-153042499D01*
X95036319Y-139072499D02*
X109006319Y-139072499D01*
X95036319Y-153042499D02*
X95036319Y-139072499D01*
X109006319Y-139072499D02*
X109006319Y-153042499D01*
%TO.C,SW81*%
X411548750Y-130343750D02*
X397578750Y-130343750D01*
X397578750Y-116373750D02*
X411548750Y-116373750D01*
X411548750Y-116373750D02*
X411548750Y-130343750D01*
X397578750Y-130343750D02*
X397578750Y-116373750D01*
%TO.C,SW104*%
X497585000Y-168543750D02*
X497585000Y-154573750D01*
X511555000Y-168543750D02*
X497585000Y-168543750D01*
X497585000Y-154573750D02*
X511555000Y-154573750D01*
X511555000Y-154573750D02*
X511555000Y-168543750D01*
%TO.C,SW20*%
X125216222Y-178254125D02*
X138880944Y-181158651D01*
X122311696Y-191918847D02*
X125216222Y-178254125D01*
X135976418Y-194823373D02*
X122311696Y-191918847D01*
X138880944Y-181158651D02*
X135976418Y-194823373D01*
%TO.C,SW78*%
X373448750Y-135423750D02*
X373448750Y-149393750D01*
X359478750Y-149393750D02*
X359478750Y-135423750D01*
X359478750Y-135423750D02*
X373448750Y-135423750D01*
X373448750Y-149393750D02*
X359478750Y-149393750D01*
%TO.C,SW85*%
X416628750Y-116373750D02*
X430598750Y-116373750D01*
X430598750Y-130343750D02*
X416628750Y-130343750D01*
X416628750Y-130343750D02*
X416628750Y-116373750D01*
X430598750Y-116373750D02*
X430598750Y-130343750D01*
%TO.C,SW92*%
X435678750Y-192673750D02*
X449648750Y-192673750D01*
X435678750Y-206643750D02*
X435678750Y-192673750D01*
X449648750Y-192673750D02*
X449648750Y-206643750D01*
X449648750Y-206643750D02*
X435678750Y-206643750D01*
%TO.C,SW28*%
X180353880Y-145667842D02*
X166689158Y-142763316D01*
X183258406Y-132003120D02*
X180353880Y-145667842D01*
X166689158Y-142763316D02*
X169593684Y-129098594D01*
X169593684Y-129098594D02*
X183258406Y-132003120D01*
%TO.C,SW76*%
X369003750Y-107938653D02*
X369003750Y-93968653D01*
X382973750Y-93968653D02*
X382973750Y-107938653D01*
X369003750Y-93968653D02*
X382973750Y-93968653D01*
X382973750Y-107938653D02*
X369003750Y-107938653D01*
%TO.C,SW37*%
X200138216Y-213654875D02*
X197233690Y-227319597D01*
X183568968Y-224415071D02*
X186473494Y-210750349D01*
X186473494Y-210750349D02*
X200138216Y-213654875D01*
X197233690Y-227319597D02*
X183568968Y-224415071D01*
%TO.C,SW46*%
X258439487Y-162567510D02*
X261344014Y-176232232D01*
X247679292Y-179136759D02*
X244774765Y-165472037D01*
X244774765Y-165472037D02*
X258439487Y-162567510D01*
X261344014Y-176232232D02*
X247679292Y-179136759D01*
%TO.C,SW58*%
X295706911Y-154646075D02*
X298611438Y-168310797D01*
X298611438Y-168310797D02*
X284946716Y-171215324D01*
X284946716Y-171215324D02*
X282042189Y-157550602D01*
X282042189Y-157550602D02*
X295706911Y-154646075D01*
%TO.C,SW41*%
X242710302Y-180192950D02*
X229045580Y-183097477D01*
X229045580Y-183097477D02*
X226141053Y-169432755D01*
X226141053Y-169432755D02*
X239805775Y-166528228D01*
X239805775Y-166528228D02*
X242710302Y-180192950D01*
%TO.C,SW5*%
X85193819Y-139076249D02*
X85193819Y-153046249D01*
X71223819Y-139076249D02*
X85193819Y-139076249D01*
X85193819Y-153046249D02*
X71223819Y-153046249D01*
X71223819Y-153046249D02*
X71223819Y-139076249D01*
%TO.C,SW75*%
X347572500Y-192573750D02*
X361542500Y-192573750D01*
X361542500Y-192573750D02*
X361542500Y-206543750D01*
X361542500Y-206543750D02*
X347572500Y-206543750D01*
X347572500Y-206543750D02*
X347572500Y-192573750D01*
%TO.C,SW98*%
X492505000Y-130443750D02*
X478535000Y-130443750D01*
X478535000Y-116473750D02*
X492505000Y-116473750D01*
X478535000Y-130443750D02*
X478535000Y-116473750D01*
X492505000Y-116473750D02*
X492505000Y-130443750D01*
%TO.C,SW49*%
X255487188Y-101338224D02*
X269151910Y-98433697D01*
X258391715Y-115002946D02*
X255487188Y-101338224D01*
X272056437Y-112098419D02*
X258391715Y-115002946D01*
X269151910Y-98433697D02*
X272056437Y-112098419D01*
%TO.C,SW42*%
X239418627Y-186086108D02*
X253083349Y-183181581D01*
X242323154Y-199750830D02*
X239418627Y-186086108D01*
X255987876Y-196846303D02*
X242323154Y-199750830D01*
X253083349Y-183181581D02*
X255987876Y-196846303D01*
%TO.C,SW62*%
X302328750Y-130343750D02*
X302328750Y-116373750D01*
X316298750Y-130343750D02*
X302328750Y-130343750D01*
X302328750Y-116373750D02*
X316298750Y-116373750D01*
X316298750Y-116373750D02*
X316298750Y-130343750D01*
%TO.C,SW108*%
X530605000Y-145048750D02*
X530605000Y-159018750D01*
X516635000Y-145048750D02*
X530605000Y-145048750D01*
X516635000Y-159018750D02*
X516635000Y-145048750D01*
X530605000Y-159018750D02*
X516635000Y-159018750D01*
%TO.C,SW86*%
X416628750Y-149393750D02*
X416628750Y-135423750D01*
X416628750Y-135423750D02*
X430598750Y-135423750D01*
X430598750Y-135423750D02*
X430598750Y-149393750D01*
X430598750Y-149393750D02*
X416628750Y-149393750D01*
%TO.C,SW26*%
X157514650Y-185119369D02*
X154610124Y-198784091D01*
X154610124Y-198784091D02*
X140945402Y-195879565D01*
X140945402Y-195879565D02*
X143849928Y-182214843D01*
X143849928Y-182214843D02*
X157514650Y-185119369D01*
%TO.C,SW30*%
X154251726Y-179132067D02*
X157156252Y-165467345D01*
X167916448Y-182036593D02*
X154251726Y-179132067D01*
X170820974Y-168371871D02*
X167916448Y-182036593D01*
X157156252Y-165467345D02*
X170820974Y-168371871D01*
%TO.C,SW22*%
X156726262Y-102547156D02*
X170390984Y-105451682D01*
X167486458Y-119116404D02*
X153821736Y-116211878D01*
X153821736Y-116211878D02*
X156726262Y-102547156D01*
X170390984Y-105451682D02*
X167486458Y-119116404D01*
%TO.C,SW60*%
X278325376Y-197269903D02*
X291990098Y-194365376D01*
X281229903Y-210934625D02*
X278325376Y-197269903D01*
X294894625Y-208030098D02*
X281229903Y-210934625D01*
X291990098Y-194365376D02*
X294894625Y-208030098D01*
%TO.C,SW48*%
X218333304Y-224325618D02*
X215428777Y-210660896D01*
X229093499Y-207756369D02*
X231998026Y-221421091D01*
X215428777Y-210660896D02*
X229093499Y-207756369D01*
X231998026Y-221421091D02*
X218333304Y-224325618D01*
%TO.C,SW7*%
X75668819Y-210192499D02*
X61698819Y-210192499D01*
X61698819Y-210192499D02*
X61698819Y-196222499D01*
X75668819Y-196222499D02*
X75668819Y-210192499D01*
X61698819Y-196222499D02*
X75668819Y-196222499D01*
%TO.C,SW63*%
X311536250Y-149393750D02*
X297566250Y-149393750D01*
X297566250Y-149393750D02*
X297566250Y-135423750D01*
X297566250Y-135423750D02*
X311536250Y-135423750D01*
X311536250Y-135423750D02*
X311536250Y-149393750D01*
%TO.C,SW55*%
X287785622Y-94472980D02*
X290690149Y-108137702D01*
X290690149Y-108137702D02*
X277025427Y-111042229D01*
X274120900Y-97377507D02*
X287785622Y-94472980D01*
X277025427Y-111042229D02*
X274120900Y-97377507D01*
%TO.C,SW61*%
X311853750Y-93968653D02*
X325823750Y-93968653D01*
X325823750Y-93968653D02*
X325823750Y-107938653D01*
X311853750Y-107938653D02*
X311853750Y-93968653D01*
X325823750Y-107938653D02*
X311853750Y-107938653D01*
%TO.C,SW24*%
X134276250Y-155444877D02*
X137180776Y-141780155D01*
X137180776Y-141780155D02*
X150845498Y-144684681D01*
X147940972Y-158349403D02*
X134276250Y-155444877D01*
X150845498Y-144684681D02*
X147940972Y-158349403D01*
%TO.C,SW6*%
X82812569Y-158122499D02*
X82812569Y-172092499D01*
X68842569Y-172092499D02*
X68842569Y-158122499D01*
X82812569Y-172092499D02*
X68842569Y-172092499D01*
X68842569Y-158122499D02*
X82812569Y-158122499D01*
%TO.C,SW66*%
X323760000Y-192573750D02*
X337730000Y-192573750D01*
X337730000Y-192573750D02*
X337730000Y-206543750D01*
X337730000Y-206543750D02*
X323760000Y-206543750D01*
X323760000Y-206543750D02*
X323760000Y-192573750D01*
%TO.C,SW94*%
X473455000Y-135523750D02*
X473455000Y-149493750D01*
X473455000Y-149493750D02*
X459485000Y-149493750D01*
X459485000Y-149493750D02*
X459485000Y-135523750D01*
X459485000Y-135523750D02*
X473455000Y-135523750D01*
%TO.C,SW36*%
X191877551Y-206705525D02*
X178212829Y-203800999D01*
X178212829Y-203800999D02*
X181117355Y-190136277D01*
X181117355Y-190136277D02*
X194782077Y-193040803D01*
X194782077Y-193040803D02*
X191877551Y-206705525D01*
%TO.C,SW50*%
X263049996Y-136918438D02*
X260145469Y-123253716D01*
X260145469Y-123253716D02*
X273810191Y-120349189D01*
X273810191Y-120349189D02*
X276714718Y-134013911D01*
X276714718Y-134013911D02*
X263049996Y-136918438D01*
%TO.C,SW80*%
X397578750Y-107938653D02*
X397578750Y-93968653D01*
X411548750Y-93968653D02*
X411548750Y-107938653D01*
X411548750Y-107938653D02*
X397578750Y-107938653D01*
X397578750Y-93968653D02*
X411548750Y-93968653D01*
%TO.C,SW109*%
X530605000Y-183148750D02*
X530605000Y-197118750D01*
X530605000Y-197118750D02*
X516635000Y-197118750D01*
X516635000Y-197118750D02*
X516635000Y-183148750D01*
X516635000Y-183148750D02*
X530605000Y-183148750D01*
%TO.C,SW29*%
X166574684Y-162310120D02*
X152909962Y-159405594D01*
X169479210Y-148645398D02*
X166574684Y-162310120D01*
X155814488Y-145740872D02*
X169479210Y-148645398D01*
X152909962Y-159405594D02*
X155814488Y-145740872D01*
%TO.C,SW88*%
X416628750Y-192673750D02*
X430598750Y-192673750D01*
X416628750Y-206643750D02*
X416628750Y-192673750D01*
X430598750Y-206643750D02*
X416628750Y-206643750D01*
X430598750Y-192673750D02*
X430598750Y-206643750D01*
%TO.C,SW44*%
X241511758Y-127214434D02*
X255176480Y-124309907D01*
X244416285Y-140879156D02*
X241511758Y-127214434D01*
X258081007Y-137974629D02*
X244416285Y-140879156D01*
X255176480Y-124309907D02*
X258081007Y-137974629D01*
%TO.C,SW82*%
X411548750Y-149393750D02*
X397578750Y-149393750D01*
X397578750Y-149393750D02*
X397578750Y-135423750D01*
X397578750Y-135423750D02*
X411548750Y-135423750D01*
X411548750Y-135423750D02*
X411548750Y-149393750D01*
%TO.C,SW72*%
X335666250Y-135423750D02*
X349636250Y-135423750D01*
X349636250Y-135423750D02*
X349636250Y-149393750D01*
X349636250Y-149393750D02*
X335666250Y-149393750D01*
X335666250Y-149393750D02*
X335666250Y-135423750D01*
%TO.C,SW32*%
X156193712Y-204314182D02*
X169858434Y-207218708D01*
X153289186Y-217978904D02*
X156193712Y-204314182D01*
X169858434Y-207218708D02*
X166953908Y-220883430D01*
X166953908Y-220883430D02*
X153289186Y-217978904D01*
%TO.C,SW91*%
X449648750Y-149393750D02*
X435678750Y-149393750D01*
X449648750Y-135423750D02*
X449648750Y-149393750D01*
X435678750Y-149393750D02*
X435678750Y-135423750D01*
X435678750Y-135423750D02*
X449648750Y-135423750D01*
%TO.C,SW89*%
X435678750Y-107938653D02*
X435678750Y-93968653D01*
X435678750Y-93968653D02*
X449648750Y-93968653D01*
X449648750Y-107938653D02*
X435678750Y-107938653D01*
X449648750Y-93968653D02*
X449648750Y-107938653D01*
%TO.C,SW79*%
X385355000Y-206543750D02*
X371385000Y-206543750D01*
X371385000Y-206543750D02*
X371385000Y-192573750D01*
X371385000Y-192573750D02*
X385355000Y-192573750D01*
X385355000Y-192573750D02*
X385355000Y-206543750D01*
%TO.C,SW27*%
X172455446Y-120172597D02*
X175359972Y-106507875D01*
X186120168Y-123077123D02*
X172455446Y-120172597D01*
X175359972Y-106507875D02*
X189024694Y-109412401D01*
X189024694Y-109412401D02*
X186120168Y-123077123D01*
%TO.C,SW68*%
X335348750Y-116373750D02*
X335348750Y-130343750D01*
X321378750Y-130343750D02*
X321378750Y-116373750D01*
X321378750Y-116373750D02*
X335348750Y-116373750D01*
X335348750Y-130343750D02*
X321378750Y-130343750D01*
%TO.C,SW70*%
X326141250Y-154473750D02*
X340111250Y-154473750D01*
X340111250Y-168443750D02*
X326141250Y-168443750D01*
X326141250Y-168443750D02*
X326141250Y-154473750D01*
X340111250Y-154473750D02*
X340111250Y-168443750D01*
%TO.C,SW74*%
X371067500Y-187493750D02*
X357097500Y-187493750D01*
X371067500Y-173523750D02*
X371067500Y-187493750D01*
X357097500Y-173523750D02*
X371067500Y-173523750D01*
X357097500Y-187493750D02*
X357097500Y-173523750D01*
%TO.C,SW57*%
X273423043Y-139907069D02*
X287087765Y-137002542D01*
X287087765Y-137002542D02*
X289992292Y-150667264D01*
X289992292Y-150667264D02*
X276327570Y-153571791D01*
X276327570Y-153571791D02*
X273423043Y-139907069D01*
%TO.C,SW43*%
X253422725Y-116059137D02*
X239758003Y-118963664D01*
X250518198Y-102394415D02*
X253422725Y-116059137D01*
X239758003Y-118963664D02*
X236853476Y-105298942D01*
X236853476Y-105298942D02*
X250518198Y-102394415D01*
%TO.C,SW73*%
X357097500Y-168443750D02*
X357097500Y-154473750D01*
X371067500Y-154473750D02*
X371067500Y-168443750D01*
X357097500Y-154473750D02*
X371067500Y-154473750D01*
X371067500Y-168443750D02*
X357097500Y-168443750D01*
%TO.C,SW54*%
X262194625Y-215040098D02*
X248529903Y-217944625D01*
X259290098Y-201375376D02*
X262194625Y-215040098D01*
X245625376Y-204279903D02*
X259290098Y-201375376D01*
X248529903Y-217944625D02*
X245625376Y-204279903D01*
%TO.C,SW52*%
X279977726Y-172271514D02*
X266313004Y-175176041D01*
X277073199Y-158606792D02*
X279977726Y-172271514D01*
X263408477Y-161511319D02*
X277073199Y-158606792D01*
X266313004Y-175176041D02*
X263408477Y-161511319D01*
%TO.C,SW83*%
X397578750Y-192673750D02*
X411548750Y-192673750D01*
X397578750Y-206643750D02*
X397578750Y-192673750D01*
X411548750Y-206643750D02*
X397578750Y-206643750D01*
X411548750Y-192673750D02*
X411548750Y-206643750D01*
%TO.C,SW69*%
X330586250Y-135423750D02*
X330586250Y-149393750D01*
X330586250Y-149393750D02*
X316616250Y-149393750D01*
X316616250Y-149393750D02*
X316616250Y-135423750D01*
X316616250Y-135423750D02*
X330586250Y-135423750D01*
%TO.C,SW35*%
X175789967Y-169428063D02*
X189454689Y-172332589D01*
X172885441Y-183092785D02*
X175789967Y-169428063D01*
X186550163Y-185997311D02*
X172885441Y-183092785D01*
X189454689Y-172332589D02*
X186550163Y-185997311D01*
%TO.C,SW56*%
X292443903Y-116388472D02*
X295348430Y-130053194D01*
X295348430Y-130053194D02*
X281683708Y-132957721D01*
X278779181Y-119292999D02*
X292443903Y-116388472D01*
X281683708Y-132957721D02*
X278779181Y-119292999D01*
%TO.C,SW39*%
X225782573Y-144839874D02*
X222878046Y-131175152D01*
X236542768Y-128270625D02*
X239447295Y-141935347D01*
X222878046Y-131175152D02*
X236542768Y-128270625D01*
X239447295Y-141935347D02*
X225782573Y-144839874D01*
%TO.C,SW106*%
X497585000Y-192673750D02*
X511555000Y-192673750D01*
X511555000Y-206643750D02*
X497585000Y-206643750D01*
X511555000Y-192673750D02*
X511555000Y-206643750D01*
X497585000Y-206643750D02*
X497585000Y-192673750D01*
%TO.C,SW21*%
X134344913Y-213952175D02*
X120680191Y-211047649D01*
X137249439Y-200287453D02*
X134344913Y-213952175D01*
X123584717Y-197382927D02*
X137249439Y-200287453D01*
X120680191Y-211047649D02*
X123584717Y-197382927D01*
%TO.C,SW25*%
X149282736Y-178075873D02*
X135618014Y-175171347D01*
X138522540Y-161506625D02*
X152187262Y-164411151D01*
X135618014Y-175171347D02*
X138522540Y-161506625D01*
X152187262Y-164411151D02*
X149282736Y-178075873D01*
%TO.C,SW67*%
X330903750Y-93968653D02*
X344873750Y-93968653D01*
X330903750Y-107938653D02*
X330903750Y-93968653D01*
X344873750Y-107938653D02*
X330903750Y-107938653D01*
X344873750Y-93968653D02*
X344873750Y-107938653D01*
%TO.C,SW23*%
X161720168Y-141707123D02*
X148055446Y-138802597D01*
X150959972Y-125137875D02*
X164624694Y-128042401D01*
X148055446Y-138802597D02*
X150959972Y-125137875D01*
X164624694Y-128042401D02*
X161720168Y-141707123D01*
%TO.C,SW18*%
X115642539Y-151484155D02*
X118547065Y-137819433D01*
X132211787Y-140723959D02*
X129307261Y-154388681D01*
X129307261Y-154388681D02*
X115642539Y-151484155D01*
X118547065Y-137819433D02*
X132211787Y-140723959D01*
%TO.C,SW77*%
X363923750Y-116373750D02*
X363923750Y-130343750D01*
X349953750Y-130343750D02*
X349953750Y-116373750D01*
X363923750Y-130343750D02*
X349953750Y-130343750D01*
X349953750Y-116373750D02*
X363923750Y-116373750D01*
%TO.C,SW38*%
X231884486Y-106355133D02*
X234789013Y-120019855D01*
X218219764Y-109259660D02*
X231884486Y-106355133D01*
X234789013Y-120019855D02*
X221124291Y-122924382D01*
X221124291Y-122924382D02*
X218219764Y-109259660D01*
%TO.C,SW107*%
X530605000Y-130443750D02*
X516635000Y-130443750D01*
X530605000Y-116473750D02*
X530605000Y-130443750D01*
X516635000Y-116473750D02*
X530605000Y-116473750D01*
X516635000Y-130443750D02*
X516635000Y-116473750D01*
%TO.C,SW90*%
X435678750Y-130343750D02*
X435678750Y-116373750D01*
X449648750Y-116373750D02*
X449648750Y-130343750D01*
X435678750Y-116373750D02*
X449648750Y-116373750D01*
X449648750Y-130343750D02*
X435678750Y-130343750D01*
%TO.C,SW45*%
X249820341Y-144923978D02*
X252724868Y-158588700D01*
X236155619Y-147828505D02*
X249820341Y-144923978D01*
X239060146Y-161493227D02*
X236155619Y-147828505D01*
X252724868Y-158588700D02*
X239060146Y-161493227D01*
%TO.C,SW19*%
X130649025Y-174115155D02*
X116984303Y-171210629D01*
X116984303Y-171210629D02*
X119888829Y-157545907D01*
X133553551Y-160450433D02*
X130649025Y-174115155D01*
X119888829Y-157545907D02*
X133553551Y-160450433D01*
%TO.C,SW53*%
X279590576Y-191829394D02*
X276686049Y-178164672D01*
X293255298Y-188924867D02*
X279590576Y-191829394D01*
X276686049Y-178164672D02*
X290350771Y-175260145D01*
X290350771Y-175260145D02*
X293255298Y-188924867D01*
%TO.C,SW65*%
X321378750Y-187493750D02*
X321378750Y-173523750D01*
X321378750Y-173523750D02*
X335348750Y-173523750D01*
X335348750Y-173523750D02*
X335348750Y-187493750D01*
X335348750Y-187493750D02*
X321378750Y-187493750D01*
%TO.C,SW87*%
X416628750Y-173623750D02*
X430598750Y-173623750D01*
X416628750Y-187593750D02*
X416628750Y-173623750D01*
X430598750Y-173623750D02*
X430598750Y-187593750D01*
X430598750Y-187593750D02*
X416628750Y-187593750D01*
%TD*%
M02*
