  0
SECTION
  2
HEADER
  9
$ANGBASE
  50
0.0
  9
$ANGDIR
  70
1
  9
$MEASUREMENT
  70
1
  0
ENDSEC
  0
SECTION
  2
TABLES
  0
TABLE
  2
LTYPE
  70
4
  0
LTYPE
  5
40F
  2
CONTINUOUS
  70
0
  3
Solid line
  72
65
  73
0
  40
0.0
  0
LTYPE
  5
410
  2
DASHDOT
 70
0
  3
Dash Dot ____ _ ____ _
 72
65
 73
4
 40
2.0
 49
1.25
 49
-0.25
 49
0.25
 49
-0.25
  0
LTYPE
  5
411
  2
DASHED
 70
0
  3
Dashed __ __ __ __ __
 72
65
 73
2
 40
0.75
 49
0.5
 49
-0.25
  0
LTYPE
  5
43B
  2
DOTTED
 70
0
  3
Dotted .  .  .  .
 72
65
 73
2
 40
0.2
 49
0.0
 49
-0.2
  0
ENDTAB
  0
TABLE
  2
STYLE
  70
4
  0
STYLE
  2
KICAD
  70
0
  40
0
  41
1
  42
1
  50
0
  71
0
  3
isocp.shx
  0
STYLE
  2
KICADB
  70
0
  40
0
  41
1
  42
1
  50
0
  71
0
  3
isocp.shx
  0
STYLE
  2
KICADI
  70
0
  40
0
  41
1
  42
1
  50
15
  71
0
  3
isocp.shx
  0
STYLE
  2
KICADBI
  70
0
  40
0
  41
1
  42
1
  50
15
  71
0
  3
isocp.shx
  0
ENDTAB
  0
TABLE
  2
LAYER
  70
1
  0
LAYER
  2
BLACK
  70
0
  62
7
  6
CONTINUOUS
  0
ENDTAB
  0
ENDSEC
  0
SECTION
  2
ENTITIES
0
LINE
8
BLACK
6
CONTINUOUS
10
54.5201
20
-92.4025
11
54.5201
21
-209.084
0
LINE
8
BLACK
6
CONTINUOUS
10
382.619
20
-234.494
11
478.366
21
-213.841
0
ARC
8
BLACK
10
533.151
20
-92.4025
40
2.38125
50
-1.13687e-14
51
90.0013
0
LINE
8
BLACK
6
CONTINUOUS
10
56.9013
20
-90.0212
11
533.151
21
-90.0212
0
LINE
8
BLACK
6
CONTINUOUS
10
379.419
20
-234.434
11
280.739
21
-211.465
0
LINE
8
BLACK
6
CONTINUOUS
10
535.516
20
-211.46
11
535.533
21
-92.4025
0
LINE
8
BLACK
6
CONTINUOUS
10
280.739
20
-211.465
11
56.9013
21
-211.465
0
ARC
8
BLACK
10
56.876
20
-209.109
40
2.35604
50
-180.616
51
-89.3836
0
ARC
8
BLACK
10
381.128
20
-228.632
40
6.04841
50
-106.416
51
-75.7323
0
ARC
8
BLACK
10
533.151
20
-211.476
40
2.36515
50
-90.3912
51
0.391188
0
ARC
8
BLACK
10
56.9013
20
-92.4025
40
2.3812
50
89.9988
51
180
0
LINE
8
BLACK
6
CONTINUOUS
10
478.366
20
-213.841
11
533.135
21
-213.841
0
LINE
8
BLACK
6
CONTINUOUS
10
92.3676
20
-130.444
11
92.3676
21
-116.474
0
LINE
8
BLACK
6
CONTINUOUS
10
78.3976
20
-130.444
11
92.3676
21
-130.444
0
LINE
8
BLACK
6
CONTINUOUS
10
92.3676
20
-116.474
11
78.3976
21
-116.474
0
LINE
8
BLACK
6
CONTINUOUS
10
78.3976
20
-116.474
11
78.3976
21
-130.444
0
LINE
8
BLACK
6
CONTINUOUS
10
454.865
20
-112.251
11
451.96
21
-98.5864
0
LINE
8
BLACK
6
CONTINUOUS
10
441.2
20
-115.156
11
454.865
21
-112.251
0
LINE
8
BLACK
6
CONTINUOUS
10
451.96
20
-98.5864
11
438.295
21
-101.491
0
LINE
8
BLACK
6
CONTINUOUS
10
438.295
20
-101.491
11
441.2
21
-115.156
0
LINE
8
BLACK
6
CONTINUOUS
10
481.046
20
-158.122
11
481.046
21
-172.092
0
LINE
8
BLACK
6
CONTINUOUS
10
495.016
20
-172.092
11
495.016
21
-158.122
0
LINE
8
BLACK
6
CONTINUOUS
10
495.016
20
-158.122
11
481.046
21
-158.122
0
LINE
8
BLACK
6
CONTINUOUS
10
481.046
20
-172.092
11
495.016
21
-172.092
0
LINE
8
BLACK
6
CONTINUOUS
10
479.935
20
-131.611
11
479.935
21
-117.641
0
LINE
8
BLACK
6
CONTINUOUS
10
479.935
20
-117.641
11
465.965
21
-117.641
0
LINE
8
BLACK
6
CONTINUOUS
10
465.965
20
-131.611
11
479.935
21
-131.611
0
LINE
8
BLACK
6
CONTINUOUS
10
465.965
20
-117.641
11
465.965
21
-131.611
0
LINE
8
BLACK
6
CONTINUOUS
10
268.991
20
-154.474
11
268.991
21
-168.444
0
LINE
8
BLACK
6
CONTINUOUS
10
282.961
20
-154.474
11
268.991
21
-154.474
0
LINE
8
BLACK
6
CONTINUOUS
10
282.961
20
-168.444
11
282.961
21
-154.474
0
LINE
8
BLACK
6
CONTINUOUS
10
268.991
20
-168.444
11
282.961
21
-168.444
0
LINE
8
BLACK
6
CONTINUOUS
10
97.5476
20
-149.494
11
111.518
21
-149.494
0
LINE
8
BLACK
6
CONTINUOUS
10
97.5476
20
-135.524
11
97.5476
21
-149.494
0
LINE
8
BLACK
6
CONTINUOUS
10
111.518
20
-149.494
11
111.518
21
-135.524
0
LINE
8
BLACK
6
CONTINUOUS
10
111.518
20
-135.524
11
97.5476
21
-135.524
0
LINE
8
BLACK
6
CONTINUOUS
10
504.859
20
-191.142
11
518.829
21
-191.142
0
LINE
8
BLACK
6
CONTINUOUS
10
518.829
20
-191.142
11
518.829
21
-177.172
0
LINE
8
BLACK
6
CONTINUOUS
10
504.859
20
-177.172
11
504.859
21
-191.142
0
LINE
8
BLACK
6
CONTINUOUS
10
518.829
20
-177.172
11
504.859
21
-177.172
0
LINE
8
BLACK
6
CONTINUOUS
10
335.263
20
-143.868
11
321.599
21
-140.963
0
LINE
8
BLACK
6
CONTINUOUS
10
332.359
20
-157.533
11
335.263
21
-143.868
0
LINE
8
BLACK
6
CONTINUOUS
10
321.599
20
-140.963
11
318.694
21
-154.628
0
LINE
8
BLACK
6
CONTINUOUS
10
318.694
20
-154.628
11
332.359
21
-157.533
0
LINE
8
BLACK
6
CONTINUOUS
10
504.065
20
-96.3775
11
504.065
21
-110.347
0
LINE
8
BLACK
6
CONTINUOUS
10
518.035
20
-110.347
11
518.035
21
-96.3775
0
LINE
8
BLACK
6
CONTINUOUS
10
518.035
20
-96.3775
11
504.065
21
-96.3775
0
LINE
8
BLACK
6
CONTINUOUS
10
504.065
20
-110.347
11
518.035
21
-110.347
0
LINE
8
BLACK
6
CONTINUOUS
10
240.099
20
-93.9687
11
226.129
21
-93.9687
0
LINE
8
BLACK
6
CONTINUOUS
10
226.129
20
-93.9687
11
226.129
21
-107.939
0
LINE
8
BLACK
6
CONTINUOUS
10
240.099
20
-107.939
11
240.099
21
-93.9687
0
LINE
8
BLACK
6
CONTINUOUS
10
226.129
20
-107.939
11
240.099
21
-107.939
0
LINE
8
BLACK
6
CONTINUOUS
10
446.966
20
-137.746
11
460.631
21
-134.842
0
LINE
8
BLACK
6
CONTINUOUS
10
444.062
20
-124.082
11
446.966
21
-137.746
0
LINE
8
BLACK
6
CONTINUOUS
10
457.726
20
-121.177
11
444.062
21
-124.082
0
LINE
8
BLACK
6
CONTINUOUS
10
460.631
20
-134.842
11
457.726
21
-121.177
0
LINE
8
BLACK
6
CONTINUOUS
10
111.518
20
-154.574
11
97.5476
21
-154.574
0
LINE
8
BLACK
6
CONTINUOUS
10
97.5476
20
-154.574
11
97.5476
21
-168.544
0
LINE
8
BLACK
6
CONTINUOUS
10
97.5476
20
-168.544
11
111.518
21
-168.544
0
LINE
8
BLACK
6
CONTINUOUS
10
111.518
20
-168.544
11
111.518
21
-154.574
0
LINE
8
BLACK
6
CONTINUOUS
10
121.043
20
-192.674
11
107.073
21
-192.674
0
LINE
8
BLACK
6
CONTINUOUS
10
121.043
20
-206.644
11
121.043
21
-192.674
0
LINE
8
BLACK
6
CONTINUOUS
10
107.073
20
-206.644
11
121.043
21
-206.644
0
LINE
8
BLACK
6
CONTINUOUS
10
107.073
20
-192.674
11
107.073
21
-206.644
0
LINE
8
BLACK
6
CONTINUOUS
10
130.568
20
-154.574
11
116.598
21
-154.574
0
LINE
8
BLACK
6
CONTINUOUS
10
130.568
20
-168.544
11
130.568
21
-154.574
0
LINE
8
BLACK
6
CONTINUOUS
10
116.598
20
-168.544
11
130.568
21
-168.544
0
LINE
8
BLACK
6
CONTINUOUS
10
116.598
20
-154.574
11
116.598
21
-168.544
0
LINE
8
BLACK
6
CONTINUOUS
10
366.363
20
-203.712
11
369.268
21
-190.047
0
LINE
8
BLACK
6
CONTINUOUS
10
369.268
20
-190.047
11
355.603
21
-187.142
0
LINE
8
BLACK
6
CONTINUOUS
10
352.698
20
-200.807
11
366.363
21
-203.712
0
LINE
8
BLACK
6
CONTINUOUS
10
355.603
20
-187.142
11
352.698
21
-200.807
0
LINE
8
BLACK
6
CONTINUOUS
10
273.754
20
-173.524
11
273.754
21
-187.494
0
LINE
8
BLACK
6
CONTINUOUS
10
287.724
20
-173.524
11
273.754
21
-173.524
0
LINE
8
BLACK
6
CONTINUOUS
10
287.724
20
-187.494
11
287.724
21
-173.524
0
LINE
8
BLACK
6
CONTINUOUS
10
273.754
20
-187.494
11
287.724
21
-187.494
0
LINE
8
BLACK
6
CONTINUOUS
10
470.568
20
-94.6041
11
456.903
21
-97.5086
0
LINE
8
BLACK
6
CONTINUOUS
10
456.903
20
-97.5086
11
459.807
21
-111.173
0
LINE
8
BLACK
6
CONTINUOUS
10
459.807
20
-111.173
11
473.472
21
-108.269
0
LINE
8
BLACK
6
CONTINUOUS
10
473.472
20
-108.269
11
470.568
21
-94.6041
0
LINE
8
BLACK
6
CONTINUOUS
10
358.866
20
-148.885
11
355.961
21
-162.549
0
LINE
8
BLACK
6
CONTINUOUS
10
355.961
20
-162.549
11
369.626
21
-165.454
0
LINE
8
BLACK
6
CONTINUOUS
10
369.626
20
-165.454
11
372.531
21
-151.789
0
LINE
8
BLACK
6
CONTINUOUS
10
372.531
20
-151.789
11
358.866
21
-148.885
0
LINE
8
BLACK
6
CONTINUOUS
10
78.4976
20
-187.594
11
92.4676
21
-187.594
0
LINE
8
BLACK
6
CONTINUOUS
10
92.4676
20
-187.594
11
92.4676
21
-173.624
0
LINE
8
BLACK
6
CONTINUOUS
10
78.4976
20
-173.624
11
78.4976
21
-187.594
0
LINE
8
BLACK
6
CONTINUOUS
10
92.4676
20
-173.624
11
78.4976
21
-173.624
0
LINE
8
BLACK
6
CONTINUOUS
10
504.065
20
-133.992
11
518.035
21
-133.992
0
LINE
8
BLACK
6
CONTINUOUS
10
518.035
20
-120.022
11
504.065
21
-120.022
0
LINE
8
BLACK
6
CONTINUOUS
10
518.035
20
-133.992
11
518.035
21
-120.022
0
LINE
8
BLACK
6
CONTINUOUS
10
504.065
20
-120.022
11
504.065
21
-133.992
0
LINE
8
BLACK
6
CONTINUOUS
10
401.825
20
-133.059
11
388.16
21
-135.964
0
LINE
8
BLACK
6
CONTINUOUS
10
388.16
20
-135.964
11
391.065
21
-149.629
0
LINE
8
BLACK
6
CONTINUOUS
10
404.73
20
-146.724
11
401.825
21
-133.059
0
LINE
8
BLACK
6
CONTINUOUS
10
391.065
20
-149.629
11
404.73
21
-146.724
0
LINE
8
BLACK
6
CONTINUOUS
10
329.096
20
-195.79
11
332
21
-182.125
0
LINE
8
BLACK
6
CONTINUOUS
10
332
20
-182.125
11
318.336
21
-179.221
0
LINE
8
BLACK
6
CONTINUOUS
10
318.336
20
-179.221
11
315.431
21
-192.886
0
LINE
8
BLACK
6
CONTINUOUS
10
315.431
20
-192.886
11
329.096
21
-195.79
0
LINE
8
BLACK
6
CONTINUOUS
10
159.454
20
-107.939
11
173.424
21
-107.939
0
LINE
8
BLACK
6
CONTINUOUS
10
173.424
20
-107.939
11
173.424
21
-93.9687
0
LINE
8
BLACK
6
CONTINUOUS
10
173.424
20
-93.9687
11
159.454
21
-93.9687
0
LINE
8
BLACK
6
CONTINUOUS
10
159.454
20
-93.9687
11
159.454
21
-107.939
0
LINE
8
BLACK
6
CONTINUOUS
10
485.015
20
-120.022
11
485.015
21
-133.992
0
LINE
8
BLACK
6
CONTINUOUS
10
498.985
20
-120.022
11
485.015
21
-120.022
0
LINE
8
BLACK
6
CONTINUOUS
10
498.985
20
-133.992
11
498.985
21
-120.022
0
LINE
8
BLACK
6
CONTINUOUS
10
485.015
20
-133.992
11
498.985
21
-133.992
0
LINE
8
BLACK
6
CONTINUOUS
10
78.4976
20
-135.524
11
78.4976
21
-149.494
0
LINE
8
BLACK
6
CONTINUOUS
10
92.4676
20
-135.524
11
78.4976
21
-135.524
0
LINE
8
BLACK
6
CONTINUOUS
10
92.4676
20
-149.494
11
92.4676
21
-135.524
0
LINE
8
BLACK
6
CONTINUOUS
10
78.4976
20
-149.494
11
92.4676
21
-149.494
0
LINE
8
BLACK
6
CONTINUOUS
10
404.844
20
-166.271
11
418.509
21
-163.366
0
LINE
8
BLACK
6
CONTINUOUS
10
418.509
20
-163.366
11
415.604
21
-149.702
0
LINE
8
BLACK
6
CONTINUOUS
10
415.604
20
-149.702
11
401.94
21
-152.606
0
LINE
8
BLACK
6
CONTINUOUS
10
401.94
20
-152.606
11
404.844
21
-166.271
0
LINE
8
BLACK
6
CONTINUOUS
10
130.568
20
-130.444
11
130.568
21
-116.474
0
LINE
8
BLACK
6
CONTINUOUS
10
130.568
20
-116.474
11
116.598
21
-116.474
0
LINE
8
BLACK
6
CONTINUOUS
10
116.598
20
-130.444
11
130.568
21
-130.444
0
LINE
8
BLACK
6
CONTINUOUS
10
116.598
20
-116.474
11
116.598
21
-130.444
0
LINE
8
BLACK
6
CONTINUOUS
10
490.571
20
-210.192
11
504.541
21
-210.192
0
LINE
8
BLACK
6
CONTINUOUS
10
490.571
20
-196.222
11
490.571
21
-210.192
0
LINE
8
BLACK
6
CONTINUOUS
10
504.541
20
-210.192
11
504.541
21
-196.222
0
LINE
8
BLACK
6
CONTINUOUS
10
504.541
20
-196.222
11
490.571
21
-196.222
0
LINE
8
BLACK
6
CONTINUOUS
10
430.473
20
-199.84
11
427.569
21
-186.176
0
LINE
8
BLACK
6
CONTINUOUS
10
427.569
20
-186.176
11
413.904
21
-189.08
0
LINE
8
BLACK
6
CONTINUOUS
10
416.809
20
-202.745
11
430.473
21
-199.84
0
LINE
8
BLACK
6
CONTINUOUS
10
413.904
20
-189.08
11
416.809
21
-202.745
0
LINE
8
BLACK
6
CONTINUOUS
10
116.598
20
-187.594
11
130.568
21
-187.594
0
LINE
8
BLACK
6
CONTINUOUS
10
116.598
20
-173.624
11
116.598
21
-187.594
0
LINE
8
BLACK
6
CONTINUOUS
10
130.568
20
-187.594
11
130.568
21
-173.624
0
LINE
8
BLACK
6
CONTINUOUS
10
130.568
20
-173.624
11
116.598
21
-173.624
0
LINE
8
BLACK
6
CONTINUOUS
10
473.903
20
-177.172
11
473.903
21
-191.142
0
LINE
8
BLACK
6
CONTINUOUS
10
487.873
20
-191.142
11
487.873
21
-177.172
0
LINE
8
BLACK
6
CONTINUOUS
10
487.873
20
-177.172
11
473.903
21
-177.172
0
LINE
8
BLACK
6
CONTINUOUS
10
473.903
20
-191.142
11
487.873
21
-191.142
0
LINE
8
BLACK
6
CONTINUOUS
10
97.5476
20
-173.624
11
97.5476
21
-187.594
0
LINE
8
BLACK
6
CONTINUOUS
10
111.518
20
-173.624
11
97.5476
21
-173.624
0
LINE
8
BLACK
6
CONTINUOUS
10
111.518
20
-187.594
11
111.518
21
-173.624
0
LINE
8
BLACK
6
CONTINUOUS
10
97.5476
20
-187.594
11
111.518
21
-187.594
0
LINE
8
BLACK
6
CONTINUOUS
10
481.046
20
-153.042
11
495.016
21
-153.042
0
LINE
8
BLACK
6
CONTINUOUS
10
495.016
20
-139.072
11
481.046
21
-139.072
0
LINE
8
BLACK
6
CONTINUOUS
10
495.016
20
-153.042
11
495.016
21
-139.072
0
LINE
8
BLACK
6
CONTINUOUS
10
481.046
20
-139.072
11
481.046
21
-153.042
0
LINE
8
BLACK
6
CONTINUOUS
10
178.504
20
-130.344
11
192.474
21
-130.344
0
LINE
8
BLACK
6
CONTINUOUS
10
192.474
20
-116.374
11
178.504
21
-116.374
0
LINE
8
BLACK
6
CONTINUOUS
10
178.504
20
-116.374
11
178.504
21
-130.344
0
LINE
8
BLACK
6
CONTINUOUS
10
192.474
20
-130.344
11
192.474
21
-116.374
0
LINE
8
BLACK
6
CONTINUOUS
10
92.4676
20
-168.544
11
92.4676
21
-154.574
0
LINE
8
BLACK
6
CONTINUOUS
10
78.4976
20
-168.544
11
92.4676
21
-168.544
0
LINE
8
BLACK
6
CONTINUOUS
10
92.4676
20
-154.574
11
78.4976
21
-154.574
0
LINE
8
BLACK
6
CONTINUOUS
10
78.4976
20
-154.574
11
78.4976
21
-168.544
0
LINE
8
BLACK
6
CONTINUOUS
10
464.836
20
-178.254
11
451.172
21
-181.159
0
LINE
8
BLACK
6
CONTINUOUS
10
467.741
20
-191.919
11
464.836
21
-178.254
0
LINE
8
BLACK
6
CONTINUOUS
10
454.076
20
-194.823
11
467.741
21
-191.919
0
LINE
8
BLACK
6
CONTINUOUS
10
451.172
20
-181.159
11
454.076
21
-194.823
0
LINE
8
BLACK
6
CONTINUOUS
10
216.604
20
-135.424
11
216.604
21
-149.394
0
LINE
8
BLACK
6
CONTINUOUS
10
230.574
20
-149.394
11
230.574
21
-135.424
0
LINE
8
BLACK
6
CONTINUOUS
10
230.574
20
-135.424
11
216.604
21
-135.424
0
LINE
8
BLACK
6
CONTINUOUS
10
216.604
20
-149.394
11
230.574
21
-149.394
0
LINE
8
BLACK
6
CONTINUOUS
10
173.424
20
-116.374
11
159.454
21
-116.374
0
LINE
8
BLACK
6
CONTINUOUS
10
159.454
20
-130.344
11
173.424
21
-130.344
0
LINE
8
BLACK
6
CONTINUOUS
10
173.424
20
-130.344
11
173.424
21
-116.374
0
LINE
8
BLACK
6
CONTINUOUS
10
159.454
20
-116.374
11
159.454
21
-130.344
0
LINE
8
BLACK
6
CONTINUOUS
10
154.374
20
-192.674
11
140.404
21
-192.674
0
LINE
8
BLACK
6
CONTINUOUS
10
154.374
20
-206.644
11
154.374
21
-192.674
0
LINE
8
BLACK
6
CONTINUOUS
10
140.404
20
-192.674
11
140.404
21
-206.644
0
LINE
8
BLACK
6
CONTINUOUS
10
140.404
20
-206.644
11
154.374
21
-206.644
0
LINE
8
BLACK
6
CONTINUOUS
10
409.699
20
-145.668
11
423.363
21
-142.763
0
LINE
8
BLACK
6
CONTINUOUS
10
406.794
20
-132.003
11
409.699
21
-145.668
0
LINE
8
BLACK
6
CONTINUOUS
10
423.363
20
-142.763
11
420.459
21
-129.099
0
LINE
8
BLACK
6
CONTINUOUS
10
420.459
20
-129.099
11
406.794
21
-132.003
0
LINE
8
BLACK
6
CONTINUOUS
10
221.049
20
-107.939
11
221.049
21
-93.9687
0
LINE
8
BLACK
6
CONTINUOUS
10
207.079
20
-93.9687
11
207.079
21
-107.939
0
LINE
8
BLACK
6
CONTINUOUS
10
221.049
20
-93.9687
11
207.079
21
-93.9687
0
LINE
8
BLACK
6
CONTINUOUS
10
207.079
20
-107.939
11
221.049
21
-107.939
0
LINE
8
BLACK
6
CONTINUOUS
10
389.914
20
-213.655
11
392.819
21
-227.32
0
LINE
8
BLACK
6
CONTINUOUS
10
406.484
20
-224.415
11
403.579
21
-210.75
0
LINE
8
BLACK
6
CONTINUOUS
10
403.579
20
-210.75
11
389.914
21
-213.655
0
LINE
8
BLACK
6
CONTINUOUS
10
392.819
20
-227.32
11
406.484
21
-224.415
0
LINE
8
BLACK
6
CONTINUOUS
10
331.613
20
-162.568
11
328.709
21
-176.232
0
LINE
8
BLACK
6
CONTINUOUS
10
342.373
20
-179.137
11
345.278
21
-165.472
0
LINE
8
BLACK
6
CONTINUOUS
10
345.278
20
-165.472
11
331.613
21
-162.568
0
LINE
8
BLACK
6
CONTINUOUS
10
328.709
20
-176.232
11
342.373
21
-179.137
0
LINE
8
BLACK
6
CONTINUOUS
10
294.346
20
-154.646
11
291.441
21
-168.311
0
LINE
8
BLACK
6
CONTINUOUS
10
291.441
20
-168.311
11
305.106
21
-171.215
0
LINE
8
BLACK
6
CONTINUOUS
10
305.106
20
-171.215
11
308.01
21
-157.551
0
LINE
8
BLACK
6
CONTINUOUS
10
308.01
20
-157.551
11
294.346
21
-154.646
0
LINE
8
BLACK
6
CONTINUOUS
10
347.342
20
-180.193
11
361.007
21
-183.097
0
LINE
8
BLACK
6
CONTINUOUS
10
361.007
20
-183.097
11
363.912
21
-169.433
0
LINE
8
BLACK
6
CONTINUOUS
10
363.912
20
-169.433
11
350.247
21
-166.528
0
LINE
8
BLACK
6
CONTINUOUS
10
350.247
20
-166.528
11
347.342
21
-180.193
0
LINE
8
BLACK
6
CONTINUOUS
10
504.859
20
-139.076
11
504.859
21
-153.046
0
LINE
8
BLACK
6
CONTINUOUS
10
518.829
20
-139.076
11
504.859
21
-139.076
0
LINE
8
BLACK
6
CONTINUOUS
10
504.859
20
-153.046
11
518.829
21
-153.046
0
LINE
8
BLACK
6
CONTINUOUS
10
518.829
20
-153.046
11
518.829
21
-139.076
0
LINE
8
BLACK
6
CONTINUOUS
10
242.48
20
-192.574
11
228.51
21
-192.574
0
LINE
8
BLACK
6
CONTINUOUS
10
228.51
20
-192.574
11
228.51
21
-206.544
0
LINE
8
BLACK
6
CONTINUOUS
10
228.51
20
-206.544
11
242.48
21
-206.544
0
LINE
8
BLACK
6
CONTINUOUS
10
242.48
20
-206.544
11
242.48
21
-192.574
0
LINE
8
BLACK
6
CONTINUOUS
10
97.5476
20
-130.444
11
111.518
21
-130.444
0
LINE
8
BLACK
6
CONTINUOUS
10
111.518
20
-116.474
11
97.5476
21
-116.474
0
LINE
8
BLACK
6
CONTINUOUS
10
111.518
20
-130.444
11
111.518
21
-116.474
0
LINE
8
BLACK
6
CONTINUOUS
10
97.5476
20
-116.474
11
97.5476
21
-130.444
0
LINE
8
BLACK
6
CONTINUOUS
10
334.565
20
-101.338
11
320.901
21
-98.4337
0
LINE
8
BLACK
6
CONTINUOUS
10
331.661
20
-115.003
11
334.565
21
-101.338
0
LINE
8
BLACK
6
CONTINUOUS
10
317.996
20
-112.098
11
331.661
21
-115.003
0
LINE
8
BLACK
6
CONTINUOUS
10
320.901
20
-98.4337
11
317.996
21
-112.098
0
LINE
8
BLACK
6
CONTINUOUS
10
350.634
20
-186.086
11
336.969
21
-183.182
0
LINE
8
BLACK
6
CONTINUOUS
10
347.729
20
-199.751
11
350.634
21
-186.086
0
LINE
8
BLACK
6
CONTINUOUS
10
334.065
20
-196.846
11
347.729
21
-199.751
0
LINE
8
BLACK
6
CONTINUOUS
10
336.969
20
-183.182
11
334.065
21
-196.846
0
LINE
8
BLACK
6
CONTINUOUS
10
287.724
20
-130.344
11
287.724
21
-116.374
0
LINE
8
BLACK
6
CONTINUOUS
10
273.754
20
-130.344
11
287.724
21
-130.344
0
LINE
8
BLACK
6
CONTINUOUS
10
287.724
20
-116.374
11
273.754
21
-116.374
0
LINE
8
BLACK
6
CONTINUOUS
10
273.754
20
-116.374
11
273.754
21
-130.344
0
LINE
8
BLACK
6
CONTINUOUS
10
59.4476
20
-145.049
11
59.4476
21
-159.019
0
LINE
8
BLACK
6
CONTINUOUS
10
73.4176
20
-145.049
11
59.4476
21
-145.049
0
LINE
8
BLACK
6
CONTINUOUS
10
73.4176
20
-159.019
11
73.4176
21
-145.049
0
LINE
8
BLACK
6
CONTINUOUS
10
59.4476
20
-159.019
11
73.4176
21
-159.019
0
LINE
8
BLACK
6
CONTINUOUS
10
173.424
20
-149.394
11
173.424
21
-135.424
0
LINE
8
BLACK
6
CONTINUOUS
10
173.424
20
-135.424
11
159.454
21
-135.424
0
LINE
8
BLACK
6
CONTINUOUS
10
159.454
20
-135.424
11
159.454
21
-149.394
0
LINE
8
BLACK
6
CONTINUOUS
10
159.454
20
-149.394
11
173.424
21
-149.394
0
LINE
8
BLACK
6
CONTINUOUS
10
432.538
20
-185.119
11
435.442
21
-198.784
0
LINE
8
BLACK
6
CONTINUOUS
10
435.442
20
-198.784
11
449.107
21
-195.88
0
LINE
8
BLACK
6
CONTINUOUS
10
449.107
20
-195.88
11
446.203
21
-182.215
0
LINE
8
BLACK
6
CONTINUOUS
10
446.203
20
-182.215
11
432.538
21
-185.119
0
LINE
8
BLACK
6
CONTINUOUS
10
435.801
20
-179.132
11
432.896
21
-165.467
0
LINE
8
BLACK
6
CONTINUOUS
10
422.136
20
-182.037
11
435.801
21
-179.132
0
LINE
8
BLACK
6
CONTINUOUS
10
419.232
20
-168.372
11
422.136
21
-182.037
0
LINE
8
BLACK
6
CONTINUOUS
10
432.896
20
-165.467
11
419.232
21
-168.372
0
LINE
8
BLACK
6
CONTINUOUS
10
433.326
20
-102.547
11
419.662
21
-105.452
0
LINE
8
BLACK
6
CONTINUOUS
10
422.566
20
-119.116
11
436.231
21
-116.212
0
LINE
8
BLACK
6
CONTINUOUS
10
436.231
20
-116.212
11
433.326
21
-102.547
0
LINE
8
BLACK
6
CONTINUOUS
10
419.662
20
-105.452
11
422.566
21
-119.116
0
LINE
8
BLACK
6
CONTINUOUS
10
311.727
20
-197.27
11
298.062
21
-194.365
0
LINE
8
BLACK
6
CONTINUOUS
10
308.823
20
-210.935
11
311.727
21
-197.27
0
LINE
8
BLACK
6
CONTINUOUS
10
295.158
20
-208.03
11
308.823
21
-210.935
0
LINE
8
BLACK
6
CONTINUOUS
10
298.062
20
-194.365
11
295.158
21
-208.03
0
LINE
8
BLACK
6
CONTINUOUS
10
371.719
20
-224.326
11
374.624
21
-210.661
0
LINE
8
BLACK
6
CONTINUOUS
10
360.959
20
-207.756
11
358.055
21
-221.421
0
LINE
8
BLACK
6
CONTINUOUS
10
374.624
20
-210.661
11
360.959
21
-207.756
0
LINE
8
BLACK
6
CONTINUOUS
10
358.055
20
-221.421
11
371.719
21
-224.326
0
LINE
8
BLACK
6
CONTINUOUS
10
514.384
20
-210.192
11
528.354
21
-210.192
0
LINE
8
BLACK
6
CONTINUOUS
10
528.354
20
-210.192
11
528.354
21
-196.222
0
LINE
8
BLACK
6
CONTINUOUS
10
514.384
20
-196.222
11
514.384
21
-210.192
0
LINE
8
BLACK
6
CONTINUOUS
10
528.354
20
-196.222
11
514.384
21
-196.222
0
LINE
8
BLACK
6
CONTINUOUS
10
278.516
20
-149.394
11
292.486
21
-149.394
0
LINE
8
BLACK
6
CONTINUOUS
10
292.486
20
-149.394
11
292.486
21
-135.424
0
LINE
8
BLACK
6
CONTINUOUS
10
292.486
20
-135.424
11
278.516
21
-135.424
0
LINE
8
BLACK
6
CONTINUOUS
10
278.516
20
-135.424
11
278.516
21
-149.394
0
LINE
8
BLACK
6
CONTINUOUS
10
302.267
20
-94.473
11
299.362
21
-108.138
0
LINE
8
BLACK
6
CONTINUOUS
10
299.362
20
-108.138
11
313.027
21
-111.042
0
LINE
8
BLACK
6
CONTINUOUS
10
315.932
20
-97.3775
11
302.267
21
-94.473
0
LINE
8
BLACK
6
CONTINUOUS
10
313.027
20
-111.042
11
315.932
21
-97.3775
0
LINE
8
BLACK
6
CONTINUOUS
10
278.199
20
-93.9687
11
264.229
21
-93.9687
0
LINE
8
BLACK
6
CONTINUOUS
10
264.229
20
-93.9687
11
264.229
21
-107.939
0
LINE
8
BLACK
6
CONTINUOUS
10
278.199
20
-107.939
11
278.199
21
-93.9687
0
LINE
8
BLACK
6
CONTINUOUS
10
264.229
20
-107.939
11
278.199
21
-107.939
0
LINE
8
BLACK
6
CONTINUOUS
10
455.776
20
-155.445
11
452.872
21
-141.78
0
LINE
8
BLACK
6
CONTINUOUS
10
452.872
20
-141.78
11
439.207
21
-144.685
0
LINE
8
BLACK
6
CONTINUOUS
10
442.112
20
-158.349
11
455.776
21
-155.445
0
LINE
8
BLACK
6
CONTINUOUS
10
439.207
20
-144.685
11
442.112
21
-158.349
0
LINE
8
BLACK
6
CONTINUOUS
10
507.24
20
-158.122
11
507.24
21
-172.092
0
LINE
8
BLACK
6
CONTINUOUS
10
521.21
20
-172.092
11
521.21
21
-158.122
0
LINE
8
BLACK
6
CONTINUOUS
10
507.24
20
-172.092
11
521.21
21
-172.092
0
LINE
8
BLACK
6
CONTINUOUS
10
521.21
20
-158.122
11
507.24
21
-158.122
0
LINE
8
BLACK
6
CONTINUOUS
10
266.293
20
-192.574
11
252.323
21
-192.574
0
LINE
8
BLACK
6
CONTINUOUS
10
252.323
20
-192.574
11
252.323
21
-206.544
0
LINE
8
BLACK
6
CONTINUOUS
10
252.323
20
-206.544
11
266.293
21
-206.544
0
LINE
8
BLACK
6
CONTINUOUS
10
266.293
20
-206.544
11
266.293
21
-192.574
0
LINE
8
BLACK
6
CONTINUOUS
10
116.598
20
-135.524
11
116.598
21
-149.494
0
LINE
8
BLACK
6
CONTINUOUS
10
116.598
20
-149.494
11
130.568
21
-149.494
0
LINE
8
BLACK
6
CONTINUOUS
10
130.568
20
-149.494
11
130.568
21
-135.524
0
LINE
8
BLACK
6
CONTINUOUS
10
130.568
20
-135.524
11
116.598
21
-135.524
0
LINE
8
BLACK
6
CONTINUOUS
10
398.175
20
-206.706
11
411.84
21
-203.801
0
LINE
8
BLACK
6
CONTINUOUS
10
411.84
20
-203.801
11
408.935
21
-190.136
0
LINE
8
BLACK
6
CONTINUOUS
10
408.935
20
-190.136
11
395.271
21
-193.041
0
LINE
8
BLACK
6
CONTINUOUS
10
395.271
20
-193.041
11
398.175
21
-206.706
0
LINE
8
BLACK
6
CONTINUOUS
10
327.003
20
-136.918
11
329.907
21
-123.254
0
LINE
8
BLACK
6
CONTINUOUS
10
329.907
20
-123.254
11
316.242
21
-120.349
0
LINE
8
BLACK
6
CONTINUOUS
10
316.242
20
-120.349
11
313.338
21
-134.014
0
LINE
8
BLACK
6
CONTINUOUS
10
313.338
20
-134.014
11
327.003
21
-136.918
0
LINE
8
BLACK
6
CONTINUOUS
10
192.474
20
-107.939
11
192.474
21
-93.9687
0
LINE
8
BLACK
6
CONTINUOUS
10
178.504
20
-93.9687
11
178.504
21
-107.939
0
LINE
8
BLACK
6
CONTINUOUS
10
178.504
20
-107.939
11
192.474
21
-107.939
0
LINE
8
BLACK
6
CONTINUOUS
10
192.474
20
-93.9687
11
178.504
21
-93.9687
0
LINE
8
BLACK
6
CONTINUOUS
10
59.4476
20
-183.149
11
59.4476
21
-197.119
0
LINE
8
BLACK
6
CONTINUOUS
10
59.4476
20
-197.119
11
73.4176
21
-197.119
0
LINE
8
BLACK
6
CONTINUOUS
10
73.4176
20
-197.119
11
73.4176
21
-183.149
0
LINE
8
BLACK
6
CONTINUOUS
10
73.4176
20
-183.149
11
59.4476
21
-183.149
0
LINE
8
BLACK
6
CONTINUOUS
10
423.478
20
-162.31
11
437.143
21
-159.406
0
LINE
8
BLACK
6
CONTINUOUS
10
420.573
20
-148.645
11
423.478
21
-162.31
0
LINE
8
BLACK
6
CONTINUOUS
10
434.238
20
-145.741
11
420.573
21
-148.645
0
LINE
8
BLACK
6
CONTINUOUS
10
437.143
20
-159.406
11
434.238
21
-145.741
0
LINE
8
BLACK
6
CONTINUOUS
10
173.424
20
-192.674
11
159.454
21
-192.674
0
LINE
8
BLACK
6
CONTINUOUS
10
173.424
20
-206.644
11
173.424
21
-192.674
0
LINE
8
BLACK
6
CONTINUOUS
10
159.454
20
-206.644
11
173.424
21
-206.644
0
LINE
8
BLACK
6
CONTINUOUS
10
159.454
20
-192.674
11
159.454
21
-206.644
0
LINE
8
BLACK
6
CONTINUOUS
10
348.541
20
-127.214
11
334.876
21
-124.31
0
LINE
8
BLACK
6
CONTINUOUS
10
345.636
20
-140.879
11
348.541
21
-127.214
0
LINE
8
BLACK
6
CONTINUOUS
10
331.972
20
-137.975
11
345.636
21
-140.879
0
LINE
8
BLACK
6
CONTINUOUS
10
334.876
20
-124.31
11
331.972
21
-137.975
0
LINE
8
BLACK
6
CONTINUOUS
10
178.504
20
-149.394
11
192.474
21
-149.394
0
LINE
8
BLACK
6
CONTINUOUS
10
192.474
20
-149.394
11
192.474
21
-135.424
0
LINE
8
BLACK
6
CONTINUOUS
10
192.474
20
-135.424
11
178.504
21
-135.424
0
LINE
8
BLACK
6
CONTINUOUS
10
178.504
20
-135.424
11
178.504
21
-149.394
0
LINE
8
BLACK
6
CONTINUOUS
10
254.386
20
-135.424
11
240.416
21
-135.424
0
LINE
8
BLACK
6
CONTINUOUS
10
240.416
20
-135.424
11
240.416
21
-149.394
0
LINE
8
BLACK
6
CONTINUOUS
10
240.416
20
-149.394
11
254.386
21
-149.394
0
LINE
8
BLACK
6
CONTINUOUS
10
254.386
20
-149.394
11
254.386
21
-135.424
0
LINE
8
BLACK
6
CONTINUOUS
10
433.859
20
-204.314
11
420.194
21
-207.219
0
LINE
8
BLACK
6
CONTINUOUS
10
436.763
20
-217.979
11
433.859
21
-204.314
0
LINE
8
BLACK
6
CONTINUOUS
10
420.194
20
-207.219
11
423.099
21
-220.883
0
LINE
8
BLACK
6
CONTINUOUS
10
423.099
20
-220.883
11
436.763
21
-217.979
0
LINE
8
BLACK
6
CONTINUOUS
10
140.404
20
-149.394
11
154.374
21
-149.394
0
LINE
8
BLACK
6
CONTINUOUS
10
140.404
20
-135.424
11
140.404
21
-149.394
0
LINE
8
BLACK
6
CONTINUOUS
10
154.374
20
-149.394
11
154.374
21
-135.424
0
LINE
8
BLACK
6
CONTINUOUS
10
154.374
20
-135.424
11
140.404
21
-135.424
0
LINE
8
BLACK
6
CONTINUOUS
10
154.374
20
-107.939
11
154.374
21
-93.9687
0
LINE
8
BLACK
6
CONTINUOUS
10
154.374
20
-93.9687
11
140.404
21
-93.9687
0
LINE
8
BLACK
6
CONTINUOUS
10
140.404
20
-107.939
11
154.374
21
-107.939
0
LINE
8
BLACK
6
CONTINUOUS
10
140.404
20
-93.9687
11
140.404
21
-107.939
0
LINE
8
BLACK
6
CONTINUOUS
10
204.698
20
-206.544
11
218.668
21
-206.544
0
LINE
8
BLACK
6
CONTINUOUS
10
218.668
20
-206.544
11
218.668
21
-192.574
0
LINE
8
BLACK
6
CONTINUOUS
10
218.668
20
-192.574
11
204.698
21
-192.574
0
LINE
8
BLACK
6
CONTINUOUS
10
204.698
20
-192.574
11
204.698
21
-206.544
0
LINE
8
BLACK
6
CONTINUOUS
10
417.597
20
-120.173
11
414.693
21
-106.508
0
LINE
8
BLACK
6
CONTINUOUS
10
403.932
20
-123.077
11
417.597
21
-120.173
0
LINE
8
BLACK
6
CONTINUOUS
10
414.693
20
-106.508
11
401.028
21
-109.412
0
LINE
8
BLACK
6
CONTINUOUS
10
401.028
20
-109.412
11
403.932
21
-123.077
0
LINE
8
BLACK
6
CONTINUOUS
10
254.704
20
-116.374
11
254.704
21
-130.344
0
LINE
8
BLACK
6
CONTINUOUS
10
268.674
20
-130.344
11
268.674
21
-116.374
0
LINE
8
BLACK
6
CONTINUOUS
10
268.674
20
-116.374
11
254.704
21
-116.374
0
LINE
8
BLACK
6
CONTINUOUS
10
254.704
20
-130.344
11
268.674
21
-130.344
0
LINE
8
BLACK
6
CONTINUOUS
10
263.911
20
-154.474
11
249.941
21
-154.474
0
LINE
8
BLACK
6
CONTINUOUS
10
249.941
20
-168.444
11
263.911
21
-168.444
0
LINE
8
BLACK
6
CONTINUOUS
10
263.911
20
-168.444
11
263.911
21
-154.474
0
LINE
8
BLACK
6
CONTINUOUS
10
249.941
20
-154.474
11
249.941
21
-168.444
0
LINE
8
BLACK
6
CONTINUOUS
10
218.985
20
-187.494
11
232.955
21
-187.494
0
LINE
8
BLACK
6
CONTINUOUS
10
218.985
20
-173.524
11
218.985
21
-187.494
0
LINE
8
BLACK
6
CONTINUOUS
10
232.955
20
-173.524
11
218.985
21
-173.524
0
LINE
8
BLACK
6
CONTINUOUS
10
232.955
20
-187.494
11
232.955
21
-173.524
0
LINE
8
BLACK
6
CONTINUOUS
10
316.63
20
-139.907
11
302.965
21
-137.003
0
LINE
8
BLACK
6
CONTINUOUS
10
302.965
20
-137.003
11
300.06
21
-150.667
0
LINE
8
BLACK
6
CONTINUOUS
10
300.06
20
-150.667
11
313.725
21
-153.572
0
LINE
8
BLACK
6
CONTINUOUS
10
313.725
20
-153.572
11
316.63
21
-139.907
0
LINE
8
BLACK
6
CONTINUOUS
10
336.63
20
-116.059
11
350.295
21
-118.964
0
LINE
8
BLACK
6
CONTINUOUS
10
339.534
20
-102.394
11
336.63
21
-116.059
0
LINE
8
BLACK
6
CONTINUOUS
10
350.295
20
-118.964
11
353.199
21
-105.299
0
LINE
8
BLACK
6
CONTINUOUS
10
353.199
20
-105.299
11
339.534
21
-102.394
0
LINE
8
BLACK
6
CONTINUOUS
10
232.955
20
-168.444
11
232.955
21
-154.474
0
LINE
8
BLACK
6
CONTINUOUS
10
218.985
20
-154.474
11
218.985
21
-168.444
0
LINE
8
BLACK
6
CONTINUOUS
10
232.955
20
-154.474
11
218.985
21
-154.474
0
LINE
8
BLACK
6
CONTINUOUS
10
218.985
20
-168.444
11
232.955
21
-168.444
0
LINE
8
BLACK
6
CONTINUOUS
10
327.858
20
-215.04
11
341.523
21
-217.945
0
LINE
8
BLACK
6
CONTINUOUS
10
330.762
20
-201.375
11
327.858
21
-215.04
0
LINE
8
BLACK
6
CONTINUOUS
10
344.427
20
-204.28
11
330.762
21
-201.375
0
LINE
8
BLACK
6
CONTINUOUS
10
341.523
20
-217.945
11
344.427
21
-204.28
0
LINE
8
BLACK
6
CONTINUOUS
10
310.075
20
-172.272
11
323.74
21
-175.176
0
LINE
8
BLACK
6
CONTINUOUS
10
312.979
20
-158.607
11
310.075
21
-172.272
0
LINE
8
BLACK
6
CONTINUOUS
10
326.644
20
-161.511
11
312.979
21
-158.607
0
LINE
8
BLACK
6
CONTINUOUS
10
323.74
20
-175.176
11
326.644
21
-161.511
0
LINE
8
BLACK
6
CONTINUOUS
10
192.474
20
-192.674
11
178.504
21
-192.674
0
LINE
8
BLACK
6
CONTINUOUS
10
192.474
20
-206.644
11
192.474
21
-192.674
0
LINE
8
BLACK
6
CONTINUOUS
10
178.504
20
-206.644
11
192.474
21
-206.644
0
LINE
8
BLACK
6
CONTINUOUS
10
178.504
20
-192.674
11
178.504
21
-206.644
0
LINE
8
BLACK
6
CONTINUOUS
10
259.466
20
-135.424
11
259.466
21
-149.394
0
LINE
8
BLACK
6
CONTINUOUS
10
259.466
20
-149.394
11
273.436
21
-149.394
0
LINE
8
BLACK
6
CONTINUOUS
10
273.436
20
-149.394
11
273.436
21
-135.424
0
LINE
8
BLACK
6
CONTINUOUS
10
273.436
20
-135.424
11
259.466
21
-135.424
0
LINE
8
BLACK
6
CONTINUOUS
10
414.263
20
-169.428
11
400.598
21
-172.333
0
LINE
8
BLACK
6
CONTINUOUS
10
417.167
20
-183.093
11
414.263
21
-169.428
0
LINE
8
BLACK
6
CONTINUOUS
10
403.502
20
-185.997
11
417.167
21
-183.093
0
LINE
8
BLACK
6
CONTINUOUS
10
400.598
20
-172.333
11
403.502
21
-185.997
0
LINE
8
BLACK
6
CONTINUOUS
10
297.609
20
-116.388
11
294.704
21
-130.053
0
LINE
8
BLACK
6
CONTINUOUS
10
294.704
20
-130.053
11
308.369
21
-132.958
0
LINE
8
BLACK
6
CONTINUOUS
10
311.273
20
-119.293
11
297.609
21
-116.388
0
LINE
8
BLACK
6
CONTINUOUS
10
308.369
20
-132.958
11
311.273
21
-119.293
0
LINE
8
BLACK
6
CONTINUOUS
10
364.27
20
-144.84
11
367.175
21
-131.175
0
LINE
8
BLACK
6
CONTINUOUS
10
353.51
20
-128.271
11
350.605
21
-141.935
0
LINE
8
BLACK
6
CONTINUOUS
10
367.175
20
-131.175
11
353.51
21
-128.271
0
LINE
8
BLACK
6
CONTINUOUS
10
350.605
20
-141.935
11
364.27
21
-144.84
0
LINE
8
BLACK
6
CONTINUOUS
10
92.4676
20
-192.674
11
78.4976
21
-192.674
0
LINE
8
BLACK
6
CONTINUOUS
10
78.4976
20
-206.644
11
92.4676
21
-206.644
0
LINE
8
BLACK
6
CONTINUOUS
10
78.4976
20
-192.674
11
78.4976
21
-206.644
0
LINE
8
BLACK
6
CONTINUOUS
10
92.4676
20
-206.644
11
92.4676
21
-192.674
0
LINE
8
BLACK
6
CONTINUOUS
10
455.708
20
-213.952
11
469.372
21
-211.048
0
LINE
8
BLACK
6
CONTINUOUS
10
452.803
20
-200.287
11
455.708
21
-213.952
0
LINE
8
BLACK
6
CONTINUOUS
10
466.468
20
-197.383
11
452.803
21
-200.287
0
LINE
8
BLACK
6
CONTINUOUS
10
469.372
20
-211.048
11
466.468
21
-197.383
0
LINE
8
BLACK
6
CONTINUOUS
10
440.77
20
-178.076
11
454.435
21
-175.171
0
LINE
8
BLACK
6
CONTINUOUS
10
451.53
20
-161.507
11
437.865
21
-164.411
0
LINE
8
BLACK
6
CONTINUOUS
10
454.435
20
-175.171
11
451.53
21
-161.507
0
LINE
8
BLACK
6
CONTINUOUS
10
437.865
20
-164.411
11
440.77
21
-178.076
0
LINE
8
BLACK
6
CONTINUOUS
10
259.149
20
-93.9687
11
245.179
21
-93.9687
0
LINE
8
BLACK
6
CONTINUOUS
10
259.149
20
-107.939
11
259.149
21
-93.9687
0
LINE
8
BLACK
6
CONTINUOUS
10
245.179
20
-107.939
11
259.149
21
-107.939
0
LINE
8
BLACK
6
CONTINUOUS
10
245.179
20
-93.9687
11
245.179
21
-107.939
0
LINE
8
BLACK
6
CONTINUOUS
10
428.332
20
-141.707
11
441.997
21
-138.803
0
LINE
8
BLACK
6
CONTINUOUS
10
439.093
20
-125.138
11
425.428
21
-128.042
0
LINE
8
BLACK
6
CONTINUOUS
10
441.997
20
-138.803
11
439.093
21
-125.138
0
LINE
8
BLACK
6
CONTINUOUS
10
425.428
20
-128.042
11
428.332
21
-141.707
0
LINE
8
BLACK
6
CONTINUOUS
10
474.41
20
-151.484
11
471.506
21
-137.819
0
LINE
8
BLACK
6
CONTINUOUS
10
457.841
20
-140.724
11
460.745
21
-154.389
0
LINE
8
BLACK
6
CONTINUOUS
10
460.745
20
-154.389
11
474.41
21
-151.484
0
LINE
8
BLACK
6
CONTINUOUS
10
471.506
20
-137.819
11
457.841
21
-140.724
0
LINE
8
BLACK
6
CONTINUOUS
10
226.129
20
-116.374
11
226.129
21
-130.344
0
LINE
8
BLACK
6
CONTINUOUS
10
240.099
20
-130.344
11
240.099
21
-116.374
0
LINE
8
BLACK
6
CONTINUOUS
10
226.129
20
-130.344
11
240.099
21
-130.344
0
LINE
8
BLACK
6
CONTINUOUS
10
240.099
20
-116.374
11
226.129
21
-116.374
0
LINE
8
BLACK
6
CONTINUOUS
10
358.168
20
-106.355
11
355.264
21
-120.02
0
LINE
8
BLACK
6
CONTINUOUS
10
371.833
20
-109.26
11
358.168
21
-106.355
0
LINE
8
BLACK
6
CONTINUOUS
10
355.264
20
-120.02
11
368.928
21
-122.924
0
LINE
8
BLACK
6
CONTINUOUS
10
368.928
20
-122.924
11
371.833
21
-109.26
0
LINE
8
BLACK
6
CONTINUOUS
10
59.4476
20
-130.444
11
73.4176
21
-130.444
0
LINE
8
BLACK
6
CONTINUOUS
10
59.4476
20
-116.474
11
59.4476
21
-130.444
0
LINE
8
BLACK
6
CONTINUOUS
10
73.4176
20
-116.474
11
59.4476
21
-116.474
0
LINE
8
BLACK
6
CONTINUOUS
10
73.4176
20
-130.444
11
73.4176
21
-116.474
0
LINE
8
BLACK
6
CONTINUOUS
10
154.374
20
-130.344
11
154.374
21
-116.374
0
LINE
8
BLACK
6
CONTINUOUS
10
140.404
20
-116.374
11
140.404
21
-130.344
0
LINE
8
BLACK
6
CONTINUOUS
10
154.374
20
-116.374
11
140.404
21
-116.374
0
LINE
8
BLACK
6
CONTINUOUS
10
140.404
20
-130.344
11
154.374
21
-130.344
0
LINE
8
BLACK
6
CONTINUOUS
10
340.232
20
-144.924
11
337.328
21
-158.589
0
LINE
8
BLACK
6
CONTINUOUS
10
353.897
20
-147.829
11
340.232
21
-144.924
0
LINE
8
BLACK
6
CONTINUOUS
10
350.992
20
-161.493
11
353.897
21
-147.829
0
LINE
8
BLACK
6
CONTINUOUS
10
337.328
20
-158.589
11
350.992
21
-161.493
0
LINE
8
BLACK
6
CONTINUOUS
10
459.404
20
-174.115
11
473.068
21
-171.211
0
LINE
8
BLACK
6
CONTINUOUS
10
473.068
20
-171.211
11
470.164
21
-157.546
0
LINE
8
BLACK
6
CONTINUOUS
10
456.499
20
-160.45
11
459.404
21
-174.115
0
LINE
8
BLACK
6
CONTINUOUS
10
470.164
20
-157.546
11
456.499
21
-160.45
0
LINE
8
BLACK
6
CONTINUOUS
10
310.462
20
-191.829
11
313.367
21
-178.165
0
LINE
8
BLACK
6
CONTINUOUS
10
296.797
20
-188.925
11
310.462
21
-191.829
0
LINE
8
BLACK
6
CONTINUOUS
10
313.367
20
-178.165
11
299.702
21
-175.26
0
LINE
8
BLACK
6
CONTINUOUS
10
299.702
20
-175.26
11
296.797
21
-188.925
0
LINE
8
BLACK
6
CONTINUOUS
10
268.674
20
-187.494
11
268.674
21
-173.524
0
LINE
8
BLACK
6
CONTINUOUS
10
268.674
20
-173.524
11
254.704
21
-173.524
0
LINE
8
BLACK
6
CONTINUOUS
10
254.704
20
-173.524
11
254.704
21
-187.494
0
LINE
8
BLACK
6
CONTINUOUS
10
254.704
20
-187.494
11
268.674
21
-187.494
0
LINE
8
BLACK
6
CONTINUOUS
10
173.424
20
-173.624
11
159.454
21
-173.624
0
LINE
8
BLACK
6
CONTINUOUS
10
173.424
20
-187.594
11
173.424
21
-173.624
0
LINE
8
BLACK
6
CONTINUOUS
10
159.454
20
-173.624
11
159.454
21
-187.594
0
LINE
8
BLACK
6
CONTINUOUS
10
159.454
20
-187.594
11
173.424
21
-187.594
  0
ENDSEC
  0
EOF
