M48
; DRILL file {KiCad (6.0.9)} date Fri Dec 16 23:57:10 2022
; FORMAT={-:-/ absolute / metric / decimal}
; #@! TF.CreationDate,2022-12-16T23:57:10-05:00
; #@! TF.GenerationSoftware,Kicad,Pcbnew,(6.0.9)
; #@! TF.FileFunction,NonPlated,1,2,NPTH
FMAT,2
METRIC
; #@! TA.AperFunction,NonPlated,NPTH,ComponentDrill
T1C1.000
; #@! TA.AperFunction,NonPlated,NPTH,ComponentDrill
T2C1.700
; #@! TA.AperFunction,NonPlated,NPTH,ComponentDrill
T3C3.050
; #@! TA.AperFunction,NonPlated,NPTH,ComponentDrill
T4C4.000
%
G90
G05
T1
X201.46Y-94.845
X205.86Y-94.845
T2
X63.604Y-203.207
X70.748Y-165.107
X73.129Y-146.061
X73.129Y-184.157
X73.764Y-203.207
X73.923Y-103.362
X73.923Y-127.007
X80.908Y-165.107
X83.289Y-146.061
X83.289Y-184.157
X84.083Y-103.362
X84.083Y-127.007
X87.416Y-203.207
X92.973Y-127.007
X96.941Y-146.057
X96.941Y-165.107
X97.576Y-203.207
X103.133Y-127.007
X104.085Y-184.157
X107.101Y-146.057
X107.101Y-165.107
X112.023Y-124.626
X114.245Y-184.157
X118.958Y-145.048
X119.896Y-101.832
X120.3Y-164.774
X122.183Y-124.626
X123.996Y-204.611
X125.627Y-185.483
X128.896Y-147.16
X129.834Y-103.945
X130.238Y-166.887
X132.737Y-128.406
X133.934Y-206.724
X135.565Y-187.595
X137.592Y-149.009
X138.504Y-105.815
X138.934Y-168.735
X142.675Y-130.518
X144.261Y-189.443
X147.53Y-151.121
X148.442Y-107.927
X148.872Y-170.847
X151.371Y-132.366
X154.199Y-191.556
X156.226Y-152.969
X156.605Y-211.543
X157.137Y-109.776
X157.567Y-172.696
X161.309Y-134.479
X162.895Y-193.404
X166.164Y-155.082
X166.543Y-213.655
X167.075Y-111.888
X167.505Y-174.808
X170.005Y-136.327
X172.833Y-195.516
X174.859Y-156.93
X175.771Y-113.736
X176.201Y-176.656
X179.943Y-138.439
X181.528Y-197.365
X184.797Y-159.042
X185.709Y-115.849
X186.139Y-178.769
X186.885Y-217.979
X188.639Y-140.288
X191.466Y-199.477
X196.823Y-220.091
X198.576Y-142.4
X218.744Y-217.097
X220.838Y-158.226
X221.535Y-115.696
X224.101Y-196.483
X226.194Y-137.611
X228.682Y-214.985
X229.457Y-175.869
X230.776Y-156.113
X231.473Y-113.584
X234.039Y-194.371
X236.132Y-135.499
X239.395Y-173.757
X239.471Y-154.265
X240.169Y-111.735
X242.734Y-192.522
X244.827Y-133.651
X248.09Y-171.908
X248.941Y-210.716
X249.409Y-152.152
X250.107Y-109.623
X252.672Y-190.41
X254.765Y-131.538
X258.028Y-169.796
X258.105Y-150.304
X258.803Y-107.775
X258.879Y-208.604
X261.368Y-188.562
X263.461Y-129.69
X266.724Y-167.948
X268.043Y-148.192
X268.741Y-105.662
X271.306Y-186.449
X273.399Y-127.578
X276.662Y-165.835
X276.739Y-146.343
X277.437Y-103.814
X280.002Y-184.601
X281.641Y-203.706
X282.095Y-125.729
X285.358Y-163.987
X286.677Y-144.231
X287.375Y-101.701
X289.94Y-182.489
X291.579Y-201.594
X292.033Y-123.617
X295.296Y-161.875
X299.471Y-142.409
X304.234Y-123.359
X304.234Y-180.509
X308.996Y-161.459
X309.631Y-142.409
X313.759Y-100.954
X314.394Y-123.359
X314.394Y-180.509
X318.521Y-142.409
X319.156Y-161.459
X323.284Y-123.359
X323.284Y-180.509
X323.919Y-100.954
X325.665Y-199.559
X328.046Y-161.459
X328.681Y-142.409
X332.809Y-100.954
X333.444Y-123.359
X333.444Y-180.509
X335.825Y-199.559
X337.571Y-142.409
X338.206Y-161.459
X342.969Y-100.954
X347.731Y-142.409
X349.477Y-199.559
X351.859Y-100.954
X351.859Y-123.359
X359.002Y-161.459
X359.002Y-180.509
X359.637Y-199.559
X361.384Y-142.409
X362.019Y-100.954
X362.019Y-123.359
X369.162Y-161.459
X369.162Y-180.509
X370.909Y-100.954
X371.544Y-142.409
X373.29Y-199.559
X381.069Y-100.954
X383.45Y-199.559
X399.484Y-100.954
X399.484Y-123.359
X399.484Y-142.409
X399.484Y-199.659
X409.644Y-100.954
X409.644Y-123.359
X409.644Y-142.409
X409.644Y-199.659
X418.534Y-100.954
X418.534Y-123.359
X418.534Y-142.409
X418.534Y-180.609
X418.534Y-199.659
X428.694Y-100.954
X428.694Y-123.359
X428.694Y-142.409
X428.694Y-180.609
X428.694Y-199.659
X437.584Y-100.954
X437.584Y-123.359
X437.584Y-142.409
X437.584Y-199.659
X447.744Y-100.954
X447.744Y-123.359
X447.744Y-142.409
X447.744Y-199.659
X461.39Y-123.459
X461.39Y-142.509
X461.39Y-161.559
X461.39Y-180.609
X470.915Y-199.659
X471.55Y-123.459
X471.55Y-142.509
X471.55Y-161.559
X471.55Y-180.609
X480.44Y-123.459
X480.44Y-142.509
X480.44Y-161.559
X480.44Y-180.609
X481.075Y-199.659
X490.6Y-123.459
X490.6Y-142.509
X490.6Y-161.559
X490.6Y-180.609
X499.49Y-142.509
X499.49Y-161.559
X499.49Y-180.609
X499.49Y-199.659
X499.59Y-123.459
X509.65Y-142.509
X509.65Y-161.559
X509.65Y-180.609
X509.65Y-199.659
X509.75Y-123.459
X518.54Y-123.459
X518.54Y-152.034
X518.54Y-190.134
X528.7Y-123.459
X528.7Y-152.034
X528.7Y-190.134
T3
X66.309Y-177.157
X90.109Y-177.157
X151.389Y-203.278
X174.669Y-208.226
X240.815Y-205.287
X264.095Y-200.339
X345.039Y-116.359
X352.183Y-154.459
X352.183Y-173.509
X368.839Y-116.359
X375.982Y-154.459
X375.982Y-173.509
X464.095Y-192.659
X487.895Y-192.659
X516.62Y-140.134
X516.62Y-163.934
X516.62Y-178.234
X516.62Y-202.034
T4
X66.309Y-192.397
X68.684Y-203.207
X75.828Y-165.107
X78.209Y-146.061
X78.209Y-184.157
X79.003Y-103.362
X79.003Y-127.007
X90.109Y-192.397
X92.496Y-203.207
X98.053Y-127.007
X102.021Y-146.057
X102.021Y-165.107
X109.165Y-184.157
X117.103Y-124.626
X123.927Y-146.104
X124.865Y-102.889
X125.269Y-165.831
X128.965Y-205.668
X130.596Y-186.539
X137.706Y-129.462
X142.561Y-150.065
X143.473Y-106.871
X143.903Y-169.791
X148.221Y-218.185
X149.23Y-190.499
X156.34Y-133.422
X161.195Y-154.025
X161.574Y-212.599
X162.106Y-110.832
X162.536Y-173.752
X167.864Y-194.46
X171.501Y-223.133
X174.974Y-137.383
X179.828Y-157.986
X180.74Y-114.792
X181.17Y-177.713
X186.497Y-198.421
X191.854Y-219.035
X193.607Y-141.344
X223.713Y-216.041
X225.807Y-157.169
X226.504Y-114.64
X229.07Y-195.427
X231.163Y-136.555
X234.426Y-174.813
X243.983Y-220.194
X244.44Y-153.209
X245.138Y-110.679
X247.703Y-191.466
X249.796Y-132.595
X253.059Y-170.852
X253.91Y-209.66
X263.074Y-149.248
X263.772Y-106.718
X266.337Y-187.505
X267.263Y-215.246
X268.43Y-128.634
X271.693Y-166.891
X281.708Y-145.287
X282.406Y-102.758
X284.971Y-183.545
X286.61Y-202.65
X287.064Y-124.673
X290.327Y-162.931
X304.551Y-142.409
X309.314Y-123.359
X309.314Y-180.509
X314.076Y-161.459
X318.839Y-100.954
X323.601Y-142.409
X328.364Y-123.359
X328.364Y-180.509
X330.745Y-199.559
X333.126Y-161.459
X337.889Y-100.954
X342.651Y-142.409
X345.039Y-131.599
X352.183Y-169.699
X352.183Y-188.749
X354.558Y-199.559
X356.939Y-100.954
X356.939Y-123.359
X364.082Y-161.459
X364.082Y-180.509
X366.464Y-142.409
X368.839Y-131.599
X375.982Y-169.699
X375.982Y-188.749
X375.989Y-100.954
X378.37Y-199.559
X404.564Y-100.954
X404.564Y-123.359
X404.564Y-142.409
X404.564Y-199.659
X423.614Y-100.954
X423.614Y-123.359
X423.614Y-142.409
X423.614Y-180.609
X423.614Y-199.659
X442.664Y-100.954
X442.664Y-123.359
X442.664Y-142.409
X442.664Y-199.659
X464.095Y-207.899
X466.47Y-123.459
X466.47Y-142.509
X466.47Y-161.559
X466.47Y-180.609
X475.995Y-199.659
X485.52Y-123.459
X485.52Y-142.509
X485.52Y-161.559
X485.52Y-180.609
X487.895Y-207.899
X504.57Y-142.509
X504.57Y-161.559
X504.57Y-180.609
X504.57Y-199.659
X504.67Y-123.459
X523.62Y-123.459
X523.62Y-152.034
X523.62Y-190.134
X531.86Y-140.134
X531.86Y-163.934
X531.86Y-178.234
X531.86Y-202.034
T0
M30
