%TF.GenerationSoftware,KiCad,Pcbnew,(6.0.9)*%
%TF.CreationDate,2022-12-16T23:57:13-05:00*%
%TF.ProjectId,rp2040 keeb,72703230-3430-4206-9b65-65622e6b6963,rev?*%
%TF.SameCoordinates,Original*%
%TF.FileFunction,Copper,L1,Top*%
%TF.FilePolarity,Positive*%
%FSLAX46Y46*%
G04 Gerber Fmt 4.6, Leading zero omitted, Abs format (unit mm)*
G04 Created by KiCad (PCBNEW (6.0.9)) date 2022-12-16 23:57:13*
%MOMM*%
%LPD*%
G01*
G04 APERTURE LIST*
%TA.AperFunction,ComponentPad*%
%ADD10C,2.200000*%
%TD*%
%TA.AperFunction,SMDPad,CuDef*%
%ADD11R,3.200000X3.200000*%
%TD*%
%TA.AperFunction,ViaPad*%
%ADD12C,0.800000*%
%TD*%
%TA.AperFunction,Conductor*%
%ADD13C,0.250000*%
%TD*%
%TA.AperFunction,Conductor*%
%ADD14C,0.150000*%
%TD*%
%TA.AperFunction,Conductor*%
%ADD15C,0.500000*%
%TD*%
G04 APERTURE END LIST*
D10*
%TO.P,SW103,1,1*%
%TO.N,row 1*%
X507210000Y-118378750D03*
%TO.P,SW103,2,2*%
%TO.N,Net-(D103-Pad2)*%
X500860000Y-120918750D03*
%TD*%
%TO.P,SW16,1,1*%
%TO.N,row 0*%
X147013333Y-102430170D03*
%TO.P,SW16,2,2*%
%TO.N,Net-(D16-Pad2)*%
X140274000Y-103594426D03*
%TD*%
%TO.P,SW14,1,1*%
%TO.N,row 3*%
X104561319Y-160027499D03*
%TO.P,SW14,2,2*%
%TO.N,Net-(D14-Pad2)*%
X98211319Y-162567499D03*
%TD*%
%TO.P,SW12,1,1*%
%TO.N,row 1*%
X119642568Y-119546249D03*
%TO.P,SW12,2,2*%
%TO.N,Net-(D12-Pad2)*%
X113292568Y-122086249D03*
%TD*%
%TO.P,SW64,1,1*%
%TO.N,row 3*%
X316616250Y-156378750D03*
%TO.P,SW64,2,2*%
%TO.N,Net-(D64-Pad2)*%
X310266250Y-158918750D03*
%TD*%
%TO.P,SW99,1,1*%
%TO.N,row 2*%
X488060000Y-137428750D03*
%TO.P,SW99,2,2*%
%TO.N,Net-(D99-Pad2)*%
X481710000Y-139968750D03*
%TD*%
%TO.P,SW9,1,1*%
%TO.N,row 4*%
X80748819Y-179077499D03*
%TO.P,SW9,2,2*%
%TO.N,Net-(D9-Pad2)*%
X74398819Y-181617499D03*
%TD*%
%TO.P,SW51,1,1*%
%TO.N,row 2*%
X264502259Y-143750799D03*
%TO.P,SW51,2,2*%
%TO.N,Net-(D51-Pad2)*%
X258819117Y-147555533D03*
%TD*%
%TO.P,SW3,1,1*%
%TO.N,row 0*%
X81542568Y-98282499D03*
%TO.P,SW3,2,2*%
%TO.N,Net-(D3-Pad2)*%
X75192568Y-100822499D03*
%TD*%
%TO.P,SW71,1,1*%
%TO.N,row 0*%
X359478750Y-95873653D03*
%TO.P,SW71,2,2*%
%TO.N,Net-(D71-Pad2)*%
X353128750Y-98413653D03*
%TD*%
%TO.P,SW17,1,1*%
%TO.N,row 1*%
X141247046Y-125020889D03*
%TO.P,SW17,2,2*%
%TO.N,Net-(D17-Pad2)*%
X134507713Y-126185145D03*
%TD*%
%TO.P,SW100,1,1*%
%TO.N,row 3*%
X488060000Y-156478750D03*
%TO.P,SW100,2,2*%
%TO.N,Net-(D100-Pad2)*%
X481710000Y-159018750D03*
%TD*%
%TO.P,SW97,1,1*%
%TO.N,row 5*%
X478535000Y-194578750D03*
%TO.P,SW97,2,2*%
%TO.N,Net-(D97-Pad2)*%
X472185000Y-197118750D03*
%TD*%
%TO.P,SW95,1,1*%
%TO.N,row 3*%
X469010000Y-156478750D03*
%TO.P,SW95,2,2*%
%TO.N,Net-(D95-Pad2)*%
X462660000Y-159018750D03*
%TD*%
%TO.P,SW110,1,1*%
%TO.N,row 5*%
X230497843Y-189929837D03*
%TO.P,SW110,2,2*%
%TO.N,Net-(D110-Pad2)*%
X224814701Y-193734571D03*
%TD*%
%TO.P,SW59,1,1*%
%TO.N,row 4*%
X311853750Y-175428750D03*
%TO.P,SW59,2,2*%
%TO.N,Net-(D59-Pad2)*%
X305503750Y-177968750D03*
%TD*%
%TO.P,SW11,1,1*%
%TO.N,row 0*%
X128405799Y-98447789D03*
%TO.P,SW11,2,2*%
%TO.N,Net-(D11-Pad2)*%
X121666466Y-99612045D03*
%TD*%
%TO.P,SW40,1,1*%
%TO.N,row 2*%
X227234836Y-151672234D03*
%TO.P,SW40,2,2*%
%TO.N,Net-(D40-Pad2)*%
X221551694Y-155476968D03*
%TD*%
%TO.P,SW105,1,1*%
%TO.N,row 4*%
X507110000Y-175528750D03*
%TO.P,SW105,2,2*%
%TO.N,Net-(D105-Pad2)*%
X500760000Y-178068750D03*
%TD*%
%TO.P,SW4,1,1*%
%TO.N,row 1*%
X81542568Y-121927499D03*
%TO.P,SW4,2,2*%
%TO.N,Net-(D4-Pad2)*%
X75192568Y-124467499D03*
%TD*%
%TO.P,SW33,1,1*%
%TO.N,row 1*%
X197148181Y-136903041D03*
%TO.P,SW33,2,2*%
%TO.N,Net-(D33-Pad2)*%
X190408848Y-138067297D03*
%TD*%
%TO.P,SW47,1,1*%
%TO.N,row 4*%
X267765266Y-182008402D03*
%TO.P,SW47,2,2*%
%TO.N,Net-(D47-Pad2)*%
X262082124Y-185813136D03*
%TD*%
%TO.P,SW84,1,1*%
%TO.N,row 0*%
X426153750Y-95873653D03*
%TO.P,SW84,2,2*%
%TO.N,Net-(D84-Pad2)*%
X419803750Y-98413653D03*
%TD*%
%TO.P,SW8,1,1*%
%TO.N,row 1*%
X100592568Y-121927499D03*
%TO.P,SW8,2,2*%
%TO.N,Net-(D8-Pad2)*%
X94242568Y-124467499D03*
%TD*%
%TO.P,SW102,1,1*%
%TO.N,row 2*%
X507110000Y-137428750D03*
%TO.P,SW102,2,2*%
%TO.N,Net-(D102-Pad2)*%
X500760000Y-139968750D03*
%TD*%
%TO.P,SW34,1,1*%
%TO.N,row 2*%
X183368984Y-153545317D03*
%TO.P,SW34,2,2*%
%TO.N,Net-(D34-Pad2)*%
X176629651Y-154709573D03*
%TD*%
%TO.P,SW93,1,1*%
%TO.N,row 1*%
X469010000Y-118378750D03*
%TO.P,SW93,2,2*%
%TO.N,Net-(D93-Pad2)*%
X462660000Y-120918750D03*
%TD*%
%TO.P,SW10,1,1*%
%TO.N,row 5*%
X95036319Y-198127499D03*
%TO.P,SW10,2,2*%
%TO.N,Net-(D10-Pad2)*%
X88686319Y-200667499D03*
%TD*%
%TO.P,SW31,1,1*%
%TO.N,row 4*%
X171404427Y-190019294D03*
%TO.P,SW31,2,2*%
%TO.N,Net-(D31-Pad2)*%
X164665094Y-191183550D03*
%TD*%
%TO.P,SW96,1,1*%
%TO.N,row 4*%
X469010000Y-175528750D03*
%TO.P,SW96,2,2*%
%TO.N,Net-(D96-Pad2)*%
X462660000Y-178068750D03*
%TD*%
%TO.P,SW15,1,1*%
%TO.N,row 4*%
X111705069Y-179077499D03*
%TO.P,SW15,2,2*%
%TO.N,Net-(D15-Pad2)*%
X105355069Y-181617499D03*
%TD*%
%TO.P,SW101,1,1*%
%TO.N,row 4*%
X488060000Y-175528750D03*
%TO.P,SW101,2,2*%
%TO.N,Net-(D101-Pad2)*%
X481710000Y-178068750D03*
%TD*%
%TO.P,SW13,1,1*%
%TO.N,row 2*%
X104561319Y-140977499D03*
%TO.P,SW13,2,2*%
%TO.N,Net-(D13-Pad2)*%
X98211319Y-143517499D03*
%TD*%
%TO.P,SW81,1,1*%
%TO.N,row 1*%
X407103750Y-118278750D03*
%TO.P,SW81,2,2*%
%TO.N,Net-(D81-Pad2)*%
X400753750Y-120818750D03*
%TD*%
%TO.P,SW104,1,1*%
%TO.N,row 3*%
X507110000Y-156478750D03*
%TO.P,SW104,2,2*%
%TO.N,Net-(D104-Pad2)*%
X500760000Y-159018750D03*
%TD*%
%TO.P,SW20,1,1*%
%TO.N,row 4*%
X134137006Y-182097855D03*
%TO.P,SW20,2,2*%
%TO.N,Net-(D20-Pad2)*%
X127397673Y-183262111D03*
%TD*%
%TO.P,SW78,1,1*%
%TO.N,row 2*%
X369003750Y-137328750D03*
%TO.P,SW78,2,2*%
%TO.N,Net-(D78-Pad2)*%
X362653750Y-139868750D03*
%TD*%
%TO.P,SW85,1,1*%
%TO.N,row 1*%
X426153750Y-118278750D03*
%TO.P,SW85,2,2*%
%TO.N,Net-(D85-Pad2)*%
X419803750Y-120818750D03*
%TD*%
%TO.P,SW92,1,1*%
%TO.N,row 5*%
X445203750Y-194578750D03*
%TO.P,SW92,2,2*%
%TO.N,Net-(D92-Pad2)*%
X438853750Y-197118750D03*
%TD*%
%TO.P,SW28,1,1*%
%TO.N,row 1*%
X178514468Y-132942324D03*
%TO.P,SW28,2,2*%
%TO.N,Net-(D28-Pad2)*%
X171775135Y-134106580D03*
%TD*%
%TO.P,SW76,1,1*%
%TO.N,row 0*%
X378528750Y-95873653D03*
%TO.P,SW76,2,2*%
%TO.N,Net-(D76-Pad2)*%
X372178750Y-98413653D03*
%TD*%
%TO.P,SW37,1,1*%
%TO.N,row 5*%
X195394278Y-214594079D03*
%TO.P,SW37,2,2*%
%TO.N,Net-(D37-Pad2)*%
X188654945Y-215758335D03*
%TD*%
%TO.P,SW46,1,1*%
%TO.N,row 3*%
X254487693Y-165355049D03*
%TO.P,SW46,2,2*%
%TO.N,Net-(D46-Pad2)*%
X248804551Y-169159783D03*
%TD*%
%TO.P,SW58,1,1*%
%TO.N,row 3*%
X291755117Y-157433614D03*
%TO.P,SW58,2,2*%
%TO.N,Net-(D58-Pad2)*%
X286071975Y-161238348D03*
%TD*%
%TO.P,SW41,1,1*%
%TO.N,row 3*%
X235853981Y-169315767D03*
%TO.P,SW41,2,2*%
%TO.N,Net-(D41-Pad2)*%
X230170839Y-173120501D03*
%TD*%
%TO.P,SW5,1,1*%
%TO.N,row 2*%
X80748819Y-140981249D03*
%TO.P,SW5,2,2*%
%TO.N,Net-(D5-Pad2)*%
X74398819Y-143521249D03*
%TD*%
%TO.P,SW75,1,1*%
%TO.N,row 5*%
X357097500Y-194478750D03*
%TO.P,SW75,2,2*%
%TO.N,Net-(D75-Pad2)*%
X350747500Y-197018750D03*
%TD*%
%TO.P,SW98,1,1*%
%TO.N,row 1*%
X488060000Y-118378750D03*
%TO.P,SW98,2,2*%
%TO.N,Net-(D98-Pad2)*%
X481710000Y-120918750D03*
%TD*%
%TO.P,SW49,1,1*%
%TO.N,row 0*%
X265200116Y-101221236D03*
%TO.P,SW49,2,2*%
%TO.N,Net-(D49-Pad2)*%
X259516974Y-105025970D03*
%TD*%
%TO.P,SW42,1,1*%
%TO.N,row 4*%
X249131555Y-185969120D03*
%TO.P,SW42,2,2*%
%TO.N,Net-(D42-Pad2)*%
X243448413Y-189773854D03*
%TD*%
%TO.P,SW62,1,1*%
%TO.N,row 1*%
X311853750Y-118278750D03*
%TO.P,SW62,2,2*%
%TO.N,Net-(D62-Pad2)*%
X305503750Y-120818750D03*
%TD*%
%TO.P,SW108,1,1*%
%TO.N,row 2*%
X526160000Y-146953750D03*
%TO.P,SW108,2,2*%
%TO.N,Net-(D108-Pad2)*%
X519810000Y-149493750D03*
%TD*%
%TO.P,SW86,1,1*%
%TO.N,row 2*%
X426153750Y-137328750D03*
%TO.P,SW86,2,2*%
%TO.N,Net-(D86-Pad2)*%
X419803750Y-139868750D03*
%TD*%
%TO.P,SW26,1,1*%
%TO.N,row 4*%
X152770712Y-186058573D03*
%TO.P,SW26,2,2*%
%TO.N,Net-(D26-Pad2)*%
X146031379Y-187222829D03*
%TD*%
%TO.P,SW30,1,1*%
%TO.N,row 3*%
X166077036Y-169311075D03*
%TO.P,SW30,2,2*%
%TO.N,Net-(D30-Pad2)*%
X159337703Y-170475331D03*
%TD*%
%TO.P,SW22,1,1*%
%TO.N,row 0*%
X165647046Y-106390886D03*
%TO.P,SW22,2,2*%
%TO.N,Net-(D22-Pad2)*%
X158907713Y-107555142D03*
%TD*%
%TO.P,SW60,1,1*%
%TO.N,row 5*%
X288038304Y-197152915D03*
%TO.P,SW60,2,2*%
%TO.N,Net-(D60-Pad2)*%
X282355162Y-200957649D03*
%TD*%
%TO.P,SW48,1,1*%
%TO.N,row 5*%
X225141705Y-210543908D03*
%TO.P,SW48,2,2*%
%TO.N,Net-(D48-Pad2)*%
X219458563Y-214348642D03*
%TD*%
%TO.P,SW7,1,1*%
%TO.N,row 5*%
X71223819Y-198127499D03*
%TO.P,SW7,2,2*%
%TO.N,Net-(D7-Pad2)*%
X64873819Y-200667499D03*
%TD*%
%TO.P,SW63,1,1*%
%TO.N,row 2*%
X307091250Y-137328750D03*
%TO.P,SW63,2,2*%
%TO.N,Net-(D63-Pad2)*%
X300741250Y-139868750D03*
%TD*%
%TO.P,SW55,1,1*%
%TO.N,row 0*%
X283833828Y-97260519D03*
%TO.P,SW55,2,2*%
%TO.N,Net-(D55-Pad2)*%
X278150686Y-101065253D03*
%TD*%
%TO.P,SW61,1,1*%
%TO.N,row 0*%
X321378750Y-95873653D03*
%TO.P,SW61,2,2*%
%TO.N,Net-(D61-Pad2)*%
X315028750Y-98413653D03*
%TD*%
%TO.P,SW24,1,1*%
%TO.N,row 2*%
X146101560Y-145623885D03*
%TO.P,SW24,2,2*%
%TO.N,Net-(D24-Pad2)*%
X139362227Y-146788141D03*
%TD*%
%TO.P,SW6,1,1*%
%TO.N,row 3*%
X78367569Y-160027499D03*
%TO.P,SW6,2,2*%
%TO.N,Net-(D6-Pad2)*%
X72017569Y-162567499D03*
%TD*%
%TO.P,SW66,1,1*%
%TO.N,row 5*%
X333285000Y-194478750D03*
%TO.P,SW66,2,2*%
%TO.N,Net-(D66-Pad2)*%
X326935000Y-197018750D03*
%TD*%
%TO.P,SW94,1,1*%
%TO.N,row 2*%
X469010000Y-137428750D03*
%TO.P,SW94,2,2*%
%TO.N,Net-(D94-Pad2)*%
X462660000Y-139968750D03*
%TD*%
%TO.P,SW36,1,1*%
%TO.N,row 4*%
X190038139Y-193980007D03*
%TO.P,SW36,2,2*%
%TO.N,Net-(D36-Pad2)*%
X183298806Y-195144263D03*
%TD*%
%TO.P,SW50,1,1*%
%TO.N,row 1*%
X269858397Y-123136728D03*
%TO.P,SW50,2,2*%
%TO.N,Net-(D50-Pad2)*%
X264175255Y-126941462D03*
%TD*%
%TO.P,SW80,1,1*%
%TO.N,row 0*%
X407103750Y-95873653D03*
%TO.P,SW80,2,2*%
%TO.N,Net-(D80-Pad2)*%
X400753750Y-98413653D03*
%TD*%
%TO.P,SW109,1,1*%
%TO.N,row 4*%
X526160000Y-185053750D03*
%TO.P,SW109,2,2*%
%TO.N,Net-(D109-Pad2)*%
X519810000Y-187593750D03*
%TD*%
%TO.P,SW29,1,1*%
%TO.N,row 2*%
X164735272Y-149584602D03*
%TO.P,SW29,2,2*%
%TO.N,Net-(D29-Pad2)*%
X157995939Y-150748858D03*
%TD*%
%TO.P,SW88,1,1*%
%TO.N,row 5*%
X426153750Y-194578750D03*
%TO.P,SW88,2,2*%
%TO.N,Net-(D88-Pad2)*%
X419803750Y-197118750D03*
%TD*%
%TO.P,SW44,1,1*%
%TO.N,row 1*%
X251224686Y-127097446D03*
%TO.P,SW44,2,2*%
%TO.N,Net-(D44-Pad2)*%
X245541544Y-130902180D03*
%TD*%
%TO.P,SW82,1,1*%
%TO.N,row 2*%
X407103750Y-137328750D03*
%TO.P,SW82,2,2*%
%TO.N,Net-(D82-Pad2)*%
X400753750Y-139868750D03*
%TD*%
%TO.P,SW72,1,1*%
%TO.N,row 2*%
X345191250Y-137328750D03*
%TO.P,SW72,2,2*%
%TO.N,Net-(D72-Pad2)*%
X338841250Y-139868750D03*
%TD*%
%TO.P,SW32,1,1*%
%TO.N,row 5*%
X165114496Y-208157912D03*
%TO.P,SW32,2,2*%
%TO.N,Net-(D32-Pad2)*%
X158375163Y-209322168D03*
%TD*%
%TO.P,SW91,1,1*%
%TO.N,row 2*%
X445203750Y-137328750D03*
%TO.P,SW91,2,2*%
%TO.N,Net-(D91-Pad2)*%
X438853750Y-139868750D03*
%TD*%
%TO.P,SW89,1,1*%
%TO.N,row 0*%
X445203750Y-95873653D03*
%TO.P,SW89,2,2*%
%TO.N,Net-(D89-Pad2)*%
X438853750Y-98413653D03*
%TD*%
%TO.P,SW79,1,1*%
%TO.N,row 5*%
X380910000Y-194478750D03*
%TO.P,SW79,2,2*%
%TO.N,Net-(D79-Pad2)*%
X374560000Y-197018750D03*
%TD*%
%TO.P,SW27,1,1*%
%TO.N,row 0*%
X184280756Y-110351605D03*
%TO.P,SW27,2,2*%
%TO.N,Net-(D27-Pad2)*%
X177541423Y-111515861D03*
%TD*%
%TO.P,SW68,1,1*%
%TO.N,row 1*%
X330903750Y-118278750D03*
%TO.P,SW68,2,2*%
%TO.N,Net-(D68-Pad2)*%
X324553750Y-120818750D03*
%TD*%
%TO.P,SW70,1,1*%
%TO.N,row 3*%
X335666250Y-156378750D03*
%TO.P,SW70,2,2*%
%TO.N,Net-(D70-Pad2)*%
X329316250Y-158918750D03*
%TD*%
%TO.P,SW74,1,1*%
%TO.N,row 4*%
X366622500Y-175428750D03*
%TO.P,SW74,2,2*%
%TO.N,Net-(D74-Pad2)*%
X360272500Y-177968750D03*
%TD*%
%TO.P,SW57,1,1*%
%TO.N,row 2*%
X283135971Y-139790081D03*
%TO.P,SW57,2,2*%
%TO.N,Net-(D57-Pad2)*%
X277452829Y-143594815D03*
%TD*%
%TO.P,SW43,1,1*%
%TO.N,row 0*%
X246566404Y-105181954D03*
%TO.P,SW43,2,2*%
%TO.N,Net-(D43-Pad2)*%
X240883262Y-108986688D03*
%TD*%
%TO.P,SW73,1,1*%
%TO.N,row 3*%
X366622500Y-156378750D03*
%TO.P,SW73,2,2*%
%TO.N,Net-(D73-Pad2)*%
X360272500Y-158918750D03*
%TD*%
%TO.P,SW54,1,1*%
%TO.N,row 5*%
X255338304Y-204162915D03*
%TO.P,SW54,2,2*%
%TO.N,Net-(D54-Pad2)*%
X249655162Y-207967649D03*
%TD*%
%TO.P,SW52,1,1*%
%TO.N,row 3*%
X273121405Y-161394331D03*
%TO.P,SW52,2,2*%
%TO.N,Net-(D52-Pad2)*%
X267438263Y-165199065D03*
%TD*%
%TO.P,SW83,1,1*%
%TO.N,row 5*%
X407103750Y-194578750D03*
%TO.P,SW83,2,2*%
%TO.N,Net-(D83-Pad2)*%
X400753750Y-197118750D03*
%TD*%
%TO.P,SW69,1,1*%
%TO.N,row 2*%
X326141250Y-137328750D03*
%TO.P,SW69,2,2*%
%TO.N,Net-(D69-Pad2)*%
X319791250Y-139868750D03*
%TD*%
%TO.P,SW35,1,1*%
%TO.N,row 3*%
X184710751Y-173271793D03*
%TO.P,SW35,2,2*%
%TO.N,Net-(D35-Pad2)*%
X177971418Y-174436049D03*
%TD*%
%TO.P,SW56,1,1*%
%TO.N,row 1*%
X288492109Y-119176011D03*
%TO.P,SW56,2,2*%
%TO.N,Net-(D56-Pad2)*%
X282808967Y-122980745D03*
%TD*%
%TO.P,SW39,1,1*%
%TO.N,row 1*%
X232590974Y-131058164D03*
%TO.P,SW39,2,2*%
%TO.N,Net-(D39-Pad2)*%
X226907832Y-134862898D03*
%TD*%
%TO.P,SW106,1,1*%
%TO.N,row 5*%
X507110000Y-194578750D03*
%TO.P,SW106,2,2*%
%TO.N,Net-(D106-Pad2)*%
X500760000Y-197118750D03*
%TD*%
%TO.P,SW21,1,1*%
%TO.N,row 5*%
X132505501Y-201226657D03*
%TO.P,SW21,2,2*%
%TO.N,Net-(D21-Pad2)*%
X125766168Y-202390913D03*
%TD*%
%TO.P,SW25,1,1*%
%TO.N,row 3*%
X147443324Y-165350355D03*
%TO.P,SW25,2,2*%
%TO.N,Net-(D25-Pad2)*%
X140703991Y-166514611D03*
%TD*%
%TO.P,SW67,1,1*%
%TO.N,row 0*%
X340428750Y-95873653D03*
%TO.P,SW67,2,2*%
%TO.N,Net-(D67-Pad2)*%
X334078750Y-98413653D03*
%TD*%
%TO.P,SW23,1,1*%
%TO.N,row 1*%
X159880756Y-128981605D03*
%TO.P,SW23,2,2*%
%TO.N,Net-(D23-Pad2)*%
X153141423Y-130145861D03*
%TD*%
%TO.P,SW18,1,1*%
%TO.N,row 2*%
X127467849Y-141663163D03*
%TO.P,SW18,2,2*%
%TO.N,Net-(D18-Pad2)*%
X120728516Y-142827419D03*
%TD*%
%TO.P,SW77,1,1*%
%TO.N,row 1*%
X359478750Y-118278750D03*
%TO.P,SW77,2,2*%
%TO.N,Net-(D77-Pad2)*%
X353128750Y-120818750D03*
%TD*%
%TO.P,SW38,1,1*%
%TO.N,row 0*%
X227932692Y-109142672D03*
%TO.P,SW38,2,2*%
%TO.N,Net-(D38-Pad2)*%
X222249550Y-112947406D03*
%TD*%
%TO.P,SW107,1,1*%
%TO.N,row 1*%
X526160000Y-118378750D03*
%TO.P,SW107,2,2*%
%TO.N,Net-(D107-Pad2)*%
X519810000Y-120918750D03*
%TD*%
%TO.P,SW90,1,1*%
%TO.N,row 1*%
X445203750Y-118278750D03*
%TO.P,SW90,2,2*%
%TO.N,Net-(D90-Pad2)*%
X438853750Y-120818750D03*
%TD*%
%TO.P,SW45,1,1*%
%TO.N,row 2*%
X245868547Y-147711517D03*
%TO.P,SW45,2,2*%
%TO.N,Net-(D45-Pad2)*%
X240185405Y-151516251D03*
%TD*%
%TO.P,SW19,1,1*%
%TO.N,row 3*%
X128809613Y-161389637D03*
%TO.P,SW19,2,2*%
%TO.N,Net-(D19-Pad2)*%
X122070280Y-162553893D03*
%TD*%
%TO.P,SW53,1,1*%
%TO.N,row 4*%
X286398977Y-178047684D03*
%TO.P,SW53,2,2*%
%TO.N,Net-(D53-Pad2)*%
X280715835Y-181852418D03*
%TD*%
%TO.P,SW65,1,1*%
%TO.N,row 4*%
X330903750Y-175428750D03*
%TO.P,SW65,2,2*%
%TO.N,Net-(D65-Pad2)*%
X324553750Y-177968750D03*
%TD*%
%TO.P,SW87,1,1*%
%TO.N,row 4*%
X426153750Y-175528750D03*
%TO.P,SW87,2,2*%
%TO.N,Net-(D87-Pad2)*%
X419803750Y-178068750D03*
%TD*%
D11*
%TO.P,U3,57,GND*%
%TO.N,GND*%
X199210000Y-172320000D03*
%TD*%
D12*
%TO.N,VBUS*%
X202050500Y-105150000D03*
X215040000Y-105150000D03*
%TO.N,GND*%
X199040000Y-180770000D03*
X208040000Y-151540000D03*
X201710000Y-152470000D03*
X198110000Y-173370000D03*
X197360000Y-123050000D03*
X193150000Y-168240000D03*
X202090000Y-180860000D03*
X211900000Y-163150000D03*
X198070000Y-171200000D03*
X191540000Y-177090000D03*
X201740000Y-155000000D03*
X218230000Y-162890000D03*
X200290000Y-171170000D03*
X193270000Y-155020000D03*
X200280000Y-173360000D03*
X207080000Y-118320000D03*
%TO.N,+3V3*%
X198927826Y-174778291D03*
X201095500Y-174710000D03*
X202910000Y-128930000D03*
X194620000Y-161190000D03*
X204166250Y-168176250D03*
X215860000Y-128900000D03*
X195240000Y-168120000D03*
X200990000Y-160900000D03*
%TO.N,+1V1*%
X204170000Y-180870000D03*
X201240000Y-170040000D03*
X198460000Y-177320000D03*
%TO.N,col 0*%
X71180000Y-149890000D03*
X189300000Y-161110000D03*
%TO.N,col 1*%
X188625500Y-162140000D03*
X89100000Y-150360000D03*
%TO.N,col 2*%
X187730000Y-163100000D03*
X92730000Y-151930000D03*
%TO.N,col 3*%
X113670000Y-152430000D03*
X186990000Y-164010000D03*
%TO.N,col 4*%
X186260000Y-165180000D03*
X134340000Y-156610000D03*
%TO.N,col 5*%
X184770000Y-166700000D03*
X152880000Y-161360000D03*
%TO.N,col 8*%
X210910000Y-198715500D03*
X205040000Y-190130000D03*
X218080000Y-207530000D03*
X205050000Y-178120000D03*
%TO.N,col 9*%
X212510000Y-198670000D03*
X219160000Y-206440000D03*
X206440000Y-178000000D03*
X233350000Y-204590000D03*
X206630000Y-189950000D03*
X241440000Y-209970000D03*
%TO.N,col 10*%
X207930000Y-177970000D03*
X287700000Y-175080000D03*
%TO.N,col 11*%
X312090000Y-171670000D03*
X209130000Y-177890000D03*
%TO.N,col 12*%
X210130000Y-177800000D03*
X317270000Y-170410000D03*
%TO.N,col 13*%
X344120000Y-169410000D03*
X211077064Y-177480508D03*
%TO.N,col 14*%
X370180000Y-166990000D03*
X211868619Y-176870225D03*
%TO.N,col 15*%
X393630000Y-166210000D03*
X212731471Y-176365754D03*
%TO.N,col 16*%
X412710000Y-165420000D03*
X213720000Y-175800000D03*
%TO.N,col 17*%
X431550000Y-164900000D03*
X214560000Y-175240000D03*
%TO.N,col 18*%
X454610000Y-164150000D03*
X215395001Y-174690657D03*
%TO.N,col 19*%
X216400000Y-174770000D03*
X475500000Y-164710000D03*
%TO.N,col 20*%
X217291713Y-174318500D03*
X494420000Y-165520000D03*
%TO.N,col 21*%
X512960000Y-158920000D03*
X216810000Y-172100000D03*
%TO.N,Net-(R1-Pad1)*%
X215910337Y-169928943D03*
X220050000Y-170270000D03*
%TO.N,row 5*%
X198920000Y-209610000D03*
%TO.N,row 4*%
X185330000Y-189180000D03*
%TD*%
D13*
%TO.N,VBUS*%
X215040000Y-105150000D02*
X202050500Y-105150000D01*
D14*
%TO.N,GND*%
X198070000Y-171200000D02*
X196110000Y-171200000D01*
D13*
X193270000Y-155020000D02*
X201720000Y-155020000D01*
X199040000Y-180770000D02*
X202000000Y-180770000D01*
X208040000Y-151540000D02*
X202640000Y-151540000D01*
D14*
X196110000Y-171200000D02*
X193150000Y-168240000D01*
D13*
X201720000Y-155020000D02*
X201740000Y-155000000D01*
D15*
X197360000Y-123050000D02*
X202350000Y-123050000D01*
D14*
X192620000Y-173370000D02*
X198110000Y-173370000D01*
X197690000Y-173790000D02*
X198110000Y-173370000D01*
X199040000Y-180770000D02*
X197690000Y-179420000D01*
X191540000Y-174450000D02*
X192620000Y-173370000D01*
D15*
X202350000Y-123050000D02*
X207080000Y-118320000D01*
D13*
X202000000Y-180770000D02*
X202090000Y-180860000D01*
D14*
X197690000Y-179420000D02*
X197690000Y-173790000D01*
X212160000Y-162890000D02*
X211900000Y-163150000D01*
D13*
X202640000Y-151540000D02*
X201710000Y-152470000D01*
D14*
X218230000Y-162890000D02*
X212160000Y-162890000D01*
X191540000Y-177090000D02*
X191540000Y-174450000D01*
%TO.N,+3V3*%
X201095500Y-174710000D02*
X198996117Y-174710000D01*
X194620000Y-161190000D02*
X200700000Y-161190000D01*
D15*
X202940000Y-128900000D02*
X202910000Y-128930000D01*
D14*
X195930000Y-167430000D02*
X195240000Y-168120000D01*
X200700000Y-161190000D02*
X200990000Y-160900000D01*
X203420000Y-167430000D02*
X195930000Y-167430000D01*
X204166250Y-168176250D02*
X203420000Y-167430000D01*
X198996117Y-174710000D02*
X198927826Y-174778291D01*
D15*
X215860000Y-128900000D02*
X202940000Y-128900000D01*
D14*
%TO.N,+1V1*%
X200850000Y-177320000D02*
X201770000Y-176400000D01*
X204560000Y-178760000D02*
X204560000Y-180480000D01*
X198460000Y-177320000D02*
X200850000Y-177320000D01*
X204560000Y-180480000D02*
X204170000Y-180870000D01*
X201770000Y-170570000D02*
X201240000Y-170040000D01*
X199900000Y-178760000D02*
X204560000Y-178760000D01*
X201770000Y-176400000D02*
X201770000Y-170570000D01*
X198460000Y-177320000D02*
X199900000Y-178760000D01*
%TO.N,col 0*%
X149370000Y-157300000D02*
X145590000Y-153520000D01*
X126850000Y-149670000D02*
X71400000Y-149670000D01*
X71400000Y-149670000D02*
X71180000Y-149890000D01*
X170330000Y-161110000D02*
X166520000Y-157300000D01*
X166520000Y-157300000D02*
X149370000Y-157300000D01*
X130700000Y-153520000D02*
X126850000Y-149670000D01*
X189300000Y-161110000D02*
X170330000Y-161110000D01*
X145590000Y-153520000D02*
X130700000Y-153520000D01*
%TO.N,col 1*%
X126440000Y-150380000D02*
X126420000Y-150360000D01*
X188625500Y-162140000D02*
X170470000Y-162140000D01*
X148870000Y-157790000D02*
X145340000Y-154260000D01*
X145340000Y-154260000D02*
X130320000Y-154260000D01*
X130320000Y-154260000D02*
X129650000Y-153590000D01*
X170470000Y-162140000D02*
X166230000Y-157900000D01*
X129650000Y-153590000D02*
X126440000Y-150380000D01*
X166120000Y-157790000D02*
X148870000Y-157790000D01*
X126420000Y-150360000D02*
X89100000Y-150360000D01*
X166230000Y-157900000D02*
X166120000Y-157790000D01*
%TO.N,col 2*%
X126000000Y-150870000D02*
X93790000Y-150870000D01*
X144450000Y-154940000D02*
X130070000Y-154940000D01*
X148450000Y-158560000D02*
X144830000Y-154940000D01*
X169280000Y-162160000D02*
X165740000Y-158620000D01*
X148510000Y-158620000D02*
X148450000Y-158560000D01*
X93790000Y-150870000D02*
X92730000Y-151930000D01*
X187730000Y-163100000D02*
X170220000Y-163100000D01*
X130070000Y-154940000D02*
X126000000Y-150870000D01*
X165740000Y-158620000D02*
X148510000Y-158620000D01*
X170220000Y-163100000D02*
X169280000Y-162160000D01*
X144830000Y-154940000D02*
X144450000Y-154940000D01*
%TO.N,col 3*%
X169500000Y-163260000D02*
X165480000Y-159240000D01*
X148090000Y-159010000D02*
X144680000Y-155600000D01*
X127500000Y-153470000D02*
X125450000Y-151420000D01*
X144680000Y-155600000D02*
X138690000Y-155600000D01*
X125450000Y-151420000D02*
X123080000Y-151420000D01*
X170250000Y-164010000D02*
X169500000Y-163260000D01*
X114680000Y-151420000D02*
X113670000Y-152430000D01*
X129630000Y-155600000D02*
X127500000Y-153470000D01*
X148320000Y-159240000D02*
X148090000Y-159010000D01*
X162670000Y-159240000D02*
X148320000Y-159240000D01*
X123080000Y-151420000D02*
X114680000Y-151420000D01*
X138690000Y-155600000D02*
X129630000Y-155600000D01*
X165480000Y-159240000D02*
X162670000Y-159240000D01*
X186990000Y-164010000D02*
X170250000Y-164010000D01*
%TO.N,col 4*%
X168970000Y-164530000D02*
X164450000Y-160010000D01*
X144340000Y-156240000D02*
X134710000Y-156240000D01*
X148250000Y-160010000D02*
X148110000Y-160010000D01*
X186260000Y-165180000D02*
X169620000Y-165180000D01*
X148110000Y-160010000D02*
X144340000Y-156240000D01*
X134710000Y-156240000D02*
X134340000Y-156610000D01*
X164450000Y-160010000D02*
X148250000Y-160010000D01*
X169620000Y-165180000D02*
X168970000Y-164530000D01*
%TO.N,col 5*%
X169010000Y-166470000D02*
X163540000Y-161000000D01*
X163350000Y-161000000D02*
X153240000Y-161000000D01*
X169240000Y-166700000D02*
X169010000Y-166470000D01*
X184770000Y-166700000D02*
X169240000Y-166700000D01*
X153240000Y-161000000D02*
X152880000Y-161360000D01*
X163540000Y-161000000D02*
X163350000Y-161000000D01*
%TO.N,col 8*%
X205050000Y-178120000D02*
X205050000Y-190120000D01*
X210910000Y-200360000D02*
X218080000Y-207530000D01*
X210910000Y-198715500D02*
X210910000Y-200360000D01*
X205050000Y-190120000D02*
X205040000Y-190130000D01*
%TO.N,col 9*%
X206440000Y-178000000D02*
X206440000Y-189650000D01*
X233350000Y-204590000D02*
X238730000Y-209970000D01*
X212510000Y-198670000D02*
X219160000Y-205320000D01*
X238730000Y-209970000D02*
X241440000Y-209970000D01*
X206630000Y-189840000D02*
X206630000Y-189950000D01*
X219160000Y-205320000D02*
X219160000Y-206440000D01*
X206540000Y-189750000D02*
X206630000Y-189840000D01*
X206440000Y-189650000D02*
X206540000Y-189750000D01*
%TO.N,col 10*%
X270270000Y-176620000D02*
X285210000Y-176620000D01*
X247380000Y-185100000D02*
X251600000Y-180880000D01*
X207930000Y-177970000D02*
X207930000Y-179920000D01*
X286750000Y-175080000D02*
X287700000Y-175080000D01*
X207930000Y-179920000D02*
X213110000Y-185100000D01*
X213110000Y-185100000D02*
X247380000Y-185100000D01*
X251600000Y-180880000D02*
X266010000Y-180880000D01*
X266010000Y-180880000D02*
X270270000Y-176620000D01*
X285210000Y-176620000D02*
X286750000Y-175080000D01*
%TO.N,col 11*%
X213520000Y-184070000D02*
X247170000Y-184070000D01*
X310010000Y-173710000D02*
X310060000Y-173760000D01*
X285060000Y-175500000D02*
X286850000Y-173710000D01*
X251140000Y-180100000D02*
X265510000Y-180100000D01*
X209130000Y-177890000D02*
X209130000Y-179680000D01*
X310060000Y-173760000D02*
X312090000Y-171730000D01*
X265510000Y-180100000D02*
X270110000Y-175500000D01*
X247170000Y-184070000D02*
X251140000Y-180100000D01*
X312090000Y-171730000D02*
X312090000Y-171670000D01*
X270110000Y-175500000D02*
X285060000Y-175500000D01*
X209130000Y-179680000D02*
X213520000Y-184070000D01*
X286850000Y-173710000D02*
X310010000Y-173710000D01*
%TO.N,col 12*%
X286540000Y-173180000D02*
X309625405Y-173180000D01*
X215680000Y-183350000D02*
X246990000Y-183350000D01*
X246990000Y-183350000D02*
X250930000Y-179410000D01*
X284880000Y-174870000D02*
X284880000Y-174840000D01*
X269940000Y-174870000D02*
X284880000Y-174870000D01*
X284880000Y-174840000D02*
X286540000Y-173180000D01*
X250930000Y-179410000D02*
X265400000Y-179410000D01*
X312395405Y-170410000D02*
X317270000Y-170410000D01*
X210130000Y-177800000D02*
X215680000Y-183350000D01*
X309625405Y-173180000D02*
X312395405Y-170410000D01*
X265400000Y-179410000D02*
X269940000Y-174870000D01*
%TO.N,col 13*%
X250530000Y-178560000D02*
X265150000Y-178560000D01*
X286410000Y-172250000D02*
X309500000Y-172250000D01*
X246490000Y-182600000D02*
X250530000Y-178560000D01*
X284470000Y-174190000D02*
X286410000Y-172250000D01*
X312340000Y-169410000D02*
X344120000Y-169410000D01*
X265150000Y-178560000D02*
X269520000Y-174190000D01*
X309500000Y-172250000D02*
X312340000Y-169410000D01*
X269520000Y-174190000D02*
X284470000Y-174190000D01*
X211077064Y-177480508D02*
X211120508Y-177480508D01*
X211120508Y-177480508D02*
X216240000Y-182600000D01*
X216240000Y-182600000D02*
X246490000Y-182600000D01*
%TO.N,col 14*%
X211868619Y-177128619D02*
X216750000Y-182010000D01*
X265040000Y-177940000D02*
X269370000Y-173610000D01*
X250120000Y-177940000D02*
X265040000Y-177940000D01*
X313500000Y-166990000D02*
X370180000Y-166990000D01*
X283940000Y-173610000D02*
X286160000Y-171390000D01*
X211868619Y-176870225D02*
X211868619Y-177128619D01*
X216750000Y-182010000D02*
X246050000Y-182010000D01*
X269370000Y-173610000D02*
X283940000Y-173610000D01*
X309100000Y-171390000D02*
X313500000Y-166990000D01*
X246050000Y-182010000D02*
X250120000Y-177940000D01*
X286160000Y-171390000D02*
X309100000Y-171390000D01*
%TO.N,col 15*%
X313180000Y-166250000D02*
X363820000Y-166250000D01*
X245540000Y-181370000D02*
X249900000Y-177010000D01*
X308780000Y-170650000D02*
X313180000Y-166250000D01*
X217735717Y-181370000D02*
X245540000Y-181370000D01*
X308780000Y-170660000D02*
X308780000Y-170650000D01*
X269210000Y-172740000D02*
X283910000Y-172740000D01*
X264940000Y-177050000D02*
X269210000Y-172780000D01*
X363820000Y-166250000D02*
X363870000Y-166300000D01*
X212731471Y-176365754D02*
X217735717Y-181370000D01*
X283910000Y-172740000D02*
X285990000Y-170660000D01*
X249900000Y-177010000D02*
X264900000Y-177010000D01*
X363870000Y-166300000D02*
X393540000Y-166300000D01*
X393540000Y-166300000D02*
X393630000Y-166210000D01*
X285990000Y-170660000D02*
X308780000Y-170660000D01*
X264900000Y-177010000D02*
X264940000Y-177050000D01*
X269210000Y-172780000D02*
X269210000Y-172740000D01*
%TO.N,col 16*%
X269070000Y-172020000D02*
X264710000Y-176380000D01*
X283900000Y-171930000D02*
X269070000Y-171930000D01*
X218440000Y-180520000D02*
X213720000Y-175800000D01*
X312720000Y-165840000D02*
X308660000Y-169900000D01*
X264710000Y-176380000D02*
X249700000Y-176380000D01*
X412700000Y-165430000D02*
X392180000Y-165430000D01*
X308660000Y-169900000D02*
X285930000Y-169900000D01*
X285930000Y-169900000D02*
X283900000Y-171930000D01*
X269070000Y-171930000D02*
X269070000Y-172020000D01*
X412710000Y-165420000D02*
X412700000Y-165430000D01*
X392180000Y-165430000D02*
X391770000Y-165840000D01*
X391770000Y-165840000D02*
X312720000Y-165840000D01*
X249700000Y-176380000D02*
X245560000Y-180520000D01*
X245560000Y-180520000D02*
X218440000Y-180520000D01*
%TO.N,col 17*%
X219200000Y-179880000D02*
X214560000Y-175240000D01*
X308230000Y-169210000D02*
X308170000Y-169150000D01*
X412295405Y-164880000D02*
X391600000Y-164880000D01*
X413124595Y-164880000D02*
X412989595Y-164745000D01*
X283790000Y-171130000D02*
X269170000Y-171130000D01*
X412989595Y-164745000D02*
X412430405Y-164745000D01*
X431530000Y-164880000D02*
X413124595Y-164880000D01*
X245350000Y-179880000D02*
X219200000Y-179880000D01*
X391600000Y-164880000D02*
X391300000Y-165180000D01*
X308170000Y-169150000D02*
X285770000Y-169150000D01*
X285770000Y-169150000D02*
X283790000Y-171130000D01*
X412430405Y-164745000D02*
X412295405Y-164880000D01*
X391300000Y-165180000D02*
X312560000Y-165180000D01*
X264560000Y-175740000D02*
X249490000Y-175740000D01*
X431550000Y-164900000D02*
X431530000Y-164880000D01*
X269170000Y-171130000D02*
X264560000Y-175740000D01*
X312560000Y-165180000D02*
X308530000Y-169210000D01*
X308530000Y-169210000D02*
X308230000Y-169210000D01*
X249490000Y-175740000D02*
X245350000Y-179880000D01*
%TO.N,col 18*%
X312210000Y-164610000D02*
X379320000Y-164610000D01*
X379320000Y-164610000D02*
X379370000Y-164660000D01*
X379370000Y-164660000D02*
X391010000Y-164660000D01*
X308260000Y-168540000D02*
X308280000Y-168540000D01*
X249450000Y-175120000D02*
X264300000Y-175120000D01*
X215395001Y-174825001D02*
X219710000Y-179140000D01*
X215395001Y-174690657D02*
X215395001Y-174825001D01*
X283580000Y-170520000D02*
X283660000Y-170520000D01*
X391430000Y-164240000D02*
X391520000Y-164150000D01*
X391520000Y-164150000D02*
X454610000Y-164150000D01*
X285610000Y-168570000D02*
X285640000Y-168540000D01*
X285640000Y-168540000D02*
X308260000Y-168540000D01*
X283660000Y-170520000D02*
X285610000Y-168570000D01*
X391010000Y-164660000D02*
X391430000Y-164240000D01*
X245070000Y-179060000D02*
X249010000Y-175120000D01*
X264400000Y-175120000D02*
X268950000Y-170570000D01*
X308280000Y-168540000D02*
X312210000Y-164610000D01*
X244990000Y-179140000D02*
X245070000Y-179060000D01*
X268950000Y-170570000D02*
X269000000Y-170520000D01*
X219710000Y-179140000D02*
X244990000Y-179140000D01*
X269000000Y-170520000D02*
X283580000Y-170520000D01*
X264300000Y-175120000D02*
X264400000Y-175120000D01*
X249010000Y-175120000D02*
X249450000Y-175120000D01*
%TO.N,col 19*%
X285550000Y-168120000D02*
X307940000Y-168120000D01*
X216400000Y-174770000D02*
X216400000Y-174860000D01*
X248670000Y-174620000D02*
X264250000Y-174620000D01*
X220100000Y-178560000D02*
X244720000Y-178560000D01*
X285480000Y-168190000D02*
X285550000Y-168120000D01*
X452910000Y-163800000D02*
X453980000Y-163800000D01*
X268780000Y-170170000D02*
X271810000Y-170170000D01*
X390660000Y-164230000D02*
X391140000Y-163750000D01*
X283500000Y-170170000D02*
X285480000Y-168190000D01*
X336410000Y-164200000D02*
X336440000Y-164230000D01*
X461440000Y-164600000D02*
X461550000Y-164710000D01*
X307940000Y-168120000D02*
X308170000Y-168120000D01*
X248590000Y-174700000D02*
X248670000Y-174620000D01*
X244730000Y-178560000D02*
X248590000Y-174700000D01*
X268730000Y-170220000D02*
X268780000Y-170170000D01*
X264330000Y-174620000D02*
X268730000Y-170220000D01*
X220050000Y-178510000D02*
X220100000Y-178560000D01*
X271810000Y-170170000D02*
X283500000Y-170170000D01*
X308170000Y-168120000D02*
X312090000Y-164200000D01*
X336440000Y-164230000D02*
X390660000Y-164230000D01*
X454430000Y-163350000D02*
X460190000Y-163350000D01*
X264250000Y-174620000D02*
X264330000Y-174620000D01*
X461550000Y-164710000D02*
X475500000Y-164710000D01*
X216400000Y-174860000D02*
X220050000Y-178510000D01*
X453980000Y-163800000D02*
X454430000Y-163350000D01*
X391140000Y-163750000D02*
X391190000Y-163800000D01*
X391190000Y-163800000D02*
X452910000Y-163800000D01*
X460190000Y-163350000D02*
X461440000Y-164600000D01*
X312090000Y-164200000D02*
X336410000Y-164200000D01*
X244720000Y-178560000D02*
X244730000Y-178560000D01*
%TO.N,col 20*%
X217291713Y-174318500D02*
X220793213Y-177820000D01*
X459850000Y-162980000D02*
X460520000Y-162980000D01*
X244700000Y-177820000D02*
X248530000Y-173990000D01*
X396510000Y-163450000D02*
X453550000Y-163450000D01*
X396460000Y-163400000D02*
X396510000Y-163450000D01*
X453550000Y-163450000D02*
X453910000Y-163090000D01*
X220793213Y-177820000D02*
X244250000Y-177820000D01*
X389270000Y-163880000D02*
X389750000Y-163400000D01*
X285260000Y-167660000D02*
X285260000Y-167500000D01*
X461900000Y-164360000D02*
X474230000Y-164360000D01*
X479720000Y-165520000D02*
X494420000Y-165520000D01*
X263790000Y-174050000D02*
X264330000Y-174050000D01*
X248530000Y-173990000D02*
X263730000Y-173990000D01*
X454020000Y-162980000D02*
X459850000Y-162980000D01*
X479260000Y-165060000D02*
X479720000Y-165520000D01*
X283080000Y-169640000D02*
X283180000Y-169740000D01*
X474240000Y-164360000D02*
X474930000Y-163670000D01*
X268740000Y-169640000D02*
X283080000Y-169640000D01*
X283180000Y-169740000D02*
X285260000Y-167660000D01*
X311710000Y-163850000D02*
X389240000Y-163850000D01*
X474230000Y-164360000D02*
X474240000Y-164360000D01*
X389240000Y-163850000D02*
X389270000Y-163880000D01*
X389750000Y-163400000D02*
X396460000Y-163400000D01*
X307530000Y-167580000D02*
X307980000Y-167580000D01*
X263730000Y-173990000D02*
X263790000Y-174050000D01*
X477870000Y-163670000D02*
X479260000Y-165060000D01*
X264330000Y-174050000D02*
X268740000Y-169640000D01*
X244250000Y-177820000D02*
X244700000Y-177820000D01*
X460520000Y-162980000D02*
X461770000Y-164230000D01*
X307980000Y-167580000D02*
X311650000Y-163910000D01*
X307450000Y-167500000D02*
X307530000Y-167580000D01*
X453910000Y-163090000D02*
X454020000Y-162980000D01*
X311650000Y-163910000D02*
X311710000Y-163850000D01*
X285260000Y-167500000D02*
X307450000Y-167500000D01*
X461770000Y-164230000D02*
X461900000Y-164360000D01*
X474930000Y-163670000D02*
X477870000Y-163670000D01*
%TO.N,col 21*%
X364520000Y-157040000D02*
X366370000Y-158890000D01*
X332380000Y-156960000D02*
X334260000Y-158840000D01*
X486800000Y-158760000D02*
X497320000Y-158760000D01*
X272820000Y-163840000D02*
X274660000Y-163840000D01*
X506440000Y-158920000D02*
X512960000Y-158920000D01*
X216810000Y-172100000D02*
X217530000Y-171380000D01*
X334260000Y-158840000D02*
X349520000Y-158840000D01*
X325620000Y-158350000D02*
X327010000Y-156960000D01*
X466590000Y-157150000D02*
X467960000Y-158520000D01*
X351320000Y-157040000D02*
X364520000Y-157040000D01*
X456660000Y-158890000D02*
X458400000Y-157150000D01*
X313750000Y-157120000D02*
X314980000Y-158350000D01*
X480380000Y-157050000D02*
X485090000Y-157050000D01*
X271990000Y-163010000D02*
X272820000Y-163840000D01*
X258860000Y-167580000D02*
X263220000Y-163220000D01*
X263220000Y-163010000D02*
X271990000Y-163010000D01*
X308320000Y-157120000D02*
X313750000Y-157120000D01*
X306630000Y-158810000D02*
X308320000Y-157120000D01*
X217530000Y-171380000D02*
X237760000Y-171380000D01*
X327010000Y-156960000D02*
X332380000Y-156960000D01*
X366370000Y-158890000D02*
X456660000Y-158890000D01*
X497320000Y-158760000D02*
X498790000Y-157290000D01*
X485090000Y-157050000D02*
X486800000Y-158760000D01*
X314980000Y-158350000D02*
X325620000Y-158350000D01*
X478910000Y-158520000D02*
X480380000Y-157050000D01*
X349520000Y-158840000D02*
X351320000Y-157040000D01*
X241860000Y-167280000D02*
X258560000Y-167280000D01*
X258560000Y-167280000D02*
X258860000Y-167580000D01*
X467960000Y-158520000D02*
X478910000Y-158520000D01*
X498790000Y-157290000D02*
X504810000Y-157290000D01*
X458400000Y-157150000D02*
X466590000Y-157150000D01*
X504810000Y-157290000D02*
X506440000Y-158920000D01*
X274660000Y-163840000D02*
X279690000Y-158810000D01*
X279690000Y-158810000D02*
X306630000Y-158810000D01*
X263220000Y-163220000D02*
X263220000Y-163010000D01*
X237760000Y-171380000D02*
X241860000Y-167280000D01*
%TO.N,Net-(R1-Pad1)*%
X216251394Y-170270000D02*
X220050000Y-170270000D01*
X215910337Y-169928943D02*
X216251394Y-170270000D01*
D13*
%TO.N,row 0*%
X143030952Y-98447789D02*
X147013333Y-102430170D01*
X81542568Y-98282499D02*
X81638022Y-98187045D01*
X81638022Y-98187045D02*
X128145055Y-98187045D01*
X378528750Y-95873653D02*
X359478750Y-95873653D01*
X128145055Y-98187045D02*
X128405799Y-98447789D01*
X250527122Y-101221236D02*
X246566404Y-105181954D01*
X246563353Y-105169641D02*
X231890359Y-105169641D01*
X161686330Y-102430170D02*
X165647046Y-106390886D01*
X283833828Y-97260519D02*
X269160833Y-97260519D01*
X426153750Y-95873653D02*
X407103750Y-95873653D01*
X185489689Y-109142672D02*
X184280756Y-110351605D01*
X265200116Y-101221236D02*
X250527122Y-101221236D01*
X231890359Y-105169641D02*
X227929641Y-109130359D01*
X180320037Y-106390886D02*
X184280756Y-110351605D01*
X445203750Y-95873653D02*
X426153750Y-95873653D01*
X285220694Y-95873653D02*
X283833828Y-97260519D01*
X147013333Y-102430170D02*
X161686330Y-102430170D01*
X269160833Y-97260519D02*
X265200116Y-101221236D01*
X340428750Y-95873653D02*
X321378750Y-95873653D01*
X227932692Y-109142672D02*
X185489689Y-109142672D01*
X165647046Y-106390886D02*
X180320037Y-106390886D01*
X407103750Y-95873653D02*
X378528750Y-95873653D01*
X359478750Y-95873653D02*
X340428750Y-95873653D01*
X321378750Y-95873653D02*
X285220694Y-95873653D01*
X128405799Y-98447789D02*
X143030952Y-98447789D01*
%TO.N,row 1*%
X200841222Y-133210000D02*
X197148181Y-136903041D01*
X230439138Y-133210000D02*
X200841222Y-133210000D01*
X526160000Y-118378750D02*
X507210000Y-118378750D01*
X141247046Y-125020889D02*
X155920040Y-125020889D01*
X330903750Y-118278750D02*
X311853750Y-118278750D01*
X311853750Y-118278750D02*
X289389370Y-118278750D01*
X273819114Y-119176011D02*
X269858397Y-123136728D01*
X488060000Y-118378750D02*
X469010000Y-118378750D01*
X445303750Y-118378750D02*
X445203750Y-118278750D01*
X232590974Y-131058164D02*
X230439138Y-133210000D01*
X193187464Y-132942324D02*
X197148181Y-136903041D01*
X255185404Y-123136728D02*
X251224686Y-127097446D01*
X135772406Y-119546249D02*
X141247046Y-125020889D01*
X445203750Y-118278750D02*
X426153750Y-118278750D01*
X288492109Y-119176011D02*
X273819114Y-119176011D01*
X289389370Y-118278750D02*
X288492109Y-119176011D01*
X507210000Y-118378750D02*
X488060000Y-118378750D01*
X102973818Y-119546249D02*
X119642568Y-119546249D01*
X174553749Y-128981605D02*
X178514468Y-132942324D01*
X469010000Y-118378750D02*
X445303750Y-118378750D01*
X100592568Y-121927499D02*
X102973818Y-119546249D01*
X251224686Y-127097446D02*
X236551692Y-127097446D01*
X178514468Y-132942324D02*
X193187464Y-132942324D01*
X407103750Y-118278750D02*
X359478750Y-118278750D01*
X426153750Y-118278750D02*
X407103750Y-118278750D01*
X236551692Y-127097446D02*
X232590974Y-131058164D01*
X119642568Y-119546249D02*
X135772406Y-119546249D01*
X81542568Y-121927499D02*
X100592568Y-121927499D01*
X269858397Y-123136728D02*
X255185404Y-123136728D01*
X159880756Y-128981605D02*
X174553749Y-128981605D01*
X359478750Y-118278750D02*
X330903750Y-118278750D01*
X155920040Y-125020889D02*
X159880756Y-128981605D01*
%TO.N,row 2*%
X407103750Y-137328750D02*
X426153750Y-137328750D01*
X249829265Y-143750799D02*
X245868547Y-147711517D01*
X227234836Y-151672234D02*
X225361753Y-153545317D01*
X160774555Y-145623885D02*
X164735272Y-149584602D01*
X264502259Y-143750799D02*
X249829265Y-143750799D01*
X225361753Y-153545317D02*
X183368984Y-153545317D01*
X307091250Y-137328750D02*
X285597302Y-137328750D01*
X142140838Y-141663163D02*
X146101560Y-145623885D01*
X179408269Y-149584602D02*
X183368984Y-153545317D01*
X426153750Y-137328750D02*
X445203750Y-137328750D01*
X488060000Y-137428750D02*
X469010000Y-137428750D01*
X445303750Y-137428750D02*
X445203750Y-137328750D01*
X80752569Y-140977499D02*
X104561319Y-140977499D01*
X369003750Y-137328750D02*
X345191250Y-137328750D01*
X369003750Y-137328750D02*
X407103750Y-137328750D01*
X507110000Y-137428750D02*
X488060000Y-137428750D01*
X283135971Y-139790081D02*
X268462977Y-139790081D01*
X326141250Y-137328750D02*
X345191250Y-137328750D01*
X285597302Y-137328750D02*
X283135971Y-139790081D01*
X127467849Y-141663163D02*
X142140838Y-141663163D01*
X231195553Y-147711517D02*
X227234836Y-151672234D01*
X524350000Y-137270000D02*
X507268750Y-137270000D01*
X245868547Y-147711517D02*
X231195553Y-147711517D01*
X164735272Y-149584602D02*
X179408269Y-149584602D01*
X469010000Y-137428750D02*
X445303750Y-137428750D01*
X80748819Y-140981249D02*
X80752569Y-140977499D01*
X104561319Y-140977499D02*
X126782185Y-140977499D01*
X526160000Y-139080000D02*
X524350000Y-137270000D01*
X526160000Y-146953750D02*
X526160000Y-139080000D01*
X146101560Y-145623885D02*
X160774555Y-145623885D01*
X307091250Y-137328750D02*
X326141250Y-137328750D01*
X126782185Y-140977499D02*
X127467849Y-141663163D01*
X268462977Y-139790081D02*
X264502259Y-143750799D01*
X507268750Y-137270000D02*
X507110000Y-137428750D01*
%TO.N,row 3*%
X235853981Y-169315767D02*
X223904233Y-169315767D01*
X277082122Y-157433614D02*
X273121405Y-161394331D01*
X78367569Y-160027499D02*
X104561319Y-160027499D01*
X143482606Y-161389637D02*
X147443324Y-165350355D01*
X166077036Y-169311075D02*
X180750033Y-169311075D01*
X468910000Y-156378750D02*
X469010000Y-156478750D01*
X220958466Y-166370000D02*
X191612544Y-166370000D01*
X273121405Y-161394331D02*
X273085736Y-161430000D01*
X180750033Y-169311075D02*
X184710751Y-173271793D01*
X104561319Y-160027499D02*
X127447475Y-160027499D01*
X273085736Y-161430000D02*
X258412742Y-161430000D01*
X127447475Y-160027499D02*
X128809613Y-161389637D01*
X292809981Y-156378750D02*
X291755117Y-157433614D01*
X239814699Y-165355049D02*
X235853981Y-169315767D01*
X366622500Y-156378750D02*
X468910000Y-156378750D01*
X147443324Y-165350355D02*
X162116316Y-165350355D01*
X366622500Y-156378750D02*
X335666250Y-156378750D01*
X258412742Y-161430000D02*
X254487693Y-165355049D01*
X223904233Y-169315767D02*
X220958466Y-166370000D01*
X128809613Y-161389637D02*
X143482606Y-161389637D01*
X291755117Y-157433614D02*
X277082122Y-157433614D01*
X162116316Y-165350355D02*
X166077036Y-169311075D01*
X191612544Y-166370000D02*
X184710751Y-173271793D01*
X488060000Y-156478750D02*
X469010000Y-156478750D01*
X254487693Y-165355049D02*
X239814699Y-165355049D01*
X507110000Y-156478750D02*
X488060000Y-156478750D01*
X335666250Y-156378750D02*
X316616250Y-156378750D01*
X316616250Y-156378750D02*
X292809981Y-156378750D01*
%TO.N,row 5*%
X380910000Y-194478750D02*
X357097500Y-194478750D01*
D14*
X198920000Y-209610000D02*
X199444449Y-210134449D01*
D13*
X129406343Y-198127499D02*
X132505501Y-201226657D01*
X137648844Y-206370000D02*
X163326584Y-206370000D01*
X327661505Y-195730000D02*
X332033750Y-195730000D01*
X222770163Y-189929837D02*
X230497843Y-189929837D01*
X221040000Y-191660000D02*
X222770163Y-189929837D01*
X71223819Y-198127499D02*
X95036319Y-198127499D01*
X289606250Y-195593750D02*
X327525255Y-195593750D01*
X426153750Y-194578750D02*
X445203750Y-194578750D01*
X288038304Y-197152915D02*
X262348304Y-197152915D01*
X327525255Y-195593750D02*
X327661505Y-195730000D01*
X262348304Y-197152915D02*
X254898388Y-204602831D01*
X221040000Y-206442203D02*
X221040000Y-191660000D01*
X288610000Y-196581219D02*
X288618781Y-196581219D01*
X225141705Y-210543908D02*
X221040000Y-206442203D01*
X95036319Y-198127499D02*
X129406343Y-198127499D01*
X484050000Y-189100000D02*
X501631250Y-189100000D01*
X169356584Y-212400000D02*
X165114496Y-208157912D01*
X501631250Y-189100000D02*
X507110000Y-194578750D01*
X132505501Y-201226657D02*
X137648844Y-206370000D01*
X234279837Y-189929837D02*
X230497843Y-189929837D01*
X478535000Y-194578750D02*
X478571250Y-194578750D01*
X193200199Y-212400000D02*
X169356584Y-212400000D01*
D14*
X199444449Y-210134449D02*
X199444449Y-210543908D01*
D13*
X445203750Y-194578750D02*
X450832500Y-188950000D01*
X163326584Y-206370000D02*
X165114496Y-208157912D01*
X478571250Y-194578750D02*
X484050000Y-189100000D01*
X333285000Y-194478750D02*
X357097500Y-194478750D01*
X450832500Y-188950000D02*
X472906250Y-188950000D01*
X225141705Y-210543908D02*
X199444449Y-210543908D01*
X380910000Y-194478750D02*
X407003750Y-194478750D01*
X407103750Y-194578750D02*
X426153750Y-194578750D01*
X407003750Y-194478750D02*
X407103750Y-194578750D01*
X288618781Y-196581219D02*
X289606250Y-195593750D01*
X472906250Y-188950000D02*
X478535000Y-194578750D01*
X288038304Y-197152915D02*
X288610000Y-196581219D01*
X199444449Y-210543908D02*
X195394278Y-214594079D01*
X248952831Y-204602831D02*
X234279837Y-189929837D01*
X332033750Y-195730000D02*
X333285000Y-194478750D01*
X195394278Y-214594079D02*
X193200199Y-212400000D01*
X254898388Y-204602831D02*
X248952831Y-204602831D01*
%TO.N,row 4*%
X186077426Y-190019294D02*
X190038139Y-193980007D01*
X526160000Y-177630000D02*
X524058750Y-175528750D01*
X253092273Y-182008402D02*
X249131555Y-185969120D01*
X271725984Y-178047684D02*
X267765266Y-182008402D01*
X286398977Y-178047684D02*
X271725984Y-178047684D01*
D14*
X185330000Y-189180000D02*
X186077426Y-189927426D01*
D13*
X210000000Y-191040000D02*
X215070880Y-185969120D01*
X311853750Y-175428750D02*
X289017911Y-175428750D01*
X330903750Y-175428750D02*
X311853750Y-175428750D01*
X152770712Y-186058573D02*
X167443706Y-186058573D01*
X366622500Y-175428750D02*
X330903750Y-175428750D01*
X171404427Y-190019294D02*
X186077426Y-190019294D01*
X167443706Y-186058573D02*
X171404427Y-190019294D01*
X524058750Y-175528750D02*
X507110000Y-175528750D01*
X215070880Y-185969120D02*
X249131555Y-185969120D01*
X507110000Y-175528750D02*
X488060000Y-175528750D01*
X426153750Y-175528750D02*
X469010000Y-175528750D01*
X190038139Y-193980007D02*
X190038139Y-193851861D01*
X426153750Y-175528750D02*
X366722500Y-175528750D01*
X469010000Y-175528750D02*
X488060000Y-175528750D01*
D14*
X186077426Y-189927426D02*
X186077426Y-190019294D01*
D13*
X289017911Y-175428750D02*
X286398977Y-178047684D01*
X80748819Y-179077499D02*
X111705069Y-179077499D01*
X192850000Y-191040000D02*
X210000000Y-191040000D01*
X190038139Y-193851861D02*
X192850000Y-191040000D01*
X111705069Y-179077499D02*
X131116650Y-179077499D01*
X134137006Y-182097855D02*
X148809994Y-182097855D01*
X526160000Y-185053750D02*
X526160000Y-177630000D01*
X148809994Y-182097855D02*
X152770712Y-186058573D01*
X267765266Y-182008402D02*
X253092273Y-182008402D01*
X131116650Y-179077499D02*
X134137006Y-182097855D01*
X366722500Y-175528750D02*
X366622500Y-175428750D01*
%TD*%
M02*
