0
SECTION
2
HEADER
9
$INSUNITS
70
1
9
$ACADVER
1
AC1014
9
$HANDSEED
5
FFFF
0
ENDSEC
0
SECTION
2
TABLES
0
TABLE
2
VPORT
5
8
100
AcDbSymbolTable
0
ENDTAB
0
TABLE
2
LTYPE
5
5
100
AcDbSymbolTable
0
LTYPE
5
14
100
AcDbSymbolTableRecord
100
AcDbLinetypeTableRecord
2
BYBLOCK
70
0
0
LTYPE
5
15
100
AcDbSymbolTableRecord
100
AcDbLinetypeTableRecord
2
BYLAYER
70
0
0
ENDTAB
0
TABLE
2
LAYER
5
2
100
AcDbSymbolTable
70
2
0
LAYER
5
50
100
AcDbSymbolTableRecord
100
AcDbLayerTableRecord
2
0
70
0
6
CONTINUOUS
0
ENDTAB
0
TABLE
2
STYLE
5
3
100
AcDbSymbolTable
70
1
0
STYLE
5
11
100
AcDbSymbolTableRecord
100
AcDbTextStyleTableRecord
2
STANDARD
70
0
0
ENDTAB
0
TABLE
2
VIEW
5
6
100
AcDbSymbolTable
70
0
0
ENDTAB
0
TABLE
2
UCS
5
7
100
AcDbSymbolTable
70
0
0
ENDTAB
0
TABLE
2
APPID
5
9
100
AcDbSymbolTable
70
2
0
APPID
5
12
100
AcDbSymbolTableRecord
100
AcDbRegAppTableRecord
2
ACAD
70
0
0
ENDTAB
0
TABLE
2
DIMSTYLE
5
A
100
AcDbSymbolTable
70
1
0
ENDTAB
0
TABLE
2
BLOCK_RECORD
5
1
100
AcDbSymbolTable
70
1
0
BLOCK_RECORD
5
1F
100
AcDbSymbolTableRecord
100
AcDbBlockTableRecord
2
*MODEL_SPACE
0
BLOCK_RECORD
5
1B
100
AcDbSymbolTableRecord
100
AcDbBlockTableRecord
2
*PAPER_SPACE
0
ENDTAB
0
ENDSEC
0
SECTION
2
BLOCKS
0
BLOCK
5
20
100
AcDbEntity
100
AcDbBlockBegin
2
*MODEL_SPACE
0
ENDBLK
5
21
100
AcDbEntity
100
AcDbBlockEnd
0
BLOCK
5
1C
100
AcDbEntity
100
AcDbBlockBegin
2
*PAPER_SPACE
0
ENDBLK
5
1D
100
AcDbEntity
100
AcDbBlockEnd
0
ENDSEC
0
SECTION
2
ENTITIES
0
LINE
5
100
100
AcDbEntity
8
0
100
AcDbLine
10
1.9703379322713459
20
-4.872122697739333
30
1.6534131771140084e-16
11
2.5203379322713451
21
-4.872122697739333
31
1.6534131771140084e-16
0
LWPOLYLINE
5
101
100
AcDbEntity
8
0
100
AcDbPolyline
90
4
70
1
43
0.0
10
12.943959979515441
20
-2.1464140363220068
10
12.943959979515441
20
-1.5964022252983829
10
13.493959979515438
20
-1.5964022252983823
10
13.493959979515438
20
-2.1464140363220059
0
LWPOLYLINE
5
102
100
AcDbEntity
8
0
100
AcDbPolyline
90
4
70
1
43
0.0
10
4.3759678535311846
20
-2.6675951386842143
10
4.9139206094366985
20
-2.7819652174243723
10
4.799589900775282
20
-3.3199179733298836
10
4.2615977747910323
20
-3.2055872646684671
0
LWPOLYLINE
5
103
100
AcDbEntity
8
0
100
AcDbPolyline
90
4
70
1
43
0.0
10
2.0015977747910294
20
-1.6912368709676815
10
2.5515977747910288
20
-1.6912368709676815
10
2.5515977747910288
20
-2.2412171859283099
10
2.0015977747910294
20
-2.2412171859283099
0
LINE
5
104
100
AcDbEntity
8
0
100
AcDbLine
10
2.5203379322713451
20
-5.4221226977393329
30
9.7985743758296443e-17
11
1.9703379322713459
21
-5.4221226977393329
31
9.7985743758296443e-17
0
LWPOLYLINE
5
105
100
AcDbEntity
8
0
100
AcDbPolyline
90
4
70
1
43
0.0
10
18.00620407400363
20
-3.9824376583692467
10
18.556219822035125
20
-3.9824376583692467
10
18.556219822035125
20
-4.5324376583692478
10
18.00620407400363
20
-4.5324376583692478
0
LWPOLYLINE
5
106
100
AcDbEntity
8
0
100
AcDbPolyline
90
4
70
1
43
0.0
10
3.5015977747910272
20
-2.5283825402590172
10
4.0515977747910297
20
-2.5283825402590172
10
4.0515977747910297
20
-3.0783825402590166
10
3.5015977747910272
20
-3.0783825402590166
0
LWPOLYLINE
5
107
100
AcDbEntity
8
0
100
AcDbPolyline
90
4
70
1
43
0.0
10
5.1409678535311851
20
-1.8925557686054733
10
5.0265977747910275
20
-2.4305478945897261
10
4.4886056488067743
20
-2.3161778158495694
10
4.6029757275469354
20
-1.7782014378968134
0
LWPOLYLINE
5
108
100
AcDbEntity
8
0
100
AcDbPolyline
90
4
70
1
43
0.0
10
2.9078576173107198
20
-4.1221226977393339
10
3.4578576173107165
20
-4.1221226977393339
10
3.4578576173107165
20
-4.6721226977393338
10
2.9078576173107198
20
-4.6721226977393338
0
LWPOLYLINE
5
109
100
AcDbEntity
8
0
100
AcDbPolyline
90
4
70
1
43
0.0
10
18.760156829909139
20
-2.4824376583692458
10
19.31015682990914
20
-2.4824376583692458
10
19.31015682990914
20
-3.0324376583692465
10
18.760156829909139
20
-3.0324376583692465
0
LWPOLYLINE
5
110
100
AcDbEntity
8
0
100
AcDbPolyline
90
4
70
1
43
0.0
10
8.5109284834524495
20
-5.8026345087629529
10
7.9729363574681962
20
-5.9170045875031096
10
7.8585662787280377
20
-5.3790124615188573
10
8.396558404712291
20
-5.2646423827787006
0
LWPOLYLINE
5
111
100
AcDbEntity
8
0
100
AcDbPolyline
90
4
70
1
43
0.0
10
7.844471790539064
20
-4.4107841150621647
10
7.7301017117989055
20
-3.8727919890779119
10
8.2680938377831588
20
-3.7584612804164954
10
8.3824639165233172
20
-4.296414036322008
0
LWPOLYLINE
5
112
100
AcDbEntity
8
0
100
AcDbPolyline
90
4
70
1
43
0.0
10
18.181204074003627
20
-5.4824376583692471
10
18.181204074003627
20
-6.0324376583692469
10
17.63120407400363
20
-6.0324376583692469
10
17.63120407400363
20
-5.4824376583692471
0
LWPOLYLINE
5
113
100
AcDbEntity
8
0
100
AcDbPolyline
90
4
70
1
43
0.0
10
2.0015977747910321
20
-3.1721226977393329
10
2.0015977747910294
20
-2.6221226977393335
10
2.5515977747910288
20
-2.6221226977393335
10
2.5515977747910314
20
-3.1721226977393329
0
LWPOLYLINE
5
114
100
AcDbEntity
8
0
100
AcDbPolyline
90
4
70
1
43
0.0
10
19.306219822035125
20
-4.7324376583692489
10
19.306219822035125
20
-5.2824376583692478
10
18.756219822035124
20
-5.2824376583692478
10
18.756219822035124
20
-4.7324376583692489
0
LWPOLYLINE
5
115
100
AcDbEntity
8
0
100
AcDbPolyline
90
4
70
1
43
0.0
10
17.25620407400363
20
-4.5324376583692478
10
17.25620407400363
20
-3.9824376583692467
10
17.806204074003627
20
-3.9824376583692467
10
17.806204074003627
20
-4.5324376583692478
0
LWPOLYLINE
5
116
100
AcDbEntity
8
0
100
AcDbPolyline
90
4
70
1
43
0.0
10
18.00620407400363
20
-3.2324376583692462
10
18.556219822035125
20
-3.2324376583692462
10
18.556219822035125
20
-3.7824376583692469
10
18.00620407400363
20
-3.7824376583692469
0
LWPOLYLINE
5
117
100
AcDbEntity
8
0
100
AcDbPolyline
90
4
70
1
43
0.0
10
11.806479664554811
20
-4.5285006504952365
10
11.256479664554808
20
-4.5285006504952365
10
11.256479664554808
20
-3.9785006504952358
10
11.806479664554811
20
-3.9785006504952358
0
LWPOLYLINE
5
118
100
AcDbEntity
8
0
100
AcDbPolyline
90
4
70
1
43
0.0
10
11.61895997951544
20
-5.2785006504952374
10
11.068959979515441
20
-5.2785006504952374
10
11.068959979515441
20
-4.7285006504952349
10
11.61895997951544
20
-4.7285006504952349
0
LWPOLYLINE
5
119
100
AcDbEntity
8
0
100
AcDbPolyline
90
4
70
1
43
0.0
10
16.118959979515438
20
-2.1464140363220054
10
15.568959979515439
20
-2.1464140363220059
10
15.568959979515439
20
-1.5964022252983823
10
16.118959979515438
20
-1.5964022252983814
0
LWPOLYLINE
5
120
100
AcDbEntity
8
0
100
AcDbPolyline
90
4
70
1
43
0.0
10
4.4083694283343329
20
-1.7357683670306725
10
4.2940387196729191
20
-2.2737368709676793
10
3.7560465936886667
20
-2.1594061623062624
10
3.8703773023500805
20
-1.621417973329885
0
LWPOLYLINE
5
121
100
AcDbEntity
8
0
100
AcDbPolyline
90
4
70
1
43
0.0
10
3.3015977747910292
20
-2.6221226977393335
10
3.3015977747910319
20
-3.1721226977393329
10
2.7515977747910298
20
-3.1721226977393329
10
2.7515977747910267
20
-2.6221226977393335
0
LWPOLYLINE
5
122
100
AcDbEntity
8
0
100
AcDbPolyline
90
4
70
1
43
0.0
10
6.4624245464445735
20
-3.6733825402590159
10
6.5767946251847302
20
-3.1353904142747648
10
7.1147867511689844
20
-3.2497604930149215
10
7.0004166724288268
20
-3.7877526189991713
0
LWPOLYLINE
5
123
100
AcDbEntity
8
0
100
AcDbPolyline
90
4
70
1
43
0.0
10
19.306219822035125
20
-3.7824376583692469
10
18.756219822035124
20
-3.7824376583692469
10
18.756219822035124
20
-3.2324376583692462
10
19.306219822035125
20
-3.2324376583692462
0
LWPOLYLINE
5
124
100
AcDbEntity
8
0
100
AcDbPolyline
90
4
70
1
43
0.0
10
9.9781332078618981
20
-5.4907841150621648
10
9.4401410818776448
20
-5.6051148237235822
10
9.3258103732162283
20
-5.0671226977393307
10
9.8637631291217396
20
-4.9527919890779106
0
LWPOLYLINE
5
125
100
AcDbEntity
8
0
100
AcDbPolyline
90
4
70
1
43
0.0
10
9.7352985621926074
20
-3.4465715166369675
10
9.8496686409327623
20
-3.9845636426212199
10
9.3116765149485108
20
-4.0989337213613766
10
9.1973458062870925
20
-3.5609415953771255
0
LWPOLYLINE
5
126
100
AcDbEntity
8
0
100
AcDbPolyline
90
4
70
1
43
0.0
10
5.4489206094366995
20
-5.764563642621221
10
5.5632513180981187
20
-5.2266108867157088
10
6.101243444082372
20
-5.3409415953771271
10
5.9868733653422108
20
-5.8789337213613795
0
LWPOLYLINE
5
127
100
AcDbEntity
8
0
100
AcDbPolyline
90
4
70
1
43
0.0
10
2.9078576173107198
20
-3.9221226977393333
10
2.9078576173107185
20
-3.3721226977393339
10
3.4578576173107152
20
-3.3721226977393339
10
3.4578576173107165
20
-3.9221226977393333
0
LWPOLYLINE
5
128
100
AcDbEntity
8
0
100
AcDbPolyline
90
4
70
1
43
0.0
10
17.25620407400363
20
-4.7324376583692489
10
17.806204074003627
20
-4.7324376583692489
10
17.806204074003627
20
-5.2824376583692478
10
17.25620407400363
20
-5.2824376583692478
0
LWPOLYLINE
5
129
100
AcDbEntity
8
0
100
AcDbPolyline
90
4
70
1
43
0.0
10
3.1890780897516597
20
-4.872122697739333
10
3.7390780897516618
20
-4.872122697739333
10
3.7390780897516618
20
-5.4221226977393329
10
3.1890780897516597
20
-5.4221226977393329
0
LWPOLYLINE
5
130
100
AcDbEntity
8
0
100
AcDbPolyline
90
4
70
1
43
0.0
10
16.118959979515438
20
-3.028500650495233
10
15.568959979515439
20
-3.028500650495233
10
15.568959979515439
20
-2.4785006504952336
10
16.118959979515438
20
-2.4785006504952336
0
LWPOLYLINE
5
131
100
AcDbEntity
8
0
100
AcDbPolyline
90
4
70
1
43
0.0
10
17.806204074003627
20
-2.4824376583692458
10
17.806204074003627
20
-3.0324376583692465
10
17.25620407400363
20
-3.0324376583692465
10
17.25620407400363
20
-2.4824376583692458
0
LWPOLYLINE
5
132
100
AcDbEntity
8
0
100
AcDbPolyline
90
4
70
1
43
0.0
10
2.5328576173107167
20
-6.1721226977393329
10
2.5328576173107167
20
-5.6221226977393339
10
3.0828576173107192
20
-5.6221226977393339
10
3.0828576173107192
20
-6.1721226977393329
0
LWPOLYLINE
5
133
100
AcDbEntity
8
0
100
AcDbPolyline
90
4
70
1
43
0.0
10
4.633999349594184
20
-5.0290912016763416
10
4.5196686409327649
20
-5.5670439575818511
10
3.981676514948512
20
-5.4527132489204346
10
4.0960465936886701
20
-4.914721122936184
0
LWPOLYLINE
5
134
100
AcDbEntity
8
0
100
AcDbPolyline
90
4
70
1
43
0.0
10
13.868959979515438
20
-3.228500650495234
10
13.868959979515438
20
-3.7785006504952334
10
13.318959979515441
20
-3.7785006504952334
10
13.318959979515441
20
-3.228500650495234
0
LWPOLYLINE
5
135
100
AcDbEntity
8
0
100
AcDbPolyline
90
4
70
1
43
0.0
10
14.243959979515438
20
-2.1464140363220059
10
13.693959979515441
20
-2.1464140363220059
10
13.693959979515441
20
-1.5964022252983823
10
14.243959979515438
20
-1.5964022252983823
0
LWPOLYLINE
5
136
100
AcDbEntity
8
0
100
AcDbPolyline
90
4
70
1
43
0.0
10
6.9313615543185891
20
-6.8464534064007481
10
6.3933694283343367
20
-6.7320833276605914
10
6.507739507074497
20
-6.1940912016763399
10
7.0457316330587503
20
-6.3084612804164948
0
LWPOLYLINE
5
137
100
AcDbEntity
8
0
100
AcDbPolyline
90
4
70
1
43
0.0
10
10.808251318098119
20
-3.9852723040385438
10
10.922621396838275
20
-4.5232644300227935
10
10.384629270854024
20
-4.6375951386842118
10
10.270298562192608
20
-4.0996423827787005
0
LWPOLYLINE
5
138
100
AcDbEntity
8
0
100
AcDbPolyline
90
4
70
1
43
0.0
10
18.00620407400363
20
-5.2824376583692478
10
18.00620407400363
20
-4.7324376583692489
10
18.556219822035125
20
-4.7324376583692489
10
18.556219822035125
20
-5.2824376583692478
0
LWPOLYLINE
5
139
100
AcDbEntity
8
0
100
AcDbPolyline
90
4
70
1
43
0.0
10
9.4553773023500884
20
-4.8351148237235817
10
8.9174245464445736
20
-4.9494849024637402
10
8.8030544677044169
20
-4.4114927764794869
10
9.3410465936886684
20
-4.2971620678180695
0
LWPOLYLINE
5
140
100
AcDbEntity
8
0
100
AcDbPolyline
90
4
70
1
43
0.0
10
15.368959979515438
20
-2.4785006504952336
10
15.368959979515438
20
-3.028500650495233
10
14.818959979515439
20
-3.028500650495233
10
14.818959979515439
20
-2.4785006504952336
0
LWPOLYLINE
5
141
100
AcDbEntity
8
0
100
AcDbPolyline
90
4
70
1
43
0.0
10
19.306219822035125
20
-4.5324376583692478
10
18.756219822035124
20
-4.5324376583692478
10
18.756219822035124
20
-3.9824376583692467
10
19.306219822035125
20
-3.9824376583692467
0
LWPOLYLINE
5
142
100
AcDbEntity
8
0
100
AcDbPolyline
90
4
70
1
43
0.0
10
6.4579363574681983
20
-4.4429494693928735
10
5.919944231483945
20
-4.3285793906527168
10
6.0343143102241008
20
-3.7906266347472046
10
6.5722670661296148
20
-3.9049573434086224
0
LWPOLYLINE
5
143
100
AcDbEntity
8
0
100
AcDbPolyline
90
4
70
1
43
0.0
10
18.00620407400363
20
-3.0324376583692465
10
18.00620407400363
20
-2.4824376583692458
10
18.556219822035125
20
-2.4824376583692458
10
18.556219822035125
20
-3.0324376583692465
0
LWPOLYLINE
5
144
100
AcDbEntity
8
0
100
AcDbPolyline
90
4
70
1
43
0.0
10
1.9703379322713459
20
-3.9222801780542933
10
1.9703379322713443
20
-3.3722801780542939
10
2.5203379322713437
20
-3.3722801780542939
10
2.5203379322713451
20
-3.9222801780542933
0
LWPOLYLINE
5
145
100
AcDbEntity
8
0
100
AcDbPolyline
90
4
70
1
43
0.0
10
15.568959979515439
20
-3.228500650495234
10
16.118959979515438
20
-3.228500650495234
10
16.118959979515438
20
-3.7785006504952334
10
15.568959979515439
20
-3.7785006504952334
0
LWPOLYLINE
5
146
100
AcDbEntity
8
0
100
AcDbPolyline
90
4
70
1
43
0.0
10
12.850219822035125
20
-5.4785006504952349
10
13.400219822035128
20
-5.4785006504952349
10
13.400219822035128
20
-6.0285006504952348
10
12.850219822035125
20
-6.0285006504952348
0
LWPOLYLINE
5
147
100
AcDbEntity
8
0
100
AcDbPolyline
90
4
70
1
43
0.0
10
9.8771489558933965
20
-2.3101541938023225
10
9.3391568299091396
20
-2.4245242725424792
10
9.2248261212477232
20
-1.8865321465582292
10
9.7627788771532344
20
-1.7721896268731896
0
LWPOLYLINE
5
148
100
AcDbEntity
8
0
100
AcDbPolyline
90
4
70
1
43
0.0
10
10.661952105499692
20
-5.5490124615188581
10
10.776282814161108
20
-6.0870045875031096
10
10.238290688176859
20
-6.2013746662432672
10
10.12395997951544
20
-5.6633825402590166
0
LWPOLYLINE
5
149
100
AcDbEntity
8
0
100
AcDbPolyline
90
4
70
1
43
0.0
10
8.3000229716414253
20
-6.6142093119125578
10
7.762070215735914
20
-6.7285793906527154
10
7.6477001369957565
20
-6.190587264668463
10
8.1856922629800088
20
-6.0762171859283045
0
LWPOLYLINE
5
150
100
AcDbEntity
8
0
100
AcDbPolyline
90
4
70
1
43
0.0
10
11.068959979515441
20
-2.4785006504952354
10
11.61895997951544
20
-2.4785006504952354
10
11.61895997951544
20
-3.0285006504952343
10
11.068959979515441
20
-3.0285006504952343
0
LWPOLYLINE
5
151
100
AcDbEntity
8
0
100
AcDbPolyline
90
4
70
1
43
0.0
10
5.2391568299091427
20
-4.9492880520700409
10
5.3535269086493011
20
-4.4112959260857885
10
5.8914796645548124
20
-4.5256660048259461
10
5.7771489558933951
20
-5.0636581308101976
0
LWPOLYLINE
5
152
100
AcDbEntity
8
0
100
AcDbPolyline
90
4
70
1
43
0.0
10
5.843172577940634
20
-2.9794849024637409
10
6.3811647039248838
20
-3.0938156111251573
10
6.2667946251847324
20
-3.6318077371094102
10
5.7288418692792176
20
-3.5174376583692522
0
LWPOLYLINE
5
153
100
AcDbEntity
8
0
100
AcDbPolyline
90
4
70
1
43
0.0
10
9.2445111606178045
20
-5.6466896268731874
10
8.7065584047122897
20
-5.7610597056133441
10
8.5921883259721348
20
-5.2230675796290926
10
9.1301804519563881
20
-5.1087368709676761
0
LWPOLYLINE
5
154
100
AcDbEntity
8
0
100
AcDbPolyline
90
4
70
1
43
0.0
10
1.5953379322713457
20
-6.1721226977393346
10
1.5953379322713457
20
-5.6221226977393348
10
2.1453379322713477
20
-5.6221226977393339
10
2.1453379322713477
20
-6.1721226977393329
0
LWPOLYLINE
5
155
100
AcDbEntity
8
0
100
AcDbPolyline
90
4
70
1
43
0.0
10
16.868959979515438
20
-6.0324376583692478
10
16.318959979515441
20
-6.0324376583692496
10
16.318959979515441
20
-5.4824376583692507
10
16.868959979515438
20
-5.4824376583692489
0
LWPOLYLINE
5
156
100
AcDbEntity
8
0
100
AcDbPolyline
90
4
70
1
43
0.0
10
8.6074245464445784
20
-4.4530675796290931
10
8.7217946251847334
20
-4.9910597056133446
10
8.1838024992004836
20
-5.1053904142747637
10
8.0694324204603252
20
-4.5674376583692515
0
LWPOLYLINE
5
157
100
AcDbEntity
8
0
100
AcDbPolyline
90
4
70
1
43
0.0
10
5.3365977747910289
20
-1.9341305717550805
10
5.8745505306965402
20
-2.0485006504952366
10
5.7602198220351237
20
-2.5864534064007487
10
5.2222276960508713
20
-2.4721226977393331
0
LINE
5
158
100
AcDbEntity
8
0
100
AcDbLine
10
19.506219822035128
20
-4.1574376583692469
30
2.5286499229770744e-16
11
19.506219822035128
21
-3.6074376583692467
31
3.2022056625081199e-16
0
LWPOLYLINE
5
159
100
AcDbEntity
8
0
100
AcDbPolyline
90
4
70
1
43
0.0
10
17.806204074003627
20
-3.7824376583692469
10
17.25620407400363
20
-3.7824376583692469
10
17.25620407400363
20
-3.2324376583692462
10
17.806204074003627
20
-3.2324376583692462
0
LWPOLYLINE
5
160
100
AcDbEntity
8
0
100
AcDbPolyline
90
4
70
1
43
0.0
10
11.993959979515436
20
-2.1464140363220068
10
11.443959979515441
20
-2.1464140363220068
10
11.443959979515441
20
-1.5964022252983829
10
11.993959979515436
20
-1.5964022252983829
0
LWPOLYLINE
5
161
100
AcDbEntity
8
0
100
AcDbPolyline
90
4
70
1
43
0.0
10
1.8765977747910298
20
-4.1221226977393357
10
2.4265977747910319
20
-4.1221226977393339
10
2.4265977747910319
20
-4.6721226977393338
10
1.8765977747910298
20
-4.6721226977393346
0
LWPOLYLINE
5
162
100
AcDbEntity
8
0
100
AcDbPolyline
90
4
70
1
43
0.0
10
6.1825032866020573
20
-5.9205085245109839
10
6.2968733653422131
20
-5.3825163985267324
10
6.834826121247727
20
-5.4968864772668908
10
6.7204954125863079
20
-6.0348786032511423
0
LWPOLYLINE
5
163
100
AcDbEntity
8
0
100
AcDbPolyline
90
4
70
1
43
0.0
10
5.2532906881768611
20
-5.7229888394716166
10
4.7152985621926087
20
-5.6086581308101993
10
4.8296292708540225
20
-5.0706660048259478
10
5.3676213968382749
20
-5.1849967134873642
0
LWPOLYLINE
5
164
100
AcDbEntity
8
0
100
AcDbPolyline
90
4
70
1
43
0.0
10
10.496400924397328
20
-1.6162565560070472
10
10.610771003137486
20
-2.1542486819912985
10
10.072778877153237
20
-2.2685793906527154
10
9.9584087984130765
20
-1.7306069497078347
0
LWPOLYLINE
5
165
100
AcDbEntity
8
0
100
AcDbPolyline
90
4
70
1
43
0.0
10
5.1050623417201653
20
-3.5931069497078361
10
4.9906922629800103
20
-4.1310597056133469
10
4.4527395070744964
20
-4.0167289969519304
10
4.5670702157359147
20
-3.4787368709676794
0
LWPOLYLINE
5
166
100
AcDbEntity
8
0
100
AcDbPolyline
90
4
70
1
43
0.0
10
16.118959979515438
20
-5.4824376583692507
10
16.118959979515438
20
-6.0324376583692496
10
15.568959979515439
20
-6.0324376583692496
10
15.568959979515439
20
-5.4824376583692507
0
LWPOLYLINE
5
167
100
AcDbEntity
8
0
100
AcDbPolyline
90
4
70
1
43
0.0
10
12.931479664554811
20
-3.7785006504952334
10
12.381479664554808
20
-3.7785006504952334
10
12.381479664554808
20
-3.228500650495234
10
12.931479664554811
20
-3.228500650495234
0
LWPOLYLINE
5
168
100
AcDbEntity
8
0
100
AcDbPolyline
90
4
70
1
43
0.0
10
9.9462040740036297
20
-2.6349967134873613
10
10.06053478266505
20
-3.1729888394716141
10
9.5225426566807965
20
-3.2873195481330306
10
9.4082119480193782
20
-2.7493667922275193
0
LWPOLYLINE
5
169
100
AcDbEntity
8
0
100
AcDbPolyline
90
4
70
1
43
0.0
10
10.881479664554812
20
-3.7785006504952348
10
10.881479664554812
20
-3.2285006504952354
10
11.431479664554811
20
-3.2285006504952354
10
11.431479664554811
20
-3.7785006504952348
0
LWPOLYLINE
5
170
100
AcDbEntity
8
0
100
AcDbPolyline
90
4
70
1
43
0.0
10
12.462700136995757
20
-6.0285006504952348
10
11.912700136995756
20
-6.0285006504952356
10
11.912700136995756
20
-5.4785006504952367
10
12.462700136995757
20
-5.4785006504952349
0
LWPOLYLINE
5
171
100
AcDbEntity
8
0
100
AcDbPolyline
90
4
70
1
43
0.0
10
14.818959979515439
20
-2.1464140363220059
10
14.818959979515439
20
-1.5964022252983823
10
15.368959979515438
20
-1.5964022252983823
10
15.368959979515438
20
-2.1464140363220059
0
LWPOLYLINE
5
172
100
AcDbEntity
8
0
100
AcDbPolyline
90
4
70
1
43
0.0
10
5.3006922629800064
20
-3.6346817528574418
10
5.8386843889642597
20
-3.7490124615188587
10
5.7243143102241012
20
-4.2870045875031115
10
5.1863221842398488
20
-4.1726738788416959
0
LWPOLYLINE
5
173
100
AcDbEntity
8
0
100
AcDbPolyline
90
4
70
1
43
0.0
10
8.0553379322713479
20
-3.599209311912559
10
7.9409678535311867
20
-3.0612171859283062
10
8.4789599795154391
20
-2.9468864772668892
10
8.5933300582555976
20
-3.4848392331724005
0
LWPOLYLINE
5
174
100
AcDbEntity
8
0
100
AcDbPolyline
90
4
70
1
43
0.0
10
15.368959979515438
20
-3.7785006504952334
10
14.818959979515439
20
-3.7785006504952334
10
14.818959979515439
20
-3.228500650495234
10
15.368959979515438
20
-3.228500650495234
0
LWPOLYLINE
5
175
100
AcDbEntity
8
0
100
AcDbPolyline
90
4
70
1
43
0.0
10
16.868959979515438
20
-1.5964022252983814
10
16.868959979515438
20
-2.1464140363220037
10
16.318959979515441
20
-2.1464140363220054
10
16.318959979515441
20
-1.5964022252983814
0
LWPOLYLINE
5
176
100
AcDbEntity
8
0
100
AcDbPolyline
90
4
70
1
43
0.0
10
13.787700136995754
20
-6.0285006504952348
10
13.787700136995754
20
-5.4785006504952349
10
14.337700136995755
20
-5.4785006504952349
10
14.337700136995755
20
-6.0285006504952348
0
LWPOLYLINE
5
177
100
AcDbEntity
8
0
100
AcDbPolyline
90
4
70
1
43
0.0
10
12.556479664554811
20
-4.5285006504952356
10
12.006479664554808
20
-4.5285006504952365
10
12.006479664554808
20
-3.9785006504952358
10
12.556479664554811
20
-3.9785006504952345
0
LWPOLYLINE
5
178
100
AcDbEntity
8
0
100
AcDbPolyline
90
4
70
1
43
0.0
10
14.818959979515439
20
-5.4824376583692507
10
15.368959979515438
20
-5.4824376583692507
10
15.368959979515438
20
-6.0324376583692496
10
14.818959979515439
20
-6.0324376583692496
0
LWPOLYLINE
5
179
100
AcDbEntity
8
0
100
AcDbPolyline
90
4
70
1
43
0.0
10
16.868959979515438
20
-3.2285006504952327
10
16.868959979515438
20
-3.7785006504952321
10
16.318959979515441
20
-3.7785006504952334
10
16.318959979515441
20
-3.228500650495234
0
LWPOLYLINE
5
180
100
AcDbEntity
8
0
100
AcDbPolyline
90
4
70
1
43
0.0
10
11.818959979515441
20
-3.0285006504952343
10
11.818959979515441
20
-2.4785006504952354
10
12.36895997951544
20
-2.4785006504952336
10
12.36895997951544
20
-3.028500650495233
0
LWPOLYLINE
5
181
100
AcDbEntity
8
0
100
AcDbPolyline
90
4
70
1
43
0.0
10
10.468920609436701
20
-3.2906660048259435
10
10.583290688176859
20
-3.8286187607314561
10
10.045298562192606
20
-3.9429888394716128
10
9.9309284834524494
20
-3.4049967134873627
0
LWPOLYLINE
5
182
100
AcDbEntity
8
0
100
AcDbPolyline
90
4
70
1
43
0.0
10
8.6745899007752811
20
-2.9052723040385433
10
9.2125820267595344
20
-2.7909415953771255
10
9.3269127354209527
20
-3.328933721361377
10
8.7889599795154414
20
-3.4432644300227935
0
LWPOLYLINE
5
183
100
AcDbEntity
8
0
100
AcDbPolyline
90
4
70
1
43
0.0
10
5.9558497432949649
20
-2.6280675796290947
10
6.0701804519563813
20
-2.0900754536448427
10
6.6081725779406346
20
-2.2044061623062605
10
6.4938418692792181
20
-2.7423982882905138
0
LWPOLYLINE
5
184
100
AcDbEntity
8
0
100
AcDbPolyline
90
4
70
1
43
0.0
10
9.1435269086492958
20
-2.4660990756920853
10
8.6055347826650443
20
-2.5804691544322433
10
8.4912040740036261
20
-2.0424770284479905
10
9.0291961999878794
20
-1.9281069497078338
0
LINE
5
185
100
AcDbEntity
8
0
100
AcDbLine
10
13.225219822035125
20
-4.7285006504952332
30
1.8292994575584795e-16
11
13.775219822035124
21
-4.7285006504952332
31
1.8292994575584795e-16
0
LWPOLYLINE
5
186
100
AcDbEntity
8
0
100
AcDbPolyline
90
4
70
1
43
0.0
10
6.0871095858146536
20
-4.5672408079755522
10
6.6251017117989059
20
-4.6816108867157089
10
6.5107710031374895
20
-5.219563642621222
10
5.9727788771532362
20
-5.1052329339598037
0
LWPOLYLINE
5
187
100
AcDbEntity
8
0
100
AcDbPolyline
90
4
70
1
43
0.0
10
10.141833995263472
20
-2.5934219103377543
10
10.679786751168983
20
-2.4790518315975976
10
10.794156829909141
20
-3.0170439575818486
10
10.256164703924888
20
-3.1314140363220071
0
LWPOLYLINE
5
188
100
AcDbEntity
8
0
100
AcDbPolyline
90
4
70
1
43
0.0
10
5.0435269086493015
20
-4.9077132489204347
10
4.5055347826650491
20
-4.7933431701802771
10
4.6199048614052067
20
-4.2553904142747658
10
5.1578969873894565
20
-4.3697211229361823
0
LWPOLYLINE
5
189
100
AcDbEntity
8
0
100
AcDbPolyline
90
4
70
1
43
0.0
10
5.5332119480193764
20
-3.475862855219646
10
4.9952198220351258
20
-3.3615321465582295
10
5.1095505306965396
20
-2.823540020573978
10
5.6475426566807903
20
-2.9378707292353949
0
LINE
5
190
100
AcDbEntity
8
0
100
AcDbLine
10
12.943959979515441
20
-2.4785006504952336
30
4.5847547556400235e-16
11
13.493959979515438
21
-2.4785006504952336
31
4.5847547556400235e-16
0
LWPOLYLINE
5
191
100
AcDbEntity
8
0
100
AcDbPolyline
90
4
70
1
43
0.0
10
18.756219822035124
20
-5.4824376583692471
10
19.306219822035125
20
-5.4824376583692471
10
19.306219822035125
20
-6.0324376583692469
10
18.756219822035124
20
-6.0324376583692469
0
LWPOLYLINE
5
192
100
AcDbEntity
8
0
100
AcDbPolyline
90
4
70
1
43
0.0
10
12.74395997951544
20
-1.5964022252983829
10
12.74395997951544
20
-2.1464140363220068
10
12.193959979515441
20
-2.1464140363220068
10
12.193959979515441
20
-1.5964022252983829
0
LWPOLYLINE
5
193
100
AcDbEntity
8
0
100
AcDbPolyline
90
4
70
1
43
0.0
10
12.181479664554811
20
-3.228500650495234
10
12.181479664554811
20
-3.7785006504952334
10
11.631479664554812
20
-3.7785006504952348
10
11.631479664554812
20
-3.2285006504952354
0
LWPOLYLINE
5
194
100
AcDbEntity
8
0
100
AcDbPolyline
90
4
70
1
43
0.0
10
8.4099048614052023
20
-2.6220439575818504
10
7.8719521054996884
20
-2.7363746662432673
10
7.7575820267595326
20
-2.1984219103377565
10
8.2955741527437858
20
-2.0840518315975975
0
LWPOLYLINE
5
195
100
AcDbEntity
8
0
100
AcDbPolyline
90
4
70
1
43
0.0
10
4.455416672428826
20
-6.3201541938023258
10
3.9174639165233178
20
-6.2058234851409075
10
4.0317946251847321
20
-5.6678313591566551
10
4.5697867511689818
20
-5.7821620678180725
0
LWPOLYLINE
5
196
100
AcDbEntity
8
0
100
AcDbPolyline
90
4
70
1
43
0.0
10
3.771952105499691
20
-4.6374376583692527
10
3.8862828141611101
20
-4.0994455323850021
10
4.4242749401453629
20
-4.2137762410464186
10
4.3099048614052053
20
-4.751768367030671
0
LWPOLYLINE
5
197
100
AcDbEntity
8
0
100
AcDbPolyline
90
4
70
1
43
0.0
10
9.6510072236099287
20
-4.7935400205739747
10
9.5366765149485122
20
-4.2555478945897232
10
10.07466864093276
20
-4.1412171859283067
10
10.18899934959418
20
-4.6792093119125591
0
LINE
5
198
100
AcDbEntity
8
0
100
AcDbLine
10
13.225219822035125
20
-3.9785006504952345
30
2.7477845569189938e-16
11
13.775219822035124
21
-3.9785006504952345
31
2.7477845569189938e-16
0
LWPOLYLINE
5
199
100
AcDbEntity
8
0
100
AcDbPolyline
90
4
70
1
43
0.0
10
4.2571095858146553
20
-3.975154193802326
10
3.7191174598304024
20
-3.860784115062168
10
3.8334481684918202
20
-3.3227919890779152
10
4.37144029447607
20
-3.4371620678180737
0
LINE
5
200
100
AcDbEntity
8
0
100
AcDbLine
10
13.493959979515438
20
-3.028500650495233
30
3.9111990161089795e-16
11
12.943959979515441
21
-3.028500650495233
31
3.9111990161089795e-16
0
LINE
5
201
100
AcDbEntity
8
0
100
AcDbLine
10
9.488881239357962
20
-6.3629888394716136
30
-1.7237127131559649e-17
11
8.9508891133737087
21
-6.4773589182117703
31
-3.1243422216296021e-17
0
LWPOLYLINE
5
202
100
AcDbEntity
8
0
100
AcDbPolyline
90
4
70
1
43
0.0
10
19.506219822035128
20
-2.4824376583692458
10
20.056219822035121
20
-2.4824376583692458
10
20.056219822035121
20
-3.0324376583692465
10
19.506219822035128
20
-3.0324376583692465
0
LWPOLYLINE
5
203
100
AcDbEntity
8
0
100
AcDbPolyline
90
4
70
1
43
0.0
10
10.173763129121742
20
-5.4491699418338175
10
10.059393050381582
20
-4.9112171859283063
10
10.597385176365833
20
-4.7968471071881487
10
10.71175525510599
20
-5.3348392331724011
0
LWPOLYLINE
5
204
100
AcDbEntity
8
0
100
AcDbPolyline
90
4
70
1
43
0.0
10
16.318959979515441
20
-3.028500650495233
10
16.318959979515441
20
-2.4785006504952336
10
16.868959979515438
20
-2.4785006504952323
10
16.868959979515438
20
-3.0285006504952316
0
LWPOLYLINE
5
205
100
AcDbEntity
8
0
100
AcDbPolyline
90
4
70
1
43
0.0
10
12.36895997951544
20
-5.2785006504952356
10
11.818959979515441
20
-5.2785006504952374
10
11.818959979515441
20
-4.7285006504952349
10
12.36895997951544
20
-4.7285006504952332
0
LWPOLYLINE
5
206
100
AcDbEntity
8
0
100
AcDbPolyline
90
4
70
1
43
0.0
10
8.578093837783161
20
-4.254839233172401
10
8.4637237590430026
20
-3.7168864772668893
10
9.0017158850272558
20
-3.6025163985267326
10
9.1160465936886688
20
-4.1405085245109827
0
LWPOLYLINE
5
207
100
AcDbEntity
8
0
100
AcDbPolyline
90
4
70
1
43
0.0
10
15.568959979515439
20
-5.2824376583692505
10
15.568959979515439
20
-4.7324376583692516
10
16.118959979515438
20
-4.7324376583692516
10
16.118959979515438
20
-5.2824376583692505
0
LINE
5
208
100
AcDbEntity
8
0
100
AcDbLine
10
2.8463379322713456
20
-5.4071226977393323
30
1.6534131771140084e-16
11
2.8463379322713456
21
-4.9231226977393323
31
1.6534131771140084e-16
0
LINE
5
209
100
AcDbEntity
8
0
100
AcDbLine
10
2.8463379322713456
20
-4.9231226977393323
30
1.6534131771140084e-16
11
2.5843379322713451
21
-4.9231226977393323
31
1.6534131771140084e-16
0
LINE
5
210
100
AcDbEntity
8
0
100
AcDbLine
10
2.5843379322713451
20
-4.9231226977393323
30
1.6534131771140084e-16
11
2.5843379322713451
21
-4.9551226977393323
31
1.6534131771140084e-16
0
LINE
5
211
100
AcDbEntity
8
0
100
AcDbLine
10
2.5843379322713451
20
-4.9551226977393323
30
1.6534131771140084e-16
11
2.5203379322713451
21
-4.9551226977393323
31
1.6534131771140084e-16
0
LINE
5
212
100
AcDbEntity
8
0
100
AcDbLine
10
2.8463379322713456
20
-5.4071226977393323
30
1.6534131771140084e-16
11
2.7753379322713454
21
-5.4071226977393323
31
1.6534131771140084e-16
0
LINE
5
213
100
AcDbEntity
8
0
100
AcDbLine
10
2.7753379322713454
20
-5.4531226977393326
30
1.6534131771140084e-16
11
2.7753379322713454
21
-5.4071226977393323
31
1.6534131771140084e-16
0
LINE
5
214
100
AcDbEntity
8
0
100
AcDbLine
10
2.7753379322713454
20
-5.4531226977393326
30
1.6534131771140084e-16
11
2.6553379322713453
21
-5.4531226977393326
31
1.6534131771140084e-16
0
LINE
5
215
100
AcDbEntity
8
0
100
AcDbLine
10
2.6553379322713453
20
-5.4531226977393326
30
1.6534131771140084e-16
11
2.6553379322713453
21
-5.4071226977393323
31
1.6534131771140084e-16
0
LINE
5
216
100
AcDbEntity
8
0
100
AcDbLine
10
2.6553379322713453
20
-5.4071226977393323
30
1.6534131771140084e-16
11
2.5843379322713451
21
-5.4071226977393323
31
1.6534131771140084e-16
0
LINE
5
217
100
AcDbEntity
8
0
100
AcDbLine
10
2.5843379322713451
20
-5.4071226977393323
30
1.6534131771140084e-16
11
2.5843379322713451
21
-5.3761226977393326
31
1.6534131771140084e-16
0
LINE
5
218
100
AcDbEntity
8
0
100
AcDbLine
10
2.5843379322713451
20
-5.3761226977393326
30
1.6534131771140084e-16
11
2.5203379322713451
21
-5.3761226977393326
31
1.6534131771140084e-16
0
LINE
5
219
100
AcDbEntity
8
0
100
AcDbLine
10
2.8463379322713456
20
-5.1471226977393325
30
1.6534131771140084e-16
11
2.8463379322713456
21
-5.167122697739333
31
1.6534131771140084e-16
0
LINE
5
220
100
AcDbEntity
8
0
100
AcDbLine
10
1.6443379322713456
20
-4.9231226977393332
30
1.8138419078023117e-16
11
1.9063379322713458
21
-4.9231226977393332
31
1.4929844464257052e-16
0
LINE
5
221
100
AcDbEntity
8
0
100
AcDbLine
10
1.7153379322713458
20
-5.4531226977393334
30
1.7268919850628497e-16
11
1.8353379322713457
21
-5.4531226977393334
31
1.5799343691651674e-16
0
LINE
5
222
100
AcDbEntity
8
0
100
AcDbLine
10
1.8353379322713457
20
-5.4531226977393334
30
1.5799343691651674e-16
11
1.8353379322713457
21
-5.4071226977393332
31
1.5799343691651674e-16
0
LINE
5
223
100
AcDbEntity
8
0
100
AcDbLine
10
1.6443379322713456
20
-5.4071226977393332
30
1.8138419078023117e-16
11
1.6443379322713456
21
-4.9231226977393332
31
1.8138419078023117e-16
0
LINE
5
224
100
AcDbEntity
8
0
100
AcDbLine
10
1.7153379322713458
20
-5.4531226977393334
30
1.7268919850628497e-16
11
1.7153379322713458
21
-5.4071226977393332
31
1.7268919850628497e-16
0
LINE
5
225
100
AcDbEntity
8
0
100
AcDbLine
10
1.9063379322713458
20
-4.9231226977393332
30
1.4929844464257052e-16
11
1.9063379322713458
21
-4.9551226977393332
31
1.4929844464257052e-16
0
LINE
5
226
100
AcDbEntity
8
0
100
AcDbLine
10
1.6443379322713456
20
-5.1471226977393334
30
1.8138419078023117e-16
11
1.6443379322713456
21
-5.1671226977393339
31
1.8138419078023117e-16
0
LINE
5
227
100
AcDbEntity
8
0
100
AcDbLine
10
1.9063379322713458
20
-5.4071226977393332
30
1.4929844464257052e-16
11
1.9063379322713458
21
-5.3761226977393335
31
1.4929844464257052e-16
0
LINE
5
228
100
AcDbEntity
8
0
100
AcDbLine
10
1.8353379322713457
20
-5.4071226977393332
30
1.5799343691651674e-16
11
1.9063379322713458
21
-5.4071226977393332
31
1.4929844464257052e-16
0
LINE
5
229
100
AcDbEntity
8
0
100
AcDbLine
10
1.6443379322713456
20
-5.4071226977393332
30
1.8138419078023117e-16
11
1.7153379322713458
21
-5.4071226977393332
31
1.7268919850628497e-16
0
LINE
5
230
100
AcDbEntity
8
0
100
AcDbLine
10
1.9063379322713458
20
-5.3761226977393335
30
1.4929844464257052e-16
11
1.9703379322713459
21
-5.3761226977393335
31
1.4146070512802742e-16
0
LINE
5
231
100
AcDbEntity
8
0
100
AcDbLine
10
1.9063379322713458
20
-4.9551226977393332
30
1.4929844464257052e-16
11
1.9703379322713459
21
-4.9551226977393332
31
1.4146070512802742e-16
0
LINE
5
232
100
AcDbEntity
8
0
100
AcDbLine
10
1.9703379322713459
20
-4.872122697739333
30
1.6534131771140084e-16
11
1.9703379322713459
21
-4.9551226977393332
31
1.6534131771140084e-16
0
LINE
5
233
100
AcDbEntity
8
0
100
AcDbLine
10
1.9703379322713459
20
-5.3761226977393335
30
1.4146070512802742e-16
11
1.9703379322713459
21
-5.4221226977393329
31
9.7985743758296443e-17
0
LINE
5
234
100
AcDbEntity
8
0
100
AcDbLine
10
2.5203379322713451
20
-5.3761226977393326
30
1.6534131771140084e-16
11
2.5203379322713451
21
-5.4221226977393329
31
9.7985743758296443e-17
0
LINE
5
235
100
AcDbEntity
8
0
100
AcDbLine
10
2.5203379322713451
20
-4.9551226977393323
30
1.6534131771140084e-16
11
2.5203379322713451
21
-4.872122697739333
31
1.6534131771140084e-16
0
LINE
5
236
100
AcDbEntity
8
0
100
AcDbLine
10
2.7753379322713454
20
-5.4531226977393326
30
1.6534131771140084e-16
11
2.7753379322713454
21
-5.4071226977393323
31
1.6534131771140084e-16
0
LINE
5
237
100
AcDbEntity
8
0
100
AcDbLine
10
1.7153379322713458
20
-5.4531226977393334
30
1.7268919850628497e-16
11
1.7153379322713458
21
-5.4071226977393332
31
1.7268919850628497e-16
0
LINE
5
238
100
AcDbEntity
8
0
100
AcDbLine
10
1.6443379322713456
20
-5.4071226977393332
30
1.8138419078023117e-16
11
1.6443379322713456
21
-4.9231226977393332
31
1.8138419078023117e-16
0
LINE
5
239
100
AcDbEntity
8
0
100
AcDbLine
10
2.5203379322713451
20
-5.3761226977393326
30
1.6534131771140084e-16
11
2.5203379322713451
21
-5.4221226977393329
31
9.7985743758296443e-17
0
LINE
5
240
100
AcDbEntity
8
0
100
AcDbLine
10
2.8463379322713456
20
-5.4071226977393323
30
1.6534131771140084e-16
11
2.7753379322713454
21
-5.4071226977393323
31
1.6534131771140084e-16
0
LINE
5
241
100
AcDbEntity
8
0
100
AcDbLine
10
1.7153379322713458
20
-5.4531226977393334
30
1.7268919850628497e-16
11
1.8353379322713457
21
-5.4531226977393334
31
1.5799343691651674e-16
0
LINE
5
242
100
AcDbEntity
8
0
100
AcDbLine
10
2.7753379322713454
20
-5.4531226977393326
30
1.6534131771140084e-16
11
2.6553379322713453
21
-5.4531226977393326
31
1.6534131771140084e-16
0
LINE
5
243
100
AcDbEntity
8
0
100
AcDbLine
10
1.6443379322713456
20
-4.9231226977393332
30
1.8138419078023117e-16
11
1.9063379322713458
21
-4.9231226977393332
31
1.4929844464257052e-16
0
LINE
5
244
100
AcDbEntity
8
0
100
AcDbLine
10
2.8463379322713456
20
-5.1471226977393325
30
1.6534131771140084e-16
11
2.8463379322713456
21
-5.167122697739333
31
1.6534131771140084e-16
0
LINE
5
245
100
AcDbEntity
8
0
100
AcDbLine
10
2.8463379322713456
20
-4.9231226977393323
30
1.6534131771140084e-16
11
2.5843379322713451
21
-4.9231226977393323
31
1.6534131771140084e-16
0
LINE
5
246
100
AcDbEntity
8
0
100
AcDbLine
10
2.6553379322713453
20
-5.4071226977393323
30
1.6534131771140084e-16
11
2.5843379322713451
21
-5.4071226977393323
31
1.6534131771140084e-16
0
LINE
5
247
100
AcDbEntity
8
0
100
AcDbLine
10
2.5203379322713451
20
-5.4221226977393329
30
9.7985743758296443e-17
11
1.9703379322713459
21
-5.4221226977393329
31
9.7985743758296443e-17
0
LINE
5
248
100
AcDbEntity
8
0
100
AcDbLine
10
2.8463379322713456
20
-5.4071226977393323
30
1.6534131771140084e-16
11
2.8463379322713456
21
-4.9231226977393323
31
1.6534131771140084e-16
0
LINE
5
249
100
AcDbEntity
8
0
100
AcDbLine
10
2.6553379322713453
20
-5.4531226977393326
30
1.6534131771140084e-16
11
2.6553379322713453
21
-5.4071226977393323
31
1.6534131771140084e-16
0
LINE
5
250
100
AcDbEntity
8
0
100
AcDbLine
10
1.6443379322713456
20
-5.1471226977393334
30
1.8138419078023117e-16
11
1.6443379322713456
21
-5.1671226977393339
31
1.8138419078023117e-16
0
LINE
5
251
100
AcDbEntity
8
0
100
AcDbLine
10
1.9063379322713458
20
-5.3761226977393335
30
1.4929844464257052e-16
11
1.9703379322713459
21
-5.3761226977393335
31
1.4146070512802742e-16
0
LINE
5
252
100
AcDbEntity
8
0
100
AcDbLine
10
2.5843379322713451
20
-4.9551226977393323
30
1.6534131771140084e-16
11
2.5203379322713451
21
-4.9551226977393323
31
1.6534131771140084e-16
0
LINE
5
253
100
AcDbEntity
8
0
100
AcDbLine
10
1.9063379322713458
20
-4.9551226977393332
30
1.4929844464257052e-16
11
1.9703379322713459
21
-4.9551226977393332
31
1.4146070512802742e-16
0
LINE
5
254
100
AcDbEntity
8
0
100
AcDbLine
10
2.5843379322713451
20
-5.4071226977393323
30
1.6534131771140084e-16
11
2.5843379322713451
21
-5.3761226977393326
31
1.6534131771140084e-16
0
LINE
5
255
100
AcDbEntity
8
0
100
AcDbLine
10
1.9063379322713458
20
-4.9231226977393332
30
1.4929844464257052e-16
11
1.9063379322713458
21
-4.9551226977393332
31
1.4929844464257052e-16
0
LINE
5
256
100
AcDbEntity
8
0
100
AcDbLine
10
1.9063379322713458
20
-5.4071226977393332
30
1.4929844464257052e-16
11
1.9063379322713458
21
-5.3761226977393335
31
1.4929844464257052e-16
0
LINE
5
257
100
AcDbEntity
8
0
100
AcDbLine
10
1.9703379322713459
20
-4.872122697739333
30
1.6534131771140084e-16
11
2.5203379322713451
21
-4.872122697739333
31
1.6534131771140084e-16
0
LINE
5
258
100
AcDbEntity
8
0
100
AcDbLine
10
1.9703379322713459
20
-4.872122697739333
30
1.6534131771140084e-16
11
1.9703379322713459
21
-4.9551226977393332
31
1.6534131771140084e-16
0
LINE
5
259
100
AcDbEntity
8
0
100
AcDbLine
10
1.8353379322713457
20
-5.4071226977393332
30
1.5799343691651674e-16
11
1.9063379322713458
21
-5.4071226977393332
31
1.4929844464257052e-16
0
LINE
5
260
100
AcDbEntity
8
0
100
AcDbLine
10
1.8353379322713457
20
-5.4531226977393334
30
1.5799343691651674e-16
11
1.8353379322713457
21
-5.4071226977393332
31
1.5799343691651674e-16
0
LINE
5
261
100
AcDbEntity
8
0
100
AcDbLine
10
2.5843379322713451
20
-4.9231226977393323
30
1.6534131771140084e-16
11
2.5843379322713451
21
-4.9551226977393323
31
1.6534131771140084e-16
0
LINE
5
262
100
AcDbEntity
8
0
100
AcDbLine
10
1.9703379322713459
20
-5.3761226977393335
30
1.4146070512802742e-16
11
1.9703379322713459
21
-5.4221226977393329
31
9.7985743758296443e-17
0
LINE
5
263
100
AcDbEntity
8
0
100
AcDbLine
10
1.6443379322713456
20
-5.4071226977393332
30
1.8138419078023117e-16
11
1.7153379322713458
21
-5.4071226977393332
31
1.7268919850628497e-16
0
LINE
5
264
100
AcDbEntity
8
0
100
AcDbLine
10
2.5843379322713451
20
-5.3761226977393326
30
1.6534131771140084e-16
11
2.5203379322713451
21
-5.3761226977393326
31
1.6534131771140084e-16
0
LINE
5
265
100
AcDbEntity
8
0
100
AcDbLine
10
2.5203379322713451
20
-4.9551226977393323
30
1.6534131771140084e-16
11
2.5203379322713451
21
-4.872122697739333
31
1.6534131771140084e-16
0
LINE
5
266
100
AcDbEntity
8
0
100
AcDbLine
10
14.030219822035125
20
-5.3095006504952353
30
1.6534131771140084e-16
11
14.030219822035125
21
-5.263500650495236
31
1.6534131771140084e-16
0
LINE
5
267
100
AcDbEntity
8
0
100
AcDbLine
10
12.970219822035125
20
-5.3095006504952362
30
1.7268919850628497e-16
11
12.970219822035125
21
-5.263500650495236
31
1.7268919850628497e-16
0
LINE
5
268
100
AcDbEntity
8
0
100
AcDbLine
10
12.899219822035125
20
-5.263500650495236
30
1.8138419078023117e-16
11
12.899219822035125
21
-4.7795006504952369
31
1.8138419078023117e-16
0
LINE
5
269
100
AcDbEntity
8
0
100
AcDbLine
10
13.775219822035124
20
-5.2325006504952354
30
1.6534131771140084e-16
11
13.775219822035124
21
-5.2785006504952356
31
9.7985743758296443e-17
0
LINE
5
270
100
AcDbEntity
8
0
100
AcDbLine
10
14.101219822035125
20
-5.263500650495236
30
1.6534131771140084e-16
11
14.030219822035125
21
-5.263500650495236
31
1.6534131771140084e-16
0
LINE
5
271
100
AcDbEntity
8
0
100
AcDbLine
10
12.970219822035125
20
-5.3095006504952362
30
1.7268919850628497e-16
11
13.090219822035126
21
-5.3095006504952362
31
1.5799343691651674e-16
0
LINE
5
272
100
AcDbEntity
8
0
100
AcDbLine
10
14.030219822035125
20
-5.3095006504952353
30
1.6534131771140084e-16
11
13.910219822035124
21
-5.3095006504952353
31
1.6534131771140084e-16
0
LINE
5
273
100
AcDbEntity
8
0
100
AcDbLine
10
12.899219822035125
20
-4.7795006504952369
30
1.8138419078023117e-16
11
13.161219822035125
21
-4.7795006504952369
31
1.4929844464257052e-16
0
LINE
5
274
100
AcDbEntity
8
0
100
AcDbLine
10
14.101219822035125
20
-5.0035006504952362
30
1.6534131771140084e-16
11
14.101219822035125
21
-5.0235006504952366
31
1.6534131771140084e-16
0
LINE
5
275
100
AcDbEntity
8
0
100
AcDbLine
10
14.101219822035125
20
-4.779500650495236
30
1.6534131771140084e-16
11
13.839219822035124
21
-4.779500650495236
31
1.6534131771140084e-16
0
LINE
5
276
100
AcDbEntity
8
0
100
AcDbLine
10
13.910219822035124
20
-5.263500650495236
30
1.6534131771140084e-16
11
13.839219822035124
21
-5.263500650495236
31
1.6534131771140084e-16
0
LINE
5
277
100
AcDbEntity
8
0
100
AcDbLine
10
13.775219822035124
20
-5.2785006504952356
30
9.7985743758296443e-17
11
13.225219822035125
21
-5.2785006504952356
31
9.7985743758296443e-17
0
LINE
5
278
100
AcDbEntity
8
0
100
AcDbLine
10
14.101219822035125
20
-5.263500650495236
30
1.6534131771140084e-16
11
14.101219822035125
21
-4.779500650495236
31
1.6534131771140084e-16
0
LINE
5
279
100
AcDbEntity
8
0
100
AcDbLine
10
13.910219822035124
20
-5.3095006504952353
30
1.6534131771140084e-16
11
13.910219822035124
21
-5.263500650495236
31
1.6534131771140084e-16
0
LINE
5
280
100
AcDbEntity
8
0
100
AcDbLine
10
12.899219822035125
20
-5.0035006504952371
30
1.8138419078023117e-16
11
12.899219822035125
21
-5.0235006504952366
31
1.8138419078023117e-16
0
LINE
5
281
100
AcDbEntity
8
0
100
AcDbLine
10
13.161219822035125
20
-5.2325006504952363
30
1.4929844464257052e-16
11
13.225219822035125
21
-5.2325006504952363
31
1.4146070512802742e-16
0
LINE
5
282
100
AcDbEntity
8
0
100
AcDbLine
10
13.839219822035124
20
-4.811500650495236
30
1.6534131771140084e-16
11
13.775219822035124
21
-4.811500650495236
31
1.6534131771140084e-16
0
LINE
5
283
100
AcDbEntity
8
0
100
AcDbLine
10
13.161219822035125
20
-4.811500650495236
30
1.4929844464257052e-16
11
13.225219822035125
21
-4.811500650495236
31
1.4146070512802742e-16
0
LINE
5
284
100
AcDbEntity
8
0
100
AcDbLine
10
13.839219822035124
20
-5.263500650495236
30
1.6534131771140084e-16
11
13.839219822035124
21
-5.2325006504952354
31
1.6534131771140084e-16
0
LINE
5
285
100
AcDbEntity
8
0
100
AcDbLine
10
13.161219822035125
20
-4.7795006504952369
30
1.4929844464257052e-16
11
13.161219822035125
21
-4.811500650495236
31
1.4929844464257052e-16
0
LINE
5
286
100
AcDbEntity
8
0
100
AcDbLine
10
13.161219822035125
20
-5.263500650495236
30
1.4929844464257052e-16
11
13.161219822035125
21
-5.2325006504952363
31
1.4929844464257052e-16
0
LINE
5
287
100
AcDbEntity
8
0
100
AcDbLine
10
13.225219822035125
20
-4.7285006504952367
30
1.6534131771140084e-16
11
13.225219822035125
21
-4.811500650495236
31
1.6534131771140084e-16
0
LINE
5
288
100
AcDbEntity
8
0
100
AcDbLine
10
13.090219822035126
20
-5.263500650495236
30
1.5799343691651674e-16
11
13.161219822035125
21
-5.263500650495236
31
1.4929844464257052e-16
0
LINE
5
289
100
AcDbEntity
8
0
100
AcDbLine
10
13.090219822035126
20
-5.3095006504952362
30
1.5799343691651674e-16
11
13.090219822035126
21
-5.263500650495236
31
1.5799343691651674e-16
0
LINE
5
290
100
AcDbEntity
8
0
100
AcDbLine
10
13.839219822035124
20
-4.779500650495236
30
1.6534131771140084e-16
11
13.839219822035124
21
-4.811500650495236
31
1.6534131771140084e-16
0
LINE
5
291
100
AcDbEntity
8
0
100
AcDbLine
10
13.225219822035125
20
-5.2325006504952363
30
1.4146070512802742e-16
11
13.225219822035125
21
-5.2785006504952356
31
9.7985743758296443e-17
0
LINE
5
292
100
AcDbEntity
8
0
100
AcDbLine
10
12.899219822035125
20
-5.263500650495236
30
1.8138419078023117e-16
11
12.970219822035125
21
-5.263500650495236
31
1.7268919850628497e-16
0
LINE
5
293
100
AcDbEntity
8
0
100
AcDbLine
10
13.839219822035124
20
-5.2325006504952354
30
1.6534131771140084e-16
11
13.775219822035124
21
-5.2325006504952354
31
1.6534131771140084e-16
0
LINE
5
294
100
AcDbEntity
8
0
100
AcDbLine
10
13.775219822035124
20
-4.811500650495236
30
1.6534131771140084e-16
11
13.775219822035124
21
-4.7285006504952367
31
1.6534131771140084e-16
0
LINE
5
295
100
AcDbEntity
8
0
100
AcDbLine
10
14.030219822035125
20
-4.5595006504952353
30
1.6534131771140084e-16
11
14.030219822035125
21
-4.5135006504952351
31
1.6534131771140084e-16
0
LINE
5
296
100
AcDbEntity
8
0
100
AcDbLine
10
12.970219822035125
20
-4.5595006504952362
30
1.7268919850628497e-16
11
12.970219822035125
21
-4.513500650495236
31
1.7268919850628497e-16
0
LINE
5
297
100
AcDbEntity
8
0
100
AcDbLine
10
12.899219822035125
20
-4.513500650495236
30
1.8138419078023117e-16
11
12.899219822035125
21
-4.029500650495236
31
1.8138419078023117e-16
0
LINE
5
298
100
AcDbEntity
8
0
100
AcDbLine
10
13.775219822035124
20
-4.4825006504952354
30
1.6534131771140084e-16
11
13.775219822035124
21
-4.5285006504952356
31
9.7985743758296443e-17
0
LINE
5
299
100
AcDbEntity
8
0
100
AcDbLine
10
14.101219822035125
20
-4.5135006504952351
30
1.6534131771140084e-16
11
14.030219822035125
21
-4.5135006504952351
31
1.6534131771140084e-16
0
LINE
5
300
100
AcDbEntity
8
0
100
AcDbLine
10
12.970219822035125
20
-4.5595006504952362
30
1.7268919850628497e-16
11
13.090219822035126
21
-4.5595006504952362
31
1.5799343691651674e-16
0
LINE
5
301
100
AcDbEntity
8
0
100
AcDbLine
10
14.030219822035125
20
-4.5595006504952353
30
1.6534131771140084e-16
11
13.910219822035124
21
-4.5595006504952353
31
1.6534131771140084e-16
0
LINE
5
302
100
AcDbEntity
8
0
100
AcDbLine
10
12.899219822035125
20
-4.029500650495236
30
1.8138419078023117e-16
11
13.161219822035125
21
-4.029500650495236
31
1.4929844464257052e-16
0
LINE
5
303
100
AcDbEntity
8
0
100
AcDbLine
10
14.101219822035125
20
-4.2535006504952353
30
1.6534131771140084e-16
11
14.101219822035125
21
-4.2735006504952358
31
1.6534131771140084e-16
0
LINE
5
304
100
AcDbEntity
8
0
100
AcDbLine
10
14.101219822035125
20
-4.0295006504952351
30
1.6534131771140084e-16
11
13.839219822035124
21
-4.0295006504952351
31
1.6534131771140084e-16
0
LINE
5
305
100
AcDbEntity
8
0
100
AcDbLine
10
13.910219822035124
20
-4.5135006504952351
30
1.6534131771140084e-16
11
13.839219822035124
21
-4.5135006504952351
31
1.6534131771140084e-16
0
LINE
5
306
100
AcDbEntity
8
0
100
AcDbLine
10
13.775219822035124
20
-4.5285006504952356
30
9.7985743758296443e-17
11
13.225219822035125
21
-4.5285006504952356
31
9.7985743758296443e-17
0
LINE
5
307
100
AcDbEntity
8
0
100
AcDbLine
10
14.101219822035125
20
-4.5135006504952351
30
1.6534131771140084e-16
11
14.101219822035125
21
-4.0295006504952351
31
1.6534131771140084e-16
0
LINE
5
308
100
AcDbEntity
8
0
100
AcDbLine
10
13.910219822035124
20
-4.5595006504952353
30
1.6534131771140084e-16
11
13.910219822035124
21
-4.5135006504952351
31
1.6534131771140084e-16
0
LINE
5
309
100
AcDbEntity
8
0
100
AcDbLine
10
12.899219822035125
20
-4.2535006504952362
30
1.8138419078023117e-16
11
12.899219822035125
21
-4.2735006504952366
31
1.8138419078023117e-16
0
LINE
5
310
100
AcDbEntity
8
0
100
AcDbLine
10
13.161219822035125
20
-4.4825006504952363
30
1.4929844464257052e-16
11
13.225219822035125
21
-4.4825006504952363
31
1.4146070512802742e-16
0
LINE
5
311
100
AcDbEntity
8
0
100
AcDbLine
10
13.839219822035124
20
-4.0615006504952351
30
1.6534131771140084e-16
11
13.775219822035124
21
-4.0615006504952351
31
1.6534131771140084e-16
0
LINE
5
312
100
AcDbEntity
8
0
100
AcDbLine
10
13.161219822035125
20
-4.061500650495236
30
1.4929844464257052e-16
11
13.225219822035125
21
-4.061500650495236
31
1.4146070512802742e-16
0
LINE
5
313
100
AcDbEntity
8
0
100
AcDbLine
10
13.839219822035124
20
-4.5135006504952351
30
1.6534131771140084e-16
11
13.839219822035124
21
-4.4825006504952354
31
1.6534131771140084e-16
0
LINE
5
314
100
AcDbEntity
8
0
100
AcDbLine
10
13.161219822035125
20
-4.029500650495236
30
1.4929844464257052e-16
11
13.161219822035125
21
-4.061500650495236
31
1.4929844464257052e-16
0
LINE
5
315
100
AcDbEntity
8
0
100
AcDbLine
10
13.161219822035125
20
-4.513500650495236
30
1.4929844464257052e-16
11
13.161219822035125
21
-4.4825006504952363
31
1.4929844464257052e-16
0
LINE
5
316
100
AcDbEntity
8
0
100
AcDbLine
10
13.225219822035125
20
-3.9785006504952358
30
1.6534131771140084e-16
11
13.225219822035125
21
-4.061500650495236
31
1.6534131771140084e-16
0
LINE
5
317
100
AcDbEntity
8
0
100
AcDbLine
10
13.090219822035126
20
-4.513500650495236
30
1.5799343691651674e-16
11
13.161219822035125
21
-4.513500650495236
31
1.4929844464257052e-16
0
LINE
5
318
100
AcDbEntity
8
0
100
AcDbLine
10
13.090219822035126
20
-4.5595006504952362
30
1.5799343691651674e-16
11
13.090219822035126
21
-4.513500650495236
31
1.5799343691651674e-16
0
LINE
5
319
100
AcDbEntity
8
0
100
AcDbLine
10
13.839219822035124
20
-4.0295006504952351
30
1.6534131771140084e-16
11
13.839219822035124
21
-4.0615006504952351
31
1.6534131771140084e-16
0
LINE
5
320
100
AcDbEntity
8
0
100
AcDbLine
10
13.225219822035125
20
-4.4825006504952363
30
1.4146070512802742e-16
11
13.225219822035125
21
-4.5285006504952356
31
9.7985743758296443e-17
0
LINE
5
321
100
AcDbEntity
8
0
100
AcDbLine
10
12.899219822035125
20
-4.513500650495236
30
1.8138419078023117e-16
11
12.970219822035125
21
-4.513500650495236
31
1.7268919850628497e-16
0
LINE
5
322
100
AcDbEntity
8
0
100
AcDbLine
10
13.839219822035124
20
-4.4825006504952354
30
1.6534131771140084e-16
11
13.775219822035124
21
-4.4825006504952354
31
1.6534131771140084e-16
0
LINE
5
323
100
AcDbEntity
8
0
100
AcDbLine
10
13.775219822035124
20
-4.0615006504952351
30
1.6534131771140084e-16
11
13.775219822035124
21
-3.9785006504952358
31
1.6534131771140084e-16
0
LINE
5
324
100
AcDbEntity
8
0
100
AcDbLine
10
13.74895997951544
20
-3.0595006504952331
30
1.6534131771140084e-16
11
13.74895997951544
21
-3.0135006504952333
31
1.6534131771140084e-16
0
LINE
5
325
100
AcDbEntity
8
0
100
AcDbLine
10
12.688959979515442
20
-3.0595006504952336
30
1.7268919850628497e-16
11
12.688959979515442
21
-3.0135006504952337
31
1.7268919850628497e-16
0
LINE
5
326
100
AcDbEntity
8
0
100
AcDbLine
10
12.61795997951544
20
-3.0135006504952337
30
1.8138419078023117e-16
11
12.61795997951544
21
-2.5295006504952338
31
1.8138419078023117e-16
0
LINE
5
327
100
AcDbEntity
8
0
100
AcDbLine
10
13.493959979515441
20
-2.9825006504952332
30
1.6534131771140084e-16
11
13.493959979515441
21
-3.028500650495233
31
9.7985743758296443e-17
0
LINE
5
328
100
AcDbEntity
8
0
100
AcDbLine
10
13.819959979515442
20
-3.0135006504952333
30
1.6534131771140084e-16
11
13.74895997951544
21
-3.0135006504952333
31
1.6534131771140084e-16
0
LINE
5
329
100
AcDbEntity
8
0
100
AcDbLine
10
12.688959979515442
20
-3.0595006504952336
30
1.7268919850628497e-16
11
12.808959979515441
21
-3.0595006504952336
31
1.5799343691651674e-16
0
LINE
5
330
100
AcDbEntity
8
0
100
AcDbLine
10
13.74895997951544
20
-3.0595006504952331
30
1.6534131771140084e-16
11
13.628959979515441
21
-3.0595006504952331
31
1.6534131771140084e-16
0
LINE
5
331
100
AcDbEntity
8
0
100
AcDbLine
10
12.61795997951544
20
-2.5295006504952338
30
1.8138419078023117e-16
11
12.879959979515441
21
-2.5295006504952338
31
1.4929844464257052e-16
0
LINE
5
332
100
AcDbEntity
8
0
100
AcDbLine
10
13.819959979515442
20
-2.7535006504952335
30
1.6534131771140084e-16
11
13.819959979515442
21
-2.7735006504952335
31
1.6534131771140084e-16
0
LINE
5
333
100
AcDbEntity
8
0
100
AcDbLine
10
13.819959979515442
20
-2.5295006504952333
30
1.6534131771140084e-16
11
13.55795997951544
21
-2.5295006504952333
31
1.6534131771140084e-16
0
LINE
5
334
100
AcDbEntity
8
0
100
AcDbLine
10
13.628959979515441
20
-3.0135006504952333
30
1.6534131771140084e-16
11
13.55795997951544
21
-3.0135006504952333
31
1.6534131771140084e-16
0
LINE
5
335
100
AcDbEntity
8
0
100
AcDbLine
10
13.819959979515442
20
-3.0135006504952333
30
1.6534131771140084e-16
11
13.819959979515442
21
-2.5295006504952333
31
1.6534131771140084e-16
0
LINE
5
336
100
AcDbEntity
8
0
100
AcDbLine
10
13.628959979515441
20
-3.0595006504952331
30
1.6534131771140084e-16
11
13.628959979515441
21
-3.0135006504952333
31
1.6534131771140084e-16
0
LINE
5
337
100
AcDbEntity
8
0
100
AcDbLine
10
12.61795997951544
20
-2.753500650495234
30
1.8138419078023117e-16
11
12.61795997951544
21
-2.7735006504952344
31
1.8138419078023117e-16
0
LINE
5
338
100
AcDbEntity
8
0
100
AcDbLine
10
12.879959979515441
20
-2.9825006504952341
30
1.4929844464257052e-16
11
12.943959979515441
21
-2.9825006504952341
31
1.4146070512802742e-16
0
LINE
5
339
100
AcDbEntity
8
0
100
AcDbLine
10
13.55795997951544
20
-2.5615006504952329
30
1.6534131771140084e-16
11
13.493959979515441
21
-2.5615006504952329
31
1.6534131771140084e-16
0
LINE
5
340
100
AcDbEntity
8
0
100
AcDbLine
10
12.879959979515441
20
-2.5615006504952338
30
1.4929844464257052e-16
11
12.943959979515441
21
-2.5615006504952338
31
1.4146070512802742e-16
0
LINE
5
341
100
AcDbEntity
8
0
100
AcDbLine
10
13.55795997951544
20
-3.0135006504952333
30
1.6534131771140084e-16
11
13.55795997951544
21
-2.9825006504952332
31
1.6534131771140084e-16
0
LINE
5
342
100
AcDbEntity
8
0
100
AcDbLine
10
12.879959979515441
20
-2.5295006504952338
30
1.4929844464257052e-16
11
12.879959979515441
21
-2.5615006504952338
31
1.4929844464257052e-16
0
LINE
5
343
100
AcDbEntity
8
0
100
AcDbLine
10
12.879959979515441
20
-3.0135006504952337
30
1.4929844464257052e-16
11
12.879959979515441
21
-2.9825006504952341
31
1.4929844464257052e-16
0
LINE
5
344
100
AcDbEntity
8
0
100
AcDbLine
10
12.943959979515441
20
-2.4785006504952336
30
1.6534131771140084e-16
11
12.943959979515441
21
-2.5615006504952338
31
1.6534131771140084e-16
0
LINE
5
345
100
AcDbEntity
8
0
100
AcDbLine
10
12.808959979515441
20
-3.0135006504952337
30
1.5799343691651674e-16
11
12.879959979515441
21
-3.0135006504952337
31
1.4929844464257052e-16
0
LINE
5
346
100
AcDbEntity
8
0
100
AcDbLine
10
12.808959979515441
20
-3.0595006504952336
30
1.5799343691651674e-16
11
12.808959979515441
21
-3.0135006504952337
31
1.5799343691651674e-16
0
LINE
5
347
100
AcDbEntity
8
0
100
AcDbLine
10
13.55795997951544
20
-2.5295006504952333
30
1.6534131771140084e-16
11
13.55795997951544
21
-2.5615006504952329
31
1.6534131771140084e-16
0
LINE
5
348
100
AcDbEntity
8
0
100
AcDbLine
10
12.943959979515441
20
-2.9825006504952341
30
1.4146070512802742e-16
11
12.943959979515441
21
-3.028500650495233
31
9.7985743758296443e-17
0
LINE
5
349
100
AcDbEntity
8
0
100
AcDbLine
10
12.61795997951544
20
-3.0135006504952337
30
1.8138419078023117e-16
11
12.688959979515442
21
-3.0135006504952337
31
1.7268919850628497e-16
0
LINE
5
350
100
AcDbEntity
8
0
100
AcDbLine
10
13.55795997951544
20
-2.9825006504952332
30
1.6534131771140084e-16
11
13.493959979515441
21
-2.9825006504952332
31
1.6534131771140084e-16
0
LINE
5
351
100
AcDbEntity
8
0
100
AcDbLine
10
13.493959979515441
20
-2.5615006504952329
30
1.6534131771140084e-16
11
13.493959979515441
21
-2.4785006504952336
31
1.6534131771140084e-16
0
LINE
5
352
100
AcDbEntity
8
0
100
AcDbLine
10
19.781219822035123
20
-4.7814376583692484
30
1.6534131771140084e-16
11
19.801219822035122
21
-4.7814376583692484
31
1.6534131771140084e-16
0
LINE
5
353
100
AcDbEntity
8
0
100
AcDbLine
10
19.557219822035123
20
-4.7814376583692484
30
1.6534131771140084e-16
11
19.557219822035123
21
-5.0434376583692488
31
1.6534131771140084e-16
0
LINE
5
354
100
AcDbEntity
8
0
100
AcDbLine
10
20.08721982203512
20
-4.8524376583692481
30
1.6534131771140084e-16
11
20.041219822035124
21
-4.8524376583692481
31
1.6534131771140084e-16
0
LINE
5
355
100
AcDbEntity
8
0
100
AcDbLine
10
19.589219822035123
20
-5.7214376583692479
30
1.4929844464257052e-16
11
19.589219822035123
21
-5.6574376583692478
31
1.4146070512802742e-16
0
LINE
5
356
100
AcDbEntity
8
0
100
AcDbLine
10
19.506219822035124
20
-5.6574376583692478
30
1.6534131771140084e-16
11
19.589219822035123
21
-5.6574376583692478
31
1.6534131771140084e-16
0
LINE
5
357
100
AcDbEntity
8
0
100
AcDbLine
10
20.041219822035124
20
-5.0434376583692488
30
1.6534131771140084e-16
11
20.010219822035122
21
-5.0434376583692488
31
1.6534131771140084e-16
0
LINE
5
358
100
AcDbEntity
8
0
100
AcDbLine
10
20.041219822035124
20
-5.7924376583692485
30
1.5799343691651674e-16
11
20.041219822035124
21
-5.7214376583692479
31
1.4929844464257052e-16
0
LINE
5
359
100
AcDbEntity
8
0
100
AcDbLine
10
19.589219822035123
20
-5.0434376583692488
30
1.6534131771140084e-16
11
19.589219822035123
21
-5.1074376583692489
31
1.6534131771140084e-16
0
LINE
5
360
100
AcDbEntity
8
0
100
AcDbLine
10
20.087219822035124
20
-5.9124376583692477
30
1.7268919850628497e-16
11
20.041219822035124
21
-5.9124376583692477
31
1.7268919850628497e-16
0
LINE
5
361
100
AcDbEntity
8
0
100
AcDbLine
10
20.041219822035124
20
-5.9834376583692483
30
1.8138419078023117e-16
11
19.557219822035123
21
-5.9834376583692483
31
1.8138419078023117e-16
0
LINE
5
362
100
AcDbEntity
8
0
100
AcDbLine
10
20.041219822035124
20
-5.9834376583692483
30
1.8138419078023117e-16
11
20.041219822035124
21
-5.9124376583692477
31
1.7268919850628497e-16
0
LINE
5
363
100
AcDbEntity
8
0
100
AcDbLine
10
19.781219822035123
20
-5.9834376583692483
30
1.8138419078023117e-16
11
19.801219822035122
21
-5.9834376583692483
31
1.8138419078023117e-16
0
LINE
5
364
100
AcDbEntity
8
0
100
AcDbLine
10
19.506219822035121
20
-5.6574376583692478
30
1.8292994575584795e-16
11
19.506219822035121
21
-5.1074376583692489
31
1.8292994575584795e-16
0
LINE
5
365
100
AcDbEntity
8
0
100
AcDbLine
10
19.557219822035123
20
-5.9834376583692483
30
1.8138419078023117e-16
11
19.557219822035123
21
-5.7214376583692479
31
1.4929844464257052e-16
0
LINE
5
366
100
AcDbEntity
8
0
100
AcDbLine
10
20.087219822035124
20
-5.9124376583692477
30
1.7268919850628497e-16
11
20.087219822035124
21
-5.7924376583692485
31
1.5799343691651674e-16
0
LINE
5
367
100
AcDbEntity
8
0
100
AcDbLine
10
19.557219822035123
20
-5.0434376583692488
30
1.6534131771140084e-16
11
19.589219822035123
21
-5.0434376583692488
31
1.6534131771140084e-16
0
LINE
5
368
100
AcDbEntity
8
0
100
AcDbLine
10
20.041219822035124
20
-5.7214376583692479
30
1.4929844464257052e-16
11
20.010219822035122
21
-5.7214376583692479
31
1.4929844464257052e-16
0
LINE
5
369
100
AcDbEntity
8
0
100
AcDbLine
10
20.010219822035122
20
-5.6574376583692478
30
1.4146070512802742e-16
11
20.056219822035121
21
-5.6574376583692478
31
9.7985743758296443e-17
0
LINE
5
370
100
AcDbEntity
8
0
100
AcDbLine
10
20.010219822035122
20
-5.0434376583692488
30
1.6534131771140084e-16
11
20.010219822035122
21
-5.1074376583692489
31
1.6534131771140084e-16
0
LINE
5
371
100
AcDbEntity
8
0
100
AcDbLine
10
20.041219822035124
20
-4.9724376583692482
30
1.6534131771140084e-16
11
20.041219822035124
21
-5.0434376583692488
31
1.6534131771140084e-16
0
LINE
5
372
100
AcDbEntity
8
0
100
AcDbLine
10
20.087219822035124
20
-5.7924376583692485
30
1.5799343691651674e-16
11
20.041219822035124
21
-5.7924376583692485
31
1.5799343691651674e-16
0
LINE
5
373
100
AcDbEntity
8
0
100
AcDbLine
10
19.589219822035123
20
-5.1074376583692489
30
1.6534131771140084e-16
11
19.506219822035124
21
-5.1074376583692489
31
1.6534131771140084e-16
0
LINE
5
374
100
AcDbEntity
8
0
100
AcDbLine
10
19.557219822035123
20
-5.7214376583692479
30
1.4929844464257052e-16
11
19.589219822035123
21
-5.7214376583692479
31
1.4929844464257052e-16
0
LINE
5
375
100
AcDbEntity
8
0
100
AcDbLine
10
20.010219822035122
20
-5.1074376583692489
30
1.6534131771140084e-16
11
20.056219822035121
21
-5.1074376583692489
31
9.7985743758296443e-17
0
LINE
5
376
100
AcDbEntity
8
0
100
AcDbLine
10
20.08721982203512
20
-4.9724376583692482
30
1.6534131771140084e-16
11
20.041219822035124
21
-4.9724376583692482
31
1.6534131771140084e-16
0
LINE
5
377
100
AcDbEntity
8
0
100
AcDbLine
10
20.056219822035121
20
-5.1074376583692489
30
9.7985743758296443e-17
11
20.056219822035121
21
-5.6574376583692478
31
9.7985743758296443e-17
0
LINE
5
378
100
AcDbEntity
8
0
100
AcDbLine
10
20.08721982203512
20
-4.8524376583692481
30
1.6534131771140084e-16
11
20.08721982203512
21
-4.9724376583692482
31
1.6534131771140084e-16
0
LINE
5
379
100
AcDbEntity
8
0
100
AcDbLine
10
20.010219822035122
20
-5.7214376583692479
30
1.4929844464257052e-16
11
20.010219822035122
21
-5.6574376583692478
31
1.4146070512802742e-16
0
LINE
5
380
100
AcDbEntity
8
0
100
AcDbLine
10
20.041219822035124
20
-4.7814376583692484
30
1.6534131771140084e-16
11
20.041219822035124
21
-4.8524376583692481
31
1.6534131771140084e-16
0
LINE
5
381
100
AcDbEntity
8
0
100
AcDbLine
10
20.041219822035124
20
-4.7814376583692484
30
1.6534131771140084e-16
11
19.557219822035123
21
-4.7814376583692484
31
1.6534131771140084e-16
0
LINE
5
382
100
AcDbEntity
8
0
100
AcDbLine
10
19.781219822035123
20
-3.2814376583692475
30
1.6534131771140084e-16
11
19.801219822035122
21
-3.2814376583692475
31
1.6534131771140084e-16
0
LINE
5
383
100
AcDbEntity
8
0
100
AcDbLine
10
19.557219822035123
20
-3.2814376583692475
30
1.6534131771140084e-16
11
19.557219822035123
21
-3.5434376583692484
31
1.6534131771140084e-16
0
LINE
5
384
100
AcDbEntity
8
0
100
AcDbLine
10
20.08721982203512
20
-3.3524376583692477
30
1.6534131771140084e-16
11
20.041219822035124
21
-3.3524376583692477
31
1.6534131771140084e-16
0
LINE
5
385
100
AcDbEntity
8
0
100
AcDbLine
10
19.589219822035123
20
-4.221437658369247
30
1.4929844464257052e-16
11
19.589219822035123
21
-4.1574376583692469
31
1.4146070512802742e-16
0
LINE
5
386
100
AcDbEntity
8
0
100
AcDbLine
10
19.506219822035124
20
-4.1574376583692469
30
1.6534131771140084e-16
11
19.589219822035123
21
-4.1574376583692469
31
1.6534131771140084e-16
0
LINE
5
387
100
AcDbEntity
8
0
100
AcDbLine
10
20.041219822035124
20
-3.5434376583692484
30
1.6534131771140084e-16
11
20.010219822035122
21
-3.5434376583692484
31
1.6534131771140084e-16
0
LINE
5
388
100
AcDbEntity
8
0
100
AcDbLine
10
20.041219822035124
20
-4.2924376583692476
30
1.5799343691651674e-16
11
20.041219822035124
21
-4.221437658369247
31
1.4929844464257052e-16
0
LINE
5
389
100
AcDbEntity
8
0
100
AcDbLine
10
19.589219822035123
20
-3.5434376583692484
30
1.6534131771140084e-16
11
19.589219822035123
21
-3.607437658369248
31
1.6534131771140084e-16
0
LINE
5
390
100
AcDbEntity
8
0
100
AcDbLine
10
20.087219822035124
20
-4.4124376583692477
30
1.7268919850628497e-16
11
20.041219822035124
21
-4.4124376583692477
31
1.7268919850628497e-16
0
LINE
5
391
100
AcDbEntity
8
0
100
AcDbLine
10
20.041219822035124
20
-4.4834376583692475
30
1.8138419078023117e-16
11
19.557219822035123
21
-4.4834376583692475
31
1.8138419078023117e-16
0
LINE
5
392
100
AcDbEntity
8
0
100
AcDbLine
10
20.041219822035124
20
-4.4834376583692475
30
1.8138419078023117e-16
11
20.041219822035124
21
-4.4124376583692477
31
1.7268919850628497e-16
0
LINE
5
393
100
AcDbEntity
8
0
100
AcDbLine
10
19.781219822035123
20
-4.4834376583692475
30
1.8138419078023117e-16
11
19.801219822035122
21
-4.4834376583692475
31
1.8138419078023117e-16
0
LINE
5
394
100
AcDbEntity
8
0
100
AcDbLine
10
19.557219822035123
20
-4.4834376583692475
30
1.8138419078023117e-16
11
19.557219822035123
21
-4.221437658369247
31
1.4929844464257052e-16
0
LINE
5
395
100
AcDbEntity
8
0
100
AcDbLine
10
20.087219822035124
20
-4.4124376583692477
30
1.7268919850628497e-16
11
20.087219822035124
21
-4.2924376583692476
31
1.5799343691651674e-16
0
LINE
5
396
100
AcDbEntity
8
0
100
AcDbLine
10
19.557219822035123
20
-3.5434376583692484
30
1.6534131771140084e-16
11
19.589219822035123
21
-3.5434376583692484
31
1.6534131771140084e-16
0
LINE
5
397
100
AcDbEntity
8
0
100
AcDbLine
10
20.041219822035124
20
-4.221437658369247
30
1.4929844464257052e-16
11
20.010219822035122
21
-4.221437658369247
31
1.4929844464257052e-16
0
LINE
5
398
100
AcDbEntity
8
0
100
AcDbLine
10
20.010219822035122
20
-4.1574376583692469
30
1.4146070512802742e-16
11
20.056219822035121
21
-4.1574376583692469
31
9.7985743758296443e-17
0
LINE
5
399
100
AcDbEntity
8
0
100
AcDbLine
10
20.010219822035122
20
-3.5434376583692484
30
1.6534131771140084e-16
11
20.010219822035122
21
-3.607437658369248
31
1.6534131771140084e-16
0
LINE
5
400
100
AcDbEntity
8
0
100
AcDbLine
10
20.041219822035124
20
-3.4724376583692478
30
1.6534131771140084e-16
11
20.041219822035124
21
-3.5434376583692484
31
1.6534131771140084e-16
0
LINE
5
401
100
AcDbEntity
8
0
100
AcDbLine
10
20.087219822035124
20
-4.2924376583692476
30
1.5799343691651674e-16
11
20.041219822035124
21
-4.2924376583692476
31
1.5799343691651674e-16
0
LINE
5
402
100
AcDbEntity
8
0
100
AcDbLine
10
19.589219822035123
20
-3.607437658369248
30
1.6534131771140084e-16
11
19.506219822035124
21
-3.607437658369248
31
1.6534131771140084e-16
0
LINE
5
403
100
AcDbEntity
8
0
100
AcDbLine
10
19.557219822035123
20
-4.221437658369247
30
1.4929844464257052e-16
11
19.589219822035123
21
-4.221437658369247
31
1.4929844464257052e-16
0
LINE
5
404
100
AcDbEntity
8
0
100
AcDbLine
10
20.010219822035122
20
-3.607437658369248
30
1.6534131771140084e-16
11
20.056219822035121
21
-3.607437658369248
31
9.7985743758296443e-17
0
LINE
5
405
100
AcDbEntity
8
0
100
AcDbLine
10
20.08721982203512
20
-3.4724376583692478
30
1.6534131771140084e-16
11
20.041219822035124
21
-3.4724376583692478
31
1.6534131771140084e-16
0
LINE
5
406
100
AcDbEntity
8
0
100
AcDbLine
10
20.056219822035121
20
-3.607437658369248
30
9.7985743758296443e-17
11
20.056219822035121
21
-4.1574376583692469
31
9.7985743758296443e-17
0
LINE
5
407
100
AcDbEntity
8
0
100
AcDbLine
10
20.08721982203512
20
-3.3524376583692477
30
1.6534131771140084e-16
11
20.08721982203512
21
-3.4724376583692478
31
1.6534131771140084e-16
0
LINE
5
408
100
AcDbEntity
8
0
100
AcDbLine
10
20.010219822035122
20
-4.221437658369247
30
1.4929844464257052e-16
11
20.010219822035122
21
-4.1574376583692469
31
1.4146070512802742e-16
0
LINE
5
409
100
AcDbEntity
8
0
100
AcDbLine
10
20.041219822035124
20
-3.2814376583692475
30
1.6534131771140084e-16
11
20.041219822035124
21
-3.3524376583692477
31
1.6534131771140084e-16
0
LINE
5
410
100
AcDbEntity
8
0
100
AcDbLine
10
20.041219822035124
20
-3.2814376583692475
30
1.6534131771140084e-16
11
19.557219822035123
21
-3.2814376583692475
31
1.6534131771140084e-16
0
LINE
5
411
100
AcDbEntity
8
0
100
AcDbLine
10
14.101219822035125
20
-5.0035006504952362
30
1.6534131771140084e-16
11
14.101219822035125
21
-5.0235006504952366
31
1.6534131771140084e-16
0
LINE
5
412
100
AcDbEntity
8
0
100
AcDbLine
10
14.101219822035125
20
-4.779500650495236
30
1.6534131771140084e-16
11
13.839219822035124
21
-4.779500650495236
31
1.6534131771140084e-16
0
LINE
5
413
100
AcDbEntity
8
0
100
AcDbLine
10
14.030219822035125
20
-5.3095006504952353
30
1.6534131771140084e-16
11
14.030219822035125
21
-5.263500650495236
31
1.6534131771140084e-16
0
LINE
5
414
100
AcDbEntity
8
0
100
AcDbLine
10
13.161219822035125
20
-4.811500650495236
30
1.4929844464257052e-16
11
13.225219822035125
21
-4.811500650495236
31
1.4146070512802742e-16
0
LINE
5
415
100
AcDbEntity
8
0
100
AcDbLine
10
13.225219822035125
20
-4.7285006504952367
30
1.6534131771140084e-16
11
13.225219822035125
21
-4.811500650495236
31
1.6534131771140084e-16
0
LINE
5
416
100
AcDbEntity
8
0
100
AcDbLine
10
13.839219822035124
20
-5.263500650495236
30
1.6534131771140084e-16
11
13.839219822035124
21
-5.2325006504952354
31
1.6534131771140084e-16
0
LINE
5
417
100
AcDbEntity
8
0
100
AcDbLine
10
13.090219822035126
20
-5.263500650495236
30
1.5799343691651674e-16
11
13.161219822035125
21
-5.263500650495236
31
1.4929844464257052e-16
0
LINE
5
418
100
AcDbEntity
8
0
100
AcDbLine
10
13.839219822035124
20
-4.811500650495236
30
1.6534131771140084e-16
11
13.775219822035124
21
-4.811500650495236
31
1.6534131771140084e-16
0
LINE
5
419
100
AcDbEntity
8
0
100
AcDbLine
10
12.970219822035125
20
-5.3095006504952362
30
1.7268919850628497e-16
11
12.970219822035125
21
-5.263500650495236
31
1.7268919850628497e-16
0
LINE
5
420
100
AcDbEntity
8
0
100
AcDbLine
10
12.899219822035125
20
-5.263500650495236
30
1.8138419078023117e-16
11
12.899219822035125
21
-4.7795006504952369
31
1.8138419078023117e-16
0
LINE
5
421
100
AcDbEntity
8
0
100
AcDbLine
10
12.899219822035125
20
-5.263500650495236
30
1.8138419078023117e-16
11
12.970219822035125
21
-5.263500650495236
31
1.7268919850628497e-16
0
LINE
5
422
100
AcDbEntity
8
0
100
AcDbLine
10
12.899219822035125
20
-5.0035006504952371
30
1.8138419078023117e-16
11
12.899219822035125
21
-5.0235006504952366
31
1.8138419078023117e-16
0
LINE
5
423
100
AcDbEntity
8
0
100
AcDbLine
10
13.225219822035125
20
-4.7285006504952332
30
1.8292994575584795e-16
11
13.775219822035124
21
-4.7285006504952332
31
1.8292994575584795e-16
0
LINE
5
424
100
AcDbEntity
8
0
100
AcDbLine
10
12.899219822035125
20
-4.7795006504952369
30
1.8138419078023117e-16
11
13.161219822035125
21
-4.7795006504952369
31
1.4929844464257052e-16
0
LINE
5
425
100
AcDbEntity
8
0
100
AcDbLine
10
12.970219822035125
20
-5.3095006504952362
30
1.7268919850628497e-16
11
13.090219822035126
21
-5.3095006504952362
31
1.5799343691651674e-16
0
LINE
5
426
100
AcDbEntity
8
0
100
AcDbLine
10
13.839219822035124
20
-4.779500650495236
30
1.6534131771140084e-16
11
13.839219822035124
21
-4.811500650495236
31
1.6534131771140084e-16
0
LINE
5
427
100
AcDbEntity
8
0
100
AcDbLine
10
13.161219822035125
20
-5.263500650495236
30
1.4929844464257052e-16
11
13.161219822035125
21
-5.2325006504952363
31
1.4929844464257052e-16
0
LINE
5
428
100
AcDbEntity
8
0
100
AcDbLine
10
13.225219822035125
20
-5.2325006504952363
30
1.4146070512802742e-16
11
13.225219822035125
21
-5.2785006504952356
31
9.7985743758296443e-17
0
LINE
5
429
100
AcDbEntity
8
0
100
AcDbLine
10
13.839219822035124
20
-5.2325006504952354
30
1.6534131771140084e-16
11
13.775219822035124
21
-5.2325006504952354
31
1.6534131771140084e-16
0
LINE
5
430
100
AcDbEntity
8
0
100
AcDbLine
10
13.910219822035124
20
-5.263500650495236
30
1.6534131771140084e-16
11
13.839219822035124
21
-5.263500650495236
31
1.6534131771140084e-16
0
LINE
5
431
100
AcDbEntity
8
0
100
AcDbLine
10
13.090219822035126
20
-5.3095006504952362
30
1.5799343691651674e-16
11
13.090219822035126
21
-5.263500650495236
31
1.5799343691651674e-16
0
LINE
5
432
100
AcDbEntity
8
0
100
AcDbLine
10
13.775219822035124
20
-4.811500650495236
30
1.6534131771140084e-16
11
13.775219822035124
21
-4.7285006504952367
31
1.6534131771140084e-16
0
LINE
5
433
100
AcDbEntity
8
0
100
AcDbLine
10
13.161219822035125
20
-4.7795006504952369
30
1.4929844464257052e-16
11
13.161219822035125
21
-4.811500650495236
31
1.4929844464257052e-16
0
LINE
5
434
100
AcDbEntity
8
0
100
AcDbLine
10
13.775219822035124
20
-5.2325006504952354
30
1.6534131771140084e-16
11
13.775219822035124
21
-5.2785006504952356
31
9.7985743758296443e-17
0
LINE
5
435
100
AcDbEntity
8
0
100
AcDbLine
10
13.910219822035124
20
-5.3095006504952353
30
1.6534131771140084e-16
11
13.910219822035124
21
-5.263500650495236
31
1.6534131771140084e-16
0
LINE
5
436
100
AcDbEntity
8
0
100
AcDbLine
10
13.775219822035124
20
-5.2785006504952356
30
9.7985743758296443e-17
11
13.225219822035125
21
-5.2785006504952356
31
9.7985743758296443e-17
0
LINE
5
437
100
AcDbEntity
8
0
100
AcDbLine
10
14.030219822035125
20
-5.3095006504952353
30
1.6534131771140084e-16
11
13.910219822035124
21
-5.3095006504952353
31
1.6534131771140084e-16
0
LINE
5
438
100
AcDbEntity
8
0
100
AcDbLine
10
13.161219822035125
20
-5.2325006504952363
30
1.4929844464257052e-16
11
13.225219822035125
21
-5.2325006504952363
31
1.4146070512802742e-16
0
LINE
5
439
100
AcDbEntity
8
0
100
AcDbLine
10
14.101219822035125
20
-5.263500650495236
30
1.6534131771140084e-16
11
14.030219822035125
21
-5.263500650495236
31
1.6534131771140084e-16
0
LINE
5
440
100
AcDbEntity
8
0
100
AcDbLine
10
14.101219822035125
20
-5.263500650495236
30
1.6534131771140084e-16
11
14.101219822035125
21
-4.779500650495236
31
1.6534131771140084e-16
0
LINE
5
441
100
AcDbEntity
8
0
100
AcDbLine
10
6.1153158273788071
20
-6.3918375518434996
30
1.6534131771140084e-16
11
6.111157593562452
21
-6.4114005038581761
31
1.6534131771140084e-16
0
LINE
5
442
100
AcDbEntity
8
0
100
AcDbLine
10
6.1618880461219847
20
-6.1727324892791264
30
1.6534131771140084e-16
11
5.9056133747297279
21
-6.1182596262848739
31
1.6534131771140084e-16
0
LINE
5
443
100
AcDbEntity
8
0
100
AcDbLine
10
5.9822463703364734
20
-6.6763889876199825
30
1.6534131771140084e-16
11
5.9918103081140908
21
-6.6313941979862268
31
1.6534131771140084e-16
0
LINE
5
444
100
AcDbEntity
8
0
100
AcDbLine
10
5.2357761273260399
20
-6.0085962231339156
30
1.4929844464257052e-16
11
5.2983775737730037
21
-6.0219025713462537
31
1.4146070512802742e-16
0
LINE
5
445
100
AcDbEntity
8
0
100
AcDbLine
10
5.3156342441108775
20
-5.9407163204853468
30
1.6534131771140084e-16
11
5.2983775737730037
21
-6.0219025713462537
31
1.6534131771140084e-16
0
LINE
5
446
100
AcDbEntity
8
0
100
AcDbLine
10
5.804984116373932
20
-6.5916830650400353
30
1.6534131771140084e-16
11
5.811429378789283
21
-6.5613604894172877
31
1.6534131771140084e-16
0
LINE
5
447
100
AcDbEntity
8
0
100
AcDbLine
10
5.0723515634243128
20
-6.4359572086175358
30
1.5799343691651674e-16
11
5.1418000430764126
21
-6.4507189386655952
31
1.4929844464257052e-16
0
LINE
5
448
100
AcDbEntity
8
0
100
AcDbLine
10
5.8989602006235593
20
-6.1495603495083557
30
1.6534131771140084e-16
11
5.8363587541765964
21
-6.1362540012960194
31
1.6534131771140084e-16
0
LINE
5
449
100
AcDbEntity
8
0
100
AcDbLine
10
4.9454099135586391
20
-6.4560025953531577
30
1.7268919850628497e-16
11
4.9549738513362556
21
-6.4110078057194038
31
1.7268919850628497e-16
0
LINE
5
450
100
AcDbEntity
8
0
100
AcDbLine
10
4.8855253716841549
20
-6.3962460756713426
30
1.8138419078023117e-16
11
4.9861546300399509
21
-5.9228226369161812
31
1.8138419078023117e-16
0
LINE
5
451
100
AcDbEntity
8
0
100
AcDbLine
10
4.8855253716841549
20
-6.3962460756713426
30
1.8138419078023117e-16
11
4.9549738513362556
21
-6.4110078057194038
31
1.7268919850628497e-16
0
LINE
5
452
100
AcDbEntity
8
0
100
AcDbLine
10
4.9395824112967723
20
-6.1419276994805525
30
1.8138419078023117e-16
11
4.9354241774804182
21
-6.161490651495229
31
1.8138419078023117e-16
0
LINE
5
453
100
AcDbEntity
8
0
100
AcDbLine
10
5.3156342441108784
20
-5.9407163204853441
30
1.8292994575584795e-16
11
5.8536154245144711
21
-6.0550677504351116
31
1.8292994575584795e-16
0
LINE
5
454
100
AcDbEntity
8
0
100
AcDbLine
10
4.9861546300399509
20
-5.9228226369161812
30
1.8138419078023117e-16
11
5.2424293014322085
21
-5.9772954999104337
31
1.4929844464257052e-16
0
LINE
5
455
100
AcDbEntity
8
0
100
AcDbLine
10
4.9454099135586391
20
-6.4560025953531577
30
1.7268919850628497e-16
11
5.0627876256466955
21
-6.480951998251288
31
1.5799343691651674e-16
0
LINE
5
456
100
AcDbEntity
8
0
100
AcDbLine
10
5.9056133747297279
20
-6.1182596262848739
30
1.6534131771140084e-16
11
5.8989602006235593
21
-6.1495603495083557
31
1.6534131771140084e-16
0
LINE
5
457
100
AcDbEntity
8
0
100
AcDbLine
10
5.1418000430764126
20
-6.4507189386655952
30
1.4929844464257052e-16
11
5.1482453054917636
21
-6.4203963630428458
31
1.4929844464257052e-16
0
LINE
5
458
100
AcDbEntity
8
0
100
AcDbLine
10
5.2108467519387274
20
-6.4337027112551839
30
1.4146070512802742e-16
11
5.20128281416111
21
-6.4786975008889396
31
9.7985743758296443e-17
0
LINE
5
459
100
AcDbEntity
8
0
100
AcDbLine
10
5.811429378789283
20
-6.5613604894172877
30
1.6534131771140084e-16
11
5.7488279323423193
21
-6.5480541412049513
31
1.6534131771140084e-16
0
LINE
5
460
100
AcDbEntity
8
0
100
AcDbLine
10
5.8744325960260326
20
-6.6064447950880965
30
1.6534131771140084e-16
11
5.804984116373932
21
-6.5916830650400353
31
1.6534131771140084e-16
0
LINE
5
461
100
AcDbEntity
8
0
100
AcDbLine
10
5.0627876256466955
20
-6.480951998251288
30
1.5799343691651674e-16
11
5.0723515634243128
21
-6.4359572086175358
31
1.5799343691651674e-16
0
LINE
5
462
100
AcDbEntity
8
0
100
AcDbLine
10
5.8363587541765964
20
-6.1362540012960194
30
1.6534131771140084e-16
11
5.8536154245144694
21
-6.0550677504351142
31
1.6534131771140084e-16
0
LINE
5
463
100
AcDbEntity
8
0
100
AcDbLine
10
5.2424293014322085
20
-5.9772954999104337
30
1.4929844464257052e-16
11
5.2357761273260399
21
-6.0085962231339156
31
1.4929844464257052e-16
0
LINE
5
464
100
AcDbEntity
8
0
100
AcDbLine
10
5.7488279323423193
20
-6.5480541412049513
30
1.6534131771140084e-16
11
5.7392639945647028
21
-6.593048930838707
31
9.7985743758296443e-17
0
LINE
5
465
100
AcDbEntity
8
0
100
AcDbLine
10
5.8648686582484153
20
-6.6514395847218521
30
1.6534131771140084e-16
11
5.8744325960260326
21
-6.6064447950880965
31
1.6534131771140084e-16
0
LINE
5
466
100
AcDbEntity
8
0
100
AcDbLine
10
5.7392639945647028
20
-6.593048930838707
30
9.7985743758296443e-17
11
5.20128281416111
21
-6.4786975008889396
31
9.7985743758296443e-17
0
LINE
5
467
100
AcDbEntity
8
0
100
AcDbLine
10
5.9822463703364734
20
-6.6763889876199825
30
1.6534131771140084e-16
11
5.8648686582484153
21
-6.6514395847218521
31
1.6534131771140084e-16
0
LINE
5
468
100
AcDbEntity
8
0
100
AcDbLine
10
5.1482453054917636
20
-6.4203963630428458
30
1.4929844464257052e-16
11
5.2108467519387274
21
-6.4337027112551839
31
1.4146070512802742e-16
0
LINE
5
469
100
AcDbEntity
8
0
100
AcDbLine
10
6.0612587877661905
20
-6.6461559280342879
30
1.6534131771140084e-16
11
5.9918103081140908
21
-6.6313941979862268
31
1.6534131771140084e-16
0
LINE
5
470
100
AcDbEntity
8
0
100
AcDbLine
10
6.0612587877661905
20
-6.6461559280342879
30
1.6534131771140084e-16
11
6.1618880461219847
21
-6.1727324892791264
31
1.6534131771140084e-16
0
LINE
5
471
100
AcDbEntity
8
0
100
AcDbLine
10
9.7505706966416383
20
-6.0262376868536158
30
1.6534131771140084e-16
11
9.7547289304579934
21
-6.0458006388682914
31
1.6534131771140084e-16
0
LINE
5
472
100
AcDbEntity
8
0
100
AcDbLine
10
9.7039984778984607
20
-5.8071326242892427
30
1.6534131771140084e-16
11
9.4477238065062039
21
-5.8616054872834962
31
1.6534131771140084e-16
0
LINE
5
473
100
AcDbEntity
8
0
100
AcDbLine
10
9.7447431943797724
20
-6.340312582726221
30
1.6534131771140084e-16
11
9.7351792566021569
21
-6.2953177930924662
31
1.6534131771140084e-16
0
LINE
5
474
100
AcDbEntity
8
0
100
AcDbLine
10
8.7911929073148531
20
-6.033870336881419
30
1.4929844464257052e-16
11
8.8537943537618151
21
-6.0205639886690818
31
1.4146070512802742e-16
0
LINE
5
475
100
AcDbEntity
8
0
100
AcDbLine
10
8.8365376834239413
20
-5.9393777378081776
30
1.6534131771140084e-16
11
8.8537943537618151
21
-6.0205639886690818
31
1.6534131771140084e-16
0
LINE
5
476
100
AcDbEntity
8
0
100
AcDbLine
10
9.548353064861999
20
-6.3350289260386594
30
1.6534131771140084e-16
11
9.5419078024466497
21
-6.3047063504159109
31
1.6534131771140084e-16
0
LINE
5
477
100
AcDbEntity
8
0
100
AcDbLine
10
8.815720511912378
20
-6.4907547824611616
30
1.5799343691651674e-16
11
8.8851689915644805
21
-6.4759930524130986
31
1.4929844464257052e-16
0
LINE
5
478
100
AcDbEntity
8
0
100
AcDbLine
10
9.4543769806123716
20
-5.892906210506978
30
1.6534131771140084e-16
11
9.3917755341654079
21
-5.9062125587193144
31
1.6534131771140084e-16
0
LINE
5
479
100
AcDbEntity
8
0
100
AcDbLine
10
8.7079067376019399
20
-6.5606989749930475
30
1.7268919850628497e-16
11
8.6983427998243226
21
-6.5157041853592919
31
1.7268919850628497e-16
0
LINE
5
480
100
AcDbEntity
8
0
100
AcDbLine
10
8.6288943201722219
20
-6.5304659154073521
30
1.8138419078023117e-16
11
8.5282650618164251
21
-6.0570424766521889
31
1.8138419078023117e-16
0
LINE
5
481
100
AcDbEntity
8
0
100
AcDbLine
10
8.6288943201722219
20
-6.5304659154073521
30
1.8138419078023117e-16
11
8.6983427998243226
21
-6.5157041853592919
31
1.7268919850628497e-16
0
LINE
5
482
100
AcDbEntity
8
0
100
AcDbLine
10
8.5748372805596045
20
-6.2761475392165647
30
1.8138419078023117e-16
11
8.5789955143759595
21
-6.2957104912312385
31
1.8138419078023117e-16
0
LINE
5
483
100
AcDbEntity
8
0
100
AcDbLine
10
8.8365376834239413
20
-5.9393777378081749
30
1.8292994575584795e-16
11
9.3745188638275341
21
-5.8250263078584075
31
1.8292994575584795e-16
0
LINE
5
484
100
AcDbEntity
8
0
100
AcDbLine
10
8.5282650618164251
20
-6.0570424766521889
30
1.8138419078023117e-16
11
8.7845397332086836
21
-6.0025696136579363
31
1.4929844464257052e-16
0
LINE
5
485
100
AcDbEntity
8
0
100
AcDbLine
10
8.7079067376019399
20
-6.5606989749930475
30
1.7268919850628497e-16
11
8.8252844496899954
21
-6.5357495720949172
31
1.5799343691651674e-16
0
LINE
5
486
100
AcDbEntity
8
0
100
AcDbLine
10
9.4477238065062039
20
-5.8616054872834962
30
1.6534131771140084e-16
11
9.4543769806123716
21
-5.892906210506978
31
1.6534131771140084e-16
0
LINE
5
487
100
AcDbEntity
8
0
100
AcDbLine
10
8.8851689915644805
20
-6.4759930524130986
30
1.4929844464257052e-16
11
8.8787237291491294
21
-6.4456704767903528
31
1.4929844464257052e-16
0
LINE
5
488
100
AcDbEntity
8
0
100
AcDbLine
10
8.9413251755960932
20
-6.4323641285780173
30
1.4146070512802742e-16
11
8.9508891133737087
21
-6.4773589182117703
31
9.7985743758296443e-17
0
LINE
5
489
100
AcDbEntity
8
0
100
AcDbLine
10
9.5419078024466497
20
-6.3047063504159109
30
1.6534131771140084e-16
11
9.479306355999686
21
-6.3180126986282472
31
1.6534131771140084e-16
0
LINE
5
490
100
AcDbEntity
8
0
100
AcDbLine
10
9.6178015445140996
20
-6.3202671959905992
30
1.6534131771140084e-16
11
9.548353064861999
21
-6.3350289260386594
31
1.6534131771140084e-16
0
LINE
5
491
100
AcDbEntity
8
0
100
AcDbLine
10
8.8252844496899954
20
-6.5357495720949172
30
1.5799343691651674e-16
11
8.815720511912378
21
-6.4907547824611616
31
1.5799343691651674e-16
0
LINE
5
492
100
AcDbEntity
8
0
100
AcDbLine
10
9.3917755341654079
20
-5.9062125587193144
30
1.6534131771140084e-16
11
9.3745188638275341
21
-5.8250263078584101
31
1.6534131771140084e-16
0
LINE
5
493
100
AcDbEntity
8
0
100
AcDbLine
10
8.7845397332086836
20
-6.0025696136579363
30
1.4929844464257052e-16
11
8.7911929073148531
21
-6.033870336881419
31
1.4929844464257052e-16
0
LINE
5
494
100
AcDbEntity
8
0
100
AcDbLine
10
9.479306355999686
20
-6.3180126986282472
30
1.6534131771140084e-16
11
9.4888702937773015
21
-6.3630074882620029
31
9.7985743758296443e-17
0
LINE
5
495
100
AcDbEntity
8
0
100
AcDbLine
10
9.627365482291717
20
-6.3652619856243522
30
1.6534131771140084e-16
11
9.6178015445140996
21
-6.3202671959905992
31
1.6534131771140084e-16
0
LINE
5
496
100
AcDbEntity
8
0
100
AcDbLine
10
9.7447431943797724
20
-6.340312582726221
30
1.6534131771140084e-16
11
9.627365482291717
21
-6.3652619856243522
31
1.6534131771140084e-16
0
LINE
5
497
100
AcDbEntity
8
0
100
AcDbLine
10
8.8787237291491294
20
-6.4456704767903528
30
1.4929844464257052e-16
11
8.9413251755960932
21
-6.4323641285780173
31
1.4146070512802742e-16
0
LINE
5
498
100
AcDbEntity
8
0
100
AcDbLine
10
9.8046277362542558
20
-6.2805560630444059
30
1.6534131771140084e-16
11
9.7351792566021569
21
-6.2953177930924662
31
1.6534131771140084e-16
0
LINE
5
499
100
AcDbEntity
8
0
100
AcDbLine
10
9.8046277362542558
20
-6.2805560630444059
30
1.6534131771140084e-16
11
9.7039984778984607
21
-5.8071326242892427
31
1.6534131771140084e-16
0
LWPOLYLINE
5
500
100
AcDbEntity
8
0
100
AcDbPolyline
90
7
70
1
43
0.0
10
0.91973715669872014
20
-6.7251909613740093
10
0.91894421109063673
20
-1.0629921418241046
10
20.762142742217495
20
-1.0629921418239954
10
20.762142742217495
20
-6.7251909613740093
10
11.338749317875852
20
-6.7251909613740093
10
7.3962661040594684
20
-7.5631916377445974
10
3.4537828902430845
20
-6.7251909613740093
0
CIRCLE
5
501
100
AcDbEntity
8
0
100
AcDbCircle
10
20.609321518006183
20
-6.5723697371626972
30
4.2073029949291628e-17
40
0.054133858267716023
210
0
220
0
230
1
0
CIRCLE
5
502
100
AcDbEntity
8
0
100
AcDbCircle
10
20.624347466626944
20
-4.7918766562596913
30
4.0863519359496235e-16
40
0.054133858267716689
210
0
220
0
230
1
0
CIRCLE
5
503
100
AcDbEntity
8
0
100
AcDbCircle
10
20.624347466626944
20
-2.9963254751573292
30
4.0863519359496235e-16
40
0.054133858267716599
210
0
220
0
230
1
0
CIRCLE
5
504
100
AcDbEntity
8
0
100
AcDbCircle
10
20.609329706845084
20
-1.2158051771964125
30
5.854307030205486e-16
40
0.054133858267716446
210
0
220
0
230
1
0
CIRCLE
5
505
100
AcDbEntity
8
0
100
AcDbCircle
10
1.0717954361248332
20
-1.2158219627669384
30
6.1651318776192879e-16
40
0.054133858267716481
210
0
220
0
230
1
0
CIRCLE
5
506
100
AcDbEntity
8
0
100
AcDbCircle
10
1.0572616839517706
20
-2.9806004062631435
30
-1.3514527327869781e-17
40
0.054133858267716599
210
0
220
0
230
1
0
CIRCLE
5
507
100
AcDbEntity
8
0
100
AcDbCircle
10
1.0575131365154402
20
-4.7761515697585466
30
-1.3514527327869781e-17
40
0.054133858267716349
210
0
220
0
230
1
0
CIRCLE
5
508
100
AcDbEntity
8
0
100
AcDbCircle
10
1.0725283860938934
20
-6.5723783332922894
30
-1.3514527327869781e-17
40
0.054133858267716599
210
0
220
0
230
1
0
CIRCLE
5
509
100
AcDbEntity
8
0
100
AcDbCircle
10
3.4682657573072508
20
-6.5873956857834584
30
5.878471071008894e-18
40
0.054133858267716252
210
0
220
0
230
1
0
CIRCLE
5
510
100
AcDbEntity
8
0
100
AcDbCircle
10
11.324266450811686
20
-6.5873956857834584
30
6.7632236287036889e-17
40
0.054133858267716252
210
0
220
0
230
1
0
LWPOLYLINE
5
511
100
AcDbEntity
8
0
100
AcDbPolyline
90
6
70
1
43
0.0
10
0.4464646692562701
20
-0.59055119694221581
10
6.292897760515717
20
-0.59055119694217906
10
6.292897760515717
20
-0.86614174812331712
10
0.72209381738984935
20
-0.86614174812331712
10
0.72245169594381986
20
-3.4216506067171673
10
0.44686114206031252
20
-3.4216506067171686
0
LWPOLYLINE
5
512
100
AcDbEntity
8
0
100
AcDbPolyline
90
6
70
1
43
0.0
10
8.0554560425075667
20
-0.86614174812320788
10
8.0554560425075667
20
-0.5905511969421765
10
21.234583687099388
20
-0.5905511969421039
10
21.234583687099388
20
-3.4216506067171109
10
20.958993135918284
20
-3.4216506067171113
10
20.958993135918284
20
-0.86614174812320788
0
LWPOLYLINE
5
513
100
AcDbEntity
8
0
100
AcDbPolyline
90
10
70
1
43
0.0
10
6.9153406981504641
20
-8.2408763087982848
10
2.9728574843341025
20
-7.4028756324277012
10
0.43881175078975004
20
-7.4028756324277012
10
0.43881175078975004
20
-4.571773270222991
10
0.71436371042318825
20
-4.571773270222991
10
0.71436371042318825
20
-7.1272850812465984
10
3.0018232184624352
20
-7.1272850812465984
10
6.9153406981504641
20
-7.9591289007646173
10
8.8720994379944802
20
-7.543206991005607
10
8.929397935463939
20
-7.8127752274283093
0
LWPOLYLINE
5
514
100
AcDbEntity
8
0
100
AcDbPolyline
90
8
70
1
43
0.0
10
11.811190262757743
20
-7.1976319062559009
10
21.234583687099388
20
-7.1976319062559009
10
21.234583687099388
20
-4.3665324964808931
10
20.958993135918284
20
-4.366532496480894
10
20.958993135918284
20
-6.9220413550747972
10
11.78222452862941
20
-6.9220413550747972
10
9.8254657887853831
20
-7.3379632648338085
10
9.8827642862548455
20
-7.6075315012565099
0
LWPOLYLINE
5
515
100
AcDbEntity
8
0
100
AcDbPolyline
90
6
70
1
43
0.0
10
0.65342534404115071
20
-0.83812378149117395
10
0.70842025927345664
20
-0.74389224161922296
10
0.65431080952277376
20
-0.64914947801309875
10
0.54520644453978506
20
-0.64863825427892552
10
0.49021152930747913
20
-0.74286979415087651
10
0.5443209790581619
20
-0.83761255775700061
0
LWPOLYLINE
5
516
100
AcDbEntity
8
0
100
AcDbPolyline
90
6
70
1
43
0.0
10
0.63933492345815646
20
-2.6026476503576328
10
0.69388770479890849
20
-2.5081594613812546
10
0.63933492345815646
20
-2.4136712724048768
10
0.53022936077665239
20
-2.4136712724048768
10
0.47567657943590019
20
-2.5081594613812546
10
0.53022936077665228
20
-2.6026476503576328
0
LWPOLYLINE
5
517
100
AcDbEntity
8
0
100
AcDbPolyline
90
6
70
1
43
0.0
10
0.63114051194721965
20
-5.5483244297886252
10
0.68569329328797179
20
-5.4538362408122474
10
0.63114051194721976
20
-5.3593480518358687
10
0.52203494926571559
20
-5.3593480518358687
10
0.46748216792496355
20
-5.4538362408122474
10
0.52203494926571559
20
-5.5483244297886252
0
LWPOLYLINE
5
518
100
AcDbEntity
8
0
100
AcDbPolyline
90
6
70
1
43
0.0
10
0.53705019884417005
20
-7.1555748153696044
10
0.48249741750341824
20
-7.2500630043459813
10
0.53705019884416993
20
-7.3445511933223591
10
0.64615576152567333
20
-7.3445511933223591
10
0.70070854286642503
20
-7.2500630043459813
10
0.64615576152567333
20
-7.1555748153696044
0
LWPOLYLINE
5
519
100
AcDbEntity
8
0
100
AcDbPolyline
90
6
70
1
43
0.0
10
6.8607879168097128
20
-8.0055144158050719
10
6.8062351354689605
20
-8.1000026047814497
10
6.860787916809711
20
-8.1944907937578275
10
6.9698934794912146
20
-8.1944907937578275
10
7.0244462608319669
20
-8.1000026047814497
10
6.9698934794912164
20
-8.0055144158050719
0
CIRCLE
5
520
100
AcDbEntity
8
0
100
AcDbCircle
10
7.3962661040594684
20
-7.4223179337277632
30
-1.1548492813335715e-16
40
0.054133858267716252
210
0
220
0
230
1
0
LWPOLYLINE
5
521
100
AcDbEntity
8
0
100
AcDbPolyline
90
6
70
1
43
0.0
10
2.941715211615815
20
-7.165972484153496
10
2.8786978460479644
20
-7.2550389505981432
10
2.9243229858304174
20
-7.3541468232817966
10
3.0329654911807218
20
-7.3641882295208028
10
3.0959828567485728
20
-7.2751217630761555
10
3.0503577169661198
20
-7.1760138903925021
0
CIRCLE
5
522
100
AcDbEntity
8
0
100
AcDbCircle
10
5.9561899430655538
20
-1.2007874174146242
30
5.854307030205486e-16
40
0.054133858267716439
210
0
220
0
230
1
0
LWPOLYLINE
5
523
100
AcDbEntity
8
0
100
AcDbPolyline
90
6
70
1
43
0.0
10
5.4291331437943233
20
-0.6338582800364112
10
5.374580362453572
20
-0.72834646901278921
10
5.4291331437943242
20
-0.82283465798916688
10
5.5382387064758278
20
-0.82283465798916655
10
5.5927914878165792
20
-0.72834646901278843
10
5.5382387064758269
20
-0.63385828003641087
0
CIRCLE
5
524
100
AcDbEntity
8
0
100
AcDbCircle
10
10.840553125892185
20
-1.2007874174146014
30
6.0097194539123875e-16
40
0.054133858267716252
210
0
220
0
230
1
0
LWPOLYLINE
5
525
100
AcDbEntity
8
0
100
AcDbPolyline
90
6
70
1
43
0.0
10
11.258423661355195
20
-0.63385828003635691
10
11.203870880014444
20
-0.72834646901273592
10
11.258423661355199
20
-0.82283465798911359
10
11.367529224036703
20
-0.82283465798911182
10
11.422082005377455
20
-0.72834646901273259
10
11.3675292240367
20
-0.63385828003635503
0
CIRCLE
5
526
100
AcDbEntity
8
0
100
AcDbCircle
10
15.72494978558524
20
-1.2007874174145972
30
5.854307030205486e-16
40
0.054133858267717085
210
0
220
0
230
1
0
LWPOLYLINE
5
527
100
AcDbEntity
8
0
100
AcDbPolyline
90
6
70
1
43
0.0
10
16.142793740095353
20
-0.63385828003635769
10
16.088240958754604
20
-0.72834646901273747
10
16.142793740095357
20
-0.82283465798911426
10
16.251899302776863
20
-0.82283465798911093
10
16.306452084117613
20
-0.72834646901273092
10
16.251899302776856
20
-0.63385828003635414
0
LWPOLYLINE
5
528
100
AcDbEntity
8
0
100
AcDbPolyline
90
6
70
1
43
0.0
10
21.028246193058248
20
-0.64828975554884161
10
20.972671510262018
20
-0.74218053486260527
10
21.026195968930743
20
-0.83725501162828397
10
21.135295110395695
20
-0.83843870908019957
10
21.190869793191922
20
-0.74454792976643647
10
21.1373453345232
20
-0.64947345300075787
0
LWPOLYLINE
5
529
100
AcDbEntity
8
0
100
AcDbPolyline
90
6
70
1
43
0.0
10
21.042235630168083
20
-2.4251968662334438
10
20.98768284882733
20
-2.519685055209822
10
21.042235630168083
20
-2.6141732441862002
10
21.151341192849589
20
-2.6141732441862002
10
21.205893974190339
20
-2.519685055209822
10
21.151341192849589
20
-2.4251968662334433
0
LWPOLYLINE
5
530
100
AcDbEntity
8
0
100
AcDbPolyline
90
6
70
1
43
0.0
10
21.042235630168083
20
-5.1698366306653494
10
20.98768284882733
20
-5.2643248196417272
10
21.042235630168083
20
-5.3588130086181058
10
21.151341192849589
20
-5.3588130086181058
10
21.205893974190339
20
-5.2643248196417272
10
21.151341192849589
20
-5.1698366306653485
0
LWPOLYLINE
5
531
100
AcDbEntity
8
0
100
AcDbPolyline
90
6
70
1
43
0.0
10
21.027209681547323
20
-6.9503224930682102
10
20.972656900206569
20
-7.0448106820445879
10
21.027209681547323
20
-7.1392988710209666
10
21.136315244228825
20
-7.1392988710209666
10
21.190868025569578
20
-7.0448106820445879
10
21.136315244228825
20
-6.9503224930682093
0
LWPOLYLINE
5
532
100
AcDbEntity
8
0
100
AcDbPolyline
90
6
70
1
43
0.0
10
11.742154614352829
20
-6.9653484416889713
10
11.687601833012076
20
-7.0598366306653491
10
11.742154614352827
20
-7.154324819641726
10
11.85126017703433
20
-7.154324819641726
10
11.905812958375083
20
-7.0598366306653491
10
11.851260177034332
20
-6.9653484416889713
0
CIRCLE
5
533
100
AcDbEntity
8
0
100
AcDbCircle
10
15.974306958719316
20
-6.5873956857834584
30
5.4852633118164262e-17
40
0.054133858267717647
210
0
220
0
230
1
0
LWPOLYLINE
5
534
100
AcDbEntity
8
0
100
AcDbPolyline
90
6
70
1
43
0.0
10
16.392195122260457
20
-6.9653484416889713
10
16.337642340919704
20
-7.0598366306653491
10
16.392195122260457
20
-7.1543248196417277
10
16.50130068494196
20
-7.1543248196417277
10
16.555853466282713
20
-7.0598366306653491
10
16.50130068494196
20
-6.9653484416889704
0
LWPOLYLINE
5
535
100
AcDbEntity
8
0
100
AcDbPolyline
90
6
70
1
43
0.0
10
24.475676579435902
20
-2.4372933196489708
10
24.530229360776652
20
-2.5317815086253495
10
24.639334923458158
20
-2.5317815086253495
10
24.693887704798911
20
-2.4372933196489708
10
24.639334923458158
20
-2.3428051306725934
10
24.530229360776652
20
-2.3428051306725934
0
LWPOLYLINE
5
536
100
AcDbEntity
8
0
100
AcDbPolyline
90
6
70
1
43
0.0
10
24.722093817389851
20
-0.79527560639103456
10
30.292897760515718
20
-0.79527560639103456
10
30.292897760515718
20
-0.51968505520989605
10
24.446464669256272
20
-0.51968505520993247
10
24.446861142060314
20
-3.3507844649848861
10
24.722451695943821
20
-3.3507844649848835
0
LWPOLYLINE
5
537
100
AcDbEntity
8
0
100
AcDbPolyline
90
6
70
1
43
0.0
10
24.545206444539787
20
-0.57777211254664229
10
24.49021152930748
20
-0.67200365241859283
10
24.544320979058163
20
-0.76674641602471705
10
24.653425344041153
20
-0.76725763975889083
10
24.708420259273456
20
-0.67302609988694029
10
24.654310809522777
20
-0.57828333628081596
0
LWPOLYLINE
5
538
100
AcDbEntity
8
0
100
AcDbPolyline
90
6
70
1
43
0.0
10
29.538238706475827
20
-0.75196851625688321
10
29.592791487816584
20
-0.65748032728050443
10
29.538238706475827
20
-0.56299213830412709
10
29.429133143794324
20
-0.56299213830412853
10
29.374580362453575
20
-0.65748032728050587
10
29.429133143794324
20
-0.75196851625688321
0
LWPOLYLINE
5
539
100
AcDbEntity
8
0
100
AcDbPolyline
90
6
70
1
43
0.0
10
44.958993135918284
20
-0.79527560639092398
10
32.055456042507565
20
-0.79527560639092398
10
32.055456042507565
20
-0.51968505520989328
10
45.234583687099388
20
-0.51968505520982056
10
45.234583687099388
20
-3.3507844649848275
10
44.958993135918284
20
-3.3507844649848275
0
LWPOLYLINE
5
540
100
AcDbEntity
8
0
100
AcDbPolyline
90
6
70
1
43
0.0
10
35.203870880014449
20
-0.65748032728045269
10
35.258423661355202
20
-0.75196851625683003
10
35.367529224036709
20
-0.75196851625682859
10
35.422082005377455
20
-0.65748032728044992
10
35.367529224036701
20
-0.56299213830407113
10
35.258423661355195
20
-0.56299213830407391
0
LWPOLYLINE
5
541
100
AcDbEntity
8
0
100
AcDbPolyline
90
6
70
1
43
0.0
10
40.14279374009535
20
-0.56299213830407391
10
40.088240958754604
20
-0.65748032728045414
10
40.142793740095357
20
-0.75196851625683137
10
40.251899302776863
20
-0.75196851625682726
10
40.306452084117609
20
-0.65748032728044714
10
40.251899302776856
20
-0.56299213830407113
0
LWPOLYLINE
5
542
100
AcDbEntity
8
0
100
AcDbPolyline
90
6
70
1
43
0.0
10
45.137345334523204
20
-0.57860731126847409
10
45.028246193058244
20
-0.57742361381655771
10
44.972671510262018
20
-0.67131439313032149
10
45.026195968930743
20
-0.7663888698960003
10
45.135295110395695
20
-0.76757256734791668
10
45.190869793191922
20
-0.67368178803415291
0
LWPOLYLINE
5
543
100
AcDbEntity
8
0
100
AcDbPolyline
90
8
70
1
43
0.0
10
35.782224528629413
20
-6.8511752133425139
10
44.958993135918284
20
-6.8511752133425139
10
44.958993135918284
20
-4.2956663547486107
10
45.234583687099388
20
-4.2956663547486098
10
45.234583687099388
20
-7.1267657645236175
10
35.811190262757748
20
-7.1267657645236175
10
33.882764286254847
20
-7.5366653595242266
10
33.825465788785387
20
-7.2670971231015251
0
LWPOLYLINE
5
544
100
AcDbEntity
8
0
100
AcDbPolyline
90
6
70
1
43
0.0
10
44.987682848827333
20
-2.4488189134775378
10
45.042235630168086
20
-2.5433071024539164
10
45.151341192849586
20
-2.5433071024539164
10
45.205893974190346
20
-2.4488189134775378
10
45.151341192849586
20
-2.3543307245011604
10
45.042235630168086
20
-2.3543307245011604
0
LWPOLYLINE
5
545
100
AcDbEntity
8
0
100
AcDbPolyline
90
6
70
1
43
0.0
10
45.042235630168086
20
-5.098970488933066
10
44.987682848827333
20
-5.1934586779094438
10
45.042235630168086
20
-5.2879468668858225
10
45.151341192849586
20
-5.2879468668858225
10
45.205893974190346
20
-5.1934586779094438
10
45.151341192849586
20
-5.0989704889330651
0
LWPOLYLINE
5
546
100
AcDbEntity
8
0
100
AcDbPolyline
90
6
70
1
43
0.0
10
45.136315244228832
20
-6.8794563513359259
10
45.027209681547319
20
-6.8794563513359268
10
44.972656900206573
20
-6.9739445403123046
10
45.027209681547319
20
-7.0684327292886833
10
45.136315244228832
20
-7.0684327292886833
10
45.190868025569578
20
-6.9739445403123046
0
LWPOLYLINE
5
547
100
AcDbEntity
8
0
100
AcDbPolyline
90
6
70
1
43
0.0
10
40.392195122260453
20
-7.0834586779094444
10
40.501300684941967
20
-7.0834586779094444
10
40.555853466282713
20
-6.9889704889330657
10
40.501300684941967
20
-6.894482299956687
10
40.392195122260453
20
-6.8944822999566879
10
40.337642340919707
20
-6.9889704889330657
0
LWPOLYLINE
5
548
100
AcDbEntity
8
0
100
AcDbPolyline
90
6
70
1
43
0.0
10
35.742154614352827
20
-7.0834586779094426
10
35.851260177034334
20
-7.0834586779094426
10
35.905812958375087
20
-6.9889704889330657
10
35.851260177034334
20
-6.8944822999566879
10
35.742154614352835
20
-6.8944822999566879
10
35.687601833012074
20
-6.9889704889330657
0
LWPOLYLINE
5
549
100
AcDbEntity
8
0
100
AcDbPolyline
90
10
70
1
43
0.0
10
32.872099437994478
20
-7.4723408492733236
10
32.929397935463939
20
-7.741909085696026
10
30.915340698150466
20
-8.1700101670660015
10
26.972857484334103
20
-7.3320094906954179
10
24.43881175078975
20
-7.3320094906954179
10
24.43881175078975
20
-4.5009071284907076
10
24.714363710423189
20
-4.5009071284907076
10
24.714363710423189
20
-7.0564189395143151
10
27.001823218462437
20
-7.0564189395143151
10
30.915340698150466
20
-7.888262759032334
0
LWPOLYLINE
5
550
100
AcDbEntity
8
0
100
AcDbPolyline
90
6
70
1
43
0.0
10
30.860787916809713
20
-7.9346482740727895
10
30.806235135468963
20
-8.0291364630491664
10
30.860787916809713
20
-8.1236246520255442
10
30.969893479491216
20
-8.1236246520255442
10
31.024446260831965
20
-8.0291364630491664
10
30.969893479491216
20
-7.9346482740727895
0
LWPOLYLINE
5
551
100
AcDbEntity
8
0
100
AcDbPolyline
90
6
70
1
43
0.0
10
24.53705019884417
20
-7.2736850515900757
10
24.646155761525677
20
-7.2736850515900757
10
24.700708542866426
20
-7.1791968626136979
10
24.646155761525677
20
-7.084708673637321
10
24.53705019884417
20
-7.084708673637321
10
24.482497417503417
20
-7.1791968626136979
0
LWPOLYLINE
5
552
100
AcDbEntity
8
0
100
AcDbPolyline
90
6
70
1
43
0.0
10
27.095982856748574
20
-7.2042556213438722
10
27.050357716966118
20
-7.1051477486602188
10
26.941715211615819
20
-7.0951063424212126
10
26.878697846047967
20
-7.1841728088658598
10
26.924322985830422
20
-7.2832806815495132
10
27.032965491180722
20
-7.2933220877885194
0
LWPOLYLINE
5
553
100
AcDbEntity
8
0
100
AcDbPolyline
90
6
70
1
43
0.0
10
24.631140511947223
20
-5.4774582880563418
10
24.685693293287972
20
-5.382970099079964
10
24.631140511947223
20
-5.2884819101035854
10
24.522034949265716
20
-5.2884819101035854
10
24.467482167924963
20
-5.382970099079964
10
24.522034949265716
20
-5.4774582880563418
0
CIRCLE
5
554
100
AcDbEntity
8
0
100
AcDbCircle
10
25.072528386093893
20
-6.501512191560006
30
-1.3514527327869781e-17
40
0.054133858267716599
210
0
220
0
230
1
0
LWPOLYLINE
5
555
100
AcDbEntity
8
0
100
AcDbPolyline
90
7
70
1
43
0.0
10
27.453782890243087
20
-6.654324819641726
10
24.919737156698723
20
-6.654324819641726
10
24.918944211090636
20
-0.99212600009182195
10
44.762142742217499
20
-0.99212600009171137
10
44.762142742217499
20
-6.654324819641726
10
35.338749317875852
20
-6.654324819641726
10
31.396266104059467
20
-7.492325496012314
0
CIRCLE
5
556
100
AcDbEntity
8
0
100
AcDbCircle
10
27.46826575730725
20
-6.516529544051175
30
5.878471071008894e-18
40
0.054133858267716252
210
0
220
0
230
1
0
CIRCLE
5
557
100
AcDbEntity
8
0
100
AcDbCircle
10
31.396266104059467
20
-7.3514517919954798
30
-1.1548492813335715e-16
40
0.054133858267716252
210
0
220
0
230
1
0
CIRCLE
5
558
100
AcDbEntity
8
0
100
AcDbCircle
10
35.324266450811692
20
-6.516529544051175
30
6.7632236287036889e-17
40
0.054133858267716252
210
0
220
0
230
1
0
CIRCLE
5
559
100
AcDbEntity
8
0
100
AcDbCircle
10
44.609321518006183
20
-6.5015035954304139
30
4.2073029949291628e-17
40
0.054133858267716023
210
0
220
0
230
1
0
CIRCLE
5
560
100
AcDbEntity
8
0
100
AcDbCircle
10
39.974306958719318
20
-6.516529544051175
30
5.4852633118164262e-17
40
0.054133858267717647
210
0
220
0
230
1
0
CIRCLE
5
561
100
AcDbEntity
8
0
100
AcDbCircle
10
44.624347466626951
20
-4.7210105145274079
30
4.0863519359496235e-16
40
0.054133858267716689
210
0
220
0
230
1
0
CIRCLE
5
562
100
AcDbEntity
8
0
100
AcDbCircle
10
44.609329706845081
20
-1.1449390354641287
30
5.854307030205486e-16
40
0.054133858267716446
210
0
220
0
230
1
0
CIRCLE
5
563
100
AcDbEntity
8
0
100
AcDbCircle
10
44.624347466626951
20
-2.9254593334250463
30
4.0863519359496235e-16
40
0.054133858267716599
210
0
220
0
230
1
0
CIRCLE
5
564
100
AcDbEntity
8
0
100
AcDbCircle
10
39.724949785585238
20
-1.1299212756823136
30
5.854307030205486e-16
40
0.054133858267717085
210
0
220
0
230
1
0
CIRCLE
5
565
100
AcDbEntity
8
0
100
AcDbCircle
10
34.840553125892185
20
-1.1299212756823176
30
6.0097194539123875e-16
40
0.054133858267716252
210
0
220
0
230
1
0
CIRCLE
5
566
100
AcDbEntity
8
0
100
AcDbCircle
10
29.956189943065556
20
-1.1299212756823416
30
5.854307030205486e-16
40
0.054133858267716439
210
0
220
0
230
1
0
CIRCLE
5
567
100
AcDbEntity
8
0
100
AcDbCircle
10
25.071795436124834
20
-1.1449558210346547
30
6.1651318776192879e-16
40
0.054133858267716481
210
0
220
0
230
1
0
CIRCLE
5
568
100
AcDbEntity
8
0
100
AcDbCircle
10
25.057261683951772
20
-2.9097342645308601
30
-1.3514527327869781e-17
40
0.054133858267716599
210
0
220
0
230
1
0
CIRCLE
5
569
100
AcDbEntity
8
0
100
AcDbCircle
10
25.057513136515439
20
-4.7052854280262633
30
-1.3514527327869781e-17
40
0.054133858267716349
210
0
220
0
230
1
0
LINE
5
570
100
AcDbEntity
8
0
100
AcDbLine
10
44.683354433035802
20
0.85826770069557923
30
0
11
44.683354433035802
21
-0.32283466150914508
31
0
0
LINE
5
571
100
AcDbEntity
8
0
100
AcDbLine
10
44.683354433035802
20
-0.32283466150914508
30
0
11
24.840165456657846
21
-0.32283466150914508
31
0
0
CIRCLE
5
572
100
AcDbEntity
8
0
100
AcDbCircle
10
44.530550952412291
20
0.70545466532327239
30
5.854307030205486e-16
40
0.054133858267716446
210
0
220
0
230
1
0
LINE
5
573
100
AcDbEntity
8
0
100
AcDbLine
10
24.840165456657846
20
0.85826770069557923
30
6.3302624298835385e-16
11
44.683363987784709
21
0.85826770069568969
31
5.8532737713811101e-16
0
CIRCLE
5
574
100
AcDbEntity
8
0
100
AcDbCircle
10
39.646171031152441
20
0.72047242510508769
30
5.854307030205486e-16
40
0.054133858267717085
210
0
220
0
230
1
0
CIRCLE
5
575
100
AcDbEntity
8
0
100
AcDbCircle
10
34.761774371459389
20
0.72047242510508347
30
6.0097194539123875e-16
40
0.054133858267716252
210
0
220
0
230
1
0
CIRCLE
5
576
100
AcDbEntity
8
0
100
AcDbCircle
10
29.877411188632763
20
0.72047242510505971
30
5.854307030205486e-16
40
0.054133858267716439
210
0
220
0
230
1
0
CIRCLE
5
577
100
AcDbEntity
8
0
100
AcDbCircle
10
24.993016681692044
20
0.70543787975274652
30
6.1651318776192879e-16
40
0.054133858267716481
210
0
220
0
230
1
0
LWPOLYLINE
5
578
100
AcDbEntity
8
0
100
AcDbPolyline
90
4
70
1
43
0.0
10
20.683354433035802
20
-0.24803151190284589
10
0.8401654566578477
20
-0.24803151190284589
10
0.8401654566578477
20
1.3267716377034531
10
20.683363987784709
20
1.3267716377035637
0
CIRCLE
5
579
100
AcDbEntity
8
0
100
AcDbCircle
10
20.530550952412291
20
1.1739586023311464
30
5.854307030205486e-16
40
0.054133858267716446
210
0
220
0
230
1
0
CIRCLE
5
580
100
AcDbEntity
8
0
100
AcDbCircle
10
5.8774111886327649
20
1.1889763621129337
30
5.854307030205486e-16
40
0.054133858267716439
210
0
220
0
230
1
0
CIRCLE
5
581
100
AcDbEntity
8
0
100
AcDbCircle
10
0.99301668169204549
20
1.1739418167606206
30
6.1651318776192879e-16
40
0.054133858267716481
210
0
220
0
230
1
0
CIRCLE
5
582
100
AcDbEntity
8
0
100
AcDbCircle
10
15.646171031152445
20
1.1889763621129616
30
5.854307030205486e-16
40
0.054133858267717085
210
0
220
0
230
1
0
CIRCLE
5
583
100
AcDbEntity
8
0
100
AcDbCircle
10
10.76177437145939
20
1.1889763621129574
30
6.0097194539123875e-16
40
0.054133858267716252
210
0
220
0
230
1
0
LINE
5
584
100
AcDbEntity
8
0
100
AcDbLine
10
24.840165456657846
20
0.85826770069557923
30
6.3302624298835385e-16
11
24.840165456657846
21
-0.32283466150914508
31
0
0
ENDSEC
0
SECTION
2
OBJECTS
0
DICTIONARY
5
C
100
AcDbDictionary
3
ACAD_GROUP
350
D
3
ACAD_MLINESTYLE
350
17
0
DICTIONARY
5
D
100
AcDbDictionary
0
DICTIONARY
5
1A
330
C
100
AcDbDictionary
0
DICTIONARY
5
17
100
AcDbDictionary
0
ENDSEC
0
EOF
