0
SECTION
2
HEADER
9
$INSUNITS
70
4
9
$ACADVER
1
AC1014
9
$HANDSEED
5
FFFF
0
ENDSEC
0
SECTION
2
TABLES
0
TABLE
2
VPORT
5
8
100
AcDbSymbolTable
0
ENDTAB
0
TABLE
2
LTYPE
5
5
100
AcDbSymbolTable
0
LTYPE
5
14
100
AcDbSymbolTableRecord
100
AcDbLinetypeTableRecord
2
BYBLOCK
70
0
0
LTYPE
5
15
100
AcDbSymbolTableRecord
100
AcDbLinetypeTableRecord
2
BYLAYER
70
0
0
ENDTAB
0
TABLE
2
LAYER
5
2
100
AcDbSymbolTable
70
2
0
LAYER
5
50
100
AcDbSymbolTableRecord
100
AcDbLayerTableRecord
2
0
70
0
6
CONTINUOUS
0
ENDTAB
0
TABLE
2
STYLE
5
3
100
AcDbSymbolTable
70
1
0
STYLE
5
11
100
AcDbSymbolTableRecord
100
AcDbTextStyleTableRecord
2
STANDARD
70
0
0
ENDTAB
0
TABLE
2
VIEW
5
6
100
AcDbSymbolTable
70
0
0
ENDTAB
0
TABLE
2
UCS
5
7
100
AcDbSymbolTable
70
0
0
ENDTAB
0
TABLE
2
APPID
5
9
100
AcDbSymbolTable
70
2
0
APPID
5
12
100
AcDbSymbolTableRecord
100
AcDbRegAppTableRecord
2
ACAD
70
0
0
ENDTAB
0
TABLE
2
DIMSTYLE
5
A
100
AcDbSymbolTable
70
1
0
ENDTAB
0
TABLE
2
BLOCK_RECORD
5
1
100
AcDbSymbolTable
70
1
0
BLOCK_RECORD
5
1F
100
AcDbSymbolTableRecord
100
AcDbBlockTableRecord
2
*MODEL_SPACE
0
BLOCK_RECORD
5
1B
100
AcDbSymbolTableRecord
100
AcDbBlockTableRecord
2
*PAPER_SPACE
0
ENDTAB
0
ENDSEC
0
SECTION
2
BLOCKS
0
BLOCK
5
20
100
AcDbEntity
100
AcDbBlockBegin
2
*MODEL_SPACE
0
ENDBLK
5
21
100
AcDbEntity
100
AcDbBlockEnd
0
BLOCK
5
1C
100
AcDbEntity
100
AcDbBlockBegin
2
*PAPER_SPACE
0
ENDBLK
5
1D
100
AcDbEntity
100
AcDbBlockEnd
0
ENDSEC
0
SECTION
2
ENTITIES
0
LINE
5
100
100
AcDbEntity
8
0
100
AcDbLine
10
50.046583479692188
20
-123.75191652257908
30
4.1996694698695815e-15
11
64.016583479692173
21
-123.75191652257908
31
4.1996694698695815e-15
0
LWPOLYLINE
5
101
100
AcDbEntity
8
0
100
AcDbPolyline
90
4
70
1
43
0.0
10
328.77658347969225
20
-54.518916522578976
10
328.77658347969225
20
-40.548616522578925
10
342.74658347969216
20
-40.548616522578911
10
342.74658347969216
20
-54.518916522578955
0
LWPOLYLINE
5
102
100
AcDbEntity
8
0
100
AcDbPolyline
90
4
70
1
43
0.0
10
111.1495834796921
20
-67.756916522579047
10
124.81358347969217
20
-70.661916522579062
10
121.90958347969217
20
-84.32591652257905
10
108.24458347969224
20
-81.421916522579068
0
LWPOLYLINE
5
103
100
AcDbEntity
8
0
100
AcDbPolyline
90
4
70
1
43
0.0
10
50.84058347969215
20
-42.957416522579109
10
64.810583479692127
20
-42.957416522579109
10
64.810583479692127
20
-56.926916522579077
10
50.84058347969215
20
-56.926916522579077
0
LINE
5
104
100
AcDbEntity
8
0
100
AcDbLine
10
64.016583479692173
20
-137.72191652257905
30
2.4888378914607298e-15
11
50.046583479692188
21
-137.72191652257905
31
2.4888378914607298e-15
0
LWPOLYLINE
5
105
100
AcDbEntity
8
0
100
AcDbPolyline
90
4
70
1
43
0.0
10
457.35758347969227
20
-101.15391652257887
10
471.32798347969219
20
-101.15391652257887
10
471.32798347969219
20
-115.1239165225789
10
457.35758347969227
20
-115.1239165225789
0
LWPOLYLINE
5
106
100
AcDbEntity
8
0
100
AcDbPolyline
90
4
70
1
43
0.0
10
88.940583479692094
20
-64.220916522579046
10
102.91058347969215
20
-64.220916522579046
10
102.91058347969215
20
-78.19091652257903
10
88.940583479692094
20
-78.19091652257903
0
LWPOLYLINE
5
107
100
AcDbEntity
8
0
100
AcDbPolyline
90
4
70
1
43
0.0
10
130.58058347969211
20
-48.070916522579026
10
127.67558347969211
20
-61.735916522579046
10
114.01058347969209
20
-58.830916522579066
10
116.91558347969217
20
-45.166316522579066
0
LWPOLYLINE
5
108
100
AcDbEntity
8
0
100
AcDbPolyline
90
4
70
1
43
0.0
10
73.85958347969229
20
-104.7019165225791
10
87.829583479692204
20
-104.7019165225791
10
87.829583479692204
20
-118.67191652257908
10
73.85958347969229
20
-118.67191652257908
0
LWPOLYLINE
5
109
100
AcDbEntity
8
0
100
AcDbPolyline
90
4
70
1
43
0.0
10
476.5079834796922
20
-63.053916522578852
10
490.47798347969217
20
-63.053916522578852
10
490.47798347969217
20
-77.023916522578872
10
476.5079834796922
20
-77.023916522578872
0
LWPOLYLINE
5
110
100
AcDbEntity
8
0
100
AcDbPolyline
90
4
70
1
43
0.0
10
216.1775834796922
20
-147.38691652257901
10
202.51258347969218
20
-150.29191652257902
10
199.60758347969218
20
-136.62691652257899
10
213.2725834796922
20
-133.72191652257899
0
LWPOLYLINE
5
111
100
AcDbEntity
8
0
100
AcDbPolyline
90
4
70
1
43
0.0
10
199.24958347969223
20
-112.03391652257899
10
196.34458347969223
20
-98.368916522578971
10
210.00958347969225
20
-95.464916522578989
10
212.91458347969225
20
-109.128916522579
0
LWPOLYLINE
5
112
100
AcDbEntity
8
0
100
AcDbPolyline
90
4
70
1
43
0.0
10
50.840583479692221
20
-80.571916522579059
10
50.84058347969215
20
-66.601916522579074
10
64.810583479692127
20
-66.601916522579074
10
64.810583479692212
20
-80.571916522579059
0
LWPOLYLINE
5
113
100
AcDbEntity
8
0
100
AcDbPolyline
90
4
70
1
43
0.0
10
490.3779834796922
20
-120.20391652257892
10
490.3779834796922
20
-134.17391652257891
10
476.40798347969223
20
-134.17391652257891
10
476.40798347969223
20
-120.20391652257892
0
LWPOLYLINE
5
114
100
AcDbEntity
8
0
100
AcDbPolyline
90
4
70
1
43
0.0
10
438.3075834796922
20
-115.1239165225789
10
438.3075834796922
20
-101.15391652257887
10
452.27758347969223
20
-101.15391652257887
10
452.27758347969223
20
-115.1239165225789
0
LWPOLYLINE
5
115
100
AcDbEntity
8
0
100
AcDbPolyline
90
4
70
1
43
0.0
10
457.35758347969227
20
-82.103916522578857
10
471.32798347969219
20
-82.103916522578857
10
471.32798347969219
20
-96.073916522578884
10
457.35758347969227
20
-96.073916522578884
0
LWPOLYLINE
5
116
100
AcDbEntity
8
0
100
AcDbPolyline
90
4
70
1
43
0.0
10
299.8845834796922
20
-115.02391652257901
10
285.91458347969217
20
-115.02391652257901
10
285.91458347969217
20
-101.053916522579
10
299.8845834796922
20
-101.053916522579
0
LWPOLYLINE
5
117
100
AcDbEntity
8
0
100
AcDbPolyline
90
4
70
1
43
0.0
10
295.12158347969216
20
-134.07391652257903
10
281.15158347969219
20
-134.07391652257903
10
281.15158347969219
20
-120.10391652257897
10
295.12158347969216
20
-120.10391652257897
0
LWPOLYLINE
5
118
100
AcDbEntity
8
0
100
AcDbPolyline
90
4
70
1
43
0.0
10
409.42158347969217
20
-54.518916522578934
10
395.4515834796922
20
-54.518916522578955
10
395.4515834796922
20
-40.548616522578911
10
409.42158347969217
20
-40.548616522578897
0
LWPOLYLINE
5
119
100
AcDbEntity
8
0
100
AcDbPolyline
90
4
70
1
43
0.0
10
111.97258347969208
20
-44.088516522579084
10
109.06858347969217
20
-57.752916522579056
10
95.403583479692145
20
-54.848916522579074
10
98.307583479692056
20
-41.184016522579086
0
LWPOLYLINE
5
120
100
AcDbEntity
8
0
100
AcDbPolyline
90
4
70
1
43
0.0
10
83.860583479692139
20
-66.601916522579074
10
83.860583479692224
20
-80.571916522579059
10
69.890583479692168
20
-80.571916522579059
10
69.890583479692083
20
-66.601916522579074
0
LWPOLYLINE
5
121
100
AcDbEntity
8
0
100
AcDbPolyline
90
4
70
1
43
0.0
10
164.14558347969219
20
-93.303916522579016
10
167.05058347969216
20
-79.638916522579024
10
180.71558347969221
20
-82.543916522579011
10
177.81058347969221
20
-96.20891652257896
0
LWPOLYLINE
5
122
100
AcDbEntity
8
0
100
AcDbPolyline
90
4
70
1
43
0.0
10
490.3779834796922
20
-96.073916522578884
10
476.40798347969223
20
-96.073916522578884
10
476.40798347969223
20
-82.103916522578857
10
490.3779834796922
20
-82.103916522578857
0
LWPOLYLINE
5
123
100
AcDbEntity
8
0
100
AcDbPolyline
90
4
70
1
43
0.0
10
253.44458347969223
20
-139.46591652257899
10
239.77958347969221
20
-142.36991652257899
10
236.87558347969224
20
-128.704916522579
10
250.53958347969223
20
-125.80091652257894
0
LWPOLYLINE
5
124
100
AcDbEntity
8
0
100
AcDbPolyline
90
4
70
1
43
0.0
10
247.27658347969225
20
-87.542916522578977
10
250.18158347969219
20
-101.207916522579
10
236.51658347969217
20
-104.11291652257898
10
233.6125834796922
20
-90.447916522578993
0
LWPOLYLINE
5
125
100
AcDbEntity
8
0
100
AcDbPolyline
90
4
70
1
43
0.0
10
138.40258347969217
20
-146.41991652257903
10
141.30658347969222
20
-132.75591652257901
10
154.97158347969224
20
-135.65991652257904
10
152.06658347969216
20
-149.32491652257906
0
LWPOLYLINE
5
126
100
AcDbEntity
8
0
100
AcDbPolyline
90
4
70
1
43
0.0
10
73.85958347969229
20
-99.62191652257907
10
73.859583479692247
20
-85.651916522579086
10
87.829583479692161
20
-85.651916522579086
10
87.829583479692204
20
-99.62191652257907
0
LWPOLYLINE
5
127
100
AcDbEntity
8
0
100
AcDbPolyline
90
4
70
1
43
0.0
10
438.3075834796922
20
-120.20391652257892
10
452.27758347969223
20
-120.20391652257892
10
452.27758347969223
20
-134.17391652257891
10
438.3075834796922
20
-134.17391652257891
0
LWPOLYLINE
5
128
100
AcDbEntity
8
0
100
AcDbPolyline
90
4
70
1
43
0.0
10
81.002583479692163
20
-123.75191652257908
10
94.972583479692219
20
-123.75191652257908
10
94.972583479692219
20
-137.72191652257905
10
81.002583479692163
20
-137.72191652257905
0
LWPOLYLINE
5
129
100
AcDbEntity
8
0
100
AcDbPolyline
90
4
70
1
43
0.0
10
409.42158347969217
20
-76.923916522578935
10
395.4515834796922
20
-76.923916522578935
10
395.4515834796922
20
-62.953916522578943
10
409.42158347969217
20
-62.953916522578943
0
LWPOLYLINE
5
130
100
AcDbEntity
8
0
100
AcDbPolyline
90
4
70
1
43
0.0
10
452.27758347969223
20
-63.053916522578852
10
452.27758347969223
20
-77.023916522578872
10
438.3075834796922
20
-77.023916522578872
10
438.3075834796922
20
-63.053916522578852
0
LWPOLYLINE
5
131
100
AcDbEntity
8
0
100
AcDbPolyline
90
4
70
1
43
0.0
10
64.334583479692213
20
-156.77191652257906
10
64.334583479692213
20
-142.80191652257909
10
78.304583479692269
20
-142.80191652257909
10
78.304583479692269
20
-156.77191652257906
0
LWPOLYLINE
5
132
100
AcDbEntity
8
0
100
AcDbPolyline
90
4
70
1
43
0.0
10
117.70358347969228
20
-127.73891652257909
10
114.79958347969223
20
-141.40291652257903
10
101.13458347969221
20
-138.49891652257907
10
104.03958347969223
20
-124.83391652257907
0
LWPOLYLINE
5
133
100
AcDbEntity
8
0
100
AcDbPolyline
90
4
70
1
43
0.0
10
352.27158347969214
20
-82.003916522578947
10
352.27158347969214
20
-95.973916522578946
10
338.30158347969223
20
-95.973916522578946
10
338.30158347969223
20
-82.003916522578947
0
LWPOLYLINE
5
134
100
AcDbEntity
8
0
100
AcDbPolyline
90
4
70
1
43
0.0
10
361.79658347969217
20
-54.518916522578955
10
347.82658347969226
20
-54.518916522578955
10
347.82658347969226
20
-40.548616522578911
10
361.79658347969217
20
-40.548616522578911
0
LWPOLYLINE
5
135
100
AcDbEntity
8
0
100
AcDbPolyline
90
4
70
1
43
0.0
10
176.05658347969216
20
-173.89991652257902
10
162.39158347969214
20
-170.99491652257905
10
165.29658347969223
20
-157.32991652257905
10
178.96158347969225
20
-160.234916522579
0
LWPOLYLINE
5
136
100
AcDbEntity
8
0
100
AcDbPolyline
90
4
70
1
43
0.0
10
274.52958347969223
20
-101.22591652257903
10
277.43458347969226
20
-114.89091652257898
10
263.76958347969219
20
-117.794916522579
10
260.86558347969225
20
-104.13091652257901
0
LWPOLYLINE
5
137
100
AcDbEntity
8
0
100
AcDbPolyline
90
4
70
1
43
0.0
10
457.35758347969227
20
-134.17391652257891
10
457.35758347969227
20
-120.20391652257892
10
471.32798347969219
20
-120.20391652257892
10
471.32798347969219
20
-134.17391652257891
0
LWPOLYLINE
5
138
100
AcDbEntity
8
0
100
AcDbPolyline
90
4
70
1
43
0.0
10
240.16658347969226
20
-122.811916522579
10
226.50258347969219
20
-125.716916522579
10
223.59758347969219
20
-112.05191652257898
10
237.26258347969221
20
-109.14791652257897
0
LWPOLYLINE
5
139
100
AcDbEntity
8
0
100
AcDbPolyline
90
4
70
1
43
0.0
10
390.37158347969216
20
-62.953916522578943
10
390.37158347969216
20
-76.923916522578935
10
376.40158347969219
20
-76.923916522578935
10
376.40158347969219
20
-62.953916522578943
0
LWPOLYLINE
5
140
100
AcDbEntity
8
0
100
AcDbPolyline
90
4
70
1
43
0.0
10
490.3779834796922
20
-115.1239165225789
10
476.40798347969223
20
-115.1239165225789
10
476.40798347969223
20
-101.15391652257887
10
490.3779834796922
20
-101.15391652257887
0
LWPOLYLINE
5
141
100
AcDbEntity
8
0
100
AcDbPolyline
90
4
70
1
43
0.0
10
164.03158347969224
20
-112.85091652257901
10
150.36658347969222
20
-109.94591652257903
10
153.27158347969217
20
-96.281916522578996
10
166.93558347969224
20
-99.185916522579021
0
LWPOLYLINE
5
142
100
AcDbEntity
8
0
100
AcDbPolyline
90
4
70
1
43
0.0
10
457.35758347969227
20
-77.023916522578872
10
457.35758347969227
20
-63.053916522578852
10
471.32798347969219
20
-63.053916522578852
10
471.32798347969219
20
-77.023916522578872
0
LWPOLYLINE
5
143
100
AcDbEntity
8
0
100
AcDbPolyline
90
4
70
1
43
0.0
10
50.046583479692188
20
-99.625916522579061
10
50.046583479692153
20
-85.655916522579076
10
64.016583479692144
20
-85.655916522579076
10
64.016583479692173
20
-99.625916522579061
0
LWPOLYLINE
5
144
100
AcDbEntity
8
0
100
AcDbPolyline
90
4
70
1
43
0.0
10
395.4515834796922
20
-82.003916522578947
10
409.42158347969217
20
-82.003916522578947
10
409.42158347969217
20
-95.973916522578946
10
395.4515834796922
20
-95.973916522578946
0
LWPOLYLINE
5
145
100
AcDbEntity
8
0
100
AcDbPolyline
90
4
70
1
43
0.0
10
326.39558347969222
20
-139.15391652257898
10
340.36558347969225
20
-139.15391652257898
10
340.36558347969225
20
-153.12391652257898
10
326.39558347969222
20
-153.12391652257898
0
LWPOLYLINE
5
146
100
AcDbEntity
8
0
100
AcDbPolyline
90
4
70
1
43
0.0
10
250.87958347969226
20
-58.677916522578997
10
237.21458347969218
20
-61.582916522578977
10
234.31058347969218
20
-47.917916522579027
10
247.97458347969217
20
-45.013616522579021
0
LWPOLYLINE
5
147
100
AcDbEntity
8
0
100
AcDbPolyline
90
4
70
1
43
0.0
10
270.81358347969223
20
-140.94491652257901
10
273.71758347969217
20
-154.609916522579
10
260.05258347969226
20
-157.514916522579
10
257.14858347969221
20
-143.84991652257901
0
LWPOLYLINE
5
148
100
AcDbEntity
8
0
100
AcDbPolyline
90
4
70
1
43
0.0
10
210.82058347969223
20
-168.00091652257896
10
197.15658347969224
20
-170.90591652257899
10
194.25158347969221
20
-157.24091652257897
10
207.91658347969224
20
-154.33591652257894
0
LWPOLYLINE
5
149
100
AcDbEntity
8
0
100
AcDbPolyline
90
4
70
1
43
0.0
10
281.15158347969219
20
-62.953916522578979
10
295.12158347969216
20
-62.953916522578979
10
295.12158347969216
20
-76.923916522578963
10
281.15158347969219
20
-76.923916522578963
0
LWPOLYLINE
5
150
100
AcDbEntity
8
0
100
AcDbPolyline
90
4
70
1
43
0.0
10
133.07458347969225
20
-125.71191652257906
10
135.97958347969225
20
-112.04691652257904
10
149.64358347969224
20
-114.95191652257904
10
146.73958347969227
20
-128.61691652257903
0
LWPOLYLINE
5
151
100
AcDbEntity
8
0
100
AcDbPolyline
90
4
70
1
43
0.0
10
148.41658347969212
20
-75.678916522579016
10
162.08158347969206
20
-78.582916522579012
10
159.17658347969223
20
-92.247916522579033
10
145.51258347969213
20
-89.342916522579003
0
LWPOLYLINE
5
152
100
AcDbEntity
8
0
100
AcDbPolyline
90
4
70
1
43
0.0
10
234.81058347969224
20
-143.42591652257897
10
221.1465834796922
20
-146.33091652257895
10
218.24158347969222
20
-132.66591652257898
10
231.90658347969224
20
-129.76191652257899
0
LWPOLYLINE
5
153
100
AcDbEntity
8
0
100
AcDbPolyline
90
4
70
1
43
0.0
10
40.521583479692183
20
-156.77191652257909
10
40.521583479692183
20
-142.80191652257912
10
54.491583479692238
20
-142.80191652257909
10
54.491583479692238
20
-156.77191652257906
0
LWPOLYLINE
5
154
100
AcDbEntity
8
0
100
AcDbPolyline
90
4
70
1
43
0.0
10
428.47158347969219
20
-153.22391652257892
10
414.50158347969221
20
-153.22391652257895
10
414.50158347969221
20
-139.25391652257898
10
428.47158347969219
20
-139.25391652257895
0
LWPOLYLINE
5
155
100
AcDbEntity
8
0
100
AcDbPolyline
90
4
70
1
43
0.0
10
218.62858347969228
20
-113.10791652257898
10
221.53358347969225
20
-126.77291652257895
10
207.86858347969229
20
-129.67691652257901
10
204.96358347969226
20
-116.01291652257899
0
LWPOLYLINE
5
156
100
AcDbEntity
8
0
100
AcDbPolyline
90
4
70
1
43
0.0
10
135.54958347969216
20
-49.126916522579052
10
149.21358347969215
20
-52.03191652257901
10
146.30958347969215
20
-65.695916522579012
10
132.64458347969213
20
-62.791916522579072
0
LINE
5
157
100
AcDbEntity
8
0
100
AcDbLine
10
495.45798347969225
20
-105.59891652257889
30
6.4227708043617696e-15
11
495.45798347969225
21
-91.628916522578862
31
8.1336023827706253e-15
0
LWPOLYLINE
5
158
100
AcDbEntity
8
0
100
AcDbPolyline
90
4
70
1
43
0.0
10
452.27758347969223
20
-96.073916522578884
10
438.3075834796922
20
-96.073916522578884
10
438.3075834796922
20
-82.103916522578857
10
452.27758347969223
20
-82.103916522578857
0
LWPOLYLINE
5
159
100
AcDbEntity
8
0
100
AcDbPolyline
90
4
70
1
43
0.0
10
304.64658347969214
20
-54.518916522578976
10
290.67658347969223
20
-54.518916522578976
10
290.67658347969223
20
-40.548616522578925
10
304.64658347969214
20
-40.548616522578925
0
LWPOLYLINE
5
160
100
AcDbEntity
8
0
100
AcDbPolyline
90
4
70
1
43
0.0
10
47.66558347969216
20
-104.70191652257913
10
61.635583479692215
20
-104.7019165225791
10
61.635583479692215
20
-118.67191652257908
10
47.66558347969216
20
-118.67191652257912
0
LWPOLYLINE
5
161
100
AcDbEntity
8
0
100
AcDbPolyline
90
4
70
1
43
0.0
10
157.03558347969226
20
-150.38091652257901
10
159.94058347969224
20
-136.71591652257902
10
173.60458347969228
20
-139.62091652257902
10
170.70058347969223
20
-153.28591652257902
0
LWPOLYLINE
5
162
100
AcDbEntity
8
0
100
AcDbPolyline
90
4
70
1
43
0.0
10
133.43358347969229
20
-145.36391652257907
10
119.76858347969227
20
-142.45991652257908
10
122.67258347969218
20
-128.79491652257909
10
136.3375834796922
20
-131.69891652257905
0
LWPOLYLINE
5
163
100
AcDbEntity
8
0
100
AcDbPolyline
90
4
70
1
43
0.0
10
266.60858347969219
20
-41.052916522579004
10
269.51358347969222
20
-54.717916522578989
10
255.84858347969225
20
-57.621916522578971
10
252.94358347969217
20
-43.957416522579003
0
LWPOLYLINE
5
164
100
AcDbEntity
8
0
100
AcDbPolyline
90
4
70
1
43
0.0
10
129.66858347969222
20
-91.264916522579043
10
126.76358347969227
20
-104.92891652257903
10
113.09958347969221
20
-102.02491652257905
10
116.00358347969222
20
-88.359916522579056
0
LWPOLYLINE
5
165
100
AcDbEntity
8
0
100
AcDbPolyline
90
4
70
1
43
0.0
10
409.42158347969217
20
-139.25391652257898
10
409.42158347969217
20
-153.22391652257895
10
395.4515834796922
20
-153.22391652257895
10
395.4515834796922
20
-139.25391652257898
0
LWPOLYLINE
5
166
100
AcDbEntity
8
0
100
AcDbPolyline
90
4
70
1
43
0.0
10
328.45958347969224
20
-95.973916522578946
10
314.48958347969216
20
-95.973916522578946
10
314.48958347969216
20
-82.003916522578947
10
328.45958347969224
20
-82.003916522578947
0
LWPOLYLINE
5
167
100
AcDbEntity
8
0
100
AcDbPolyline
90
4
70
1
43
0.0
10
252.63358347969222
20
-66.928916522578987
10
255.53758347969227
20
-80.593916522579008
10
241.87258347969225
20
-83.49791652257899
10
238.9685834796922
20
-69.833916522579003
0
LWPOLYLINE
5
168
100
AcDbEntity
8
0
100
AcDbPolyline
90
4
70
1
43
0.0
10
276.38958347969219
20
-95.973916522578975
10
276.38958347969219
20
-82.00391652257899
10
290.35958347969222
20
-82.00391652257899
10
290.35958347969222
20
-95.973916522578975
0
LWPOLYLINE
5
169
100
AcDbEntity
8
0
100
AcDbPolyline
90
4
70
1
43
0.0
10
316.5525834796922
20
-153.12391652257898
10
302.58258347969223
20
-153.12391652257901
10
302.58258347969223
20
-139.15391652257904
10
316.5525834796922
20
-139.15391652257898
0
LWPOLYLINE
5
170
100
AcDbEntity
8
0
100
AcDbPolyline
90
4
70
1
43
0.0
10
376.40158347969219
20
-54.518916522578955
10
376.40158347969219
20
-40.548616522578911
10
390.37158347969216
20
-40.548616522578911
10
390.37158347969216
20
-54.518916522578955
0
LWPOLYLINE
5
171
100
AcDbEntity
8
0
100
AcDbPolyline
90
4
70
1
43
0.0
10
134.63758347969218
20
-92.32091652257904
10
148.3025834796922
20
-95.224916522579008
10
145.39758347969217
20
-108.88991652257903
10
131.73258347969215
20
-105.98591652257909
0
LWPOLYLINE
5
172
100
AcDbEntity
8
0
100
AcDbPolyline
90
4
70
1
43
0.0
10
204.60558347969226
20
-91.419916522579001
10
201.70058347969217
20
-77.754916522578981
10
215.36558347969219
20
-74.850916522578999
10
218.27058347969222
20
-88.514916522578986
0
LWPOLYLINE
5
173
100
AcDbEntity
8
0
100
AcDbPolyline
90
4
70
1
43
0.0
10
390.37158347969216
20
-95.973916522578946
10
376.40158347969219
20
-95.973916522578946
10
376.40158347969219
20
-82.003916522578947
10
390.37158347969216
20
-82.003916522578947
0
LWPOLYLINE
5
174
100
AcDbEntity
8
0
100
AcDbPolyline
90
4
70
1
43
0.0
10
428.47158347969219
20
-40.548616522578897
10
428.47158347969219
20
-54.518916522578905
10
414.50158347969221
20
-54.518916522578934
10
414.50158347969221
20
-40.548616522578897
0
LWPOLYLINE
5
175
100
AcDbEntity
8
0
100
AcDbPolyline
90
4
70
1
43
0.0
10
350.20758347969218
20
-153.12391652257898
10
350.20758347969218
20
-139.15391652257898
10
364.1775834796922
20
-139.15391652257898
10
364.1775834796922
20
-153.12391652257898
0
LWPOLYLINE
5
176
100
AcDbEntity
8
0
100
AcDbPolyline
90
4
70
1
43
0.0
10
318.93458347969221
20
-115.02391652257899
10
304.96458347969218
20
-115.02391652257901
10
304.96458347969218
20
-101.053916522579
10
318.93458347969221
20
-101.05391652257896
0
LWPOLYLINE
5
177
100
AcDbEntity
8
0
100
AcDbPolyline
90
4
70
1
43
0.0
10
376.40158347969219
20
-139.25391652257898
10
390.37158347969216
20
-139.25391652257898
10
390.37158347969216
20
-153.22391652257895
10
376.40158347969219
20
-153.22391652257895
0
LWPOLYLINE
5
178
100
AcDbEntity
8
0
100
AcDbPolyline
90
4
70
1
43
0.0
10
428.47158347969219
20
-82.003916522578919
10
428.47158347969219
20
-95.973916522578904
10
414.50158347969221
20
-95.973916522578946
10
414.50158347969221
20
-82.003916522578947
0
LWPOLYLINE
5
179
100
AcDbEntity
8
0
100
AcDbPolyline
90
4
70
1
43
0.0
10
300.2015834796922
20
-76.923916522578963
10
300.2015834796922
20
-62.953916522578979
10
314.17158347969223
20
-62.953916522578943
10
314.17158347969223
20
-76.923916522578935
0
LWPOLYLINE
5
180
100
AcDbEntity
8
0
100
AcDbPolyline
90
4
70
1
43
0.0
10
265.91058347969226
20
-83.582916522578969
10
268.81558347969224
20
-97.246916522578999
10
255.15058347969222
20
-100.15191652257897
10
252.24558347969221
20
-86.486916522579023
0
LWPOLYLINE
5
181
100
AcDbEntity
8
0
100
AcDbPolyline
90
4
70
1
43
0.0
10
220.33458347969216
20
-73.793916522579011
10
233.99958347969218
20
-70.889916522579
10
236.90358347969223
20
-84.554916522578978
10
223.23958347969224
20
-87.45891652257896
0
LWPOLYLINE
5
182
100
AcDbEntity
8
0
100
AcDbPolyline
90
4
70
1
43
0.0
10
151.27858347969212
20
-66.752916522579
10
154.18258347969211
20
-53.087916522579008
10
167.84758347969213
20
-55.991916522579018
10
164.94358347969214
20
-69.656916522579053
0
LWPOLYLINE
5
183
100
AcDbEntity
8
0
100
AcDbPolyline
90
4
70
1
43
0.0
10
232.24558347969213
20
-62.638916522578967
10
218.58058347969211
20
-65.543916522578982
10
215.67658347969214
20
-51.878916522578962
10
229.34158347969216
20
-48.973916522578982
0
LINE
5
184
100
AcDbEntity
8
0
100
AcDbLine
10
335.9205834796922
20
-120.10391652257894
30
4.6464206221985381e-15
11
349.89058347969217
21
-120.10391652257894
31
4.6464206221985381e-15
0
LWPOLYLINE
5
185
100
AcDbEntity
8
0
100
AcDbPolyline
90
4
70
1
43
0.0
10
154.6125834796922
20
-116.00791652257904
10
168.27758347969223
20
-118.91291652257902
10
165.37358347969223
20
-132.57691652257904
10
151.70858347969221
20
-129.67291652257902
0
LWPOLYLINE
5
186
100
AcDbEntity
8
0
100
AcDbPolyline
90
4
70
1
43
0.0
10
257.60258347969221
20
-65.872916522578961
10
271.2665834796922
20
-62.967916522578982
10
274.17158347969223
20
-76.632916522578967
10
260.50658347969215
20
-79.537916522578982
0
LWPOLYLINE
5
187
100
AcDbEntity
8
0
100
AcDbPolyline
90
4
70
1
43
0.0
10
128.10558347969226
20
-124.65591652257906
10
114.44058347969225
20
-121.75091652257905
10
117.34558347969227
20
-108.08691652257906
10
131.01058347969223
20
-110.99091652257904
0
LWPOLYLINE
5
188
100
AcDbEntity
8
0
100
AcDbPolyline
90
4
70
1
43
0.0
10
140.54358347969216
20
-88.28691652257902
10
126.87858347969222
20
-85.382916522579038
10
129.78258347969214
20
-71.71791652257906
10
143.44758347969207
20
-74.621916522579028
0
LINE
5
189
100
AcDbEntity
8
0
100
AcDbLine
10
328.77658347969225
20
-62.953916522578943
30
1.1645277079325662e-14
11
342.74658347969216
21
-62.953916522578943
31
1.1645277079325662e-14
0
LWPOLYLINE
5
190
100
AcDbEntity
8
0
100
AcDbPolyline
90
4
70
1
43
0.0
10
476.40798347969223
20
-139.25391652257889
10
490.3779834796922
20
-139.25391652257889
10
490.3779834796922
20
-153.22391652257889
10
476.40798347969223
20
-153.22391652257889
0
LWPOLYLINE
5
191
100
AcDbEntity
8
0
100
AcDbPolyline
90
4
70
1
43
0.0
10
323.69658347969221
20
-40.548616522578925
10
323.69658347969221
20
-54.518916522578976
10
309.72658347969224
20
-54.518916522578976
10
309.72658347969224
20
-40.548616522578925
0
LWPOLYLINE
5
192
100
AcDbEntity
8
0
100
AcDbPolyline
90
4
70
1
43
0.0
10
309.40958347969223
20
-82.003916522578947
10
309.40958347969223
20
-95.973916522578946
10
295.43958347969226
20
-95.973916522578975
10
295.43958347969226
20
-82.00391652257899
0
LWPOLYLINE
5
193
100
AcDbEntity
8
0
100
AcDbPolyline
90
4
70
1
43
0.0
10
213.61158347969217
20
-66.599916522579008
10
199.9475834796921
20
-69.50391652257899
10
197.04258347969215
20
-55.839916522579017
10
210.70758347969218
20
-52.934916522578987
0
LWPOLYLINE
5
194
100
AcDbEntity
8
0
100
AcDbPolyline
90
4
70
1
43
0.0
10
113.1675834796922
20
-160.53191652257908
10
99.503583479692281
20
-157.62791652257906
10
102.40758347969219
20
-143.96291652257904
10
116.07258347969214
20
-146.86691652257906
0
LWPOLYLINE
5
195
100
AcDbEntity
8
0
100
AcDbPolyline
90
4
70
1
43
0.0
10
95.807583479692155
20
-117.79091652257904
10
98.711583479692209
20
-104.12591652257905
10
112.37658347969223
20
-107.02991652257904
10
109.47158347969221
20
-120.69491652257906
0
LWPOLYLINE
5
196
100
AcDbEntity
8
0
100
AcDbPolyline
90
4
70
1
43
0.0
10
245.13558347969223
20
-121.75591652257896
10
242.23158347969223
20
-108.09091652257898
10
255.89658347969214
20
-105.186916522579
10
258.80058347969219
20
-118.85191652257902
0
LINE
5
197
100
AcDbEntity
8
0
100
AcDbLine
10
335.9205834796922
20
-101.05391652257896
30
6.9793727745742454e-15
11
349.89058347969217
21
-101.05391652257896
31
6.9793727745742454e-15
0
LWPOLYLINE
5
198
100
AcDbEntity
8
0
100
AcDbPolyline
90
4
70
1
43
0.0
10
108.13058347969225
20
-100.96891652257909
10
94.465583479692228
20
-98.063916522579078
10
97.369583479692238
20
-84.398916522579057
10
111.0345834796922
20
-87.303916522579073
0
LINE
5
199
100
AcDbEntity
8
0
100
AcDbLine
10
342.74658347969216
20
-76.923916522578935
30
9.9344455009168074e-15
11
328.77658347969225
21
-76.923916522578935
31
9.9344455009168074e-15
0
LINE
5
200
100
AcDbEntity
8
0
100
AcDbLine
10
241.01758347969223
20
-161.61991652257899
30
-4.3782302914161514e-16
11
227.35258347969221
21
-164.52491652257896
31
-7.9358292429391904e-16
0
LWPOLYLINE
5
201
100
AcDbEntity
8
0
100
AcDbPolyline
90
4
70
1
43
0.0
10
495.45798347969225
20
-63.053916522578852
10
509.42798347969216
20
-63.053916522578852
10
509.42798347969216
20
-77.023916522578872
10
495.45798347969225
20
-77.023916522578872
0
LWPOLYLINE
5
202
100
AcDbEntity
8
0
100
AcDbPolyline
90
4
70
1
43
0.0
10
258.41358347969225
20
-138.40891652257898
10
255.50858347969216
20
-124.74491652257899
10
269.17358347969218
20
-121.83991652257899
10
272.07858347969216
20
-135.50491652257901
0
LWPOLYLINE
5
203
100
AcDbEntity
8
0
100
AcDbPolyline
90
4
70
1
43
0.0
10
414.50158347969221
20
-76.923916522578935
10
414.50158347969221
20
-62.953916522578943
10
428.47158347969219
20
-62.953916522578908
10
428.47158347969219
20
-76.923916522578892
0
LWPOLYLINE
5
204
100
AcDbEntity
8
0
100
AcDbPolyline
90
4
70
1
43
0.0
10
314.17158347969223
20
-134.073916522579
10
300.2015834796922
20
-134.07391652257903
10
300.2015834796922
20
-120.10391652257897
10
314.17158347969223
20
-120.10391652257894
0
LWPOLYLINE
5
205
100
AcDbEntity
8
0
100
AcDbPolyline
90
4
70
1
43
0.0
10
217.88358347969228
20
-108.07291652257899
10
214.97858347969228
20
-94.408916522579005
10
228.6435834796923
20
-91.503916522579019
10
231.54758347969221
20
-105.16891652257897
0
LWPOLYLINE
5
206
100
AcDbEntity
8
0
100
AcDbPolyline
90
4
70
1
43
0.0
10
395.4515834796922
20
-134.17391652257896
10
395.4515834796922
20
-120.20391652257899
10
409.42158347969217
20
-120.20391652257899
10
409.42158347969217
20
-134.17391652257896
0
LINE
5
207
100
AcDbEntity
8
0
100
AcDbLine
10
72.296983479692173
20
-137.34091652257905
30
4.1996694698695815e-15
11
72.296983479692173
21
-125.04731652257905
31
4.1996694698695815e-15
0
LINE
5
208
100
AcDbEntity
8
0
100
AcDbLine
10
72.296983479692173
20
-125.04731652257905
30
4.1996694698695815e-15
11
65.642183479692179
21
-125.04731652257905
31
4.1996694698695815e-15
0
LINE
5
209
100
AcDbEntity
8
0
100
AcDbLine
10
65.642183479692179
20
-125.04731652257905
30
4.1996694698695815e-15
11
65.642183479692179
21
-125.86011652257906
31
4.1996694698695815e-15
0
LINE
5
210
100
AcDbEntity
8
0
100
AcDbLine
10
65.642183479692179
20
-125.86011652257906
30
4.1996694698695815e-15
11
64.016583479692173
21
-125.86011652257906
31
4.1996694698695815e-15
0
LINE
5
211
100
AcDbEntity
8
0
100
AcDbLine
10
72.296983479692173
20
-137.34091652257905
30
4.1996694698695815e-15
11
70.493583479692177
21
-137.34091652257905
31
4.1996694698695815e-15
0
LINE
5
212
100
AcDbEntity
8
0
100
AcDbLine
10
70.493583479692177
20
-138.50931652257907
30
4.1996694698695815e-15
11
70.493583479692177
21
-137.34091652257905
31
4.1996694698695815e-15
0
LINE
5
213
100
AcDbEntity
8
0
100
AcDbLine
10
70.493583479692177
20
-138.50931652257907
30
4.1996694698695815e-15
11
67.445583479692175
21
-138.50931652257907
31
4.1996694698695815e-15
0
LINE
5
214
100
AcDbEntity
8
0
100
AcDbLine
10
67.445583479692175
20
-138.50931652257907
30
4.1996694698695815e-15
11
67.445583479692175
21
-137.34091652257905
31
4.1996694698695815e-15
0
LINE
5
215
100
AcDbEntity
8
0
100
AcDbLine
10
67.445583479692175
20
-137.34091652257905
30
4.1996694698695815e-15
11
65.642183479692179
21
-137.34091652257905
31
4.1996694698695815e-15
0
LINE
5
216
100
AcDbEntity
8
0
100
AcDbLine
10
65.642183479692179
20
-137.34091652257905
30
4.1996694698695815e-15
11
65.642183479692179
21
-136.55351652257906
31
4.1996694698695815e-15
0
LINE
5
217
100
AcDbEntity
8
0
100
AcDbLine
10
65.642183479692179
20
-136.55351652257906
30
4.1996694698695815e-15
11
64.016583479692173
21
-136.55351652257906
31
4.1996694698695815e-15
0
LINE
5
218
100
AcDbEntity
8
0
100
AcDbLine
10
72.296983479692173
20
-130.73691652257907
30
4.1996694698695815e-15
11
72.296983479692173
21
-131.24491652257908
31
4.1996694698695815e-15
0
LINE
5
219
100
AcDbEntity
8
0
100
AcDbLine
10
41.766183479692181
20
-125.04731652257908
30
4.607158445817872e-15
11
48.42098347969219
21
-125.04731652257908
31
3.7921804939212918e-15
0
LINE
5
220
100
AcDbEntity
8
0
100
AcDbLine
10
43.569583479692184
20
-138.50931652257907
30
4.3863056420596386e-15
11
46.617583479692186
21
-138.50931652257907
31
4.0130332976795253e-15
0
LINE
5
221
100
AcDbEntity
8
0
100
AcDbLine
10
46.617583479692186
20
-138.50931652257907
30
4.0130332976795253e-15
11
46.617583479692186
21
-137.34091652257908
31
4.0130332976795253e-15
0
LINE
5
222
100
AcDbEntity
8
0
100
AcDbLine
10
41.766183479692181
20
-137.34091652257908
30
4.607158445817872e-15
11
41.766183479692181
21
-125.04731652257908
31
4.607158445817872e-15
0
LINE
5
223
100
AcDbEntity
8
0
100
AcDbLine
10
43.569583479692184
20
-138.50931652257907
30
4.3863056420596386e-15
11
43.569583479692184
21
-137.34091652257908
31
4.3863056420596386e-15
0
LINE
5
224
100
AcDbEntity
8
0
100
AcDbLine
10
48.42098347969219
20
-125.04731652257908
30
3.7921804939212918e-15
11
48.42098347969219
21
-125.86011652257908
31
3.7921804939212918e-15
0
LINE
5
225
100
AcDbEntity
8
0
100
AcDbLine
10
41.766183479692181
20
-130.73691652257909
30
4.607158445817872e-15
11
41.766183479692181
21
-131.2449165225791
31
4.607158445817872e-15
0
LINE
5
226
100
AcDbEntity
8
0
100
AcDbLine
10
48.42098347969219
20
-137.34091652257908
30
3.7921804939212918e-15
11
48.42098347969219
21
-136.55351652257909
31
3.7921804939212918e-15
0
LINE
5
227
100
AcDbEntity
8
0
100
AcDbLine
10
46.617583479692186
20
-137.34091652257908
30
4.0130332976795253e-15
11
48.42098347969219
21
-137.34091652257908
31
3.7921804939212918e-15
0
LINE
5
228
100
AcDbEntity
8
0
100
AcDbLine
10
41.766183479692181
20
-137.34091652257908
30
4.607158445817872e-15
11
43.569583479692184
21
-137.34091652257908
31
4.3863056420596386e-15
0
LINE
5
229
100
AcDbEntity
8
0
100
AcDbLine
10
48.42098347969219
20
-136.55351652257909
30
3.7921804939212918e-15
11
50.046583479692188
21
-136.55351652257909
31
3.5931019102518971e-15
0
LINE
5
230
100
AcDbEntity
8
0
100
AcDbLine
10
48.42098347969219
20
-125.86011652257908
30
3.7921804939212918e-15
11
50.046583479692188
21
-125.86011652257908
31
3.5931019102518971e-15
0
LINE
5
231
100
AcDbEntity
8
0
100
AcDbLine
10
50.046583479692188
20
-123.75191652257908
30
4.1996694698695815e-15
11
50.046583479692188
21
-125.86011652257908
31
4.1996694698695815e-15
0
LINE
5
232
100
AcDbEntity
8
0
100
AcDbLine
10
50.046583479692188
20
-136.55351652257909
30
3.5931019102518971e-15
11
50.046583479692188
21
-137.72191652257905
31
2.4888378914607298e-15
0
LINE
5
233
100
AcDbEntity
8
0
100
AcDbLine
10
64.016583479692173
20
-136.55351652257906
30
4.1996694698695815e-15
11
64.016583479692173
21
-137.72191652257905
31
2.4888378914607298e-15
0
LINE
5
234
100
AcDbEntity
8
0
100
AcDbLine
10
64.016583479692173
20
-125.86011652257906
30
4.1996694698695815e-15
11
64.016583479692173
21
-123.75191652257908
31
4.1996694698695815e-15
0
LINE
5
235
100
AcDbEntity
8
0
100
AcDbLine
10
70.493583479692177
20
-138.50931652257907
30
4.1996694698695815e-15
11
70.493583479692177
21
-137.34091652257905
31
4.1996694698695815e-15
0
LINE
5
236
100
AcDbEntity
8
0
100
AcDbLine
10
43.569583479692184
20
-138.50931652257907
30
4.3863056420596386e-15
11
43.569583479692184
21
-137.34091652257908
31
4.3863056420596386e-15
0
LINE
5
237
100
AcDbEntity
8
0
100
AcDbLine
10
41.766183479692181
20
-137.34091652257908
30
4.607158445817872e-15
11
41.766183479692181
21
-125.04731652257908
31
4.607158445817872e-15
0
LINE
5
238
100
AcDbEntity
8
0
100
AcDbLine
10
64.016583479692173
20
-136.55351652257906
30
4.1996694698695815e-15
11
64.016583479692173
21
-137.72191652257905
31
2.4888378914607298e-15
0
LINE
5
239
100
AcDbEntity
8
0
100
AcDbLine
10
72.296983479692173
20
-137.34091652257905
30
4.1996694698695815e-15
11
70.493583479692177
21
-137.34091652257905
31
4.1996694698695815e-15
0
LINE
5
240
100
AcDbEntity
8
0
100
AcDbLine
10
43.569583479692184
20
-138.50931652257907
30
4.3863056420596386e-15
11
46.617583479692186
21
-138.50931652257907
31
4.0130332976795253e-15
0
LINE
5
241
100
AcDbEntity
8
0
100
AcDbLine
10
70.493583479692177
20
-138.50931652257907
30
4.1996694698695815e-15
11
67.445583479692175
21
-138.50931652257907
31
4.1996694698695815e-15
0
LINE
5
242
100
AcDbEntity
8
0
100
AcDbLine
10
41.766183479692181
20
-125.04731652257908
30
4.607158445817872e-15
11
48.42098347969219
21
-125.04731652257908
31
3.7921804939212918e-15
0
LINE
5
243
100
AcDbEntity
8
0
100
AcDbLine
10
72.296983479692173
20
-130.73691652257907
30
4.1996694698695815e-15
11
72.296983479692173
21
-131.24491652257908
31
4.1996694698695815e-15
0
LINE
5
244
100
AcDbEntity
8
0
100
AcDbLine
10
72.296983479692173
20
-125.04731652257905
30
4.1996694698695815e-15
11
65.642183479692179
21
-125.04731652257905
31
4.1996694698695815e-15
0
LINE
5
245
100
AcDbEntity
8
0
100
AcDbLine
10
67.445583479692175
20
-137.34091652257905
30
4.1996694698695815e-15
11
65.642183479692179
21
-137.34091652257905
31
4.1996694698695815e-15
0
LINE
5
246
100
AcDbEntity
8
0
100
AcDbLine
10
64.016583479692173
20
-137.72191652257905
30
2.4888378914607298e-15
11
50.046583479692188
21
-137.72191652257905
31
2.4888378914607298e-15
0
LINE
5
247
100
AcDbEntity
8
0
100
AcDbLine
10
72.296983479692173
20
-137.34091652257905
30
4.1996694698695815e-15
11
72.296983479692173
21
-125.04731652257905
31
4.1996694698695815e-15
0
LINE
5
248
100
AcDbEntity
8
0
100
AcDbLine
10
67.445583479692175
20
-138.50931652257907
30
4.1996694698695815e-15
11
67.445583479692175
21
-137.34091652257905
31
4.1996694698695815e-15
0
LINE
5
249
100
AcDbEntity
8
0
100
AcDbLine
10
41.766183479692181
20
-130.73691652257909
30
4.607158445817872e-15
11
41.766183479692181
21
-131.2449165225791
31
4.607158445817872e-15
0
LINE
5
250
100
AcDbEntity
8
0
100
AcDbLine
10
48.42098347969219
20
-136.55351652257909
30
3.7921804939212918e-15
11
50.046583479692188
21
-136.55351652257909
31
3.5931019102518971e-15
0
LINE
5
251
100
AcDbEntity
8
0
100
AcDbLine
10
65.642183479692179
20
-125.86011652257906
30
4.1996694698695815e-15
11
64.016583479692173
21
-125.86011652257906
31
4.1996694698695815e-15
0
LINE
5
252
100
AcDbEntity
8
0
100
AcDbLine
10
48.42098347969219
20
-125.86011652257908
30
3.7921804939212918e-15
11
50.046583479692188
21
-125.86011652257908
31
3.5931019102518971e-15
0
LINE
5
253
100
AcDbEntity
8
0
100
AcDbLine
10
65.642183479692179
20
-137.34091652257905
30
4.1996694698695815e-15
11
65.642183479692179
21
-136.55351652257906
31
4.1996694698695815e-15
0
LINE
5
254
100
AcDbEntity
8
0
100
AcDbLine
10
48.42098347969219
20
-125.04731652257908
30
3.7921804939212918e-15
11
48.42098347969219
21
-125.86011652257908
31
3.7921804939212918e-15
0
LINE
5
255
100
AcDbEntity
8
0
100
AcDbLine
10
48.42098347969219
20
-137.34091652257908
30
3.7921804939212918e-15
11
48.42098347969219
21
-136.55351652257909
31
3.7921804939212918e-15
0
LINE
5
256
100
AcDbEntity
8
0
100
AcDbLine
10
50.046583479692188
20
-123.75191652257908
30
4.1996694698695815e-15
11
64.016583479692173
21
-123.75191652257908
31
4.1996694698695815e-15
0
LINE
5
257
100
AcDbEntity
8
0
100
AcDbLine
10
50.046583479692188
20
-123.75191652257908
30
4.1996694698695815e-15
11
50.046583479692188
21
-125.86011652257908
31
4.1996694698695815e-15
0
LINE
5
258
100
AcDbEntity
8
0
100
AcDbLine
10
46.617583479692186
20
-137.34091652257908
30
4.0130332976795253e-15
11
48.42098347969219
21
-137.34091652257908
31
3.7921804939212918e-15
0
LINE
5
259
100
AcDbEntity
8
0
100
AcDbLine
10
46.617583479692186
20
-138.50931652257907
30
4.0130332976795253e-15
11
46.617583479692186
21
-137.34091652257908
31
4.0130332976795253e-15
0
LINE
5
260
100
AcDbEntity
8
0
100
AcDbLine
10
65.642183479692179
20
-125.04731652257905
30
4.1996694698695815e-15
11
65.642183479692179
21
-125.86011652257906
31
4.1996694698695815e-15
0
LINE
5
261
100
AcDbEntity
8
0
100
AcDbLine
10
50.046583479692188
20
-136.55351652257909
30
3.5931019102518971e-15
11
50.046583479692188
21
-137.72191652257905
31
2.4888378914607298e-15
0
LINE
5
262
100
AcDbEntity
8
0
100
AcDbLine
10
41.766183479692181
20
-137.34091652257908
30
4.607158445817872e-15
11
43.569583479692184
21
-137.34091652257908
31
4.3863056420596386e-15
0
LINE
5
263
100
AcDbEntity
8
0
100
AcDbLine
10
65.642183479692179
20
-136.55351652257906
30
4.1996694698695815e-15
11
64.016583479692173
21
-136.55351652257906
31
4.1996694698695815e-15
0
LINE
5
264
100
AcDbEntity
8
0
100
AcDbLine
10
64.016583479692173
20
-125.86011652257906
30
4.1996694698695815e-15
11
64.016583479692173
21
-123.75191652257908
31
4.1996694698695815e-15
0
LINE
5
265
100
AcDbEntity
8
0
100
AcDbLine
10
356.3675834796922
20
-134.86131652257899
30
4.1996694698695815e-15
11
356.3675834796922
21
-133.692916522579
31
4.1996694698695815e-15
0
LINE
5
266
100
AcDbEntity
8
0
100
AcDbLine
10
329.44358347969222
20
-134.86131652257902
30
4.3863056420596386e-15
11
329.44358347969222
21
-133.69291652257903
31
4.3863056420596386e-15
0
LINE
5
267
100
AcDbEntity
8
0
100
AcDbLine
10
327.64018347969221
20
-133.69291652257903
30
4.607158445817872e-15
11
327.64018347969221
21
-121.39931652257901
31
4.607158445817872e-15
0
LINE
5
268
100
AcDbEntity
8
0
100
AcDbLine
10
349.89058347969217
20
-132.90551652257901
30
4.1996694698695815e-15
11
349.89058347969217
21
-134.073916522579
31
2.4888378914607298e-15
0
LINE
5
269
100
AcDbEntity
8
0
100
AcDbLine
10
358.17098347969221
20
-133.692916522579
30
4.1996694698695815e-15
11
356.3675834796922
21
-133.692916522579
31
4.1996694698695815e-15
0
LINE
5
270
100
AcDbEntity
8
0
100
AcDbLine
10
329.44358347969222
20
-134.86131652257902
30
4.3863056420596386e-15
11
332.49158347969222
21
-134.86131652257902
31
4.0130332976795253e-15
0
LINE
5
271
100
AcDbEntity
8
0
100
AcDbLine
10
356.3675834796922
20
-134.86131652257899
30
4.1996694698695815e-15
11
353.3195834796922
21
-134.86131652257899
31
4.1996694698695815e-15
0
LINE
5
272
100
AcDbEntity
8
0
100
AcDbLine
10
327.64018347969221
20
-121.39931652257901
30
4.607158445817872e-15
11
334.29498347969223
21
-121.39931652257901
31
3.7921804939212918e-15
0
LINE
5
273
100
AcDbEntity
8
0
100
AcDbLine
10
358.17098347969221
20
-127.08891652257901
30
4.1996694698695815e-15
11
358.17098347969221
21
-127.59691652257901
31
4.1996694698695815e-15
0
LINE
5
274
100
AcDbEntity
8
0
100
AcDbLine
10
358.17098347969221
20
-121.399316522579
30
4.1996694698695815e-15
11
351.51618347969219
21
-121.399316522579
31
4.1996694698695815e-15
0
LINE
5
275
100
AcDbEntity
8
0
100
AcDbLine
10
353.3195834796922
20
-133.692916522579
30
4.1996694698695815e-15
11
351.51618347969219
21
-133.692916522579
31
4.1996694698695815e-15
0
LINE
5
276
100
AcDbEntity
8
0
100
AcDbLine
10
349.89058347969217
20
-134.073916522579
30
2.4888378914607298e-15
11
335.9205834796922
21
-134.073916522579
31
2.4888378914607298e-15
0
LINE
5
277
100
AcDbEntity
8
0
100
AcDbLine
10
358.17098347969221
20
-133.692916522579
30
4.1996694698695815e-15
11
358.17098347969221
21
-121.399316522579
31
4.1996694698695815e-15
0
LINE
5
278
100
AcDbEntity
8
0
100
AcDbLine
10
353.3195834796922
20
-134.86131652257899
30
4.1996694698695815e-15
11
353.3195834796922
21
-133.692916522579
31
4.1996694698695815e-15
0
LINE
5
279
100
AcDbEntity
8
0
100
AcDbLine
10
327.64018347969221
20
-127.08891652257903
30
4.607158445817872e-15
11
327.64018347969221
21
-127.59691652257902
31
4.607158445817872e-15
0
LINE
5
280
100
AcDbEntity
8
0
100
AcDbLine
10
334.29498347969223
20
-132.90551652257901
30
3.7921804939212918e-15
11
335.9205834796922
21
-132.90551652257901
31
3.5931019102518971e-15
0
LINE
5
281
100
AcDbEntity
8
0
100
AcDbLine
10
351.51618347969219
20
-122.212116522579
30
4.1996694698695815e-15
11
349.89058347969217
21
-122.212116522579
31
4.1996694698695815e-15
0
LINE
5
282
100
AcDbEntity
8
0
100
AcDbLine
10
334.29498347969223
20
-122.21211652257901
30
3.7921804939212918e-15
11
335.9205834796922
21
-122.21211652257901
31
3.5931019102518971e-15
0
LINE
5
283
100
AcDbEntity
8
0
100
AcDbLine
10
351.51618347969219
20
-133.692916522579
30
4.1996694698695815e-15
11
351.51618347969219
21
-132.90551652257901
31
4.1996694698695815e-15
0
LINE
5
284
100
AcDbEntity
8
0
100
AcDbLine
10
334.29498347969223
20
-121.39931652257901
30
3.7921804939212918e-15
11
334.29498347969223
21
-122.21211652257901
31
3.7921804939212918e-15
0
LINE
5
285
100
AcDbEntity
8
0
100
AcDbLine
10
334.29498347969223
20
-133.69291652257903
30
3.7921804939212918e-15
11
334.29498347969223
21
-132.90551652257901
31
3.7921804939212918e-15
0
LINE
5
286
100
AcDbEntity
8
0
100
AcDbLine
10
335.9205834796922
20
-120.10391652257901
30
4.1996694698695815e-15
11
335.9205834796922
21
-122.21211652257901
31
4.1996694698695815e-15
0
LINE
5
287
100
AcDbEntity
8
0
100
AcDbLine
10
332.49158347969222
20
-133.69291652257903
30
4.0130332976795253e-15
11
334.29498347969223
21
-133.69291652257903
31
3.7921804939212918e-15
0
LINE
5
288
100
AcDbEntity
8
0
100
AcDbLine
10
332.49158347969222
20
-134.86131652257902
30
4.0130332976795253e-15
11
332.49158347969222
21
-133.69291652257903
31
4.0130332976795253e-15
0
LINE
5
289
100
AcDbEntity
8
0
100
AcDbLine
10
351.51618347969219
20
-121.399316522579
30
4.1996694698695815e-15
11
351.51618347969219
21
-122.212116522579
31
4.1996694698695815e-15
0
LINE
5
290
100
AcDbEntity
8
0
100
AcDbLine
10
335.9205834796922
20
-132.90551652257901
30
3.5931019102518971e-15
11
335.9205834796922
21
-134.073916522579
31
2.4888378914607298e-15
0
LINE
5
291
100
AcDbEntity
8
0
100
AcDbLine
10
327.64018347969221
20
-133.69291652257903
30
4.607158445817872e-15
11
329.44358347969222
21
-133.69291652257903
31
4.3863056420596386e-15
0
LINE
5
292
100
AcDbEntity
8
0
100
AcDbLine
10
351.51618347969219
20
-132.90551652257901
30
4.1996694698695815e-15
11
349.89058347969217
21
-132.90551652257901
31
4.1996694698695815e-15
0
LINE
5
293
100
AcDbEntity
8
0
100
AcDbLine
10
349.89058347969217
20
-122.212116522579
30
4.1996694698695815e-15
11
349.89058347969217
21
-120.10391652257901
31
4.1996694698695815e-15
0
LINE
5
294
100
AcDbEntity
8
0
100
AcDbLine
10
356.3675834796922
20
-115.81131652257898
30
4.1996694698695815e-15
11
356.3675834796922
21
-114.64291652257899
31
4.1996694698695815e-15
0
LINE
5
295
100
AcDbEntity
8
0
100
AcDbLine
10
329.44358347969222
20
-115.81131652257901
30
4.3863056420596386e-15
11
329.44358347969222
21
-114.642916522579
31
4.3863056420596386e-15
0
LINE
5
296
100
AcDbEntity
8
0
100
AcDbLine
10
327.64018347969221
20
-114.642916522579
30
4.607158445817872e-15
11
327.64018347969221
21
-102.349316522579
31
4.607158445817872e-15
0
LINE
5
297
100
AcDbEntity
8
0
100
AcDbLine
10
349.89058347969217
20
-113.85551652257899
30
4.1996694698695815e-15
11
349.89058347969217
21
-115.02391652257899
31
2.4888378914607298e-15
0
LINE
5
298
100
AcDbEntity
8
0
100
AcDbLine
10
358.17098347969221
20
-114.64291652257899
30
4.1996694698695815e-15
11
356.3675834796922
21
-114.64291652257899
31
4.1996694698695815e-15
0
LINE
5
299
100
AcDbEntity
8
0
100
AcDbLine
10
329.44358347969222
20
-115.81131652257901
30
4.3863056420596386e-15
11
332.49158347969222
21
-115.81131652257901
31
4.0130332976795253e-15
0
LINE
5
300
100
AcDbEntity
8
0
100
AcDbLine
10
356.3675834796922
20
-115.81131652257898
30
4.1996694698695815e-15
11
353.3195834796922
21
-115.81131652257898
31
4.1996694698695815e-15
0
LINE
5
301
100
AcDbEntity
8
0
100
AcDbLine
10
327.64018347969221
20
-102.349316522579
30
4.607158445817872e-15
11
334.29498347969223
21
-102.349316522579
31
3.7921804939212918e-15
0
LINE
5
302
100
AcDbEntity
8
0
100
AcDbLine
10
358.17098347969221
20
-108.038916522579
30
4.1996694698695815e-15
11
358.17098347969221
21
-108.546916522579
31
4.1996694698695815e-15
0
LINE
5
303
100
AcDbEntity
8
0
100
AcDbLine
10
358.17098347969221
20
-102.34931652257899
30
4.1996694698695815e-15
11
351.51618347969219
21
-102.34931652257899
31
4.1996694698695815e-15
0
LINE
5
304
100
AcDbEntity
8
0
100
AcDbLine
10
353.3195834796922
20
-114.64291652257899
30
4.1996694698695815e-15
11
351.51618347969219
21
-114.64291652257899
31
4.1996694698695815e-15
0
LINE
5
305
100
AcDbEntity
8
0
100
AcDbLine
10
349.89058347969217
20
-115.02391652257899
30
2.4888378914607298e-15
11
335.9205834796922
21
-115.02391652257899
31
2.4888378914607298e-15
0
LINE
5
306
100
AcDbEntity
8
0
100
AcDbLine
10
358.17098347969221
20
-114.64291652257899
30
4.1996694698695815e-15
11
358.17098347969221
21
-102.34931652257899
31
4.1996694698695815e-15
0
LINE
5
307
100
AcDbEntity
8
0
100
AcDbLine
10
353.3195834796922
20
-115.81131652257898
30
4.1996694698695815e-15
11
353.3195834796922
21
-114.64291652257899
31
4.1996694698695815e-15
0
LINE
5
308
100
AcDbEntity
8
0
100
AcDbLine
10
327.64018347969221
20
-108.03891652257902
30
4.607158445817872e-15
11
327.64018347969221
21
-108.54691652257901
31
4.607158445817872e-15
0
LINE
5
309
100
AcDbEntity
8
0
100
AcDbLine
10
334.29498347969223
20
-113.85551652257901
30
3.7921804939212918e-15
11
335.9205834796922
21
-113.85551652257901
31
3.5931019102518971e-15
0
LINE
5
310
100
AcDbEntity
8
0
100
AcDbLine
10
351.51618347969219
20
-103.16211652257898
30
4.1996694698695815e-15
11
349.89058347969217
21
-103.16211652257898
31
4.1996694698695815e-15
0
LINE
5
311
100
AcDbEntity
8
0
100
AcDbLine
10
334.29498347969223
20
-103.162116522579
30
3.7921804939212918e-15
11
335.9205834796922
21
-103.162116522579
31
3.5931019102518971e-15
0
LINE
5
312
100
AcDbEntity
8
0
100
AcDbLine
10
351.51618347969219
20
-114.64291652257899
30
4.1996694698695815e-15
11
351.51618347969219
21
-113.85551652257899
31
4.1996694698695815e-15
0
LINE
5
313
100
AcDbEntity
8
0
100
AcDbLine
10
334.29498347969223
20
-102.349316522579
30
3.7921804939212918e-15
11
334.29498347969223
21
-103.162116522579
31
3.7921804939212918e-15
0
LINE
5
314
100
AcDbEntity
8
0
100
AcDbLine
10
334.29498347969223
20
-114.642916522579
30
3.7921804939212918e-15
11
334.29498347969223
21
-113.85551652257901
31
3.7921804939212918e-15
0
LINE
5
315
100
AcDbEntity
8
0
100
AcDbLine
10
335.9205834796922
20
-101.053916522579
30
4.1996694698695815e-15
11
335.9205834796922
21
-103.162116522579
31
4.1996694698695815e-15
0
LINE
5
316
100
AcDbEntity
8
0
100
AcDbLine
10
332.49158347969222
20
-114.642916522579
30
4.0130332976795253e-15
11
334.29498347969223
21
-114.642916522579
31
3.7921804939212918e-15
0
LINE
5
317
100
AcDbEntity
8
0
100
AcDbLine
10
332.49158347969222
20
-115.81131652257901
30
4.0130332976795253e-15
11
332.49158347969222
21
-114.642916522579
31
4.0130332976795253e-15
0
LINE
5
318
100
AcDbEntity
8
0
100
AcDbLine
10
351.51618347969219
20
-102.34931652257899
30
4.1996694698695815e-15
11
351.51618347969219
21
-103.16211652257898
31
4.1996694698695815e-15
0
LINE
5
319
100
AcDbEntity
8
0
100
AcDbLine
10
335.9205834796922
20
-113.85551652257901
30
3.5931019102518971e-15
11
335.9205834796922
21
-115.02391652257899
31
2.4888378914607298e-15
0
LINE
5
320
100
AcDbEntity
8
0
100
AcDbLine
10
327.64018347969221
20
-114.642916522579
30
4.607158445817872e-15
11
329.44358347969222
21
-114.642916522579
31
4.3863056420596386e-15
0
LINE
5
321
100
AcDbEntity
8
0
100
AcDbLine
10
351.51618347969219
20
-113.85551652257899
30
4.1996694698695815e-15
11
349.89058347969217
21
-113.85551652257899
31
4.1996694698695815e-15
0
LINE
5
322
100
AcDbEntity
8
0
100
AcDbLine
10
349.89058347969217
20
-103.16211652257898
30
4.1996694698695815e-15
11
349.89058347969217
21
-101.053916522579
31
4.1996694698695815e-15
0
LINE
5
323
100
AcDbEntity
8
0
100
AcDbLine
10
349.22358347969225
20
-77.711316522578926
30
4.1996694698695815e-15
11
349.22358347969225
21
-76.542916522578935
31
4.1996694698695815e-15
0
LINE
5
324
100
AcDbEntity
8
0
100
AcDbLine
10
322.29958347969222
20
-77.71131652257894
30
4.3863056420596386e-15
11
322.29958347969222
21
-76.542916522578949
31
4.3863056420596386e-15
0
LINE
5
325
100
AcDbEntity
8
0
100
AcDbLine
10
320.49618347969221
20
-76.542916522578949
30
4.607158445817872e-15
11
320.49618347969221
21
-64.249316522578951
31
4.607158445817872e-15
0
LINE
5
326
100
AcDbEntity
8
0
100
AcDbLine
10
342.74658347969222
20
-75.75551652257893
30
4.1996694698695815e-15
11
342.74658347969222
21
-76.923916522578935
31
2.4888378914607298e-15
0
LINE
5
327
100
AcDbEntity
8
0
100
AcDbLine
10
351.02698347969226
20
-76.542916522578935
30
4.1996694698695815e-15
11
349.22358347969225
21
-76.542916522578935
31
4.1996694698695815e-15
0
LINE
5
328
100
AcDbEntity
8
0
100
AcDbLine
10
322.29958347969222
20
-77.71131652257894
30
4.3863056420596386e-15
11
325.34758347969222
21
-77.71131652257894
31
4.0130332976795253e-15
0
LINE
5
329
100
AcDbEntity
8
0
100
AcDbLine
10
349.22358347969225
20
-77.711316522578926
30
4.1996694698695815e-15
11
346.17558347969225
21
-77.711316522578926
31
4.1996694698695815e-15
0
LINE
5
330
100
AcDbEntity
8
0
100
AcDbLine
10
320.49618347969221
20
-64.249316522578951
30
4.607158445817872e-15
11
327.15098347969223
21
-64.249316522578951
31
3.7921804939212918e-15
0
LINE
5
331
100
AcDbEntity
8
0
100
AcDbLine
10
351.02698347969226
20
-69.938916522578936
30
4.1996694698695815e-15
11
351.02698347969226
21
-70.446916522578945
31
4.1996694698695815e-15
0
LINE
5
332
100
AcDbEntity
8
0
100
AcDbLine
10
351.02698347969226
20
-64.249316522578937
30
4.1996694698695815e-15
11
344.37218347969224
21
-64.249316522578937
31
4.1996694698695815e-15
0
LINE
5
333
100
AcDbEntity
8
0
100
AcDbLine
10
346.17558347969225
20
-76.542916522578935
30
4.1996694698695815e-15
11
344.37218347969224
21
-76.542916522578935
31
4.1996694698695815e-15
0
LINE
5
334
100
AcDbEntity
8
0
100
AcDbLine
10
351.02698347969226
20
-76.542916522578935
30
4.1996694698695815e-15
11
351.02698347969226
21
-64.249316522578937
31
4.1996694698695815e-15
0
LINE
5
335
100
AcDbEntity
8
0
100
AcDbLine
10
346.17558347969225
20
-77.711316522578926
30
4.1996694698695815e-15
11
346.17558347969225
21
-76.542916522578935
31
4.1996694698695815e-15
0
LINE
5
336
100
AcDbEntity
8
0
100
AcDbLine
10
320.49618347969221
20
-69.93891652257895
30
4.607158445817872e-15
11
320.49618347969221
21
-70.44691652257896
31
4.607158445817872e-15
0
LINE
5
337
100
AcDbEntity
8
0
100
AcDbLine
10
327.15098347969223
20
-75.755516522578944
30
3.7921804939212918e-15
11
328.77658347969225
21
-75.755516522578944
31
3.5931019102518971e-15
0
LINE
5
338
100
AcDbEntity
8
0
100
AcDbLine
10
344.37218347969224
20
-65.062116522578918
30
4.1996694698695815e-15
11
342.74658347969222
21
-65.062116522578918
31
4.1996694698695815e-15
0
LINE
5
339
100
AcDbEntity
8
0
100
AcDbLine
10
327.15098347969223
20
-65.062116522578947
30
3.7921804939212918e-15
11
328.77658347969225
21
-65.062116522578947
31
3.5931019102518971e-15
0
LINE
5
340
100
AcDbEntity
8
0
100
AcDbLine
10
344.37218347969224
20
-76.542916522578935
30
4.1996694698695815e-15
11
344.37218347969224
21
-75.75551652257893
31
4.1996694698695815e-15
0
LINE
5
341
100
AcDbEntity
8
0
100
AcDbLine
10
327.15098347969223
20
-64.249316522578951
30
3.7921804939212918e-15
11
327.15098347969223
21
-65.062116522578947
31
3.7921804939212918e-15
0
LINE
5
342
100
AcDbEntity
8
0
100
AcDbLine
10
327.15098347969223
20
-76.542916522578949
30
3.7921804939212918e-15
11
327.15098347969223
21
-75.755516522578944
31
3.7921804939212918e-15
0
LINE
5
343
100
AcDbEntity
8
0
100
AcDbLine
10
328.77658347969225
20
-62.953916522578943
30
4.1996694698695815e-15
11
328.77658347969225
21
-65.062116522578947
31
4.1996694698695815e-15
0
LINE
5
344
100
AcDbEntity
8
0
100
AcDbLine
10
325.34758347969222
20
-76.542916522578949
30
4.0130332976795253e-15
11
327.15098347969223
21
-76.542916522578949
31
3.7921804939212918e-15
0
LINE
5
345
100
AcDbEntity
8
0
100
AcDbLine
10
325.34758347969222
20
-77.71131652257894
30
4.0130332976795253e-15
11
325.34758347969222
21
-76.542916522578949
31
4.0130332976795253e-15
0
LINE
5
346
100
AcDbEntity
8
0
100
AcDbLine
10
344.37218347969224
20
-64.249316522578937
30
4.1996694698695815e-15
11
344.37218347969224
21
-65.062116522578918
31
4.1996694698695815e-15
0
LINE
5
347
100
AcDbEntity
8
0
100
AcDbLine
10
328.77658347969225
20
-75.755516522578944
30
3.5931019102518971e-15
11
328.77658347969225
21
-76.923916522578935
31
2.4888378914607298e-15
0
LINE
5
348
100
AcDbEntity
8
0
100
AcDbLine
10
320.49618347969221
20
-76.542916522578949
30
4.607158445817872e-15
11
322.29958347969222
21
-76.542916522578949
31
4.3863056420596386e-15
0
LINE
5
349
100
AcDbEntity
8
0
100
AcDbLine
10
344.37218347969224
20
-75.75551652257893
30
4.1996694698695815e-15
11
342.74658347969222
21
-75.75551652257893
31
4.1996694698695815e-15
0
LINE
5
350
100
AcDbEntity
8
0
100
AcDbLine
10
342.74658347969222
20
-65.062116522578918
30
4.1996694698695815e-15
11
342.74658347969222
21
-62.953916522578943
31
4.1996694698695815e-15
0
LINE
5
351
100
AcDbEntity
8
0
100
AcDbLine
10
502.44298347969215
20
-121.44851652257891
30
4.1996694698695815e-15
11
502.95098347969213
21
-121.44851652257891
31
4.1996694698695815e-15
0
LINE
5
352
100
AcDbEntity
8
0
100
AcDbLine
10
496.75338347969216
20
-121.44851652257891
30
4.1996694698695815e-15
11
496.75338347969216
21
-128.10331652257895
31
4.1996694698695815e-15
0
LINE
5
353
100
AcDbEntity
8
0
100
AcDbLine
10
510.21538347969215
20
-123.25191652257892
30
4.1996694698695815e-15
11
509.04698347969213
21
-123.25191652257892
31
4.1996694698695815e-15
0
LINE
5
354
100
AcDbEntity
8
0
100
AcDbLine
10
497.56618347969214
20
-145.3245165225789
30
3.7921804939212918e-15
11
497.56618347969214
21
-143.69891652257891
31
3.5931019102518971e-15
0
LINE
5
355
100
AcDbEntity
8
0
100
AcDbLine
10
495.45798347969219
20
-143.69891652257891
30
4.1996694698695815e-15
11
497.56618347969214
21
-143.69891652257891
31
4.1996694698695815e-15
0
LINE
5
356
100
AcDbEntity
8
0
100
AcDbLine
10
509.04698347969213
20
-128.10331652257895
30
4.1996694698695815e-15
11
508.25958347969214
21
-128.10331652257895
31
4.1996694698695815e-15
0
LINE
5
357
100
AcDbEntity
8
0
100
AcDbLine
10
509.04698347969213
20
-147.12791652257891
30
4.0130332976795253e-15
11
509.04698347969213
21
-145.3245165225789
31
3.7921804939212918e-15
0
LINE
5
358
100
AcDbEntity
8
0
100
AcDbLine
10
497.56618347969214
20
-128.10331652257895
30
4.1996694698695815e-15
11
497.56618347969214
21
-129.72891652257891
31
4.1996694698695815e-15
0
LINE
5
359
100
AcDbEntity
8
0
100
AcDbLine
10
510.21538347969221
20
-150.17591652257892
30
4.3863056420596386e-15
11
509.04698347969213
21
-150.17591652257892
31
4.3863056420596386e-15
0
LINE
5
360
100
AcDbEntity
8
0
100
AcDbLine
10
509.04698347969213
20
-151.97931652257893
30
4.607158445817872e-15
11
496.75338347969216
21
-151.97931652257893
31
4.607158445817872e-15
0
LINE
5
361
100
AcDbEntity
8
0
100
AcDbLine
10
509.04698347969213
20
-151.97931652257893
30
4.607158445817872e-15
11
509.04698347969213
21
-150.17591652257892
31
4.3863056420596386e-15
0
LINE
5
362
100
AcDbEntity
8
0
100
AcDbLine
10
502.44298347969215
20
-151.97931652257893
30
4.607158445817872e-15
11
502.95098347969213
21
-151.97931652257893
31
4.607158445817872e-15
0
LINE
5
363
100
AcDbEntity
8
0
100
AcDbLine
10
495.45798347969207
20
-143.69891652257891
30
4.6464206221985381e-15
11
495.45798347969207
21
-129.72891652257891
31
4.6464206221985381e-15
0
LINE
5
364
100
AcDbEntity
8
0
100
AcDbLine
10
496.75338347969216
20
-151.97931652257893
30
4.607158445817872e-15
11
496.75338347969216
21
-145.3245165225789
31
3.7921804939212918e-15
0
LINE
5
365
100
AcDbEntity
8
0
100
AcDbLine
10
510.21538347969221
20
-150.17591652257892
30
4.3863056420596386e-15
11
510.21538347969221
21
-147.12791652257891
31
4.0130332976795253e-15
0
LINE
5
366
100
AcDbEntity
8
0
100
AcDbLine
10
496.75338347969216
20
-128.10331652257895
30
4.1996694698695815e-15
11
497.56618347969214
21
-128.10331652257895
31
4.1996694698695815e-15
0
LINE
5
367
100
AcDbEntity
8
0
100
AcDbLine
10
509.04698347969213
20
-145.3245165225789
30
3.7921804939212918e-15
11
508.25958347969214
21
-145.3245165225789
31
3.7921804939212918e-15
0
LINE
5
368
100
AcDbEntity
8
0
100
AcDbLine
10
508.25958347969214
20
-143.69891652257891
30
3.5931019102518971e-15
11
509.42798347969216
21
-143.69891652257891
31
2.4888378914607298e-15
0
LINE
5
369
100
AcDbEntity
8
0
100
AcDbLine
10
508.25958347969214
20
-128.10331652257895
30
4.1996694698695815e-15
11
508.25958347969214
21
-129.72891652257891
31
4.1996694698695815e-15
0
LINE
5
370
100
AcDbEntity
8
0
100
AcDbLine
10
509.04698347969213
20
-126.29991652257893
30
4.1996694698695815e-15
11
509.04698347969213
21
-128.10331652257895
31
4.1996694698695815e-15
0
LINE
5
371
100
AcDbEntity
8
0
100
AcDbLine
10
510.21538347969221
20
-147.12791652257891
30
4.0130332976795253e-15
11
509.04698347969213
21
-147.12791652257891
31
4.0130332976795253e-15
0
LINE
5
372
100
AcDbEntity
8
0
100
AcDbLine
10
497.56618347969214
20
-129.72891652257891
30
4.1996694698695815e-15
11
495.45798347969219
21
-129.72891652257891
31
4.1996694698695815e-15
0
LINE
5
373
100
AcDbEntity
8
0
100
AcDbLine
10
496.75338347969216
20
-145.3245165225789
30
3.7921804939212918e-15
11
497.56618347969214
21
-145.3245165225789
31
3.7921804939212918e-15
0
LINE
5
374
100
AcDbEntity
8
0
100
AcDbLine
10
508.25958347969214
20
-129.72891652257891
30
4.1996694698695815e-15
11
509.42798347969216
21
-129.72891652257891
31
2.4888378914607298e-15
0
LINE
5
375
100
AcDbEntity
8
0
100
AcDbLine
10
510.21538347969215
20
-126.29991652257893
30
4.1996694698695815e-15
11
509.04698347969213
21
-126.29991652257893
31
4.1996694698695815e-15
0
LINE
5
376
100
AcDbEntity
8
0
100
AcDbLine
10
509.42798347969216
20
-129.72891652257891
30
2.4888378914607298e-15
11
509.42798347969216
21
-143.69891652257891
31
2.4888378914607298e-15
0
LINE
5
377
100
AcDbEntity
8
0
100
AcDbLine
10
510.21538347969215
20
-123.25191652257892
30
4.1996694698695815e-15
11
510.21538347969215
21
-126.29991652257893
31
4.1996694698695815e-15
0
LINE
5
378
100
AcDbEntity
8
0
100
AcDbLine
10
508.25958347969214
20
-145.3245165225789
30
3.7921804939212918e-15
11
508.25958347969214
21
-143.69891652257891
31
3.5931019102518971e-15
0
LINE
5
379
100
AcDbEntity
8
0
100
AcDbLine
10
509.04698347969213
20
-121.44851652257891
30
4.1996694698695815e-15
11
509.04698347969213
21
-123.25191652257892
31
4.1996694698695815e-15
0
LINE
5
380
100
AcDbEntity
8
0
100
AcDbLine
10
509.04698347969213
20
-121.44851652257891
30
4.1996694698695815e-15
11
496.75338347969216
21
-121.44851652257891
31
4.1996694698695815e-15
0
LINE
5
381
100
AcDbEntity
8
0
100
AcDbLine
10
502.44298347969215
20
-83.34851652257889
30
4.1996694698695815e-15
11
502.95098347969213
21
-83.34851652257889
31
4.1996694698695815e-15
0
LINE
5
382
100
AcDbEntity
8
0
100
AcDbLine
10
496.75338347969216
20
-83.34851652257889
30
4.1996694698695815e-15
11
496.75338347969216
21
-90.003316522578913
31
4.1996694698695815e-15
0
LINE
5
383
100
AcDbEntity
8
0
100
AcDbLine
10
510.21538347969215
20
-85.151916522578901
30
4.1996694698695815e-15
11
509.04698347969213
21
-85.151916522578901
31
4.1996694698695815e-15
0
LINE
5
384
100
AcDbEntity
8
0
100
AcDbLine
10
497.56618347969214
20
-107.22451652257888
30
3.7921804939212918e-15
11
497.56618347969214
21
-105.59891652257889
31
3.5931019102518971e-15
0
LINE
5
385
100
AcDbEntity
8
0
100
AcDbLine
10
495.45798347969219
20
-105.59891652257889
30
4.1996694698695815e-15
11
497.56618347969214
21
-105.59891652257889
31
4.1996694698695815e-15
0
LINE
5
386
100
AcDbEntity
8
0
100
AcDbLine
10
509.04698347969213
20
-90.003316522578913
30
4.1996694698695815e-15
11
508.25958347969214
21
-90.003316522578913
31
4.1996694698695815e-15
0
LINE
5
387
100
AcDbEntity
8
0
100
AcDbLine
10
509.04698347969213
20
-109.02791652257889
30
4.0130332976795253e-15
11
509.04698347969213
21
-107.22451652257888
31
3.7921804939212918e-15
0
LINE
5
388
100
AcDbEntity
8
0
100
AcDbLine
10
497.56618347969214
20
-90.003316522578913
30
4.1996694698695815e-15
11
497.56618347969214
21
-91.628916522578905
31
4.1996694698695815e-15
0
LINE
5
389
100
AcDbEntity
8
0
100
AcDbLine
10
510.21538347969221
20
-112.07591652257889
30
4.3863056420596386e-15
11
509.04698347969213
21
-112.07591652257889
31
4.3863056420596386e-15
0
LINE
5
390
100
AcDbEntity
8
0
100
AcDbLine
10
509.04698347969213
20
-113.8793165225789
30
4.607158445817872e-15
11
496.75338347969216
21
-113.8793165225789
31
4.607158445817872e-15
0
LINE
5
391
100
AcDbEntity
8
0
100
AcDbLine
10
509.04698347969213
20
-113.8793165225789
30
4.607158445817872e-15
11
509.04698347969213
21
-112.07591652257889
31
4.3863056420596386e-15
0
LINE
5
392
100
AcDbEntity
8
0
100
AcDbLine
10
502.44298347969215
20
-113.8793165225789
30
4.607158445817872e-15
11
502.95098347969213
21
-113.8793165225789
31
4.607158445817872e-15
0
LINE
5
393
100
AcDbEntity
8
0
100
AcDbLine
10
496.75338347969216
20
-113.8793165225789
30
4.607158445817872e-15
11
496.75338347969216
21
-107.22451652257888
31
3.7921804939212918e-15
0
LINE
5
394
100
AcDbEntity
8
0
100
AcDbLine
10
510.21538347969221
20
-112.07591652257889
30
4.3863056420596386e-15
11
510.21538347969221
21
-109.02791652257889
31
4.0130332976795253e-15
0
LINE
5
395
100
AcDbEntity
8
0
100
AcDbLine
10
496.75338347969216
20
-90.003316522578913
30
4.1996694698695815e-15
11
497.56618347969214
21
-90.003316522578913
31
4.1996694698695815e-15
0
LINE
5
396
100
AcDbEntity
8
0
100
AcDbLine
10
509.04698347969213
20
-107.22451652257888
30
3.7921804939212918e-15
11
508.25958347969214
21
-107.22451652257888
31
3.7921804939212918e-15
0
LINE
5
397
100
AcDbEntity
8
0
100
AcDbLine
10
508.25958347969214
20
-105.59891652257889
30
3.5931019102518971e-15
11
509.42798347969216
21
-105.59891652257889
31
2.4888378914607298e-15
0
LINE
5
398
100
AcDbEntity
8
0
100
AcDbLine
10
508.25958347969214
20
-90.003316522578913
30
4.1996694698695815e-15
11
508.25958347969214
21
-91.628916522578905
31
4.1996694698695815e-15
0
LINE
5
399
100
AcDbEntity
8
0
100
AcDbLine
10
509.04698347969213
20
-88.199916522578903
30
4.1996694698695815e-15
11
509.04698347969213
21
-90.003316522578913
31
4.1996694698695815e-15
0
LINE
5
400
100
AcDbEntity
8
0
100
AcDbLine
10
510.21538347969221
20
-109.02791652257889
30
4.0130332976795253e-15
11
509.04698347969213
21
-109.02791652257889
31
4.0130332976795253e-15
0
LINE
5
401
100
AcDbEntity
8
0
100
AcDbLine
10
497.56618347969214
20
-91.628916522578905
30
4.1996694698695815e-15
11
495.45798347969219
21
-91.628916522578905
31
4.1996694698695815e-15
0
LINE
5
402
100
AcDbEntity
8
0
100
AcDbLine
10
496.75338347969216
20
-107.22451652257888
30
3.7921804939212918e-15
11
497.56618347969214
21
-107.22451652257888
31
3.7921804939212918e-15
0
LINE
5
403
100
AcDbEntity
8
0
100
AcDbLine
10
508.25958347969214
20
-91.628916522578905
30
4.1996694698695815e-15
11
509.42798347969216
21
-91.628916522578905
31
2.4888378914607298e-15
0
LINE
5
404
100
AcDbEntity
8
0
100
AcDbLine
10
510.21538347969215
20
-88.199916522578903
30
4.1996694698695815e-15
11
509.04698347969213
21
-88.199916522578903
31
4.1996694698695815e-15
0
LINE
5
405
100
AcDbEntity
8
0
100
AcDbLine
10
509.42798347969216
20
-91.628916522578905
30
2.4888378914607298e-15
11
509.42798347969216
21
-105.59891652257889
31
2.4888378914607298e-15
0
LINE
5
406
100
AcDbEntity
8
0
100
AcDbLine
10
510.21538347969215
20
-85.151916522578901
30
4.1996694698695815e-15
11
510.21538347969215
21
-88.199916522578903
31
4.1996694698695815e-15
0
LINE
5
407
100
AcDbEntity
8
0
100
AcDbLine
10
508.25958347969214
20
-107.22451652257888
30
3.7921804939212918e-15
11
508.25958347969214
21
-105.59891652257889
31
3.5931019102518971e-15
0
LINE
5
408
100
AcDbEntity
8
0
100
AcDbLine
10
509.04698347969213
20
-83.34851652257889
30
4.1996694698695815e-15
11
509.04698347969213
21
-85.151916522578901
31
4.1996694698695815e-15
0
LINE
5
409
100
AcDbEntity
8
0
100
AcDbLine
10
509.04698347969213
20
-83.34851652257889
30
4.1996694698695815e-15
11
496.75338347969216
21
-83.34851652257889
31
4.1996694698695815e-15
0
LINE
5
410
100
AcDbEntity
8
0
100
AcDbLine
10
358.17098347969221
20
-127.08891652257901
30
4.1996694698695815e-15
11
358.17098347969221
21
-127.59691652257901
31
4.1996694698695815e-15
0
LINE
5
411
100
AcDbEntity
8
0
100
AcDbLine
10
358.17098347969221
20
-121.399316522579
30
4.1996694698695815e-15
11
351.51618347969219
21
-121.399316522579
31
4.1996694698695815e-15
0
LINE
5
412
100
AcDbEntity
8
0
100
AcDbLine
10
356.3675834796922
20
-134.86131652257899
30
4.1996694698695815e-15
11
356.3675834796922
21
-133.692916522579
31
4.1996694698695815e-15
0
LINE
5
413
100
AcDbEntity
8
0
100
AcDbLine
10
334.29498347969223
20
-122.21211652257901
30
3.7921804939212918e-15
11
335.9205834796922
21
-122.21211652257901
31
3.5931019102518971e-15
0
LINE
5
414
100
AcDbEntity
8
0
100
AcDbLine
10
335.9205834796922
20
-120.10391652257901
30
4.1996694698695815e-15
11
335.9205834796922
21
-122.21211652257901
31
4.1996694698695815e-15
0
LINE
5
415
100
AcDbEntity
8
0
100
AcDbLine
10
351.51618347969219
20
-133.692916522579
30
4.1996694698695815e-15
11
351.51618347969219
21
-132.90551652257901
31
4.1996694698695815e-15
0
LINE
5
416
100
AcDbEntity
8
0
100
AcDbLine
10
332.49158347969222
20
-133.69291652257903
30
4.0130332976795253e-15
11
334.29498347969223
21
-133.69291652257903
31
3.7921804939212918e-15
0
LINE
5
417
100
AcDbEntity
8
0
100
AcDbLine
10
351.51618347969219
20
-122.212116522579
30
4.1996694698695815e-15
11
349.89058347969217
21
-122.212116522579
31
4.1996694698695815e-15
0
LINE
5
418
100
AcDbEntity
8
0
100
AcDbLine
10
329.44358347969222
20
-134.86131652257902
30
4.3863056420596386e-15
11
329.44358347969222
21
-133.69291652257903
31
4.3863056420596386e-15
0
LINE
5
419
100
AcDbEntity
8
0
100
AcDbLine
10
327.64018347969221
20
-133.69291652257903
30
4.607158445817872e-15
11
327.64018347969221
21
-121.39931652257901
31
4.607158445817872e-15
0
LINE
5
420
100
AcDbEntity
8
0
100
AcDbLine
10
327.64018347969221
20
-133.69291652257903
30
4.607158445817872e-15
11
329.44358347969222
21
-133.69291652257903
31
4.3863056420596386e-15
0
LINE
5
421
100
AcDbEntity
8
0
100
AcDbLine
10
327.64018347969221
20
-127.08891652257903
30
4.607158445817872e-15
11
327.64018347969221
21
-127.59691652257902
31
4.607158445817872e-15
0
LINE
5
422
100
AcDbEntity
8
0
100
AcDbLine
10
335.9205834796922
20
-120.10391652257894
30
4.6464206221985381e-15
11
349.89058347969217
21
-120.10391652257894
31
4.6464206221985381e-15
0
LINE
5
423
100
AcDbEntity
8
0
100
AcDbLine
10
327.64018347969221
20
-121.39931652257901
30
4.607158445817872e-15
11
334.29498347969223
21
-121.39931652257901
31
3.7921804939212918e-15
0
LINE
5
424
100
AcDbEntity
8
0
100
AcDbLine
10
329.44358347969222
20
-134.86131652257902
30
4.3863056420596386e-15
11
332.49158347969222
21
-134.86131652257902
31
4.0130332976795253e-15
0
LINE
5
425
100
AcDbEntity
8
0
100
AcDbLine
10
351.51618347969219
20
-121.399316522579
30
4.1996694698695815e-15
11
351.51618347969219
21
-122.212116522579
31
4.1996694698695815e-15
0
LINE
5
426
100
AcDbEntity
8
0
100
AcDbLine
10
334.29498347969223
20
-133.69291652257903
30
3.7921804939212918e-15
11
334.29498347969223
21
-132.90551652257901
31
3.7921804939212918e-15
0
LINE
5
427
100
AcDbEntity
8
0
100
AcDbLine
10
335.9205834796922
20
-132.90551652257901
30
3.5931019102518971e-15
11
335.9205834796922
21
-134.073916522579
31
2.4888378914607298e-15
0
LINE
5
428
100
AcDbEntity
8
0
100
AcDbLine
10
351.51618347969219
20
-132.90551652257901
30
4.1996694698695815e-15
11
349.89058347969217
21
-132.90551652257901
31
4.1996694698695815e-15
0
LINE
5
429
100
AcDbEntity
8
0
100
AcDbLine
10
353.3195834796922
20
-133.692916522579
30
4.1996694698695815e-15
11
351.51618347969219
21
-133.692916522579
31
4.1996694698695815e-15
0
LINE
5
430
100
AcDbEntity
8
0
100
AcDbLine
10
332.49158347969222
20
-134.86131652257902
30
4.0130332976795253e-15
11
332.49158347969222
21
-133.69291652257903
31
4.0130332976795253e-15
0
LINE
5
431
100
AcDbEntity
8
0
100
AcDbLine
10
349.89058347969217
20
-122.212116522579
30
4.1996694698695815e-15
11
349.89058347969217
21
-120.10391652257901
31
4.1996694698695815e-15
0
LINE
5
432
100
AcDbEntity
8
0
100
AcDbLine
10
334.29498347969223
20
-121.39931652257901
30
3.7921804939212918e-15
11
334.29498347969223
21
-122.21211652257901
31
3.7921804939212918e-15
0
LINE
5
433
100
AcDbEntity
8
0
100
AcDbLine
10
349.89058347969217
20
-132.90551652257901
30
4.1996694698695815e-15
11
349.89058347969217
21
-134.073916522579
31
2.4888378914607298e-15
0
LINE
5
434
100
AcDbEntity
8
0
100
AcDbLine
10
353.3195834796922
20
-134.86131652257899
30
4.1996694698695815e-15
11
353.3195834796922
21
-133.692916522579
31
4.1996694698695815e-15
0
LINE
5
435
100
AcDbEntity
8
0
100
AcDbLine
10
349.89058347969217
20
-134.073916522579
30
2.4888378914607298e-15
11
335.9205834796922
21
-134.073916522579
31
2.4888378914607298e-15
0
LINE
5
436
100
AcDbEntity
8
0
100
AcDbLine
10
356.3675834796922
20
-134.86131652257899
30
4.1996694698695815e-15
11
353.3195834796922
21
-134.86131652257899
31
4.1996694698695815e-15
0
LINE
5
437
100
AcDbEntity
8
0
100
AcDbLine
10
334.29498347969223
20
-132.90551652257901
30
3.7921804939212918e-15
11
335.9205834796922
21
-132.90551652257901
31
3.5931019102518971e-15
0
LINE
5
438
100
AcDbEntity
8
0
100
AcDbLine
10
358.17098347969221
20
-133.692916522579
30
4.1996694698695815e-15
11
356.3675834796922
21
-133.692916522579
31
4.1996694698695815e-15
0
LINE
5
439
100
AcDbEntity
8
0
100
AcDbLine
10
358.17098347969221
20
-133.692916522579
30
4.1996694698695815e-15
11
358.17098347969221
21
-121.399316522579
31
4.1996694698695815e-15
0
LINE
5
440
100
AcDbEntity
8
0
100
AcDbLine
10
155.32902201542171
20
-162.3526738168249
30
4.1996694698695815e-15
11
155.22340287648629
21
-162.84957279799769
31
4.1996694698695815e-15
0
LINE
5
441
100
AcDbEntity
8
0
100
AcDbLine
10
156.51195637149843
20
-156.78740522768982
30
4.1996694698695815e-15
11
150.00257971813511
21
-155.40379450763581
31
4.1996694698695815e-15
0
LINE
5
442
100
AcDbEntity
8
0
100
AcDbLine
10
151.94905780654642
20
-169.58028028554759
30
4.1996694698695815e-15
11
152.1919818260979
21
-168.43741262885018
31
4.1996694698695815e-15
0
LINE
5
443
100
AcDbEntity
8
0
100
AcDbLine
10
132.98871363408142
20
-152.61834406760147
30
3.7921804939212918e-15
11
134.57879037383429
21
-152.95632531219485
31
3.5931019102518971e-15
0
LINE
5
444
100
AcDbEntity
8
0
100
AcDbLine
10
135.01710980041628
20
-150.89419454032782
30
4.1996694698695815e-15
11
134.57879037383429
21
-152.95632531219485
31
4.1996694698695815e-15
0
LINE
5
445
100
AcDbEntity
8
0
100
AcDbLine
10
147.44659655589788
20
-167.42874985201692
30
4.1996694698695815e-15
11
147.61030622124781
21
-166.65855643119912
31
4.1996694698695815e-15
0
LINE
5
446
100
AcDbEntity
8
0
100
AcDbLine
10
128.83772971097756
20
-163.47331309888543
30
4.0130332976795253e-15
11
130.60172109414088
21
-163.84826104210615
31
3.7921804939212918e-15
0
LINE
5
447
100
AcDbEntity
8
0
100
AcDbLine
10
149.83358909583842
20
-156.19883287751225
30
4.1996694698695815e-15
11
148.24351235608557
21
-155.86085163291892
31
4.1996694698695815e-15
0
LINE
5
448
100
AcDbEntity
8
0
100
AcDbLine
10
125.61341180438944
20
-163.98246592197023
30
4.3863056420596386e-15
11
125.8563358239409
21
-162.83959826527285
31
4.3863056420596386e-15
0
LINE
5
449
100
AcDbEntity
8
0
100
AcDbLine
10
124.09234444077755
20
-162.46465032205211
30
4.607158445817872e-15
11
126.64832760301476
21
-150.43969497767102
31
4.607158445817872e-15
0
LINE
5
450
100
AcDbEntity
8
0
100
AcDbLine
10
124.09234444077755
20
-162.46465032205211
30
4.607158445817872e-15
11
125.8563358239409
21
-162.83959826527285
31
4.3863056420596386e-15
0
LINE
5
451
100
AcDbEntity
8
0
100
AcDbLine
10
125.46539324693804
20
-156.00496356680605
30
4.607158445817872e-15
11
125.35977410800263
21
-156.50186254797885
31
4.607158445817872e-15
0
LINE
5
452
100
AcDbEntity
8
0
100
AcDbLine
10
135.01710980041634
20
-150.89419454032776
30
4.6464206221985381e-15
11
148.68183178266759
21
-153.79872086105183
31
4.6464206221985381e-15
0
LINE
5
453
100
AcDbEntity
8
0
100
AcDbLine
10
126.64832760301476
20
-150.43969497767102
30
4.607158445817872e-15
11
133.15770425637811
21
-151.82330569772503
31
3.7921804939212918e-15
0
LINE
5
454
100
AcDbEntity
8
0
100
AcDbLine
10
125.61341180438944
20
-163.98246592197023
30
4.3863056420596386e-15
11
128.59480569142607
21
-164.61618075558275
31
4.0130332976795253e-15
0
LINE
5
455
100
AcDbEntity
8
0
100
AcDbLine
10
150.00257971813511
20
-155.40379450763581
30
4.1996694698695815e-15
11
149.83358909583842
21
-156.19883287751225
31
4.1996694698695815e-15
0
LINE
5
456
100
AcDbEntity
8
0
100
AcDbLine
10
130.60172109414088
20
-163.84826104210615
30
3.7921804939212918e-15
11
130.76543075949081
21
-163.07806762128831
31
3.7921804939212918e-15
0
LINE
5
457
100
AcDbEntity
8
0
100
AcDbLine
10
132.35550749924369
20
-163.41604886588169
30
3.5931019102518971e-15
11
132.1125834796922
21
-164.55891652257907
31
2.4888378914607298e-15
0
LINE
5
458
100
AcDbEntity
8
0
100
AcDbLine
10
147.61030622124781
20
-166.65855643119912
30
4.1996694698695815e-15
11
146.02022948149494
21
-166.32057518660577
31
4.1996694698695815e-15
0
LINE
5
459
100
AcDbEntity
8
0
100
AcDbLine
10
149.21058793906124
20
-167.80369779523767
30
4.1996694698695815e-15
11
147.44659655589788
21
-167.42874985201692
31
4.1996694698695815e-15
0
LINE
5
460
100
AcDbEntity
8
0
100
AcDbLine
10
128.59480569142607
20
-164.61618075558275
30
4.0130332976795253e-15
11
128.83772971097756
21
-163.47331309888543
31
4.0130332976795253e-15
0
LINE
5
461
100
AcDbEntity
8
0
100
AcDbLine
10
148.24351235608557
20
-155.86085163291892
30
4.1996694698695815e-15
11
148.68183178266753
21
-153.79872086105192
31
4.1996694698695815e-15
0
LINE
5
462
100
AcDbEntity
8
0
100
AcDbLine
10
133.15770425637811
20
-151.82330569772503
30
3.7921804939212918e-15
11
132.98871363408142
21
-152.61834406760147
31
3.7921804939212918e-15
0
LINE
5
463
100
AcDbEntity
8
0
100
AcDbLine
10
146.02022948149494
20
-166.32057518660577
30
4.1996694698695815e-15
11
145.77730546194346
21
-167.46344284330317
31
2.4888378914607298e-15
0
LINE
5
464
100
AcDbEntity
8
0
100
AcDbLine
10
148.96766391950976
20
-168.94656545193504
30
4.1996694698695815e-15
11
149.21058793906124
21
-167.80369779523767
31
4.1996694698695815e-15
0
LINE
5
465
100
AcDbEntity
8
0
100
AcDbLine
10
145.77730546194346
20
-167.46344284330317
30
2.4888378914607298e-15
11
132.1125834796922
21
-164.55891652257907
31
2.4888378914607298e-15
0
LINE
5
466
100
AcDbEntity
8
0
100
AcDbLine
10
151.94905780654642
20
-169.58028028554759
30
4.1996694698695815e-15
11
148.96766391950976
21
-168.94656545193504
31
4.1996694698695815e-15
0
LINE
5
467
100
AcDbEntity
8
0
100
AcDbLine
10
130.76543075949081
20
-163.07806762128831
30
3.7921804939212918e-15
11
132.35550749924369
21
-163.41604886588169
31
3.5931019102518971e-15
0
LINE
5
468
100
AcDbEntity
8
0
100
AcDbLine
10
153.95597320926126
20
-168.81236057207093
30
4.1996694698695815e-15
11
152.1919818260979
21
-168.43741262885018
31
4.1996694698695815e-15
0
LINE
5
469
100
AcDbEntity
8
0
100
AcDbLine
10
153.95597320926126
20
-168.81236057207093
30
4.1996694698695815e-15
11
156.51195637149843
21
-156.78740522768982
31
4.1996694698695815e-15
0
LINE
5
470
100
AcDbEntity
8
0
100
AcDbLine
10
247.66449569469762
20
-153.06643724608188
30
4.1996694698695815e-15
11
247.77011483363307
21
-153.56333622725461
31
4.1996694698695815e-15
0
LINE
5
471
100
AcDbEntity
8
0
100
AcDbLine
10
246.48156133862091
20
-147.50116865694679
30
4.1996694698695815e-15
11
239.97218468525759
21
-148.88477937700083
31
4.1996694698695815e-15
0
LINE
5
472
100
AcDbEntity
8
0
100
AcDbLine
10
247.51647713724626
20
-161.04393960124605
30
4.1996694698695815e-15
11
247.2735531176948
21
-159.90107194454865
31
4.1996694698695815e-15
0
LINE
5
473
100
AcDbEntity
8
0
100
AcDbLine
10
223.29629984579728
20
-153.26030655678807
30
3.7921804939212918e-15
11
224.88637658555012
21
-152.92232531219469
31
3.5931019102518971e-15
0
LINE
5
474
100
AcDbEntity
8
0
100
AcDbLine
10
224.44805715896814
20
-150.86019454032771
30
4.1996694698695815e-15
11
224.88637658555012
21
-152.92232531219469
31
4.1996694698695815e-15
0
LINE
5
475
100
AcDbEntity
8
0
100
AcDbLine
10
242.52816784749481
20
-160.90973472138194
30
4.1996694698695815e-15
11
242.36445818214492
21
-160.13954130056416
31
4.1996694698695815e-15
0
LINE
5
476
100
AcDbEntity
8
0
100
AcDbLine
10
223.91930100257443
20
-164.86517147451352
30
4.0130332976795253e-15
11
225.68329238573781
21
-164.49022353129271
31
3.7921804939212918e-15
0
LINE
5
477
100
AcDbEntity
8
0
100
AcDbLine
10
240.14117530755428
20
-149.67981774687726
30
4.1996694698695815e-15
11
238.55109856780138
21
-150.01779899147061
31
4.1996694698695815e-15
0
LINE
5
478
100
AcDbEntity
8
0
100
AcDbLine
10
221.18083113508928
20
-166.64175396482341
30
4.3863056420596386e-15
11
220.9379071155378
21
-165.49888630812603
31
4.3863056420596386e-15
0
LINE
5
479
100
AcDbEntity
8
0
100
AcDbLine
10
219.17391573237444
20
-165.87383425134675
30
4.607158445817872e-15
11
216.61793257013724
21
-153.84887890696561
31
4.607158445817872e-15
0
LINE
5
480
100
AcDbEntity
8
0
100
AcDbLine
10
219.17391573237444
20
-165.87383425134675
30
4.607158445817872e-15
11
220.9379071155378
21
-165.49888630812603
31
4.3863056420596386e-15
0
LINE
5
481
100
AcDbEntity
8
0
100
AcDbLine
10
217.80086692621396
20
-159.41414749610075
30
4.607158445817872e-15
11
217.90648606514938
21
-159.91104647727349
31
4.607158445817872e-15
0
LINE
5
482
100
AcDbEntity
8
0
100
AcDbLine
10
224.44805715896814
20
-150.86019454032765
30
4.6464206221985381e-15
11
238.11277914121939
21
-147.95566821960358
31
4.6464206221985381e-15
0
LINE
5
483
100
AcDbEntity
8
0
100
AcDbLine
10
216.61793257013724
20
-153.84887890696561
30
4.607158445817872e-15
11
223.12730922350059
21
-152.4652681869116
31
3.7921804939212918e-15
0
LINE
5
484
100
AcDbEntity
8
0
100
AcDbLine
10
221.18083113508928
20
-166.64175396482341
30
4.3863056420596386e-15
11
224.16222502212591
21
-166.00803913121092
31
4.0130332976795253e-15
0
LINE
5
485
100
AcDbEntity
8
0
100
AcDbLine
10
239.97218468525759
20
-148.88477937700083
30
4.1996694698695815e-15
11
240.14117530755428
21
-149.67981774687726
31
4.1996694698695815e-15
0
LINE
5
486
100
AcDbEntity
8
0
100
AcDbLine
10
225.68329238573781
20
-164.49022353129271
30
3.7921804939212918e-15
11
225.51958272038792
21
-163.72003011047497
31
3.7921804939212918e-15
0
LINE
5
487
100
AcDbEntity
8
0
100
AcDbLine
10
227.10965946014079
20
-163.38204886588164
30
3.5931019102518971e-15
11
227.35258347969221
21
-164.52491652257896
31
2.4888378914607298e-15
0
LINE
5
488
100
AcDbEntity
8
0
100
AcDbLine
10
242.36445818214492
20
-160.13954130056416
30
4.1996694698695815e-15
11
240.77438144239204
21
-160.47752254515751
31
4.1996694698695815e-15
0
LINE
5
489
100
AcDbEntity
8
0
100
AcDbLine
10
244.29215923065814
20
-160.53478677816122
30
4.1996694698695815e-15
11
242.52816784749481
21
-160.90973472138194
31
4.1996694698695815e-15
0
LINE
5
490
100
AcDbEntity
8
0
100
AcDbLine
10
224.16222502212591
20
-166.00803913121092
30
4.0130332976795253e-15
11
223.91930100257443
21
-164.86517147451352
31
4.0130332976795253e-15
0
LINE
5
491
100
AcDbEntity
8
0
100
AcDbLine
10
238.55109856780138
20
-150.01779899147061
30
4.1996694698695815e-15
11
238.11277914121939
21
-147.95566821960364
31
4.1996694698695815e-15
0
LINE
5
492
100
AcDbEntity
8
0
100
AcDbLine
10
223.12730922350059
20
-152.4652681869116
30
3.7921804939212918e-15
11
223.29629984579728
21
-153.26030655678807
31
3.7921804939212918e-15
0
LINE
5
493
100
AcDbEntity
8
0
100
AcDbLine
10
240.77438144239204
20
-160.47752254515751
30
4.1996694698695815e-15
11
241.01730546194347
21
-161.62039020185489
31
2.4888378914607298e-15
0
LINE
5
494
100
AcDbEntity
8
0
100
AcDbLine
10
244.53508325020962
20
-161.67765443485854
30
4.1996694698695815e-15
11
244.29215923065814
21
-160.53478677816122
31
4.1996694698695815e-15
0
LINE
5
495
100
AcDbEntity
8
0
100
AcDbLine
10
247.51647713724626
20
-161.04393960124605
30
4.1996694698695815e-15
11
244.53508325020962
21
-161.67765443485854
31
4.1996694698695815e-15
0
LINE
5
496
100
AcDbEntity
8
0
100
AcDbLine
10
225.51958272038792
20
-163.72003011047497
30
3.7921804939212918e-15
11
227.10965946014079
21
-163.38204886588164
31
3.5931019102518971e-15
0
LINE
5
497
100
AcDbEntity
8
0
100
AcDbLine
10
249.03754450085813
20
-159.52612400132793
30
4.1996694698695815e-15
11
247.2735531176948
21
-159.90107194454865
31
4.1996694698695815e-15
0
LINE
5
498
100
AcDbEntity
8
0
100
AcDbLine
10
249.03754450085813
20
-159.52612400132793
30
4.1996694698695815e-15
11
246.48156133862091
21
-147.50116865694679
31
4.1996694698695815e-15
0
LINE
5
499
100
AcDbEntity
8
0
100
AcDbLine
10
463.42818347969222
20
-152.84291652257889
30
4.1996694698695815e-15
11
463.42818347969222
21
-152.05551652257893
31
4.1996694698695815e-15
0
LINE
5
500
100
AcDbEntity
8
0
100
AcDbLine
10
463.42818347969222
20
-140.54931652257889
30
4.1996694698695815e-15
11
463.42818347969222
21
-141.36211652257887
31
4.1996694698695815e-15
0
LINE
5
501
100
AcDbEntity
8
0
100
AcDbLine
10
465.23158347969223
20
-154.01131652257891
30
4.1996694698695815e-15
11
465.23158347969223
21
-152.84291652257889
31
4.1996694698695815e-15
0
LINE
5
502
100
AcDbEntity
8
0
100
AcDbLine
10
468.27958347969223
20
-154.01131652257891
30
4.1996694698695815e-15
11
468.27958347969223
21
-152.84291652257889
31
4.1996694698695815e-15
0
LINE
5
503
100
AcDbEntity
8
0
100
AcDbLine
10
461.8025834796922
20
-153.22391652257889
30
2.4888378914607298e-15
11
447.83258347969223
21
-153.22391652257889
31
2.4888378914607298e-15
0
LINE
5
504
100
AcDbEntity
8
0
100
AcDbLine
10
468.27958347969223
20
-154.01131652257891
30
4.1996694698695815e-15
11
468.27958347969223
21
-152.84291652257889
31
4.1996694698695815e-15
0
LINE
5
505
100
AcDbEntity
8
0
100
AcDbLine
10
470.08298347969225
20
-152.84291652257889
30
4.1996694698695815e-15
11
468.27958347969223
21
-152.84291652257889
31
4.1996694698695815e-15
0
LINE
5
506
100
AcDbEntity
8
0
100
AcDbLine
10
439.55218347969219
20
-152.84291652257892
30
4.607158445817872e-15
11
439.55218347969219
21
-140.54931652257892
31
4.607158445817872e-15
0
LINE
5
507
100
AcDbEntity
8
0
100
AcDbLine
10
439.55218347969219
20
-152.84291652257892
30
4.607158445817872e-15
11
439.55218347969219
21
-140.54931652257892
31
4.607158445817872e-15
0
LINE
5
508
100
AcDbEntity
8
0
100
AcDbLine
10
470.08298347969225
20
-152.84291652257889
30
4.1996694698695815e-15
11
470.08298347969225
21
-140.54931652257889
31
4.1996694698695815e-15
0
LINE
5
509
100
AcDbEntity
8
0
100
AcDbLine
10
465.23158347969223
20
-154.01131652257891
30
4.1996694698695815e-15
11
465.23158347969223
21
-152.84291652257889
31
4.1996694698695815e-15
0
LINE
5
510
100
AcDbEntity
8
0
100
AcDbLine
10
463.42818347969222
20
-152.05551652257893
30
4.1996694698695815e-15
11
461.8025834796922
21
-152.05551652257893
31
4.1996694698695815e-15
0
LINE
5
511
100
AcDbEntity
8
0
100
AcDbLine
10
463.42818347969222
20
-152.05551652257893
30
4.1996694698695815e-15
11
461.8025834796922
21
-152.05551652257893
31
4.1996694698695815e-15
0
LINE
5
512
100
AcDbEntity
8
0
100
AcDbLine
10
470.08298347969225
20
-152.84291652257889
30
4.1996694698695815e-15
11
470.08298347969225
21
-140.54931652257889
31
4.1996694698695815e-15
0
LINE
5
513
100
AcDbEntity
8
0
100
AcDbLine
10
447.83258347969223
20
-152.05551652257893
30
3.5931019102518971e-15
11
447.83258347969223
21
-153.22391652257889
31
2.4888378914607298e-15
0
LINE
5
514
100
AcDbEntity
8
0
100
AcDbLine
10
441.3555834796922
20
-154.01131652257891
30
4.3863056420596386e-15
11
441.3555834796922
21
-152.84291652257892
31
4.3863056420596386e-15
0
LINE
5
515
100
AcDbEntity
8
0
100
AcDbLine
10
444.4035834796922
20
-154.01131652257891
30
4.0130332976795253e-15
11
444.4035834796922
21
-152.84291652257892
31
4.0130332976795253e-15
0
LINE
5
516
100
AcDbEntity
8
0
100
AcDbLine
10
446.20698347969221
20
-152.05551652257893
30
3.7921804939212918e-15
11
447.83258347969223
21
-152.05551652257893
31
3.5931019102518971e-15
0
LINE
5
517
100
AcDbEntity
8
0
100
AcDbLine
10
441.3555834796922
20
-154.01131652257891
30
4.3863056420596386e-15
11
444.4035834796922
21
-154.01131652257891
31
4.0130332976795253e-15
0
LINE
5
518
100
AcDbEntity
8
0
100
AcDbLine
10
439.55218347969219
20
-152.84291652257892
30
4.607158445817872e-15
11
441.3555834796922
21
-152.84291652257892
31
4.3863056420596386e-15
0
LINE
5
519
100
AcDbEntity
8
0
100
AcDbLine
10
465.23158347969223
20
-152.84291652257889
30
4.1996694698695815e-15
11
463.42818347969222
21
-152.84291652257889
31
4.1996694698695815e-15
0
LINE
5
520
100
AcDbEntity
8
0
100
AcDbLine
10
439.55218347969219
20
-152.84291652257892
30
4.607158445817872e-15
11
441.3555834796922
21
-152.84291652257892
31
4.3863056420596386e-15
0
LINE
5
521
100
AcDbEntity
8
0
100
AcDbLine
10
470.08298347969225
20
-152.84291652257889
30
4.1996694698695815e-15
11
468.27958347969223
21
-152.84291652257889
31
4.1996694698695815e-15
0
LINE
5
522
100
AcDbEntity
8
0
100
AcDbLine
10
441.3555834796922
20
-154.01131652257891
30
4.3863056420596386e-15
11
441.3555834796922
21
-152.84291652257892
31
4.3863056420596386e-15
0
LINE
5
523
100
AcDbEntity
8
0
100
AcDbLine
10
461.8025834796922
20
-153.22391652257889
30
2.4888378914607298e-15
11
447.83258347969223
21
-153.22391652257889
31
2.4888378914607298e-15
0
LINE
5
524
100
AcDbEntity
8
0
100
AcDbLine
10
468.27958347969223
20
-154.01131652257891
30
4.1996694698695815e-15
11
465.23158347969223
21
-154.01131652257891
31
4.1996694698695815e-15
0
LINE
5
525
100
AcDbEntity
8
0
100
AcDbLine
10
461.8025834796922
20
-152.05551652257893
30
4.1996694698695815e-15
11
461.8025834796922
21
-153.22391652257889
31
2.4888378914607298e-15
0
LINE
5
526
100
AcDbEntity
8
0
100
AcDbLine
10
439.55218347969219
20
-146.23891652257893
30
4.607158445817872e-15
11
439.55218347969219
21
-146.74691652257894
31
4.607158445817872e-15
0
LINE
5
527
100
AcDbEntity
8
0
100
AcDbLine
10
446.20698347969221
20
-152.05551652257893
30
3.7921804939212918e-15
11
447.83258347969223
21
-152.05551652257893
31
3.5931019102518971e-15
0
LINE
5
528
100
AcDbEntity
8
0
100
AcDbLine
10
439.55218347969219
20
-140.54931652257892
30
4.607158445817872e-15
11
446.20698347969221
21
-140.54931652257892
31
3.7921804939212918e-15
0
LINE
5
529
100
AcDbEntity
8
0
100
AcDbLine
10
446.20698347969221
20
-141.3621165225789
30
3.7921804939212918e-15
11
447.83258347969223
21
-141.3621165225789
31
3.5931019102518971e-15
0
LINE
5
530
100
AcDbEntity
8
0
100
AcDbLine
10
463.42818347969222
20
-141.36211652257887
30
4.1996694698695815e-15
11
461.8025834796922
21
-141.36211652257887
31
4.1996694698695815e-15
0
LINE
5
531
100
AcDbEntity
8
0
100
AcDbLine
10
463.42818347969222
20
-141.36211652257887
30
4.1996694698695815e-15
11
461.8025834796922
21
-141.36211652257887
31
4.1996694698695815e-15
0
LINE
5
532
100
AcDbEntity
8
0
100
AcDbLine
10
447.83258347969223
20
-139.25391652257889
30
4.1996694698695815e-15
11
447.83258347969223
21
-141.3621165225789
31
4.1996694698695815e-15
0
LINE
5
533
100
AcDbEntity
8
0
100
AcDbLine
10
470.08298347969225
20
-146.23891652257893
30
4.1996694698695815e-15
11
470.08298347969225
21
-146.74691652257891
31
4.1996694698695815e-15
0
LINE
5
534
100
AcDbEntity
8
0
100
AcDbLine
10
461.8025834796922
20
-152.05551652257893
30
4.1996694698695815e-15
11
461.8025834796922
21
-153.22391652257889
31
2.4888378914607298e-15
0
LINE
5
535
100
AcDbEntity
8
0
100
AcDbLine
10
470.08298347969225
20
-140.54931652257889
30
4.1996694698695815e-15
11
463.42818347969222
21
-140.54931652257889
31
4.1996694698695815e-15
0
LINE
5
536
100
AcDbEntity
8
0
100
AcDbLine
10
446.20698347969221
20
-141.3621165225789
30
3.7921804939212918e-15
11
447.83258347969223
21
-141.3621165225789
31
3.5931019102518971e-15
0
LINE
5
537
100
AcDbEntity
8
0
100
AcDbLine
10
446.20698347969221
20
-140.54931652257892
30
3.7921804939212918e-15
11
446.20698347969221
21
-141.3621165225789
31
3.7921804939212918e-15
0
LINE
5
538
100
AcDbEntity
8
0
100
AcDbLine
10
446.20698347969221
20
-140.54931652257892
30
3.7921804939212918e-15
11
446.20698347969221
21
-141.3621165225789
31
3.7921804939212918e-15
0
LINE
5
539
100
AcDbEntity
8
0
100
AcDbLine
10
439.55218347969219
20
-140.54931652257892
30
4.607158445817872e-15
11
446.20698347969221
21
-140.54931652257892
31
3.7921804939212918e-15
0
LINE
5
540
100
AcDbEntity
8
0
100
AcDbLine
10
447.83258347969223
20
-139.25391652257883
30
4.6464206221985381e-15
11
461.8025834796922
21
-139.25391652257883
31
4.6464206221985381e-15
0
LINE
5
541
100
AcDbEntity
8
0
100
AcDbLine
10
446.20698347969221
20
-152.84291652257892
30
3.7921804939212918e-15
11
446.20698347969221
21
-152.05551652257893
31
3.7921804939212918e-15
0
LINE
5
542
100
AcDbEntity
8
0
100
AcDbLine
10
444.4035834796922
20
-152.84291652257892
30
4.0130332976795253e-15
11
446.20698347969221
21
-152.84291652257892
31
3.7921804939212918e-15
0
LINE
5
543
100
AcDbEntity
8
0
100
AcDbLine
10
444.4035834796922
20
-154.01131652257891
30
4.0130332976795253e-15
11
444.4035834796922
21
-152.84291652257892
31
4.0130332976795253e-15
0
LINE
5
544
100
AcDbEntity
8
0
100
AcDbLine
10
461.8025834796922
20
-141.36211652257887
30
4.1996694698695815e-15
11
461.8025834796922
21
-139.25391652257889
31
4.1996694698695815e-15
0
LINE
5
545
100
AcDbEntity
8
0
100
AcDbLine
10
461.8025834796922
20
-141.36211652257887
30
4.1996694698695815e-15
11
461.8025834796922
21
-139.25391652257889
31
4.1996694698695815e-15
0
LINE
5
546
100
AcDbEntity
8
0
100
AcDbLine
10
447.83258347969223
20
-152.05551652257893
30
3.5931019102518971e-15
11
447.83258347969223
21
-153.22391652257889
31
2.4888378914607298e-15
0
LINE
5
547
100
AcDbEntity
8
0
100
AcDbLine
10
447.83258347969223
20
-139.25391652257889
30
4.1996694698695815e-15
11
447.83258347969223
21
-141.3621165225789
31
4.1996694698695815e-15
0
LINE
5
548
100
AcDbEntity
8
0
100
AcDbLine
10
468.27958347969223
20
-154.01131652257891
30
4.1996694698695815e-15
11
465.23158347969223
21
-154.01131652257891
31
4.1996694698695815e-15
0
LINE
5
549
100
AcDbEntity
8
0
100
AcDbLine
10
444.4035834796922
20
-152.84291652257892
30
4.0130332976795253e-15
11
446.20698347969221
21
-152.84291652257892
31
3.7921804939212918e-15
0
LINE
5
550
100
AcDbEntity
8
0
100
AcDbLine
10
439.55218347969219
20
-146.23891652257893
30
4.607158445817872e-15
11
439.55218347969219
21
-146.74691652257894
31
4.607158445817872e-15
0
LINE
5
551
100
AcDbEntity
8
0
100
AcDbLine
10
470.08298347969225
20
-146.23891652257893
30
4.1996694698695815e-15
11
470.08298347969225
21
-146.74691652257891
31
4.1996694698695815e-15
0
LINE
5
552
100
AcDbEntity
8
0
100
AcDbLine
10
441.3555834796922
20
-154.01131652257891
30
4.3863056420596386e-15
11
444.4035834796922
21
-154.01131652257891
31
4.0130332976795253e-15
0
LINE
5
553
100
AcDbEntity
8
0
100
AcDbLine
10
463.42818347969222
20
-140.54931652257889
30
4.1996694698695815e-15
11
463.42818347969222
21
-141.36211652257887
31
4.1996694698695815e-15
0
LINE
5
554
100
AcDbEntity
8
0
100
AcDbLine
10
446.20698347969221
20
-152.84291652257892
30
3.7921804939212918e-15
11
446.20698347969221
21
-152.05551652257893
31
3.7921804939212918e-15
0
LINE
5
555
100
AcDbEntity
8
0
100
AcDbLine
10
447.83258347969223
20
-139.25391652257883
30
4.6464206221985381e-15
11
461.8025834796922
21
-139.25391652257883
31
4.6464206221985381e-15
0
LINE
5
556
100
AcDbEntity
8
0
100
AcDbLine
10
470.08298347969225
20
-140.54931652257889
30
4.1996694698695815e-15
11
463.42818347969222
21
-140.54931652257889
31
4.1996694698695815e-15
0
LINE
5
557
100
AcDbEntity
8
0
100
AcDbLine
10
465.23158347969223
20
-152.84291652257889
30
4.1996694698695815e-15
11
463.42818347969222
21
-152.84291652257889
31
4.1996694698695815e-15
0
LINE
5
558
100
AcDbEntity
8
0
100
AcDbLine
10
463.42818347969222
20
-152.84291652257889
30
4.1996694698695815e-15
11
463.42818347969222
21
-152.05551652257893
31
4.1996694698695815e-15
0
CIRCLE
5
559
100
AcDbEntity
8
0
100
AcDbCircle
10
26.235095257749563
20
-29.893507457511145
30
1.6282055196458068e-14
40
1.3499999999999983
210
0
220
0
230
1
0
CIRCLE
5
560
100
AcDbEntity
8
0
100
AcDbCircle
10
26.2537549473344
20
-167.92701416152454
30
6.2883477700497088e-16
40
1.3499999999999979
210
0
220
0
230
1
0
CIRCLE
5
561
100
AcDbEntity
8
0
100
AcDbCircle
10
187.86515904311045
20
-189.54921611155021
30
-2.957431552951791e-15
40
1.3500000000000156
210
0
220
0
230
1
0
CIRCLE
5
562
100
AcDbEntity
8
0
100
AcDbCircle
10
287.74147208588232
20
-168.31985041889988
30
1.7025463211013402e-15
40
1.3500000000000156
210
0
220
0
230
1
0
CIRCLE
5
563
100
AcDbEntity
8
0
100
AcDbCircle
10
524.46530183745597
20
-167.92672660403133
30
5.5378394635388684e-16
40
1.3499999999999801
210
0
220
0
230
1
0
CIRCLE
5
564
100
AcDbEntity
8
0
100
AcDbCircle
10
524.46530183745597
20
-29.893124217198054
30
1.3988616185934397e-14
40
1.3499999999999801
210
0
220
0
230
1
0
CIRCLE
5
565
100
AcDbEntity
8
0
100
AcDbCircle
10
399.90759525774962
20
-29.50000045448483
30
1.6282055196458068e-14
40
1.3499999999999801
210
0
220
0
230
1
0
CIRCLE
5
566
100
AcDbEntity
8
0
100
AcDbCircle
10
275.35009525774967
20
-29.500000387429949
30
1.6282055196458068e-14
40
1.3500000000000156
210
0
220
0
230
1
0
CIRCLE
5
567
100
AcDbEntity
8
0
100
AcDbCircle
10
150.79259525774958
20
-29.500000454485466
30
1.6282055196458068e-14
40
1.3499999999999979
210
0
220
0
230
1
0
CIRCLE
5
568
100
AcDbEntity
8
0
100
AcDbCircle
10
87.988846000338583
20
-168.31985041889988
30
1.5909889765427774e-16
40
1.3499999999999979
210
0
220
0
230
1
0
LWPOLYLINE
5
569
100
AcDbEntity
8
0
100
AcDbPolyline
90
7
70
1
43
0.0
10
87.515879430097797
20
-172.81984651648085
10
21.361604622127246
20
-172.81984651648085
10
21.340902858104158
20
-25.000000402332248
10
529.35842565232451
20
-25.000000402329473
10
529.35842565232451
20
-172.81985041889985
10
288.21445197435128
20
-172.81982667534612
10
187.86515904311045
20
-194.14974878844282
0
CIRCLE
5
570
100
AcDbEntity
8
0
100
AcDbCircle
10
25.858039439781777
20
-121.91505113838855
30
6.2883477700497088e-16
40
1.3499999999999999
210
0
220
0
230
1
0
CIRCLE
5
571
100
AcDbEntity
8
0
100
AcDbCircle
10
25.85544801920534
20
-75.905228435414728
30
-1.1518563880485999e-14
40
1.3500000000000012
210
0
220
0
230
1
0
CIRCLE
5
572
100
AcDbEntity
8
0
100
AcDbCircle
10
524.85842565232451
20
-75.90445755053149
30
1.3988616185934397e-14
40
1.3499999999999968
210
0
220
0
230
1
0
CIRCLE
5
573
100
AcDbEntity
8
0
100
AcDbCircle
10
524.85842565232451
20
-121.91539327069806
30
5.5378394635388684e-16
40
1.3499999999999801
210
0
220
0
230
1
0
CIRCLE
5
574
100
AcDbEntity
8
0
100
AcDbCircle
10
406.33987149101699
20
-168.31985041889988
30
1.126997271603381e-15
40
1.3499999999999801
210
0
220
0
230
1
0
LWPOLYLINE
5
575
100
AcDbEntity
8
0
100
AcDbPolyline
90
8
70
1
43
0.0
10
287.05349682875249
20
-391.84697170960931
10
528.21388992882794
20
-391.84634550862302
10
528.19747050672527
20
-244.02714543659272
10
20.17994771250503
20
-244.0271454365955
10
20.200649476528085
20
-391.84699155074429
10
86.354924284499518
20
-391.84699155074429
10
186.7041981905748
20
-413.17687974067667
10
238.27708190094128
20
-402.21472174488014
0
CIRCLE
5
576
100
AcDbEntity
8
0
100
AcDbCircle
10
186.70420389751129
20
-408.57636114581339
30
-2.957431552951791e-15
40
1.3500000000000156
210
0
220
0
230
1
0
CIRCLE
5
577
100
AcDbEntity
8
0
100
AcDbCircle
10
405.17891634541786
20
-387.346995453163
30
1.126997271603381e-15
40
1.3499999999999801
210
0
220
0
230
1
0
CIRCLE
5
578
100
AcDbEntity
8
0
100
AcDbCircle
10
398.74664011215043
20
-248.52714548874809
30
1.6282055196458068e-14
40
1.3499999999999801
210
0
220
0
230
1
0
CIRCLE
5
579
100
AcDbEntity
8
0
100
AcDbCircle
10
523.30434669185684
20
-248.92026925146129
30
1.3988616185934397e-14
40
1.3499999999999801
210
0
220
0
230
1
0
CIRCLE
5
580
100
AcDbEntity
8
0
100
AcDbCircle
10
523.69747050672527
20
-294.93160258479475
30
1.3988616185934397e-14
40
1.3499999999999968
210
0
220
0
230
1
0
CIRCLE
5
581
100
AcDbEntity
8
0
100
AcDbCircle
10
274.18914011215054
20
-248.52714542169321
30
1.6282055196458068e-14
40
1.3500000000000156
210
0
220
0
230
1
0
CIRCLE
5
582
100
AcDbEntity
8
0
100
AcDbCircle
10
523.69747050672527
20
-340.94253830496132
30
5.5378394635388684e-16
40
1.3499999999999801
210
0
220
0
230
1
0
CIRCLE
5
583
100
AcDbEntity
8
0
100
AcDbCircle
10
523.30434669185684
20
-386.95387163829452
30
5.5378394635388684e-16
40
1.3499999999999801
210
0
220
0
230
1
0
CIRCLE
5
584
100
AcDbEntity
8
0
100
AcDbCircle
10
286.58051694028313
20
-387.346995453163
30
1.7025463211013402e-15
40
1.3500000000000156
210
0
220
0
230
1
0
CIRCLE
5
585
100
AcDbEntity
8
0
100
AcDbCircle
10
149.63164011215042
20
-248.52714548874872
30
1.6282055196458068e-14
40
1.3499999999999979
210
0
220
0
230
1
0
CIRCLE
5
586
100
AcDbEntity
8
0
100
AcDbCircle
10
25.074140112150403
20
-248.92065249177438
30
1.6282055196458068e-14
40
1.3499999999999983
210
0
220
0
230
1
0
CIRCLE
5
587
100
AcDbEntity
8
0
100
AcDbCircle
10
24.697084294182616
20
-340.94219617265185
30
6.2883477700497088e-16
40
1.3499999999999999
210
0
220
0
230
1
0
CIRCLE
5
588
100
AcDbEntity
8
0
100
AcDbCircle
10
25.092799801735239
20
-386.95415919578778
30
6.2883477700497088e-16
40
1.3499999999999979
210
0
220
0
230
1
0
CIRCLE
5
589
100
AcDbEntity
8
0
100
AcDbCircle
10
24.69449287360618
20
-294.93237346967794
30
-1.1518563880485999e-14
40
1.3500000000000012
210
0
220
0
230
1
0
CIRCLE
5
590
100
AcDbEntity
8
0
100
AcDbCircle
10
86.827890854739422
20
-387.346995453163
30
1.5909889765427774e-16
40
1.3499999999999979
210
0
220
0
230
1
0
LWPOLYLINE
5
591
100
AcDbEntity
8
0
100
AcDbPolyline
90
10
70
1
43
0.0
10
4.5605173058811328
20
-411.23189546859464
10
4.5605173058811115
20
-337.32197046031092
10
13.550166900924978
20
-337.32197046031092
10
13.5592570161959
20
-402.23189546859328
10
71.66072852039369
20
-402.23189546859328
10
171.06407250446935
20
-423.36072848435094
10
220.76574449650769
20
-412.79631197647393
10
222.63694971386741
20
-421.59964038307777
10
171.06407250446935
20
-432.56179383813588
10
70.714790403002041
20
-411.23189546859464
0
LWPOLYLINE
5
592
100
AcDbEntity
8
0
100
AcDbPolyline
90
6
70
1
43
0.0
10
168.29279121235928
20
-427.96126116124498
10
169.67843185841431
20
-430.36126116124507
10
172.44971315052453
20
-430.36126116124507
10
173.83535379657971
20
-427.96126116124515
10
172.44971315052467
20
-425.56126116124506
10
169.67843185841446
20
-425.56126116124506
0
LWPOLYLINE
5
593
100
AcDbEntity
8
0
100
AcDbPolyline
90
6
70
1
43
0.0
10
11.828234193251035
20
-360.32709618808337
10
10.442593547195926
20
-357.92709618808362
10
7.6713122550857094
20
-357.92709618808345
10
6.2856716090306008
20
-360.32709618808337
10
7.6713122550857094
20
-362.72709618808335
10
10.442593547195926
20
-362.72709618808335
0
LWPOLYLINE
5
594
100
AcDbEntity
8
0
100
AcDbPolyline
90
6
70
1
43
0.0
10
10.816487066966332
20
-408.75152655138106
10
12.223835740210163
20
-406.36419127708064
10
10.860017081937272
20
-403.95172393691905
10
8.0888497504205947
20
-403.92659187105778
10
6.6815010771767191
20
-406.31392714535809
10
8.0453197354496098
20
-408.72639448551979
0
LWPOLYLINE
5
595
100
AcDbEntity
8
0
100
AcDbPolyline
90
6
70
1
43
0.0
10
68.416478169587407
20
-406.73189546859464
10
69.802118815642444
20
-409.13189546859473
10
72.573400107752661
20
-409.13189546859473
10
73.959040753807841
20
-406.73189546859476
10
72.573400107752803
20
-404.33189546859467
10
69.802118815642586
20
-404.33189546859467
0
LWPOLYLINE
5
596
100
AcDbEntity
8
0
100
AcDbPolyline
90
6
70
1
43
0.0
10
12.892406903113063
20
-14.040764427639676
10
11.507748918817065
20
-11.64019735582885
10
8.736467858992718
20
-11.639062809876766
10
7.3498447834639435
20
-14.038495335735366
10
8.7345027677605529
20
-16.439062407628004
10
11.50578382758443
20
-16.440196953498205
0
LWPOLYLINE
5
597
100
AcDbEntity
8
0
100
AcDbPolyline
90
6
70
1
43
0.0
10
11.116768757590485
20
-62.451350859590931
10
12.502409403645593
20
-60.051350859590983
10
11.116768757590485
20
-57.651350859590963
10
8.345487465480268
20
-57.651350859590991
10
6.9598468194251595
20
-60.051350859590983
10
8.345487465480268
20
-62.451350859590931
0
LWPOLYLINE
5
598
100
AcDbEntity
8
0
100
AcDbPolyline
90
6
70
1
43
0.0
10
136.05333158475585
20
-16.052403021212847
10
137.44987844608158
20
-13.658732855089841
10
136.07517270461639
20
-11.252452712553538
10
133.30392010182433
20
-11.239842736123666
10
131.90737324049547
20
-13.63351290222953
10
133.28207898196067
20
-16.039793044768107
0
LWPOLYLINE
5
599
100
AcDbEntity
8
0
100
AcDbPolyline
90
6
70
1
43
0.0
10
14.226933531895973
20
-83.056047834792878
10
14.228193909834026
20
-18.146122826509114
10
161.7511896286494
20
-18.146122826507582
10
161.7511896286494
20
-9.1461228265075256
10
5.2269334436430981
20
-9.1461228265084493
10
5.2372839368520019
20
-83.056047834792878
0
LWPOLYLINE
5
600
100
AcDbEntity
8
0
100
AcDbPolyline
90
6
70
1
43
0.0
10
411.20690814623629
20
-234.46946907524779
10
412.56652707190381
20
-236.88430579373747
10
415.33764647894253
20
-236.91425962388738
10
416.74914696031078
20
-234.52937673554868
10
415.38952803464326
20
-232.114540017059
10
412.61840862760579
20
-232.08458618690852
0
LWPOLYLINE
5
601
100
AcDbEntity
8
0
100
AcDbPolyline
90
6
70
1
43
0.0
10
211.93559133863474
20
-229.99942285324477
10
543.4288579478482
20
-229.99942285324283
10
543.4288579478482
20
-303.90934786152815
10
534.42885794784979
20
-303.90934786152792
10
534.4288579478482
20
-238.99942285324289
10
211.93559133863474
20
-238.99942285324474
0
LWPOLYLINE
5
602
100
AcDbEntity
8
0
100
AcDbPolyline
90
6
70
1
43
0.0
10
537.54321730179311
20
-278.50388000144471
10
536.15757665573801
20
-280.90388000144469
10
537.54321730179299
20
-283.30388000144472
10
540.31449859390318
20
-283.30388000144478
10
541.70013923995839
20
-280.9038800014448
10
540.31449859390341
20
-278.50388000144471
0
LWPOLYLINE
5
603
100
AcDbEntity
8
0
100
AcDbPolyline
90
6
70
1
43
0.0
10
292.1918087113404
20
-234.49856089597074
10
290.8054216683156
20
-232.0989919832422
10
288.0341405102493
20
-232.09985392561481
10
286.64924639520723
20
-234.50028478071613
10
288.03563343823276
20
-236.89985369344475
10
290.80691459629833
20
-236.89899175107197
0
LWPOLYLINE
5
604
100
AcDbEntity
8
0
100
AcDbPolyline
90
6
70
1
43
0.0
10
537.15009348692445
20
-237.29254666811141
10
539.92137477903475
20
-237.29254666811156
10
541.30701542508984
20
-234.89254666811152
10
539.92137477903486
20
-232.49254666811152
10
537.15009348692456
20
-232.492546668111
10
535.76445284086947
20
-234.89254666811138
0
LWPOLYLINE
5
605
100
AcDbEntity
8
0
100
AcDbPolyline
90
8
70
1
43
0.0
10
303.13366842075573
20
-399.09784728214959
10
536.22359104589304
20
-399.09784728214959
10
536.22359104589304
20
-334.18792227386461
10
545.22359104589304
20
-334.1879222738649
10
545.22359104589304
20
-408.09784728214947
10
304.07960653814689
20
-408.09784728214947
10
255.30320164607761
20
-418.46559219663095
10
253.43199642871775
20
-409.66226379002677
0
LWPOLYLINE
5
606
100
AcDbEntity
8
0
100
AcDbPolyline
90
6
70
1
43
0.0
10
423.5906775306409
20
-401.1978472821495
10
420.81939623853066
20
-401.19784728215041
10
419.43375559247551
20
-403.59784728214947
10
420.81939623853054
20
-405.99784728214956
10
423.59067753064073
20
-405.99784728214956
10
424.97631817669594
20
-403.59784728214959
0
LWPOLYLINE
5
607
100
AcDbEntity
8
0
100
AcDbPolyline
90
6
70
1
43
0.0
10
541.69795088809872
20
-405.61511522955442
10
543.10166955876309
20
-403.22564376213137
10
541.73418590168887
20
-400.81525199985805
10
538.96298357395028
20
-400.79433170500778
10
537.55926490328602
20
-403.18380317243066
10
538.92674856036012
20
-405.59419493470398
0
LWPOLYLINE
5
608
100
AcDbEntity
8
0
100
AcDbPolyline
90
6
70
1
43
0.0
10
539.33795039983784
20
-359.59339013394782
10
542.10923169194803
20
-359.59339013394799
10
543.49487233800323
20
-357.19339013394801
10
542.10923169194825
20
-354.79339013394792
10
539.33795039983795
20
-354.79339013394724
10
537.95230975378286
20
-357.1933901339479
0
LWPOLYLINE
5
609
100
AcDbEntity
8
0
100
AcDbPolyline
90
6
70
1
43
0.0
10
304.99227812550635
20
-405.99784728214956
10
306.37791877156155
20
-403.59784728214959
10
304.99227812550652
20
-401.1978472821495
10
302.22099683339627
20
-401.1978472821495
10
300.83535618734112
20
-403.59784728214947
10
302.22099683339616
20
-405.99784728214956
0
LWPOLYLINE
5
610
100
AcDbEntity
8
0
100
AcDbPolyline
90
6
70
1
43
0.0
10
163.1651254043137
20
-230.45817954140031
10
163.1651254043137
20
-239.45817954140037
10
15.642129685498318
20
-239.45817954140122
10
15.640869307560266
20
-304.3681045496869
10
6.6512197125162942
20
-304.3681045496869
10
6.6408692193073904
20
-230.45817954140122
0
LWPOLYLINE
5
611
100
AcDbEntity
8
0
100
AcDbPolyline
90
6
70
1
43
0.0
10
137.48910848028066
20
-232.56450942744632
10
134.7178558774886
20
-232.55189945101645
10
133.32130901615977
20
-234.94556961712232
10
134.69601475762556
20
-237.35184975966092
10
137.46726736042029
20
-237.36445973609509
10
138.86381422174588
20
-234.97078956998263
0
LWPOLYLINE
5
612
100
AcDbEntity
8
0
100
AcDbPolyline
90
6
70
1
43
0.0
10
13.916345179309886
20
-281.36340757448374
10
12.530704533254777
20
-278.96340757448377
10
9.7594232411445603
20
-278.96340757448405
10
8.3737825950894518
20
-281.36340757448374
10
9.7594232411445603
20
-283.76340757448372
10
12.530704533254777
20
-283.76340757448372
0
LWPOLYLINE
5
613
100
AcDbEntity
8
0
100
AcDbPolyline
90
6
70
1
43
0.0
10
12.919719603248723
20
-237.75225366839098
10
14.306342678777355
20
-235.35282114253246
10
12.921684694481357
20
-232.95225407072164
10
10.15040363465701
20
-232.95111952476955
10
8.7637805591282358
20
-235.35055205062815
10
10.148438543424589
20
-237.75111912252103
0
LWPOLYLINE
5
614
100
AcDbEntity
8
0
100
AcDbPolyline
90
10
70
1
43
0.0
10
171.49218193830379
20
-207.91306608977166
10
72.0888379542275
20
-186.78423307401403
10
13.987366450030194
20
-186.78423307401403
10
13.978276334759272
20
-121.87430806573019
10
4.9886267397153006
20
-121.87430806573019
10
4.9886267397153006
20
-195.78423307401394
10
71.142899836836335
20
-195.78423307401394
10
171.49218193830379
20
-217.11413144355697
10
223.0650591477017
20
-206.15197798849707
10
221.19385393034193
20
-197.34864958189286
0
LWPOLYLINE
5
615
100
AcDbEntity
8
0
100
AcDbPolyline
90
6
70
1
43
0.0
10
7.109610511011013
20
-190.86626475077736
10
8.4734291692839037
20
-193.278732090939
10
11.244596500800625
20
-193.30386415680033
10
12.651945174044457
20
-190.91652888249996
10
11.288126515771566
20
-188.50406154233832
10
8.5169591842548442
20
-188.47892947647699
0
LWPOLYLINE
5
616
100
AcDbEntity
8
0
100
AcDbPolyline
90
6
70
1
43
0.0
10
10.87070298103022
20
-147.27943379350265
10
12.256343627085329
20
-144.8794337935027
10
10.87070298103022
20
-142.47943379350261
10
8.0994216889200032
20
-142.47943379350266
10
6.7137810428648947
20
-144.8794337935027
10
8.0994216889200032
20
-147.27943379350265
0
LWPOLYLINE
5
617
100
AcDbEntity
8
0
100
AcDbPolyline
90
6
70
1
43
0.0
10
68.844587603421701
20
-191.28423307401391
10
70.230228249476738
20
-193.684233074014
10
73.001509541586955
20
-193.684233074014
10
74.387150187642135
20
-191.28423307401405
10
73.001509541587097
20
-188.88423307401396
10
70.23022824947688
20
-188.88423307401396
0
LWPOLYLINE
5
618
100
AcDbEntity
8
0
100
AcDbPolyline
90
6
70
1
43
0.0
10
168.72090064619357
20
-212.51359876666427
10
170.10654129224861
20
-214.91359876666436
10
172.87782258435882
20
-214.91359876666436
10
174.263463230414
20
-212.51359876666442
10
172.87782258435897
20
-210.11359876666432
10
170.10654129224875
20
-210.11359876666432
0
LWPOLYLINE
5
619
100
AcDbEntity
8
0
100
AcDbPolyline
90
6
70
1
43
0.0
10
213.20953843405556
20
-18.97879180446882
10
535.70280504326911
20
-18.97879180446683
10
535.70280504326922
20
-83.888716812751937
10
544.70280504326934
20
-83.888716812751937
10
544.70280504326911
20
-9.9787918044667734
10
213.20953843405556
20
-9.978791804468834
0
LWPOLYLINE
5
620
100
AcDbEntity
8
0
100
AcDbPolyline
90
6
70
1
43
0.0
10
289.3080876056701
20
-12.07922287683882
10
287.92319349062802
20
-14.479653731940125
10
289.30958053365282
20
-16.879222644668666
10
292.08086169171912
20
-16.878360702295971
10
293.46575580676125
20
-14.477929847194737
10
292.07936876373645
20
-12.078360934466197
0
LWPOLYLINE
5
621
100
AcDbEntity
8
0
100
AcDbPolyline
90
6
70
1
43
0.0
10
412.48085524165708
20
-14.448838026471797
10
413.84047416732466
20
-16.863674744961479
10
416.61159357436213
20
-16.893628575111954
10
418.02309405573175
20
-14.508745686772677
10
416.66347513006423
20
-12.093908968282996
10
413.89235572302658
20
-12.063955138132521
0
LWPOLYLINE
5
622
100
AcDbEntity
8
0
100
AcDbPolyline
90
6
70
1
43
0.0
10
537.03839993629038
20
-14.871915619335319
10
538.42404058234547
20
-17.271915619335338
10
541.19532187445566
20
-17.271915619335481
10
542.58096252051087
20
-14.871915619335461
10
541.19532187445577
20
-12.471915619335441
10
538.42404058234558
20
-12.47191561933537
0
LWPOLYLINE
5
623
100
AcDbEntity
8
0
100
AcDbPolyline
90
6
70
1
43
0.0
10
538.8171643972139
20
-63.283248952668707
10
541.5884456893242
20
-63.283248952668778
10
542.9740863353793
20
-60.883248952668829
10
541.58844568932432
20
-58.483248952668738
10
538.81716439721413
20
-58.483248952668738
10
537.43152375115892
20
-60.883248952668687
0
LWPOLYLINE
5
624
100
AcDbEntity
8
0
100
AcDbPolyline
90
6
70
1
43
0.0
10
538.72796406533337
20
-186.70343039090193
10
541.49916639307185
20
-186.72435068575231
10
542.90288506373622
20
-184.33487921832926
10
541.535401406662
20
-181.92448745605594
10
538.76419907892353
20
-181.90356716120567
10
537.36048040825915
20
-184.29303862862861
0
LWPOLYLINE
5
625
100
AcDbEntity
8
0
100
AcDbPolyline
90
6
70
1
43
0.0
10
543.29608784297636
20
-138.30262559014591
10
541.91044719692138
20
-135.90262559014582
10
539.13916590481119
20
-135.90262559014533
10
537.75352525875599
20
-138.30262559014579
10
539.13916590481097
20
-140.70262559014571
10
541.91044719692127
20
-140.70262559014589
0
LWPOLYLINE
5
626
100
AcDbEntity
8
0
100
AcDbPolyline
90
8
70
1
43
0.0
10
536.02480655086617
20
-115.29715773006254
10
536.02480655086617
20
-180.20708273834748
10
302.93488392572897
20
-180.20708273834745
10
253.23321193369094
20
-190.77149924622529
10
255.10441715105074
20
-199.57482765282944
10
303.88082204312013
20
-189.20708273834737
10
545.02480655086617
20
-189.20708273834742
10
545.02480655086617
20
-115.29715773006261
0
LWPOLYLINE
5
627
100
AcDbEntity
8
0
100
AcDbPolyline
90
6
70
1
43
0.0
10
420.62061174350379
20
-187.10708273834746
10
423.39189303561398
20
-187.10708273834746
10
424.77753368166918
20
-184.70708273834754
10
423.39189303561409
20
-182.30708273834745
10
420.6206117435039
20
-182.30708273834784
10
419.23497109744869
20
-184.70708273834737
0
LWPOLYLINE
5
628
100
AcDbEntity
8
0
100
AcDbPolyline
90
6
70
1
43
0.0
10
302.0222123383694
20
-187.10708273834743
10
304.79349363047959
20
-187.10708273834743
10
306.1791342765348
20
-184.70708273834748
10
304.7934936304797
20
-182.30708273834739
10
302.02221233836951
20
-182.30708273834739
10
300.63657169231431
20
-184.70708273834734
0
CIRCLE
5
629
100
AcDbEntity
8
0
100
AcDbCircle
10
146.05486643697765
20
120.37193455673585
30
1.6282055196458068e-14
40
1.3499999999999979
210
0
220
0
230
1
0
LWPOLYLINE
5
630
100
AcDbEntity
8
0
100
AcDbPolyline
90
4
70
1
43
0.0
10
524.62069683155255
20
124.87193460889185
10
16.603174037332284
20
124.87193460888906
10
16.603174037332497
20
84.871935001153744
10
524.62513367284589
20
84.928364930340791
0
CIRCLE
5
631
100
AcDbEntity
8
0
100
AcDbCircle
10
21.497366436977643
20
119.97842755371018
30
1.6282055196458068e-14
40
1.3499999999999983
210
0
220
0
230
1
0
CIRCLE
5
632
100
AcDbEntity
8
0
100
AcDbCircle
10
270.61236643697777
20
120.37193462379136
30
1.6282055196458068e-14
40
1.3500000000000156
210
0
220
0
230
1
0
CIRCLE
5
633
100
AcDbEntity
8
0
100
AcDbCircle
10
395.16986643697771
20
120.37193455673648
30
1.6282055196458068e-14
40
1.3499999999999801
210
0
220
0
230
1
0
CIRCLE
5
634
100
AcDbEntity
8
0
100
AcDbCircle
10
519.727573016684
20
119.97881079402326
30
1.3988616185934397e-14
40
1.3499999999999801
210
0
220
0
230
1
0
CIRCLE
5
635
100
AcDbEntity
8
0
100
AcDbCircle
10
144.81051324553434
20
73.437643066891127
30
1.6282055196458068e-14
40
1.3499999999999979
210
0
220
0
230
1
0
CIRCLE
5
636
100
AcDbEntity
8
0
100
AcDbCircle
10
269.36801324553443
20
73.437643133946651
30
1.6282055196458068e-14
40
1.3500000000000156
210
0
220
0
230
1
0
CIRCLE
5
637
100
AcDbEntity
8
0
100
AcDbCircle
10
393.92551324553438
20
73.437643066891781
30
1.6282055196458068e-14
40
1.3499999999999801
210
0
220
0
230
1
0
CIRCLE
5
638
100
AcDbEntity
8
0
100
AcDbCircle
10
518.48321982524067
20
73.04451930417855
30
1.3988616185934397e-14
40
1.3499999999999801
210
0
220
0
230
1
0
CIRCLE
5
639
100
AcDbEntity
8
0
100
AcDbCircle
10
20.253013245534319
20
73.044136063865466
30
1.6282055196458068e-14
40
1.3499999999999983
210
0
220
0
230
1
0
LWPOLYLINE
5
640
100
AcDbEntity
8
0
100
AcDbPolyline
90
4
70
1
43
0.0
10
523.37634364010921
20
77.937643119047294
10
15.358820845888964
20
77.937643119044367
10
15.35882084588934
20
7.9376431190443597
10
523.37634364010955
20
7.9376431190472996
0
ENDSEC
0
SECTION
2
OBJECTS
0
DICTIONARY
5
C
100
AcDbDictionary
3
ACAD_GROUP
350
D
3
ACAD_MLINESTYLE
350
17
0
DICTIONARY
5
D
100
AcDbDictionary
0
DICTIONARY
5
1A
330
C
100
AcDbDictionary
0
DICTIONARY
5
17
100
AcDbDictionary
0
ENDSEC
0
EOF
